<svg width="200" height="200" viewBox="0 0 200 200" fill="none" xmlns="http://www.w3.org/2000/svg">
<path d="M100 200C155.228 200 200 155.228 200 100C200 44.7715 155.228 0 100 0C44.7715 0 0 44.7715 0 100C0 155.228 44.7715 200 100 200Z" fill="url(#paint0_linear_1335:28332)"/>
<path d="M145.061 116.158H81.8295V81.7641H72.2609V120.893C72.2694 121.522 72.4023 122.143 72.652 122.721C72.9016 123.298 73.263 123.82 73.7153 124.257C74.1677 124.694 74.7021 125.038 75.2876 125.267C75.8732 125.497 76.4985 125.608 77.1274 125.595H132.401L120.992 135.624H59.7001V78.9034H122.8C124.003 78.9174 125.17 78.4971 126.088 77.7197L148.349 58.2537C149.085 57.6345 149.61 56.8019 149.851 55.871C150.093 54.9402 150.039 53.9573 149.697 53.0585C149.325 52.1526 148.692 51.378 147.878 50.8334C147.064 50.2888 146.106 49.9988 145.127 50.0005H77.1274C76.4969 49.9918 75.8709 50.1073 75.2851 50.3406C74.6994 50.5739 74.1653 50.9202 73.7134 51.3599C73.2615 51.7996 72.9006 52.324 72.6514 52.9032C72.4021 53.4824 72.2695 54.105 72.2609 54.7354V66.5071H81.8295V59.4704H132.401L120.992 69.3349H54.8665C54.236 69.3262 53.61 69.4418 53.0243 69.675C52.4385 69.9083 51.9044 70.2546 51.4525 70.6943C51.0006 71.134 50.6397 71.6584 50.3905 72.2376C50.1413 72.8168 50.0086 73.4394 50 74.0698V140.195C50.0086 140.825 50.1413 141.448 50.3905 142.027C50.6397 142.606 51.0006 143.131 51.4525 143.57C51.9044 144.01 52.4385 144.356 53.0243 144.59C53.61 144.823 54.236 144.939 54.8665 144.93H122.8C124.009 144.947 125.181 144.513 126.088 143.713L148.283 124.51C149.011 123.885 149.531 123.053 149.771 122.124C150.012 121.195 149.964 120.215 149.631 119.315C149.275 118.391 148.648 117.595 147.833 117.032C147.018 116.469 146.052 116.165 145.061 116.158V116.158Z" fill="#FE4350"/>
<defs>
<linearGradient id="paint0_linear_1335:28332" x1="100" y1="0" x2="100" y2="200" gradientUnits="userSpaceOnUse">
<stop stop-color="#183C74"/>
<stop offset="1" stop-color="#050516"/>
</linearGradient>
</defs>
</svg>
