<svg width="200" height="200" viewBox="0 0 200 200" fill="none" xmlns="http://www.w3.org/2000/svg">
<path d="M100 200C155.228 200 200 155.228 200 100C200 44.7715 155.228 0 100 0C44.7715 0 0 44.7715 0 100C0 155.228 44.7715 200 100 200Z" fill="url(#paint0_linear_269_1400)"/>
<path fill-rule="evenodd" clip-rule="evenodd" d="M104.437 37.5C114.844 37.4937 125.078 40.1659 134.152 45.2592C143.227 50.3525 150.836 57.6954 156.247 66.5805C152.062 66.5209 147.907 67.2933 144.023 68.8528C140.14 70.4122 136.605 72.7276 133.624 75.6643C130.644 78.6009 128.277 82.1007 126.661 85.9596C125.046 89.8185 124.214 93.9601 124.214 98.1432C124.214 102.326 125.046 106.468 126.661 110.326C128.277 114.186 130.644 117.685 133.624 120.622C136.605 123.559 140.14 125.874 144.023 127.434C147.907 128.993 152.062 129.765 156.247 129.706C150.736 138.745 142.954 146.185 133.673 151.286C124.394 156.387 113.939 158.972 103.35 158.783C92.7609 158.595 82.4053 155.64 73.313 150.211C64.2206 144.783 56.708 137.072 51.5222 127.842C46.3362 118.613 43.6576 108.188 43.7524 97.6031C43.8473 87.0188 46.7124 76.6431 52.0629 67.5082C57.4133 58.3733 65.0628 50.7971 74.251 45.5326C83.4392 40.2682 93.846 37.4989 104.437 37.5Z" fill="#FFC780"/>
<path fill-rule="evenodd" clip-rule="evenodd" d="M156.255 66.5499C152.07 66.4903 147.915 67.2627 144.031 68.8221C140.148 70.3815 136.613 72.6969 133.632 75.6337C130.651 78.5705 128.285 82.0699 126.669 85.9288C125.054 89.7881 124.222 93.9293 124.222 98.1124C124.222 102.296 125.054 106.437 126.669 110.296C128.285 114.155 130.651 117.654 133.632 120.591C136.613 123.528 140.148 125.843 144.031 127.403C147.915 128.962 152.07 129.735 156.255 129.675L156.07 129.982C149.902 135.572 142.243 139.249 134.023 140.566C125.803 141.883 117.377 140.784 109.771 137.402C102.165 134.02 95.7059 128.501 91.181 121.518C86.656 114.534 84.26 106.385 84.2844 98.0652C84.3087 89.745 86.7525 81.6115 91.3185 74.654C95.8841 67.6966 102.375 62.2158 110.001 58.8785C117.627 55.5412 126.059 54.4913 134.271 55.8567C142.483 57.2222 150.121 60.9439 156.255 66.5691V66.5499Z" fill="url(#paint1_linear_269_1400)"/>
<defs>
<linearGradient id="paint0_linear_269_1400" x1="100" y1="0" x2="100" y2="200" gradientUnits="userSpaceOnUse">
<stop stop-color="#6A3524"/>
<stop offset="1" stop-color="#1D0E09"/>
</linearGradient>
<linearGradient id="paint1_linear_269_1400" x1="120.256" y1="141.109" x2="120.256" y2="55.2508" gradientUnits="userSpaceOnUse">
<stop stop-color="#FFC780"/>
<stop offset="1" stop-color="#964B48"/>
</linearGradient>
</defs>
</svg>
