<svg width="200" height="200" viewBox="0 0 200 200" fill="none" xmlns="http://www.w3.org/2000/svg">
<path d="M100 200C155.228 200 200 155.228 200 100C200 44.7715 155.228 0 100 0C44.7715 0 0 44.7715 0 100C0 155.228 44.7715 200 100 200Z" fill="url(#paint0_linear_1379_28456)"/>
<path fill-rule="evenodd" clip-rule="evenodd" d="M119.684 48.1356C127.624 53.0754 135.607 59.4755 142.039 66.7769C155.61 78.6339 166.256 94.3128 164.172 110.593C162.441 123.866 150.466 142.123 121.812 153.591C117.503 155.332 113.072 156.754 108.554 157.846H108.549C107.884 158.149 107.222 158.449 106.557 158.708C96.3964 162.739 86.4182 164.889 77.7255 164.889C70.0498 164.889 63.7532 163.17 59.5398 159.949C50.3127 152.906 45.8777 134.863 46.2766 106.298C46.6756 78.9787 50.3152 62.0537 57.6313 53.8929C60.1604 45.3874 63.7975 39.8467 68.6314 36.968C78.612 30.9964 99.5903 35.5939 119.684 48.1356ZM74.8862 150.37C75.5511 151.101 76.216 151.699 76.9252 152.261C83.1357 156.984 94.4017 157.757 107.443 154.709C124.341 147.493 134.809 137.914 140.441 128.763C133.834 134.863 124.962 140.618 113.385 145.257C103.227 149.296 93.2493 151.443 84.5541 151.443C81.0081 151.443 77.7699 151.057 74.8862 150.37ZM71.6923 145.775C80.651 149.897 95.9088 148.651 112.1 142.165C127.934 135.809 138.4 127.389 144.699 119.056C145.056 117.724 145.322 116.478 145.455 115.276C148.026 95.2141 129.352 75.7995 110.992 64.3291C98.2162 56.3407 85.2658 51.6594 75.4181 51.0561C68.8087 58.5742 65.3957 75.0682 64.9918 101.232C64.6815 122.107 66.9446 137.013 71.6899 145.777L71.6923 145.775ZM149.136 111.925C150.909 108.403 151.929 104.966 152.33 101.828C153.793 90.2743 148.203 78.8925 139.732 69.2271C135.545 65.559 131.064 62.2399 126.336 59.3031C112.986 50.9724 98.8835 45.9907 88.5483 45.9907C84.559 45.9907 81.3183 46.7221 78.9248 48.138L78.8361 48.1824C88.8586 49.5121 101.014 54.1515 112.856 61.5415C130.953 72.8371 149.36 91.7395 149.139 111.927L149.136 111.925ZM71.1161 51.1004C68.1439 51.3147 65.6148 52.0017 63.6202 53.2059C62.5644 53.8362 61.5951 54.601 60.7366 55.4813C58.1632 64.4153 56.7892 76.8313 56.5675 92.8525C56.2129 117.766 59.4955 134.218 66.324 141.822C62.911 132.329 61.3128 118.756 61.5788 101.186C61.9334 76.228 64.9943 59.9508 71.1161 51.1004ZM73.9086 47.7933C74.8714 46.8397 75.9435 46.0032 77.1025 45.3012C85.1303 40.4476 100.435 42.553 116.668 50.1992C103.673 42.2945 90.0972 37.6132 80.1191 37.6132C76.1274 37.6132 72.8891 38.3421 70.4956 39.8049C67.3903 41.6517 64.7727 45.0008 62.7312 49.8963C65.7035 48.3941 69.5179 47.7046 73.9111 47.7933H73.9086ZM66.4127 146.462C57.1881 139.416 52.7088 121.376 53.152 92.8106C53.285 81.8992 53.9942 72.6204 55.2353 64.8881C51.8222 73.9945 50.0024 87.6985 49.7365 106.298C49.3376 133.787 53.3293 150.926 61.6674 157.329C67.8336 162.01 79.0528 162.828 92.05 159.776C84.8201 159.604 78.8755 157.93 74.8419 154.837C72.7118 153.204 70.8502 151.015 69.252 148.264C68.2325 147.708 67.3017 147.107 66.4127 146.462ZM155.701 102.259C154.99 107.758 152.549 114.116 147.848 120.472C145.366 129.106 138.757 139.113 126.646 147.836C149.446 136.927 159.25 121.546 160.713 110.208C161.909 101.058 158.627 91.9931 152.951 83.788C155.389 89.7177 156.497 95.9454 155.701 102.259Z" fill="white"/>
<defs>
<linearGradient id="paint0_linear_1379_28456" x1="100" y1="0" x2="100" y2="200" gradientUnits="userSpaceOnUse">
<stop stop-color="#FF7B61"/>
<stop offset="1" stop-color="#E05A41"/>
</linearGradient>
</defs>
</svg>
