<svg width="200" height="200" viewBox="0 0 200 200" fill="none" xmlns="http://www.w3.org/2000/svg">
<path d="M100 200C155.228 200 200 155.228 200 100C200 44.7715 155.228 0 100 0C44.7715 0 0 44.7715 0 100C0 155.228 44.7715 200 100 200Z" fill="url(#paint0_linear_409_1461)"/>
<path opacity="0.95" d="M92.4762 62.5H54.9945C52.0123 62.5 49.1522 63.6848 47.0434 65.7935C44.9347 67.9022 43.75 70.7625 43.75 73.7445V126.219C43.7543 128.599 44.5136 130.916 45.9187 132.837C47.3237 134.758 49.302 136.184 51.5689 136.909C53.8357 137.634 56.2741 137.621 58.5332 136.872C60.7922 136.123 62.7555 134.676 64.14 132.741L101.622 80.2663C102.819 78.5856 103.53 76.6077 103.678 74.5496C103.825 72.4915 103.404 70.4326 102.459 68.5979C101.515 66.7635 100.084 65.2242 98.3233 64.1484C96.5624 63.0731 94.5396 62.5026 92.4762 62.5ZM62.4908 88.7372C61.0081 88.7372 59.559 88.2975 58.3261 87.4737C57.0933 86.6502 56.1325 85.4793 55.5651 84.1097C54.9978 82.7397 54.8493 81.2326 55.1385 79.7783C55.4278 78.3244 56.1417 76.9885 57.1901 75.9402C58.2385 74.8918 59.5744 74.1778 61.0283 73.8884C62.4826 73.5995 63.9897 73.7479 65.3597 74.315C66.7293 74.8824 67.9002 75.8435 68.7237 77.0763C69.5475 78.309 69.9872 79.7581 69.9872 81.2408C69.9872 83.2289 69.1974 85.1356 67.7915 86.5415C66.3856 87.9474 64.4789 88.7372 62.4908 88.7372Z" fill="black"/>
<path opacity="0.95" d="M120.609 133.695C125.785 133.695 129.98 129.499 129.98 124.324C129.98 119.149 125.785 114.954 120.609 114.954C115.434 114.954 111.239 119.149 111.239 124.324C111.239 129.499 115.434 133.695 120.609 133.695Z" fill="black"/>
<path opacity="0.95" d="M156.25 73.7445V126.219C156.254 129.025 155.209 131.731 153.32 133.806C151.431 135.881 148.835 137.174 146.04 137.433C143.246 137.691 140.457 136.896 138.219 135.202C135.982 133.508 134.459 131.04 133.948 128.28C133.828 127.6 133.766 126.91 133.761 126.219V117.673C133.741 115.299 132.97 112.993 131.559 111.084C130.149 109.175 128.17 107.762 125.907 107.046C123.643 106.331 121.212 106.35 118.96 107.101C116.708 107.851 114.752 109.296 113.371 111.226L107.524 119.435L98.1159 132.628C96.3213 134.91 93.7145 136.409 90.84 136.812C87.9655 137.216 85.0468 136.492 82.6937 134.793C80.3406 133.093 78.736 130.55 78.215 127.695C77.6944 124.839 78.2979 121.893 79.8998 119.472L117.382 66.9978C118.417 65.6162 119.757 64.4921 121.298 63.7122C122.838 62.9322 124.538 62.5172 126.265 62.5H145.006C147.988 62.5 150.848 63.6848 152.957 65.7935C155.065 67.9022 156.25 70.7625 156.25 73.7445Z" fill="white"/>
<defs>
<linearGradient id="paint0_linear_409_1461" x1="100" y1="0" x2="100" y2="200" gradientUnits="userSpaceOnUse">
<stop stop-color="#FFD161"/>
<stop offset="1" stop-color="#FABA1C"/>
</linearGradient>
</defs>
</svg>
