<svg xmlns="http://www.w3.org/2000/svg" width="32" height="32" fill="none" viewBox="0 0 32 32">
    <path fill="url(#paint0_linear)" d="M16 32c8.837 0 16-7.163 16-16S24.837 0 16 0 0 7.163 0 16s7.163 16 16 16z"/>
    <path stroke="#fff" stroke-width=".5" d="M16 31.75c8.698 0 15.75-7.052 15.75-15.75S24.698.25 16 .25.25 7.302.25 16 7.302 31.75 16 31.75z"/>
    <path fill="#5E12A0" d="M25.192 8.75c-.205-.777-.864-1.554-2.05-2.418-.953-.688-1.963-1.084-2.769-1.084-.161 0-.308.015-.454.044-.366.073-.689.337-.894.732-.249.47-.307 1.1-.146 1.48.058.117.132.264.22.396-.777.468-1.216.6-1.275.615 2.021.674 3.706 2.08 4.76 3.911l.016-.176c.043-.483.19-1.04.395-1.611.205.059.41.088.615.088.542 0 1.011-.22 1.304-.616.293-.395.41-.922.278-1.362z"/>
    <path fill="url(#paint1_radial)" d="M23.083 10.217c1.333.366 1.875-.66 1.7-1.348-.191-.688-.806-1.391-1.89-2.182-1.084-.791-2.183-1.114-2.886-.967-.703.146-.908 1.216-.733 1.626.074.161.235.395.455.66-.279.19-.542.336-.762.468 1.348.6 2.52 1.538 3.398 2.71.103-.396.25-.747.381-1.055.103.015.22.044.337.088z"/>
    <path fill="url(#paint2_radial)" d="M15.45 24.57c4.523 0 8.19-3.666 8.19-8.188 0-4.523-3.667-8.189-8.19-8.189-4.522 0-8.188 3.666-8.188 8.189 0 4.522 3.666 8.188 8.189 8.188z"/>
    <path fill="#A98698" d="M24.108 8.195c-1.114-1.172-2.051-1.48-3.18-1.729-.878-.205-.644-.703.426-.6-.513-.176-.996-.22-1.348-.146-.703.146-.908 1.215-.732 1.625.073.162.234.396.454.66-.396.263-.733.454-1.011.6.132.059.293.132.483.235.498.263 1.04.703 1.04.703-.82-.704-.644-1.026.484-1.817.351-.249.996-.22 1.596.088.601.308 1.304 1.084 1.304 1.084l-.674 1.29.132.043c.425.117.762.088 1.026-.014.307-.19 1.113-.835 0-2.022z" opacity=".6"/>
    <path fill="#5E12A0" d="M20.914 7.17c.293.117.674.322 1.143.63.556.366 1.04.776 1.347 1.098-.512.674-.85 1.597-1.054 2.242.102.146.22.292.322.439.103-.366.278-.909.513-1.45.058.014.132.014.205.014.176 0 .38-.03.542-.161.117-.088.249-.249.234-.542 0-.278-.22-.63-.674-1.054-.322-.308-.761-.645-1.2-.953-1.26-.835-2.14-1.069-2.535-.674-.264.264-.235.586-.147.82-.468.308-.864.528-1.128.675.176.058.338.132.513.205.469-.25 1.143-.674 1.92-1.29zm2.769 2.094c.044.074.058.147.058.19 0 .133-.043.177-.073.206-.058.044-.176.073-.278.073.088-.176.19-.322.293-.469zm-3.618-2.182c.044-.044.16-.073.351-.044-.146.117-.293.22-.44.322-.014-.103 0-.205.089-.278z"/>
    <path fill="#5E12A0" d="M15.45 7.71c-4.79 0-8.673 3.883-8.673 8.673s3.882 8.672 8.672 8.672c4.79 0 8.672-3.882 8.672-8.672 0-4.79-3.896-8.672-8.672-8.672zm0 16.862c-4.527 0-8.19-3.663-8.19-8.19 0-4.526 3.663-8.188 8.19-8.188 4.526 0 8.188 3.663 8.188 8.189 0 4.527-3.677 8.189-8.189 8.189z"/>
    <path fill="url(#paint3_linear)" d="M15.45 24.57c4.523 0 8.19-3.666 8.19-8.188 0-4.523-3.667-8.189-8.19-8.189-4.522 0-8.188 3.666-8.188 8.189 0 4.522 3.666 8.188 8.189 8.188z" opacity=".6"/>
    <path fill="#A98698" d="M15.392 23.574c-4.467-.717-7.5-4.921-6.767-9.39.322-1.977 1.318-3.662 2.724-4.877-2.05 1.186-3.574 3.252-3.984 5.77-.718 4.47 2.314 8.673 6.768 9.391 2.49.41 4.892-.366 6.665-1.89-1.568.909-3.472 1.304-5.406.996z" opacity=".6"/>
    <path fill="url(#paint4_linear)" d="M16.754 8.311c-2.066-.337-4.072.132-5.713 1.172l-.059.059c.63-.381 1.553-.718 1.553-.718-2.373 1.377-3.105 2.944-3.105 2.944.922-1.787 3.632-3.047 5.757-3.135 2.124-.088 3.515.542 5.214 1.905 1.7 1.377 2.725 4.19 2.623 6.416-.088 2.226-1.26 4.028-1.26 4.028.806-1.04 1.289-1.802 1.597-2.578.058-.235.117-.469.146-.718.732-4.453-2.285-8.657-6.753-9.375z" opacity=".6"/>
    <path fill="url(#paint5_linear)" d="M23.23 16.309c0 4.292-3.487 7.778-7.779 7.778s-7.793-3.486-7.793-7.778H23.23z"/>
    <path fill="url(#paint6_linear)" d="M22.613 16.309c0 4.19-3.31 7.617-7.47 7.778h.307c4.292 0 7.779-3.486 7.779-7.778h-.616z" opacity=".6"/>
    <path fill="url(#paint7_linear)" d="M8.755 16.309H7.656c0 4.292 3.487 7.778 7.779 7.778.19 0 .366 0 .542-.015-4.029-.293-7.222-3.662-7.222-7.763z" opacity=".7"/>
    <path fill="url(#paint8_linear)" d="M23.215 16.381c0-.893-1.553-1.406-3.618-1.582-1.494-.117-3.003.03-4.732.557-1.494.44-2.841.366-3.823.25-2.182-.25-3.384-.279-3.384.775 0 1.524 3.106 3.428 7.764 2.769 2.359-.337 3.574-1.025 4.966-1.494 1.509-.498 2.827-.483 2.827-1.274z"/>
    <path fill="#fff" d="M18 12.69c.728 0 1.319-.59 1.319-1.319 0-.728-.59-1.318-1.319-1.318-.728 0-1.318.59-1.318 1.318 0 .728.59 1.319 1.318 1.319zm2.154.981c.307 0 .556-.25.556-.556 0-.308-.25-.557-.556-.557-.308 0-.557.25-.557.557 0 .307.25.556.556.556z"/>
    <path fill="url(#paint9_linear)" d="M22.146 10.317h-.03c-.087-.015-.146-.103-.131-.205.131-.674.688-1.319.718-1.348.058-.073.175-.073.234-.015.073.059.073.176.015.235-.015.015-.528.615-.645 1.201-.015.088-.088.132-.161.132z" opacity=".6"/>
    <path fill="#fff" d="M20.372 5.249c.82 0 1.831.396 2.769 1.084 1.187.864 1.846 1.626 2.05 2.417.118.454.016.967-.277 1.348-.308.395-.762.615-1.304.615-.19 0-.396-.03-.616-.088-.131.337-.234.674-.307.996.893 1.363 1.42 3.003 1.42 4.761 0 4.79-3.881 8.672-8.671 8.672-4.79 0-8.658-3.882-8.658-8.672 0-4.79 3.882-8.672 8.672-8.672 1.055 0 2.066.19 3.003.542.176-.088.396-.205.645-.352-.088-.131-.176-.263-.22-.395-.16-.396-.102-1.01.147-1.48.205-.38.512-.644.893-.732.132-.03.293-.044.454-.044zm0-.249c-.175 0-.351.015-.512.059-.44.102-.82.395-1.07.864-.278.542-.351 1.245-.16 1.7.029.058.058.131.102.204-.103.059-.205.117-.308.161-.967-.337-1.963-.512-2.988-.512-1.201 0-2.373.234-3.472.703-1.07.454-2.022 1.099-2.842 1.919-.82.82-1.465 1.772-1.919 2.842-.469 1.098-.703 2.27-.703 3.471s.235 2.373.703 3.472c.454 1.07 1.099 2.022 1.92 2.842.82.82 1.772 1.465 2.841 1.919 1.099.469 2.27.703 3.472.703 1.201 0 2.373-.235 3.472-.703 1.069-.454 2.021-1.099 2.841-1.919.82-.82 1.465-1.773 1.92-2.842.468-1.098.703-2.27.703-3.472 0-1.714-.484-3.369-1.407-4.804.044-.22.117-.44.19-.66.147.03.308.044.455.044.615 0 1.157-.249 1.509-.717.337-.44.468-1.055.322-1.568-.235-.85-.908-1.655-2.154-2.549C22.306 5.41 21.237 5 20.372 5z"/>
    <path fill="#fff" d="M14.908 22.492c.227 0 .41-.184.41-.41 0-.227-.183-.41-.41-.41-.226 0-.41.183-.41.41 0 .227.184.41.41.41z" opacity=".2"/>
    <g opacity=".4">
        <path fill="url(#paint10_linear)" d="M14.676 22.343c-.162-.161-.162-.425 0-.586.029-.03.058-.044.088-.073-.06.014-.103.043-.147.087-.161.162-.161.425 0 .587.132.131.337.16.498.073-.146.058-.322.029-.44-.088z" opacity=".6"/>
    </g>
    <path fill="#fff" d="M15.055 21.963c.048 0 .088-.04.088-.088 0-.049-.04-.088-.088-.088-.049 0-.088.04-.088.088 0 .049.04.088.088.088z" opacity=".3"/>
    <path fill="#fff" d="M17.047 22.285c.226 0 .41-.183.41-.41 0-.227-.184-.41-.41-.41-.227 0-.41.184-.41.41 0 .227.183.41.41.41z" opacity=".2"/>
    <g opacity=".4">
        <path fill="url(#paint11_linear)" d="M16.812 22.14c-.16-.161-.16-.425 0-.586.03-.03.059-.044.088-.073-.058.014-.102.043-.146.087-.161.161-.161.425 0 .586.131.132.337.161.498.073-.147.059-.323.03-.44-.087z" opacity=".6"/>
    </g>
    <path fill="#fff" d="M17.193 21.758c.049 0 .088-.04.088-.088 0-.049-.04-.088-.088-.088-.048 0-.088.04-.088.088 0 .048.04.088.088.088z" opacity=".3"/>
    <path fill="#fff" d="M15.991 23.236c.17 0 .308-.137.308-.307 0-.17-.138-.308-.308-.308-.17 0-.307.138-.307.308 0 .17.137.307.307.307z" opacity=".2"/>
    <g opacity=".4">
        <path fill="url(#paint12_linear)" d="M15.815 23.12c-.117-.117-.117-.322 0-.44.015-.014.044-.029.06-.043-.045.014-.074.044-.104.073-.117.117-.117.322 0 .44.103.102.25.117.381.043-.117.044-.249.015-.337-.073z" opacity=".6"/>
    </g>
    <path fill="#fff" d="M16.094 22.828c.032 0 .058-.026.058-.058 0-.033-.026-.06-.058-.06-.033 0-.059.027-.059.06 0 .032.026.058.059.058z" opacity=".3"/>
    <path fill="#fff" d="M17.884 23.017c.17 0 .307-.137.307-.307 0-.17-.137-.308-.307-.308-.17 0-.308.138-.308.308 0 .17.138.307.308.307z" opacity=".2"/>
    <g opacity=".4">
        <path fill="url(#paint13_linear)" d="M17.708 22.901c-.117-.117-.117-.322 0-.44.015-.014.044-.028.059-.043-.044.015-.074.044-.103.073-.117.117-.117.323 0 .44.102.102.25.117.38.044-.116.044-.248.014-.336-.074z" opacity=".6"/>
    </g>
    <path fill="#fff" d="M17.984 22.61c.033 0 .06-.027.06-.06 0-.032-.027-.058-.06-.058-.032 0-.058.026-.058.059 0 .032.026.058.058.058z" opacity=".3"/>
    <path fill="#fff" d="M13.166 22.344c.372 0 .674-.302.674-.674 0-.372-.302-.674-.674-.674-.372 0-.674.302-.674.674 0 .372.302.674.674.674z" opacity=".2"/>
    <g opacity=".4">
        <path fill="url(#paint14_linear)" d="M12.784 22.096c-.264-.264-.264-.689 0-.953.044-.043.087-.073.146-.102-.088.03-.161.088-.234.146-.264.264-.264.689 0 .953.22.22.556.263.82.102-.249.103-.542.059-.732-.146z" opacity=".6"/>
    </g>
    <path fill="#fff" d="M13.398 21.465c.081 0 .147-.066.147-.147 0-.08-.066-.146-.147-.146-.08 0-.146.065-.146.146 0 .081.066.147.146.147z" opacity=".3"/>
    <path fill="#fff" d="M19.186 20.69c.372 0 .674-.302.674-.674 0-.372-.302-.674-.675-.674-.371 0-.673.302-.673.674 0 .372.302.673.674.673z" opacity=".2"/>
    <g opacity=".4">
        <path fill="url(#paint15_linear)" d="M18.79 20.44c-.264-.264-.264-.689 0-.953.044-.044.088-.073.146-.102-.088.03-.161.088-.234.146-.264.264-.264.689 0 .952.22.22.556.264.82.103-.249.102-.527.059-.732-.146z" opacity=".6"/>
    </g>
    <path fill="#fff" d="M19.422 19.81c.08 0 .146-.065.146-.146 0-.08-.065-.146-.146-.146-.081 0-.147.065-.147.146 0 .081.066.146.147.146z" opacity=".3"/>
    <defs>
        <linearGradient id="paint0_linear" x1="16" x2="16" y1="0" y2="32" gradientUnits="userSpaceOnUse">
            <stop stop-color="#5E12A0"/>
            <stop offset="1" stop-color="#0C0053"/>
        </linearGradient>
        <linearGradient id="paint3_linear" x1="14.137" x2="16.756" y1="24.454" y2="8.296" gradientUnits="userSpaceOnUse">
            <stop stop-color="#81FFFF"/>
            <stop offset=".62" stop-color="#fff" stop-opacity="0"/>
        </linearGradient>
        <linearGradient id="paint4_linear" x1="21.221" x2="14.45" y1="10.821" y2="17.034" gradientUnits="userSpaceOnUse">
            <stop offset=".289" stop-color="#fff"/>
            <stop offset=".78" stop-color="#fff" stop-opacity="0"/>
        </linearGradient>
        <linearGradient id="paint5_linear" x1="7.665" x2="23.226" y1="20.193" y2="20.193" gradientUnits="userSpaceOnUse">
            <stop stop-color="#0002E9"/>
            <stop offset=".995" stop-color="#FF00C7"/>
        </linearGradient>
        <linearGradient id="paint6_linear" x1="23.962" x2="15.492" y1="16.991" y2="24.996" gradientUnits="userSpaceOnUse">
            <stop offset=".289" stop-color="#fff"/>
            <stop offset=".78" stop-color="#fff" stop-opacity="0"/>
        </linearGradient>
        <linearGradient id="paint7_linear" x1="7.663" x2="15.988" y1="20.193" y2="20.193" gradientUnits="userSpaceOnUse">
            <stop stop-color="#000292"/>
            <stop offset=".995" stop-color="#7D00C7"/>
        </linearGradient>
        <linearGradient id="paint8_linear" x1="7.675" x2="23.216" y1="17.028" y2="17.028" gradientUnits="userSpaceOnUse">
            <stop stop-color="#000292"/>
            <stop offset=".995" stop-color="#BE00C7"/>
        </linearGradient>
        <linearGradient id="paint9_linear" x1="22.96" x2="21.844" y1="8.693" y2="10.508" gradientUnits="userSpaceOnUse">
            <stop offset=".289" stop-color="#fff"/>
            <stop offset=".78" stop-color="#fff" stop-opacity="0"/>
        </linearGradient>
        <linearGradient id="paint10_linear" x1="14.496" x2="15.116" y1="22.092" y2="22.092" gradientUnits="userSpaceOnUse">
            <stop offset=".289" stop-color="#fff"/>
            <stop offset=".78" stop-color="#fff" stop-opacity="0"/>
        </linearGradient>
        <linearGradient id="paint11_linear" x1="16.631" x2="17.251" y1="21.886" y2="21.886" gradientUnits="userSpaceOnUse">
            <stop offset=".289" stop-color="#fff"/>
            <stop offset=".78" stop-color="#fff" stop-opacity="0"/>
        </linearGradient>
        <linearGradient id="paint12_linear" x1="15.682" x2="16.147" y1="22.933" y2="22.933" gradientUnits="userSpaceOnUse">
            <stop offset=".289" stop-color="#fff"/>
            <stop offset=".78" stop-color="#fff" stop-opacity="0"/>
        </linearGradient>
        <linearGradient id="paint13_linear" x1="17.568" x2="18.033" y1="22.714" y2="22.714" gradientUnits="userSpaceOnUse">
            <stop offset=".289" stop-color="#fff"/>
            <stop offset=".78" stop-color="#fff" stop-opacity="0"/>
        </linearGradient>
        <linearGradient id="paint14_linear" x1="12.491" x2="13.503" y1="21.688" y2="21.688" gradientUnits="userSpaceOnUse">
            <stop offset=".289" stop-color="#fff"/>
            <stop offset=".78" stop-color="#fff" stop-opacity="0"/>
        </linearGradient>
        <linearGradient id="paint15_linear" x1="18.503" x2="19.515" y1="20.031" y2="20.031" gradientUnits="userSpaceOnUse">
            <stop offset=".289" stop-color="#fff"/>
            <stop offset=".78" stop-color="#fff" stop-opacity="0"/>
        </linearGradient>
        <radialGradient id="paint1_radial" cx="0" cy="0" r="1" gradientTransform="translate(24.5151 7.94646) scale(6.54716)" gradientUnits="userSpaceOnUse">
            <stop stop-color="#FFEAFF" stop-opacity=".6"/>
            <stop offset=".681" stop-color="#A087C9"/>
            <stop offset="1" stop-color="#10002F"/>
        </radialGradient>
        <radialGradient id="paint2_radial" cx="0" cy="0" r="1" gradientTransform="translate(20.872 10.7364) scale(16.0185)" gradientUnits="userSpaceOnUse">
            <stop stop-color="#FFEAFF" stop-opacity=".6"/>
            <stop offset=".681" stop-color="#A087C9"/>
            <stop offset="1" stop-color="#10002F"/>
        </radialGradient>
    </defs>
</svg>
