<svg width="200" height="200" viewBox="0 0 200 200" fill="none" xmlns="http://www.w3.org/2000/svg">
<g clip-path="url(#clip0)">
<path d="M100 200C155.228 200 200 155.452 200 100.5C200 45.5477 155.228 1 100 1C44.7715 1 0 45.5477 0 100.5C0 155.452 44.7715 200 100 200Z" fill="url(#paint0_linear)"/>
<path d="M90.6853 78.1145V78.1993L82.7153 36.1209L76.1019 34L71.9473 39.5991L90.6853 78.1145Z" fill="white"/>
<path d="M95.0195 60.5439L98.4111 76.8323L102.057 60.2893L98.4959 57.9141L95.0195 60.5439Z" fill="white"/>
<path d="M120.2 63.4434L115.876 63.8676L110.789 79.9863L121.981 67.3459L120.2 63.4434Z" fill="white"/>
<path d="M157.161 66.8324V59.9607L150.463 57.8398L119.092 87.2778L157.161 66.8324Z" fill="white"/>
<path d="M80.5157 84.2166L71.1891 70.2188L71.3587 70.5581L71.1891 70.2188L66.9498 70.8974L66.2715 75.1391L80.5157 84.2166Z" fill="white"/>
<path d="M140.555 98.4785L123.852 101.787L140.555 105.435L143.098 101.957L140.555 98.4785Z" fill="white"/>
<path d="M73.057 101.869L30.1546 96.4395L26 102.039L30.1546 107.638L73.057 101.869Z" fill="white"/>
<path d="M57.2034 111.196L55.9316 115.183L59.4078 117.728L74.2458 109.414L57.2034 111.196Z" fill="white"/>
<path d="M62.1207 123.002L61.9512 127.244L66.0209 128.686L77.8912 116.215L62.1207 123.002Z" fill="white"/>
<path d="M83.481 121.977L70.8477 133.09L71.9499 137.162L76.274 137.332L83.481 121.977Z" fill="white"/>
<path d="M98.4971 126.883L95.1055 143.341L98.5818 145.801L102.058 143.256L98.4971 126.883Z" fill="white"/>
<path d="M157.246 136.905L119.092 116.629L150.633 145.897L157.246 143.776V136.905Z" fill="white"/>
<path d="M115.204 140.05L106.641 125.713L108.591 142.171L112.661 143.444L115.204 140.05Z" fill="white"/>
<path d="M90.7734 125.711L72.2051 164.311L76.3596 169.91L82.9729 167.789L90.7734 125.711Z" fill="white"/>
</g>
<defs>
<linearGradient id="paint0_linear" x1="100" y1="1" x2="100" y2="200" gradientUnits="userSpaceOnUse">
<stop stop-color="#42AB6A"/>
<stop offset="1" stop-color="#2D9454"/>
</linearGradient>
<clipPath id="clip0">
<rect width="200" height="200" fill="white"/>
</clipPath>
</defs>
</svg>
