<svg width="64" height="64" viewBox="0 0 64 64" fill="none" xmlns="http://www.w3.org/2000/svg">
<path d="M64 32C64 49.6731 49.6731 64 32 64C14.3269 64 0 49.6731 0 32C0 14.3269 14.3269 0 32 0C49.6731 0 64 14.3269 64 32Z" fill="url(#paint0_linear_18_1445)"/>
<path d="M23.0322 39.9283C23.0322 34.919 27.0557 30.8276 32.2765 30.8276C37.064 30.8276 40.9079 34.8743 40.9079 39.7877C40.9022 40.2948 40.8656 40.8012 40.7985 41.3041H27.2023C27.7824 44.092 30.1028 45.5381 32.7866 45.5381C34.6193 45.5448 36.412 45.0166 37.933 44.0217L39.5288 46.914C37.519 48.2533 35.1438 48.9779 32.7078 48.9948C27.6008 48.9948 23.0322 45.6787 23.0322 39.9283ZM36.9895 38.4225C36.8342 37.2594 36.2456 36.1922 35.3353 35.4232C34.4251 34.6541 33.2565 34.2368 32.0511 34.2502C29.7307 34.2502 27.6993 35.9072 27.1564 38.4118L36.9895 38.4225Z" fill="white"/>
<path d="M46.8385 23.243C46.5339 23.2422 46.242 23.1243 46.0264 22.915C44.1818 21.1157 41.9906 19.6881 39.5781 18.7141C37.1656 17.7401 34.5792 17.2387 31.9673 17.2387C29.3553 17.2387 26.769 17.7401 24.3565 18.7141C21.944 19.6881 19.7527 21.1157 17.9082 22.915C17.6886 23.1028 17.4038 23.2021 17.1116 23.1928C16.8195 23.1835 16.5419 23.0663 16.3355 22.8649C16.1291 22.6635 16.0093 22.3931 16.0005 22.1089C15.9917 21.8246 16.0946 21.5477 16.2883 21.3347C18.3464 19.3283 20.7909 17.7365 23.4821 16.6504C26.1733 15.5643 29.0582 15.0052 31.9716 15.0052C34.8851 15.0052 37.77 15.5643 40.4612 16.6504C43.1524 17.7365 45.5969 19.3283 47.655 21.3347C47.8186 21.4906 47.9305 21.6904 47.9766 21.9087C48.0226 22.1269 48.0005 22.3535 47.9133 22.5595C47.826 22.7655 47.6775 22.9414 47.4868 23.0647C47.2961 23.1879 47.0719 23.253 46.8429 23.2515L46.8385 23.243Z" fill="white"/>
<path d="M43.5883 26.4011C43.4364 26.4019 43.2859 26.3732 43.1457 26.3165C43.0054 26.2598 42.8783 26.1763 42.7718 26.0709C41.3529 24.6875 39.6676 23.5899 37.8122 22.8411C35.9568 22.0922 33.9678 21.7067 31.959 21.7067C29.9503 21.7067 27.9613 22.0922 26.1059 22.8411C24.2505 23.5899 22.5651 24.6875 21.1463 26.0709C21.0396 26.1746 20.9131 26.2567 20.7738 26.3128C20.6345 26.3688 20.4852 26.3976 20.3345 26.3975C20.1838 26.3974 20.0345 26.3684 19.8953 26.3122C19.7561 26.256 19.6296 26.1736 19.5231 26.0699C19.4166 25.9661 19.3322 25.843 19.2746 25.7074C19.217 25.5719 19.1874 25.4267 19.1875 25.28C19.1876 25.1334 19.2174 24.9882 19.2752 24.8528C19.3329 24.7173 19.4176 24.5943 19.5242 24.4906C21.156 22.8994 23.0943 21.637 25.2283 20.7756C27.3622 19.9142 29.6498 19.4708 31.9601 19.4708C34.2704 19.4708 36.5581 19.9142 38.692 20.7756C40.8259 21.637 42.7643 22.8994 44.3961 24.4906C44.5596 24.6465 44.6716 24.8464 44.7176 25.0647C44.7636 25.2829 44.7416 25.5095 44.6543 25.7155C44.567 25.9214 44.4185 26.0973 44.2278 26.2206C44.0371 26.3439 43.8129 26.409 43.5839 26.4075L43.5883 26.4011Z" fill="white"/>
<path d="M40.3401 29.5651C40.0358 29.5652 39.7438 29.448 39.528 29.2392C38.5356 28.271 37.3567 27.5029 36.0587 26.9787C34.7607 26.4546 33.3691 26.1848 31.9637 26.1848C30.5584 26.1848 29.1668 26.4546 27.8688 26.9787C26.5708 27.5029 25.3919 28.271 24.3995 29.2392C24.1817 29.4367 23.8935 29.5443 23.5958 29.5392C23.298 29.5341 23.014 29.4167 22.8034 29.2118C22.5928 29.007 22.4722 28.7306 22.467 28.4409C22.4617 28.1512 22.5722 27.8709 22.7752 27.6589C23.9813 26.482 25.4143 25.5483 26.992 24.9111C28.5696 24.274 30.261 23.946 31.9692 23.946C33.6774 23.946 35.3688 24.274 36.9465 24.9111C38.5242 25.5483 39.9571 26.482 41.1632 27.6589C41.324 27.815 41.4336 28.0141 41.478 28.2308C41.5225 28.4476 41.4998 28.6723 41.4128 28.8764C41.3258 29.0806 41.1784 29.2551 40.9894 29.3777C40.8004 29.5003 40.5782 29.5655 40.3511 29.5651H40.3401Z" fill="white"/>
<defs>
<linearGradient id="paint0_linear_18_1445" x1="12.2553" y1="7.14894" x2="54.8085" y2="51.4043" gradientUnits="userSpaceOnUse">
<stop stop-color="#FBE7CF"/>
<stop offset="0.322917" stop-color="#9DB9CC"/>
<stop offset="1" stop-color="#296FA8"/>
</linearGradient>
</defs>
</svg>
