<svg width="64" height="64" viewBox="0 0 64 64" fill="none" xmlns="http://www.w3.org/2000/svg">
<circle cx="32" cy="32" r="32" fill="url(#paint0_linear_18_1429)"/>
<g clip-path="url(#clip0_18_1429)">
<path d="M44.7939 40.1435C43.429 37.8043 41.5217 36.0473 39.3318 34.8647V29.4065C39.3318 24.9663 36.0604 21.3492 32.0388 21.3492C28.0173 21.3492 24.7459 24.962 24.7459 29.4065V34.8473C22.5233 36.0403 20.5865 37.8173 19.2049 40.1868V31.3264H19.2144V28.8919C19.2144 19.646 25.8584 15.4354 32.0261 15.4354C35.7458 15.4354 39.2115 16.9082 41.5337 19.4787C43.6958 21.8717 44.7892 25.0357 44.782 28.8858L44.7892 31.3264H44.7931V40.1435H44.7939ZM44.7939 48.5404L39.3318 48.5551V37.0765C40.2515 37.6501 41.0972 38.354 41.8467 39.1697C43.2841 40.7603 44.2723 42.7426 44.7931 45.0073V48.5473L44.7939 48.5404ZM37.1259 33.8969C33.8171 32.7511 30.2634 32.7475 26.9525 33.8865V29.4082C26.9525 26.3058 29.2293 23.7907 32.0388 23.7907C34.8483 23.7907 37.1251 26.3032 37.1251 29.4082V33.8969H37.1259ZM37.1259 42.4428C36.492 41.6533 35.7102 41.0204 34.8329 40.5868C33.9556 40.1532 33.0032 39.9288 32.0396 39.9288C31.076 39.9288 30.1236 40.1532 29.2463 40.5868C28.369 41.0204 27.5872 41.6533 26.9533 42.4428V35.945C30.2421 34.6605 33.8395 34.6629 37.1267 35.952V42.4428H37.1259ZM24.7459 48.5577L19.2049 48.5473V45.0818C20.0594 41.3477 22.1418 38.7001 24.7459 37.0583V48.5577ZM46.9895 28.891C47.0078 18.2909 39.5213 13 32.0269 13C24.5324 13 17.0133 18.3013 17.0093 28.8902H16.9998V50.0297C16.9988 50.1566 17.0209 50.2826 17.0647 50.4003C17.1085 50.518 17.1731 50.6251 17.255 50.7156C17.3369 50.8061 17.4343 50.8782 17.5418 50.9278C17.6493 50.9773 17.7646 51.0033 17.8813 51.0043H26.0694C26.1862 51.0035 26.3018 50.9777 26.4094 50.9283C26.5171 50.8788 26.6147 50.8068 26.6968 50.7162C26.7788 50.6257 26.8436 50.5185 26.8875 50.4007C26.9314 50.2829 26.9535 50.1568 26.9525 50.0297V47.7303C26.9525 44.6547 29.0987 41.9724 31.8819 41.8806C34.7631 41.7853 37.1259 44.335 37.1259 47.4947V50.0253C37.1242 50.2818 37.2162 50.5286 37.3816 50.7114C37.5471 50.8941 37.7725 50.9979 38.0083 51H46.1175C46.2342 50.9991 46.3497 50.9732 46.4573 50.9237C46.5648 50.8742 46.6624 50.8021 46.7443 50.7116C46.8263 50.6211 46.891 50.5139 46.9348 50.3961C46.9787 50.2784 47.0008 50.1524 46.9998 50.0253V28.8902L46.9895 28.891Z" fill="white"/>
</g>
<defs>
<linearGradient id="paint0_linear_18_1429" x1="12.2553" y1="7.14894" x2="54.8085" y2="51.4043" gradientUnits="userSpaceOnUse">
<stop stop-color="#FFA485"/>
<stop offset="0.286458" stop-color="#FF8156"/>
<stop offset="1" stop-color="#FF6733"/>
</linearGradient>
<clipPath id="clip0_18_1429">
<rect width="30" height="38" fill="white" transform="translate(17 13)"/>
</clipPath>
</defs>
</svg>
