<svg width="64" height="64" viewBox="0 0 64 64" fill="none" xmlns="http://www.w3.org/2000/svg">
<path d="M64 32C64 49.6731 49.6731 64 32 64C14.3269 64 0 49.6731 0 32C0 14.3269 14.3269 0 32 0C49.6731 0 64 14.3269 64 32Z" fill="url(#paint0_linear_18_1382)"/>
<path opacity="0.95" d="M29.4073 19H16.0171C14.9517 19 13.9299 19.4233 13.1766 20.1766C12.4232 20.9299 12 21.9517 12 23.0171V41.7634C12.0015 42.6136 12.2728 43.4414 12.7747 44.1277C13.2767 44.8139 13.9834 45.3233 14.7933 45.5822C15.6031 45.8413 16.4742 45.8367 17.2812 45.5691C18.0883 45.3016 18.7896 44.7847 19.2843 44.0932L32.6745 25.347C33.102 24.7465 33.356 24.0399 33.4089 23.3047C33.4617 22.5694 33.3111 21.8339 32.9738 21.1785C32.6363 20.5231 32.1252 19.9732 31.4961 19.5889C30.8671 19.2047 30.1444 19.0009 29.4073 19ZM18.6951 28.3731C18.1654 28.3731 17.6477 28.2161 17.2073 27.9218C16.7669 27.6276 16.4236 27.2093 16.2209 26.72C16.0182 26.2306 15.9652 25.6922 16.0685 25.1726C16.1719 24.6532 16.4269 24.176 16.8014 23.8015C17.176 23.4269 17.6532 23.1719 18.1726 23.0685C18.6922 22.9652 19.2306 23.0183 19.72 23.2209C20.2093 23.4236 20.6276 23.7669 20.9218 24.2073C21.2161 24.6477 21.3731 25.1654 21.3731 25.6951C21.3731 26.4053 21.091 27.0865 20.5887 27.5887C20.0865 28.091 19.4053 28.3731 18.6951 28.3731Z" fill="white"/>
<path opacity="0.95" d="M39.4577 44.434C41.3064 44.434 42.8052 42.9352 42.8052 41.0864C42.8052 39.2377 41.3064 37.7389 39.4577 37.7389C37.6089 37.7389 36.1101 39.2377 36.1101 41.0864C36.1101 42.9352 37.6089 44.434 39.4577 44.434Z" fill="white"/>
<path opacity="0.95" d="M52 23.0171V41.7634C52.0015 42.7657 51.6282 43.7325 50.9533 44.4738C50.2785 45.2151 49.3509 45.6772 48.3527 45.7694C47.3544 45.8618 46.3579 45.5776 45.5586 44.9725C44.7593 44.3675 44.2151 43.4856 44.0329 42.4998C43.99 42.2566 43.9677 42.0103 43.9659 41.7634V38.7104C43.9587 37.8624 43.6834 37.0385 43.1794 36.3565C42.6754 35.6746 41.9685 35.1696 41.16 34.914C40.3514 34.6584 39.4827 34.6652 38.6783 34.9334C37.8738 35.2016 37.1749 35.7175 36.6816 36.4073L34.5928 39.3397L31.2318 44.0531C30.5907 44.8681 29.6594 45.4037 28.6325 45.5478C27.6056 45.692 26.5629 45.4335 25.7223 44.8264C24.8817 44.2193 24.3084 43.3106 24.1223 42.2905C23.9363 41.2705 24.1519 40.2179 24.7242 39.3531L38.1144 20.6068C38.4844 20.1133 38.9632 19.7117 39.5135 19.433C40.0639 19.1544 40.671 19.0062 41.2879 19H47.983C49.0483 19 50.0701 19.4233 50.8234 20.1766C51.5768 20.9299 52 21.9517 52 23.0171Z" fill="white"/>
<defs>
<linearGradient id="paint0_linear_18_1382" x1="12.2553" y1="7.14894" x2="54.8085" y2="51.4043" gradientUnits="userSpaceOnUse">
<stop stop-color="#FFD367"/>
<stop offset="0.286458" stop-color="#FFCD52"/>
<stop offset="1" stop-color="#B7860C"/>
</linearGradient>
</defs>
</svg>
