<svg width="64" height="64" viewBox="0 0 64 64" fill="none" xmlns="http://www.w3.org/2000/svg">
<circle cx="32" cy="32" r="32" fill="url(#paint0_linear_18_1471)"/>
<path fill-rule="evenodd" clip-rule="evenodd" d="M10.511 15.6563C10.7446 15.7342 10.9782 15.7342 11.2897 15.8121C11.4455 15.8121 11.6012 15.9678 11.6012 16.1236C11.6791 16.4351 11.8348 16.7466 11.9127 17.1359C11.9906 17.2917 11.9127 17.4474 11.757 17.3695C11.5234 17.2917 11.2897 17.2917 11.0561 17.2138C10.9004 17.2138 10.8225 17.058 10.7446 16.9023C10.6668 16.5908 10.511 16.2014 10.4331 15.89C10.3553 15.7342 10.4331 15.5785 10.511 15.6563Z" fill="white"/>
<path fill-rule="evenodd" clip-rule="evenodd" d="M11.3665 14.0212C11.6001 14.0991 11.9116 14.177 12.1452 14.2548C12.3009 14.2548 12.4567 14.4885 12.4567 14.6442C12.5346 14.8778 12.6903 15.1893 12.7682 15.5008C12.8461 15.6566 12.7682 15.7344 12.6124 15.7344C12.3788 15.6566 12.1452 15.5787 11.8337 15.5787C11.678 15.5787 11.5222 15.4229 11.5222 15.1893C11.4443 14.8778 11.2886 14.5663 11.2107 14.177C11.1329 14.0991 11.2107 13.9434 11.3665 14.0212Z" fill="white"/>
<path fill-rule="evenodd" clip-rule="evenodd" d="M12.8474 14.4106C13.0811 14.4885 13.3925 14.5664 13.6262 14.6443C13.7819 14.7221 13.9377 14.8779 13.9377 15.0336C14.0934 15.3451 14.1713 15.6566 14.327 15.9681C14.4049 16.1238 14.327 16.2017 14.1713 16.2017C13.9377 16.1238 13.6262 16.046 13.3925 15.9681C13.2368 15.9681 13.0811 15.7345 13.0811 15.5787C13.0032 15.2672 12.8474 14.9558 12.7696 14.6443C12.6917 14.4885 12.7696 14.4106 12.8474 14.4106Z" fill="white"/>
<path fill-rule="evenodd" clip-rule="evenodd" d="M17.518 16.1241C17.7517 16.202 18.0632 16.3578 18.2968 16.5135C18.4525 16.5914 18.6083 16.7471 18.6083 16.9029C18.6861 17.2144 18.764 17.448 18.9198 17.7595C18.9976 17.9152 18.9198 17.9931 18.764 17.9152C18.5304 17.7595 18.2189 17.6816 17.9853 17.6037C17.8295 17.5259 17.6738 17.3701 17.6738 17.2144C17.5959 16.9029 17.5181 16.6693 17.3623 16.3578C17.3623 16.1241 17.4402 16.1241 17.518 16.1241Z" fill="white"/>
<path fill-rule="evenodd" clip-rule="evenodd" d="M11.9885 15.9681C12.2222 16.046 12.4558 16.046 12.7673 16.1238C12.923 16.1238 13.0788 16.2796 13.0788 16.5132C13.1566 16.8247 13.3124 17.1362 13.3903 17.4477C13.4681 17.6034 13.3903 17.6813 13.2345 17.6813C13.0009 17.6034 12.7673 17.5256 12.5337 17.5256C12.3779 17.5256 12.3 17.3698 12.2222 17.2141C12.1443 16.9026 11.9885 16.5911 11.9107 16.2017C11.8328 16.046 11.9107 15.8902 11.9885 15.9681Z" fill="white"/>
<path fill-rule="evenodd" clip-rule="evenodd" d="M13.4687 16.3571C13.7024 16.4349 14.0138 16.5128 14.2475 16.5907C14.4032 16.5907 14.559 16.7464 14.559 16.9022C14.6368 17.2137 14.7926 17.5252 14.8704 17.8366C14.9483 17.9924 14.8704 18.0703 14.7147 18.0703C14.4811 17.9924 14.1696 17.9145 13.936 17.9145C13.7802 17.9145 13.6245 17.7588 13.6245 17.603C13.5466 17.2915 13.3909 16.98 13.313 16.6686C13.313 16.3571 13.3909 16.2792 13.4687 16.3571Z" fill="white"/>
<path fill-rule="evenodd" clip-rule="evenodd" d="M15.0286 16.7471C15.2622 16.8249 15.5737 16.9028 15.8073 16.9807C15.9631 17.0586 16.1188 17.2143 16.1188 17.3701C16.1967 17.6815 16.3524 17.993 16.4303 18.2267C16.5082 18.3824 16.4303 18.4603 16.2745 18.3824C16.0409 18.3045 15.7294 18.2267 15.4958 18.1488C15.3401 18.1488 15.1843 17.993 15.1843 17.8373C15.1065 17.5258 14.9507 17.2143 14.8728 16.9028C14.795 16.8249 14.8728 16.7471 15.0286 16.7471Z" fill="white"/>
<path fill-rule="evenodd" clip-rule="evenodd" d="M16.5842 17.292C16.8179 17.3699 17.1294 17.4478 17.363 17.6035C17.5187 17.6814 17.6745 17.8371 17.6745 17.9929C17.7523 18.3044 17.8302 18.538 17.986 18.8495C18.0638 19.0052 17.986 19.0831 17.8302 19.0052C17.5966 18.9274 17.2851 18.8495 17.0515 18.6937C16.8957 18.6159 16.74 18.4601 16.74 18.3044C16.6621 17.9929 16.5064 17.6814 16.4285 17.4478C16.3506 17.292 16.4285 17.2142 16.5842 17.292Z" fill="white"/>
<path fill-rule="evenodd" clip-rule="evenodd" d="M18.1428 17.9151C18.3765 17.9929 18.6879 18.1487 18.9216 18.2266C19.0773 18.3044 19.2331 18.4602 19.2331 18.6159C19.3109 18.9274 19.3888 19.161 19.5445 19.4725C19.6224 19.6283 19.5445 19.7061 19.3888 19.6283C19.1552 19.4725 18.8437 19.3947 18.6101 19.3168C18.4543 19.2389 18.2986 19.0832 18.2986 18.9274C18.2207 18.6159 18.1428 18.3823 17.9871 18.0708C17.9092 17.9151 17.9871 17.8372 18.1428 17.9151Z" fill="white"/>
<path fill-rule="evenodd" clip-rule="evenodd" d="M15.6482 18.6158C15.8818 18.6936 16.1933 18.7715 16.4269 18.8494C16.5827 18.9272 16.7384 19.083 16.7384 19.1609C16.8163 19.4724 16.972 19.7838 17.0499 20.0175C17.1278 20.1732 17.0499 20.2511 16.8942 20.2511C16.6606 20.1732 16.3491 20.0953 16.1154 20.0175C15.9597 20.0175 15.804 19.8617 15.804 19.706C15.7261 19.3945 15.5703 19.083 15.4925 18.7715C15.4146 18.6158 15.4925 18.5379 15.6482 18.6158Z" fill="white"/>
<path fill-rule="evenodd" clip-rule="evenodd" d="M17.1318 19.083C17.3654 19.1609 17.6769 19.2388 17.9105 19.3945C18.0663 19.4724 18.222 19.6281 18.222 19.7839C18.2999 20.0954 18.4557 20.329 18.5335 20.6405C18.6114 20.7962 18.5335 20.8741 18.3778 20.7962C18.1442 20.7183 17.8327 20.6405 17.5991 20.5626C17.4433 20.4847 17.2876 20.329 17.2876 20.2511C17.2097 19.9396 17.0539 19.6281 16.9761 19.3945C16.9761 19.083 17.0539 19.0051 17.1318 19.083Z" fill="white"/>
<path fill-rule="evenodd" clip-rule="evenodd" d="M14.7927 20.0955C15.0263 20.1733 15.2599 20.1733 15.5714 20.2512C15.7271 20.2512 15.8829 20.4069 15.8829 20.5627C15.9607 20.8742 16.1165 21.1857 16.1944 21.4972C16.2722 21.6529 16.1944 21.7308 16.0386 21.7308C15.805 21.6529 15.5714 21.6529 15.3378 21.575C15.182 21.575 15.1041 21.4193 15.0263 21.2636C14.9484 20.9521 14.7926 20.6406 14.7148 20.3291C14.559 20.1733 14.6369 20.0955 14.7927 20.0955Z" fill="white"/>
<path fill-rule="evenodd" clip-rule="evenodd" d="M16.2742 20.4066C16.5078 20.4845 16.8193 20.5624 17.0529 20.6402C17.2087 20.6402 17.3644 20.796 17.3644 20.9517C17.4423 21.2632 17.598 21.5747 17.6759 21.8083C17.7538 21.9641 17.6759 22.0419 17.5201 22.0419C17.2865 21.9641 16.975 21.8862 16.7414 21.8862C16.5857 21.8862 16.4299 21.7305 16.4299 21.5747C16.3521 21.2632 16.1963 20.9517 16.1184 20.6402C16.0406 20.4845 16.1184 20.4066 16.2742 20.4066Z" fill="white"/>
<path fill-rule="evenodd" clip-rule="evenodd" d="M17.7514 20.8742C17.9851 20.952 18.2966 21.0299 18.5302 21.1078C18.6859 21.1857 18.8417 21.3414 18.8417 21.4972C18.9195 21.8086 19.0753 22.0423 19.1532 22.3538C19.231 22.5095 19.1532 22.5874 18.9974 22.5095C18.7638 22.4316 18.4523 22.3538 18.2187 22.2759C18.0629 22.198 17.9072 22.1201 17.9072 21.9644C17.8293 21.6529 17.6736 21.3414 17.5957 21.1078C17.5957 20.8742 17.5957 20.7963 17.7514 20.8742Z" fill="white"/>
<path fill-rule="evenodd" clip-rule="evenodd" d="M19.3157 21.4193C19.5493 21.4972 19.8608 21.653 20.0944 21.7308C20.2502 21.8087 20.4059 21.9645 20.4059 22.1202C20.4838 22.4317 20.5617 22.6653 20.7174 22.9768C20.7953 23.1325 20.7174 23.2104 20.5617 23.1325C20.328 23.0547 20.0165 22.8989 19.7829 22.8211C19.6272 22.7432 19.4714 22.5874 19.4714 22.4317C19.3936 22.1202 19.3157 21.8866 19.1599 21.5751C19.0821 21.4193 19.1599 21.3415 19.3157 21.4193Z" fill="white"/>
<path fill-rule="evenodd" clip-rule="evenodd" d="M19.3157 16.9801C19.6272 17.1359 19.8608 17.2916 20.1723 17.4474C20.328 17.5252 20.4838 17.7589 20.5617 17.8367C20.6395 18.1482 20.7174 18.3818 20.8731 18.6933C20.951 18.8491 20.8731 18.8491 20.7174 18.7712C20.328 18.6155 20.0165 18.4597 19.7829 18.304C19.6272 18.2261 19.4714 18.0703 19.4714 17.9146C19.3936 17.6031 19.3157 17.3695 19.1599 17.058C19.0821 16.9801 19.1599 16.9023 19.3157 16.9801Z" fill="white"/>
<path fill-rule="evenodd" clip-rule="evenodd" d="M19.8552 18.6934C20.1667 18.8491 20.4003 19.0049 20.7118 19.0828C20.8676 19.1606 21.0233 19.3942 21.1012 19.4721C21.1791 19.7836 21.2569 20.0172 21.4127 20.3287C21.4906 20.4845 21.4127 20.4845 21.257 20.4066C20.9455 20.2508 20.7118 20.0951 20.4003 20.0172C20.2446 19.9394 20.0889 19.7836 20.0889 19.6279C19.8552 19.3942 19.7774 19.0828 19.6995 18.8491C19.6216 18.6934 19.6995 18.6155 19.8552 18.6934Z" fill="white"/>
<path fill-rule="evenodd" clip-rule="evenodd" d="M20.405 20.4066C20.7165 20.5624 20.9502 20.6403 21.2617 20.796C21.4174 20.8739 21.5731 21.0296 21.651 21.1854C21.7289 21.4969 21.8068 21.7305 21.9625 22.042C22.0404 22.1977 21.9625 22.1977 21.8068 22.1198C21.4953 21.9641 21.2617 21.8084 20.9502 21.7305C20.7944 21.6526 20.6387 21.4969 20.6387 21.3411C20.5608 21.0296 20.4829 20.796 20.3272 20.4845C20.2493 20.4066 20.3272 20.3288 20.405 20.4066Z" fill="white"/>
<path fill-rule="evenodd" clip-rule="evenodd" d="M21.0256 22.1201C21.3371 22.2759 21.5707 22.3538 21.8822 22.5095C22.0379 22.5874 22.1937 22.7431 22.2715 22.8989C22.3494 23.2104 22.4273 23.444 22.583 23.7555C22.6609 23.9112 22.583 23.9112 22.4273 23.8333C22.1158 23.6776 21.8822 23.5997 21.5707 23.444C21.4149 23.3661 21.2592 23.2104 21.2592 23.0546C21.1813 22.7431 21.1034 22.5095 20.9477 22.198C20.7919 22.1201 20.8698 22.0423 21.0256 22.1201Z" fill="white"/>
<path fill-rule="evenodd" clip-rule="evenodd" d="M20.949 17.915C21.2605 18.0707 21.572 18.3043 21.8056 18.4601C21.9613 18.538 22.1171 18.7716 22.195 18.9273C22.2728 19.2388 22.3507 19.4724 22.5064 19.7839C22.5843 19.9397 22.5064 19.9397 22.3507 19.8618C22.0392 19.6282 21.7277 19.4724 21.4941 19.3167C21.3384 19.2388 21.1826 19.0052 21.1047 18.9273C21.0269 18.6158 20.949 18.3822 20.7932 18.0707C20.7154 17.8371 20.7932 17.8371 20.949 17.915Z" fill="white"/>
<path fill-rule="evenodd" clip-rule="evenodd" d="M22.7365 19.0831C23.048 19.3167 23.3595 19.6282 23.671 19.8618C23.8268 20.0176 23.9825 20.2512 24.0604 20.329C24.1383 20.5627 24.2161 20.8742 24.3719 21.1856C24.4497 21.3414 24.294 21.3414 24.1383 21.1856C23.8268 20.952 23.5153 20.6405 23.2038 20.4069C23.048 20.2512 22.8923 20.0954 22.8144 19.9397C22.7365 19.6282 22.6587 19.3946 22.5029 19.0831C22.5029 19.0052 22.5808 18.9273 22.7365 19.0831Z" fill="white"/>
<path fill-rule="evenodd" clip-rule="evenodd" d="M24.6836 20.796C25.073 21.1854 25.4624 21.6526 25.9296 22.2756C26.1632 22.5871 28.11 28.4275 28.11 28.4275C28.11 28.4275 26.4747 23.7552 26.319 23.5215C25.9296 22.9764 25.4624 22.5092 25.1509 22.1198C24.9951 21.9641 24.8394 21.7305 24.7615 21.5747C24.6836 21.3411 24.6058 21.0296 24.5279 20.796C24.3721 20.5624 24.5279 20.6403 24.6836 20.796Z" fill="white"/>
<path fill-rule="evenodd" clip-rule="evenodd" d="M23.2815 20.7182C23.593 20.9518 23.9045 21.1854 24.2159 21.4969C24.3717 21.6527 24.5274 21.8863 24.6053 21.9642C24.6832 22.2756 24.7611 22.5093 24.9168 22.8208C24.9947 22.9765 24.8389 22.9765 24.6832 22.8208C24.3717 22.5871 24.0602 22.2756 23.7487 22.042C23.593 21.9642 23.4372 21.7305 23.3593 21.5748C23.2815 21.2633 23.2036 21.0297 23.0479 20.7182C23.0479 20.6403 23.1257 20.6403 23.2815 20.7182Z" fill="white"/>
<path fill-rule="evenodd" clip-rule="evenodd" d="M25.2314 22.4313C25.6207 22.8206 26.0101 23.2879 26.3995 23.833C26.6331 24.0666 28.1127 28.4275 28.1127 28.4275C28.1127 28.4275 27.0225 25.2347 26.7888 25.0011C26.3995 24.5338 26.0101 24.0666 25.6207 23.7551C25.465 23.5993 25.3093 23.3657 25.2314 23.21C25.1535 22.8985 25.0756 22.6649 24.9978 22.4313C24.9199 22.1976 25.0756 22.2755 25.2314 22.4313Z" fill="white"/>
<path fill-rule="evenodd" clip-rule="evenodd" d="M22.1125 21.2633C22.424 21.4191 22.6576 21.6527 22.9691 21.8084C23.1248 21.8863 23.2806 22.1199 23.3584 22.2757C23.4363 22.5872 23.5142 22.8208 23.6699 23.1323C23.7478 23.288 23.6699 23.288 23.5142 23.2102C23.2027 23.0544 22.8912 22.8208 22.6576 22.665C22.5018 22.5872 22.3461 22.4314 22.3461 22.2757C22.2682 21.9642 22.1903 21.7306 22.0346 21.4191C21.8789 21.2633 21.9567 21.1855 22.1125 21.2633Z" fill="white"/>
<path fill-rule="evenodd" clip-rule="evenodd" d="M23.8303 22.4312C24.1418 22.6648 24.4533 22.8984 24.7648 23.2099C24.9205 23.3657 25.0763 23.5993 25.1541 23.6772C25.232 23.9887 25.3099 24.2223 25.4656 24.5338C25.5435 24.6895 25.3878 24.6895 25.232 24.5338C24.9205 24.3002 24.609 24.0665 24.2975 23.8329C24.1418 23.755 23.986 23.5214 23.9082 23.3657C23.8303 23.0542 23.7524 22.8206 23.5967 22.5091C23.5967 22.3533 23.6746 22.2755 23.8303 22.4312Z" fill="white"/>
<path fill-rule="evenodd" clip-rule="evenodd" d="M25.772 24.0668C26.1614 24.3782 26.5507 24.8455 26.9401 25.3127C27.1737 25.5463 28.1861 28.4276 28.1861 28.4276C28.1861 28.4276 27.5631 26.7923 27.3295 26.5587C26.9401 26.0914 26.5507 25.7021 26.2393 25.3906C26.0835 25.2348 25.9278 25.0012 25.8499 24.8455C25.772 24.6119 25.6941 24.3004 25.6163 24.0668C25.4605 23.8331 25.6163 23.911 25.772 24.0668Z" fill="white"/>
<path fill-rule="evenodd" clip-rule="evenodd" d="M22.6594 22.9767C22.9708 23.1325 23.2045 23.3661 23.5159 23.5218C23.6717 23.5997 23.8274 23.8333 23.9053 23.9891C23.9832 24.3006 24.0611 24.5342 24.2168 24.8457C24.2947 25.0014 24.2168 25.0014 24.0611 24.9235C23.7496 24.7678 23.4381 24.5342 23.2045 24.3784C23.0487 24.3006 22.893 24.1448 22.893 23.9891C22.8151 23.6776 22.7372 23.444 22.5815 23.1325C22.4257 22.9767 22.5036 22.8988 22.6594 22.9767Z" fill="white"/>
<path fill-rule="evenodd" clip-rule="evenodd" d="M24.4511 24.1446C24.7626 24.3782 25.0741 24.6118 25.3856 24.8455C25.5413 25.0012 25.6971 25.2348 25.7749 25.3127C25.8528 25.6242 25.9307 25.8578 26.0864 26.1693C26.1643 26.325 26.0086 26.325 25.8528 26.1693C25.5413 25.9357 25.2298 25.7021 24.9183 25.4684C24.7626 25.3906 24.6069 25.157 24.529 25.0012C24.4511 24.6897 24.3732 24.4561 24.2175 24.1446C24.1396 24.0667 24.2954 23.9889 24.4511 24.1446Z" fill="white"/>
<path fill-rule="evenodd" clip-rule="evenodd" d="M26.3193 25.624C26.7086 25.9355 27.0201 26.3249 27.4095 26.7921C27.5652 27.0257 28.1103 28.3496 28.1103 28.3496C28.1103 28.3496 27.9546 28.1938 27.7989 27.9602C27.4095 27.5708 27.098 27.1815 26.7086 26.87C26.5529 26.7142 26.3971 26.4806 26.3193 26.4027C26.2414 26.1691 26.1635 25.8576 26.0857 25.624C26.0078 25.4683 26.1635 25.4683 26.3193 25.624Z" fill="white"/>
<path fill-rule="evenodd" clip-rule="evenodd" d="M24.2136 45.9489C24.4472 45.7153 24.6808 45.5595 24.9144 45.3259C24.9923 45.248 24.9923 45.0923 24.9144 45.0144C24.6808 44.7808 24.5251 44.5472 24.2915 44.3914C24.2136 44.3135 24.1357 44.3135 23.98 44.3914C23.7464 44.625 23.5127 44.7808 23.2791 44.9365C23.2012 45.0144 23.2012 45.0923 23.2791 45.1701C23.5127 45.4038 23.6685 45.6374 23.9021 45.871C24.0578 46.0267 24.1357 46.0267 24.2136 45.9489ZM22.111 41.1986C22.3446 40.965 22.5783 40.8093 22.8119 40.5757C22.8898 40.4978 22.8898 40.342 22.8119 40.2642C22.6561 40.0305 22.4225 39.8748 22.2668 39.6412C22.1889 39.5633 22.111 39.5633 22.0332 39.6412C21.7995 39.7969 21.5659 40.0305 21.3323 40.1863C21.2544 40.2642 21.2544 40.342 21.3323 40.4199C21.5659 40.6535 21.7217 40.8871 21.9553 41.0429C21.9553 41.2765 22.0332 41.2765 22.111 41.1986ZM23.357 40.0305C23.5906 39.7969 23.7464 39.5633 23.98 39.4076C24.0578 39.3297 24.0578 39.1739 23.98 39.0961C23.8242 38.8625 23.5906 38.7067 23.4349 38.4731C23.357 38.3952 23.2791 38.3952 23.2012 38.4731C22.9676 38.7067 22.8119 38.8625 22.5783 39.0961C22.5004 39.1739 22.5004 39.2518 22.5783 39.3297C22.734 39.5633 22.9676 39.7191 23.1234 39.9527C23.2012 40.1084 23.2791 40.1084 23.357 40.0305ZM24.5251 38.7846C24.7587 38.551 24.9144 38.3173 25.0702 38.0837C25.1481 38.0059 25.1481 37.8501 25.0702 37.7722C24.9144 37.6165 24.7587 37.3829 24.5251 37.2271C24.4472 37.1493 24.3693 37.1493 24.2915 37.2271C24.0578 37.4607 23.9021 37.6944 23.6685 37.928C23.5906 38.0059 23.5906 38.1616 23.6685 38.2395C23.8242 38.4731 24.0578 38.6288 24.2136 38.8625C24.3693 38.9403 24.4472 38.8625 24.5251 38.7846ZM25.6153 37.4607C25.771 37.2271 25.9268 36.9935 26.1604 36.682C26.2383 36.6041 26.2383 36.4484 26.1604 36.3705C26.0047 36.2148 25.8489 36.059 25.6932 35.8254C25.6153 35.7475 25.5374 35.7475 25.4596 35.9033C25.3038 36.1369 25.0702 36.3705 24.9144 36.6041C24.8366 36.682 24.8366 36.8378 24.9144 36.9156C25.0702 37.0714 25.2259 37.305 25.4596 37.4607C25.3817 37.6165 25.5374 37.6165 25.6153 37.4607ZM26.5498 36.059C26.7055 35.8254 26.8613 35.5139 27.017 35.2024C27.0949 35.1246 27.0949 34.9688 27.017 34.8909C26.8613 34.7352 26.7055 34.5795 26.6276 34.4237C26.5498 34.3458 26.4719 34.4237 26.394 34.5016C26.2383 34.7352 26.0825 35.0467 25.8489 35.2803C25.771 35.3582 25.771 35.5139 25.8489 35.5918C26.0047 35.7475 26.1604 35.9033 26.3162 36.1369C26.394 36.2148 26.4719 36.1369 26.5498 36.059ZM27.4064 34.5016C27.5621 34.1901 27.64 33.8786 27.7957 33.5671C27.8736 33.4892 27.7957 33.3335 27.7957 33.2556C27.64 33.0999 27.5621 33.022 27.4064 32.8663C27.3285 32.7884 27.3285 32.8663 27.2506 32.9441C27.0949 33.2556 26.9391 33.4892 26.7834 33.8007C26.7055 33.8786 26.7055 34.0343 26.7834 34.1122C26.9391 34.268 27.0949 34.4237 27.1728 34.5795C27.2506 34.6573 27.3285 34.5795 27.4064 34.5016ZM28.0294 32.7105C28.1072 32.399 28.1851 32.0097 28.263 31.6203C28.263 31.4645 28.263 31.3088 28.263 31.3088C28.1851 31.2309 28.1072 31.1531 28.0294 31.0752C28.0294 31.0752 27.9515 31.1531 27.9515 31.2309C27.8736 31.5424 27.7179 31.8539 27.64 32.1654C27.5621 32.2433 27.5621 32.399 27.64 32.4769C27.7179 32.6326 27.8736 32.7105 27.9515 32.8663C27.9515 32.8663 28.0294 32.8663 28.0294 32.7105ZM24.4472 41.1986C24.6808 40.965 24.8366 40.7314 25.0702 40.4978C25.1481 40.4199 25.1481 40.2642 25.0702 40.1863C24.9144 39.9527 24.6808 39.7969 24.5251 39.5633C24.4472 39.4854 24.3693 39.4854 24.2915 39.5633C24.0578 39.7969 23.9021 40.0305 23.6685 40.1863C23.5906 40.2642 23.5906 40.4199 23.6685 40.4978C23.8242 40.7314 24.0578 40.8871 24.2136 41.1208C24.2915 41.2765 24.3693 41.2765 24.4472 41.1986ZM25.5374 39.9527C25.6932 39.7191 25.9268 39.4854 26.0825 39.2518C26.1604 39.1739 26.1604 39.0182 26.0825 38.9403C25.9268 38.7846 25.6932 38.551 25.5374 38.3952C25.4596 38.3173 25.3817 38.3173 25.3038 38.3952C25.1481 38.6288 24.9144 38.8625 24.7587 39.0961C24.6808 39.1739 24.6808 39.3297 24.7587 39.4076C24.9144 39.6412 25.1481 39.7969 25.3038 40.0305C25.3817 40.0305 25.4596 40.0305 25.5374 39.9527ZM26.5498 38.551C26.7055 38.3173 26.8613 38.0059 27.017 37.7722C27.0949 37.6944 27.0949 37.5386 27.017 37.4607C26.8613 37.305 26.7055 37.1493 26.5498 36.9156C26.4719 36.8378 26.394 36.9156 26.3162 36.9935C26.1604 37.2271 26.0047 37.5386 25.771 37.7722C25.6932 37.8501 25.6932 38.0059 25.771 38.0837C25.9268 38.2395 26.0825 38.4731 26.3162 38.6288C26.394 38.6288 26.4719 38.6288 26.5498 38.551ZM27.4064 36.9935C27.5621 36.682 27.7179 36.4484 27.7957 36.1369C27.8736 36.059 27.8736 35.9033 27.7957 35.8254C27.64 35.6697 27.4842 35.5139 27.4064 35.3582C27.3285 35.2803 27.2506 35.3582 27.2506 35.4361C27.0949 35.7475 26.9391 35.9812 26.7834 36.2927C26.7055 36.3705 26.7055 36.5263 26.7834 36.6041C26.9391 36.7599 27.0949 36.9156 27.2506 37.1493C27.2506 37.1493 27.3285 37.0714 27.4064 36.9935ZM28.1072 35.2803C28.1851 34.9688 28.3408 34.6573 28.4187 34.268C28.4187 34.1122 28.4187 34.0343 28.4187 33.9565C28.263 33.8007 28.1851 33.7229 28.0294 33.5671C27.9515 33.4892 27.9515 33.5671 27.8736 33.7229C27.7957 34.0343 27.64 34.3458 27.4842 34.6573C27.4064 34.7352 27.4064 34.8909 27.4842 34.9688C27.64 35.1246 27.7957 35.2803 27.8736 35.4361C28.0294 35.4361 28.1072 35.4361 28.1072 35.2803ZM28.6523 33.3335C28.7302 32.9441 28.7302 32.5548 28.7302 32.1654C28.7302 32.0097 28.7302 31.8539 28.6523 31.8539C28.5745 31.776 28.4966 31.6982 28.4187 31.6203C28.4187 31.6203 28.3408 31.6982 28.3408 31.8539C28.263 32.2433 28.1851 32.6326 28.1072 32.9441C28.1072 33.0999 28.1072 33.1777 28.1072 33.2556C28.1851 33.4114 28.3408 33.4892 28.4187 33.645C28.5745 33.5671 28.5745 33.4892 28.6523 33.3335ZM24.3693 43.6127C24.603 43.3791 24.8366 43.2233 24.9923 42.9897C25.0702 42.9118 25.0702 42.7561 24.9923 42.6782C24.8366 42.4446 24.603 42.2889 24.4472 42.0552C24.3693 41.9774 24.2915 41.9774 24.2136 42.0552C23.98 42.2889 23.7464 42.4446 23.5906 42.6782C23.5127 42.7561 23.5127 42.834 23.5906 42.9118C23.8242 43.1455 23.98 43.3791 24.2136 43.5348C24.1357 43.6127 24.2915 43.6906 24.3693 43.6127ZM25.5374 42.3667C25.6932 42.1331 25.9268 41.8995 26.0825 41.6659C26.1604 41.588 26.1604 41.4323 26.0825 41.3544C25.9268 41.1208 25.6932 40.965 25.5374 40.7314C25.4596 40.6535 25.3817 40.6535 25.3038 40.7314C25.0702 40.965 24.9144 41.1986 24.6808 41.4323C24.603 41.5101 24.603 41.6659 24.6808 41.7437C24.8366 41.9774 25.0702 42.1331 25.2259 42.3667C25.3038 42.4446 25.4596 42.4446 25.5374 42.3667ZM26.5498 41.0429C26.7055 40.8093 26.9391 40.5757 27.0949 40.2642C27.1728 40.1863 27.1728 40.0305 27.0949 39.9527C26.9391 39.7969 26.7834 39.5633 26.5498 39.4076C26.4719 39.3297 26.394 39.3297 26.3162 39.4854C26.1604 39.7191 25.9268 39.9527 25.771 40.2642C25.6932 40.342 25.6932 40.4978 25.771 40.5757C25.9268 40.8093 26.1604 40.965 26.3162 41.1986C26.394 41.1208 26.4719 41.1208 26.5498 41.0429ZM27.4842 39.5633C27.64 39.2518 27.7957 39.0182 27.9515 38.7067C28.0294 38.6288 28.0294 38.4731 27.9515 38.3952C27.7957 38.2395 27.64 38.0837 27.4842 37.8501C27.4064 37.7722 27.3285 37.8501 27.2506 37.928C27.0949 38.2395 26.9391 38.4731 26.7834 38.7067C26.7055 38.7846 26.7055 38.9403 26.7834 39.0182C26.9391 39.1739 27.0949 39.4076 27.3285 39.5633C27.3285 39.6412 27.4842 39.6412 27.4842 39.5633ZM28.263 37.928C28.4187 37.6165 28.4966 37.305 28.5745 36.9935C28.5745 36.8378 28.5745 36.7599 28.5745 36.682C28.4187 36.5263 28.263 36.3705 28.1851 36.2148C28.1072 36.1369 28.0294 36.2148 28.0294 36.2927C27.8736 36.6041 27.7957 36.9156 27.64 37.2271C27.5621 37.305 27.5621 37.4607 27.64 37.5386C27.7957 37.6944 27.9515 37.8501 28.1072 38.0059C28.1851 38.0837 28.263 38.0059 28.263 37.928ZM28.886 36.059C28.9638 35.6697 29.0417 35.3582 29.1196 34.9688C29.1196 34.8131 29.1196 34.6573 29.0417 34.6573C28.9638 34.5016 28.8081 34.4237 28.6523 34.268C28.5745 34.1901 28.5745 34.268 28.4966 34.4237C28.4187 34.8131 28.3408 35.1246 28.1851 35.4361C28.1851 35.5918 28.1851 35.6697 28.1851 35.7475C28.3408 35.9033 28.4966 36.059 28.5745 36.2148C28.8081 36.2927 28.886 36.2148 28.886 36.059ZM29.1974 33.9565C29.1974 33.5671 29.1974 33.0999 29.1974 32.6326C29.1974 32.4769 29.1196 32.3211 29.1196 32.2433C29.0417 32.1654 28.9638 32.0875 28.886 32.0097C28.886 32.0097 28.8081 32.0875 28.8081 32.2433C28.8081 32.7105 28.7302 33.0999 28.7302 33.4892C28.7302 33.645 28.7302 33.8007 28.8081 33.8007C28.886 33.9565 29.0417 34.0343 29.1196 34.1901C29.1974 34.1901 29.1974 34.1122 29.1974 33.9565ZM25.4596 44.7808C25.6932 44.5472 25.8489 44.3135 26.0825 44.0799C26.1604 44.0021 26.1604 43.8463 26.0825 43.7684C25.9268 43.5348 25.6932 43.3791 25.5374 43.1455C25.4596 43.0676 25.3817 43.0676 25.3038 43.1455C25.0702 43.3791 24.9144 43.6127 24.6808 43.7684C24.603 43.8463 24.603 44.0021 24.6808 44.0799C24.9144 44.3135 25.0702 44.5472 25.3038 44.7029C25.3038 44.8587 25.3817 44.8587 25.4596 44.7808ZM26.6276 43.5348C26.7834 43.3012 27.017 43.0676 27.1728 42.834C27.2506 42.7561 27.2506 42.6003 27.1728 42.5225C27.017 42.2889 26.7834 42.1331 26.6276 41.8995C26.5498 41.8216 26.4719 41.8216 26.394 41.8995C26.2383 42.1331 26.0047 42.3667 25.8489 42.6003C25.771 42.6782 25.771 42.834 25.8489 42.9118C26.0047 43.1455 26.2383 43.3012 26.394 43.5348C26.394 43.6127 26.5498 43.6127 26.6276 43.5348ZM28.4966 40.5757C28.6523 40.2642 28.7302 39.9527 28.886 39.6412C28.9638 39.5633 28.886 39.4076 28.886 39.3297C28.7302 39.1739 28.5745 39.0182 28.4187 38.7846C28.3408 38.7067 28.263 38.7846 28.1851 38.8625C28.0294 39.1739 27.8736 39.4076 27.7957 39.7191C27.7179 39.7969 27.7179 39.9527 27.7957 40.0305C27.9515 40.1863 28.1072 40.4199 28.3408 40.5757C28.3408 40.7314 28.4187 40.6535 28.4966 40.5757ZM29.1196 38.8625C29.1974 38.551 29.3532 38.2395 29.4311 37.8501C29.4311 37.6944 29.4311 37.6165 29.4311 37.5386C29.2753 37.3829 29.1196 37.2271 29.0417 37.0714C28.9638 36.9935 28.886 37.0714 28.886 37.2271C28.8081 37.5386 28.6523 37.8501 28.5745 38.1616C28.4966 38.2395 28.5745 38.3952 28.5745 38.4731C28.7302 38.6288 28.886 38.7846 29.0417 39.0182C29.0417 39.0182 29.1196 38.9403 29.1196 38.8625ZM29.6647 36.9156C29.7426 36.5263 29.7426 36.1369 29.8204 35.7475C29.8204 35.5918 29.8204 35.4361 29.7426 35.3582C29.5868 35.2024 29.5089 35.1246 29.3532 34.9688C29.2753 34.8909 29.2753 34.9688 29.2753 35.1246C29.1974 35.5139 29.1196 35.9033 29.0417 36.2148C29.0417 36.3705 29.0417 36.5263 29.1196 36.5263C29.2753 36.682 29.4311 36.8378 29.5089 36.9935C29.5868 37.1493 29.5868 37.0714 29.6647 36.9156ZM29.8204 34.6573C29.8204 34.1901 29.7426 33.7229 29.6647 33.1777C29.6647 32.9441 29.5868 32.7884 29.5868 32.7884C29.5089 32.7105 29.4311 32.6326 29.3532 32.5548C29.3532 32.5548 29.3532 32.6326 29.3532 32.7884C29.4311 33.2556 29.4311 33.7229 29.4311 34.1901C29.4311 34.3458 29.4311 34.5016 29.5089 34.5795C29.5868 34.7352 29.7426 34.8131 29.8204 34.9688C29.8204 34.8909 29.8204 34.8131 29.8204 34.6573ZM29.3532 31.6203C29.1196 30.9973 28.886 30.2186 28.4187 29.2841C28.263 28.8947 28.1072 28.6611 28.1072 28.6611C28.1072 28.6611 28.1072 28.8169 28.1072 28.9726C28.1072 29.4399 28.1072 29.8292 28.0294 30.2186C28.0294 30.3743 28.0294 30.4522 28.0294 30.5301C28.1072 30.6079 28.1851 30.6858 28.263 30.7637C28.263 30.7637 28.3408 30.6858 28.3408 30.5301C28.3408 30.0628 28.263 29.5956 28.1851 29.0505C28.1072 28.8169 28.1072 28.6611 28.1072 28.6611C28.1072 28.6611 28.1851 28.8169 28.1851 29.0505C28.3408 29.5956 28.3408 30.1407 28.4187 30.6079C28.4187 30.7637 28.4187 30.9194 28.4966 30.9194C28.5745 30.9973 28.6523 31.0752 28.7302 31.1531C28.7302 31.1531 28.7302 31.0752 28.7302 30.8416C28.6523 30.2965 28.5745 29.7513 28.3408 29.0505C28.263 28.8169 28.1851 28.5833 28.1851 28.5833C28.1851 28.5833 28.263 28.8169 28.3408 29.0505C28.5745 29.7513 28.7302 30.3743 28.8081 30.8416C28.8081 30.9973 28.886 31.1531 28.886 31.2309C28.9638 31.3088 29.0417 31.3867 29.1196 31.4645C29.1196 31.4645 29.1196 31.3867 29.1196 31.1531C28.9638 30.5301 28.8081 29.9071 28.4966 29.1284C28.3408 28.8169 28.263 28.5833 28.263 28.5833C28.263 28.5833 28.4187 28.8169 28.4966 29.1284C28.8081 29.9071 29.0417 30.6079 29.1974 31.2309C29.2753 31.4645 29.2753 31.6203 29.3532 31.6203C29.4311 31.6982 29.5089 31.776 29.5868 31.8539C29.4311 32.0097 29.4311 31.8539 29.3532 31.6203ZM21.9553 43.4569C22.1889 43.3012 22.4225 43.0676 22.6561 42.9118C22.734 42.834 22.734 42.7561 22.6561 42.6782C22.4225 42.4446 22.2668 42.211 22.0332 42.0552C21.9553 41.9774 21.7995 41.9774 21.7217 42.0552C21.488 42.211 21.2544 42.4446 21.0208 42.6003C20.9429 42.6782 20.9429 42.7561 21.0208 42.834C21.2544 43.0676 21.4102 43.3012 21.6438 43.5348C21.7217 43.4569 21.8774 43.5348 21.9553 43.4569Z" fill="white"/>
<path fill-rule="evenodd" clip-rule="evenodd" d="M36.0505 32.1654L44.3051 23.9888H37.2965L32.5463 28.6611L27.796 23.9888H26.7837C26.8616 24.2224 27.0173 24.5339 27.1731 24.8454C27.6403 26.0913 28.1854 27.8824 28.7305 30.0628C30.288 31.8539 30.9888 34.268 30.8331 37.305L32.4684 35.6697L37.5301 40.7314H44.5387L36.6735 32.7884L36.0505 32.1654Z" fill="white"/>
<defs>
<linearGradient id="paint0_linear_18_1471" x1="12.2553" y1="7.14894" x2="54.8085" y2="51.4043" gradientUnits="userSpaceOnUse">
<stop stop-color="#898989"/>
<stop offset="0.322917" stop-color="#575757"/>
<stop offset="0.660048" stop-color="#1D1D1D"/>
</linearGradient>
</defs>
</svg>
