<svg width="64" height="64" viewBox="0 0 64 64" fill="none" xmlns="http://www.w3.org/2000/svg">
<circle cx="32" cy="32" r="32" fill="url(#paint0_linear_18_1477)"/>
<g clip-path="url(#clip0_18_1477)">
<path fill-rule="evenodd" clip-rule="evenodd" d="M41.5332 38.5126C41.5332 41.557 39.0475 44.0333 35.9914 44.0333H25.3665L36.4085 33.0333C39.2668 33.2502 41.5332 35.6105 41.5332 38.5126ZM23.7998 32.5666V19.7999H36.0157C36.2245 19.7999 36.4304 19.8111 36.6332 19.8338L23.7998 32.5666ZM43.7559 25.2958C43.7559 22.7231 42.4832 20.441 40.5308 19.0385L45.7998 13.7999L42.6478 13.8179L38.4616 17.9795C37.6868 17.7209 36.8577 17.5805 35.9962 17.5805H21.5847V37.8751L38.9356 20.6245C40.4984 21.6004 41.5395 23.3295 41.5395 25.2958C41.5395 28.3349 39.0531 30.807 35.9962 30.807H35.5374L16.2332 49.9999H19.3673L23.152 46.237H35.9962C40.2748 46.237 43.7559 42.7762 43.7559 38.5223C43.7559 35.7168 42.2372 33.2638 39.9792 31.9133C42.2396 30.5632 43.7559 28.1027 43.7559 25.2958Z" fill="white"/>
</g>
<defs>
<linearGradient id="paint0_linear_18_1477" x1="12.2553" y1="7.14894" x2="54.8085" y2="51.4043" gradientUnits="userSpaceOnUse">
<stop stop-color="#889DFF"/>
<stop offset="0.322917" stop-color="#5976FF"/>
<stop offset="1" stop-color="#263477"/>
</linearGradient>
<clipPath id="clip0_18_1477">
<rect width="36" height="36" fill="white" transform="translate(13 14)"/>
</clipPath>
</defs>
</svg>
