<svg width="64" height="64" viewBox="0 0 64 64" fill="none" xmlns="http://www.w3.org/2000/svg">
<path d="M64 32C64 49.6731 49.6731 64 32 64C14.3269 64 0 49.6731 0 32C0 14.3269 14.3269 0 32 0C49.6731 0 64 14.3269 64 32Z" fill="url(#paint0_linear_94_9113)"/>
<path d="M23.8426 28.6499L31.9982 20.4943L40.1587 28.6548L44.9059 23.9076L31.9982 11L19.0955 23.9028L23.8426 28.6499Z" fill="white"/>
<path d="M20.4933 31.9972L15.7466 27.2505L10.9999 31.9972L15.7466 36.7439L20.4933 31.9972Z" fill="white"/>
<path d="M23.8449 35.3594L32.0005 43.515L40.1634 35.3594L44.9129 40.1017L32.0053 53.0093L19.1025 40.1065L23.8449 35.3594Z" fill="white"/>
<path d="M48.2533 36.7496L53 32.0029L48.2533 27.2562L43.5066 32.0029L48.2533 36.7496Z" fill="white"/>
<path d="M36.8165 32.0017L32.0015 27.1843L28.443 30.7429L28.0338 31.152L27.1914 31.9944L32.0039 36.8069L36.8189 31.9896L36.8165 32.0017Z" fill="white"/>
<defs>
<linearGradient id="paint0_linear_94_9113" x1="12.2553" y1="7.14894" x2="54.8085" y2="51.4043" gradientUnits="userSpaceOnUse">
<stop stop-color="#FFD54E"/>
<stop offset="0.286458" stop-color="#FBC926"/>
<stop offset="1" stop-color="#A37F0D"/>
</linearGradient>
</defs>
</svg>
