<svg width="64" height="64" viewBox="0 0 64 64" fill="none" xmlns="http://www.w3.org/2000/svg">
<circle cx="32" cy="32" r="32" fill="url(#paint0_linear_18_1399)"/>
<path d="M46.863 37.9006L46.773 37.9905C46.2334 38.5751 45.5588 38.9799 44.7943 39.2947H44.7494C44.0748 39.5645 43.3553 39.6994 42.5908 39.6994C41.5115 39.6994 40.4772 39.4745 39.4878 39.0248H39.4428L39.3079 38.9349L39.263 38.8899C38.3635 38.3953 37.644 37.6757 37.1493 36.7763L37.0594 36.5964L35.0807 38.71C35.0807 38.71 34.676 40.7337 34.4961 41.7231V41.768L34.5411 41.813L34.586 41.858C36.6097 44.0615 39.4428 45.3207 42.4109 45.3207H42.5908H42.7257C44.6594 45.3207 46.5931 44.826 48.302 43.8816L48.347 43.8367C49.2914 43.297 50.1458 42.6225 50.9103 41.858L51.0002 41.768L46.863 37.9006Z" fill="white"/>
<path d="M18.9361 28.0521L19.7456 31.1101L19.9255 30.8403C20.7799 29.5811 22.129 28.7266 23.6131 28.4119H23.658C24.1977 28.3219 24.7373 28.2769 25.277 28.2769C26.0864 28.3219 26.8959 28.5468 27.5705 28.9515L27.6154 28.9965C28.6048 29.5361 29.4592 30.3006 30.1787 31.155L30.3136 31.29L32.2024 28.6367L32.787 25.8036L32.742 25.7586L32.5172 25.5787C31.258 24.4545 29.819 23.555 28.2 23.0604C27.3456 22.7906 26.4462 22.6556 25.5468 22.6556H25.5018C23.4781 22.6556 21.4994 23.1953 19.7006 24.1397L19.6557 24.1846L18.8462 27.7373L18.9361 28.0521Z" fill="white"/>
<path d="M36.6994 35.742V35.697C36.6994 35.4722 36.6544 34.6178 36.6544 34.0781V33.9432C36.6095 32.5941 37.0592 31.2899 37.9136 30.2556L37.9586 30.2107C38.0935 30.0757 38.2284 29.8959 38.3633 29.7609C39.4426 28.6367 40.9266 28.0071 42.5006 28.0071C42.7704 28.0071 42.9953 28.0071 43.2651 28.0521H43.3101C44.6142 28.232 45.7834 28.8166 46.7278 29.716L46.8178 29.8059L50.8201 25.7586L50.7302 25.6686C48.7065 23.6899 46.0533 22.5207 43.2201 22.3408H43.1751C42.9053 22.3408 42.6805 22.2959 42.4107 22.2959C40.7018 22.2959 39.0379 22.6106 37.4639 23.2402C36.4296 23.6899 35.4852 24.2746 34.6757 25.0391L34.6308 25.084H34.5858V25.129L34.5408 25.174L34.4959 25.2189C34.226 25.4888 33.9562 25.8035 33.6864 26.1183V26.1633L33.0568 28.9964L30.9432 31.9645V34.0331C30.9432 36.3266 29.5941 38.3953 27.5704 39.3396H27.5254C26.7609 39.6994 25.9515 39.8343 25.142 39.8343C21.9041 39.8793 19.2509 37.271 19.116 34.0331L19.071 32.0994V31.9645L18.0367 27.8272L18.9361 24.0047L18.8462 17.9787L13 16L13.2249 29.2663V29.3112L13.2698 34.0781C13.2698 34.258 13.2698 34.3929 13.2698 34.5728C13.2698 34.6177 13.2698 34.6177 13.2698 34.6627C13.4947 37.9006 15.0686 40.9136 17.632 42.9373L17.6769 42.9822C19.7905 44.6462 22.3988 45.5456 25.097 45.5456H25.5018H25.5917C28.5598 45.4556 30.9882 44.4663 32.8769 42.7124L32.9219 42.6675C33.1917 42.3976 33.4615 42.1278 33.6864 41.858V41.813L34.316 38.4852L36.6095 35.8769L36.6994 35.742Z" fill="white"/>
<defs>
<linearGradient id="paint0_linear_18_1399" x1="12.2553" y1="7.14894" x2="54.8085" y2="51.4043" gradientUnits="userSpaceOnUse">
<stop stop-color="#49FFCE"/>
<stop offset="0.322917" stop-color="#00B786"/>
<stop offset="1" stop-color="#09644C"/>
</linearGradient>
</defs>
</svg>
