<svg width="64" height="64" viewBox="0 0 64 64" fill="none" xmlns="http://www.w3.org/2000/svg">
<circle cx="32" cy="32" r="32" fill="url(#paint0_linear_18_1372)"/>
<path d="M31.9668 14.0004C30.6018 13.9908 29.2408 14.1515 27.9141 14.4789V36.8839C27.9107 37.1013 27.8241 37.3087 27.6727 37.4619C27.5212 37.6151 27.317 37.702 27.1036 37.704H25.481C25.4014 37.7046 25.3224 37.6892 25.2487 37.6586C25.1749 37.628 25.1079 37.5828 25.0513 37.5257C24.9948 37.4685 24.9499 37.4005 24.9193 37.3257C24.8887 37.2508 24.8729 37.1705 24.8729 37.0893V15.4352C21.6636 16.7932 18.9196 19.0865 16.9852 22.0272C15.0509 24.968 14.0123 28.4252 14 31.965C14.0177 34.3565 14.4986 36.7208 15.4152 38.9225C16.3318 41.1243 17.666 43.12 19.3414 44.7954C21.0168 46.4708 23.0005 47.7929 25.1785 48.6858C27.3566 49.5788 29.6863 50.025 32.034 49.9989C34.3729 50.0251 36.6938 49.5807 38.8637 48.6912C41.0337 47.8018 43.0098 46.4848 44.679 44.8157C46.3481 43.1466 47.6773 41.1583 48.5904 38.9649C49.5035 36.7714 49.9825 34.4159 50 32.0335C49.9415 27.2112 48.0124 22.6082 44.6337 19.2296C41.2551 15.851 36.7014 13.9711 31.9668 14.0004ZM31.6291 39.4795C31.6267 39.6791 31.5474 39.8696 31.4084 40.0102C31.2694 40.1508 31.0817 40.2301 30.8858 40.2311H29.2632C29.0673 40.2301 28.8797 40.1508 28.7406 40.0102C28.6016 39.8696 28.5223 39.6791 28.5199 39.4795V28.0716C28.5223 27.8721 28.6016 27.6815 28.7406 27.5409C28.8797 27.4004 29.0673 27.321 29.2632 27.32H30.8858C31.0817 27.321 31.2694 27.4004 31.4084 27.5409C31.5474 27.6815 31.6267 27.8721 31.6291 28.0716V39.4795ZM35.2761 40.5727C35.2737 40.7722 35.1944 40.9628 35.0554 41.1034C34.9164 41.244 34.7287 41.3233 34.5328 41.3243H32.9102C32.7143 41.3233 32.5266 41.244 32.3876 41.1034C32.2486 40.9628 32.1693 40.7722 32.1669 40.5727V26.9792C32.1693 26.7797 32.2486 26.5891 32.3876 26.4486C32.5266 26.308 32.7143 26.2286 32.9102 26.2276H34.5328C34.7287 26.2286 34.9164 26.308 35.0554 26.4486C35.1944 26.5891 35.2737 26.7797 35.2761 26.9792V40.5727ZM38.9231 38.5265C38.9206 38.726 38.8414 38.9165 38.7024 39.0571C38.5633 39.1977 38.3757 39.277 38.1798 39.2781H36.5618C36.3659 39.277 36.1783 39.1977 36.0392 39.0571C35.9002 38.9165 35.8209 38.726 35.8185 38.5265V29.1648C35.8209 28.9653 35.9002 28.7747 36.0392 28.6341C36.1783 28.4935 36.3659 28.4142 36.5618 28.4132H38.1844C38.3803 28.4142 38.568 28.4935 38.707 28.6341C38.846 28.7747 38.9253 28.9653 38.9277 29.1648L38.9231 38.5265Z" fill="white"/>
<defs>
<linearGradient id="paint0_linear_18_1372" x1="12.2553" y1="7.14894" x2="54.8085" y2="51.4043" gradientUnits="userSpaceOnUse">
<stop stop-color="#FF619A"/>
<stop offset="0.286458" stop-color="#FF005C"/>
<stop offset="1" stop-color="#6D1132"/>
</linearGradient>
</defs>
</svg>
