<svg width="64" height="64" viewBox="0 0 64 64" fill="none" xmlns="http://www.w3.org/2000/svg">
<circle cx="32" cy="32" r="32" fill="url(#paint0_linear_18_1405)"/>
<path fill-rule="evenodd" clip-rule="evenodd" d="M47.3551 43.1588C42.9807 47.501 39.2064 49.6 32.9926 49.6C22.645 49.6 15.5 42.2719 15.5 31.9528C15.5 21.3555 23.6022 14.4 33.0909 14.4C38.6298 14.4064 43.8908 16.8608 47.5 21.122L43.0738 25.4171C40.0808 22.1951 36.8135 20.5159 32.9461 20.5159C26.7375 20.5159 21.6698 25.3699 21.6698 31.9528C21.6698 38.8637 26.5487 43.4841 33.0858 43.4841C37.1808 43.4841 39.9437 41.8049 43.0738 38.6302L47.3551 43.1588Z" fill="white"/>
<defs>
<linearGradient id="paint0_linear_18_1405" x1="12.2553" y1="7.14894" x2="54.8085" y2="51.4043" gradientUnits="userSpaceOnUse">
<stop stop-color="#7C7C7C"/>
<stop offset="0.286458" stop-color="#5C5C5C"/>
<stop offset="1" stop-color="#1B1B1B"/>
</linearGradient>
</defs>
</svg>
