<svg width="64" height="64" viewBox="0 0 64 64" fill="none" xmlns="http://www.w3.org/2000/svg">
<circle cx="32" cy="32" r="32" fill="url(#paint0_linear_18_1469)"/>
<path d="M50.1034 16.5544L50.3379 17.9732C50.5236 19.2946 50.61 20.6282 50.5961 21.9625C50.595 24.9091 50.2403 27.8449 49.5394 30.7069C48.5899 34.5958 46.936 38.2778 44.6597 41.5707C41.5589 45.9693 37.4541 49.5653 32.6858 52.0604L32.0031 52.4226L31.3263 52.0575C26.5587 49.5624 22.4549 45.9664 19.3554 41.5677C17.0795 38.2746 15.4257 34.5927 14.4757 30.704C13.7747 27.842 13.4199 24.9061 13.419 21.9595C13.4053 20.6252 13.4916 19.2917 13.6772 17.9702L13.9117 16.5514C13.9511 16.318 13.8961 16.0785 13.7589 15.8856C13.6217 15.6928 13.4134 15.5623 13.18 15.5229C12.9466 15.4836 12.7071 15.5385 12.5142 15.6758C12.3214 15.813 12.1909 16.0212 12.1515 16.2546L11.917 17.6734C11.7163 19.0931 11.6231 20.5259 11.638 21.9595C11.6392 25.0503 12.012 28.1296 12.7481 31.1314C13.7498 35.2304 15.4932 39.1115 17.8921 42.5829C21.1514 47.2154 25.4677 51.0047 30.4834 53.6366L31.5846 54.2302C31.7127 54.2978 31.8553 54.3331 32.0001 54.3331C32.145 54.3331 32.2876 54.2978 32.4157 54.2302L33.5139 53.6366C38.529 51.0079 42.8462 47.2229 46.1082 42.5947C48.5071 39.1234 50.2504 35.2423 51.2521 31.1433C51.9883 28.1415 52.361 25.0621 52.3622 21.9714C52.377 20.5406 52.2828 19.1107 52.0803 17.6942L51.8458 16.2754C51.8064 16.042 51.6759 15.8337 51.4831 15.6965C51.2902 15.5593 51.0507 15.5043 50.8173 15.5437C50.5839 15.5831 50.3756 15.7135 50.2384 15.9064C50.1012 16.0993 50.0462 16.3388 50.0856 16.5722L50.1034 16.5544Z" fill="white"/>
<path d="M18.771 15.5927L32.0063 11.5499L45.5356 15.6639C45.6492 15.7054 45.7701 15.7234 45.8909 15.7166C46.0117 15.7099 46.1298 15.6786 46.2381 15.6246C46.3464 15.5707 46.4426 15.4953 46.5208 15.4029C46.5989 15.3106 46.6575 15.2033 46.6928 15.0876C46.7282 14.9719 46.7395 14.8502 46.7263 14.73C46.713 14.6097 46.6754 14.4934 46.6157 14.3882C46.556 14.283 46.4755 14.191 46.3791 14.1179C46.2827 14.0448 46.1724 13.9921 46.055 13.9631L32.2646 9.76601C32.0953 9.71439 31.9144 9.71439 31.7451 9.76601L18.2575 13.883C18.0311 13.9511 17.8411 14.1063 17.7292 14.3145C17.6173 14.5226 17.5927 14.7668 17.6608 14.9931C17.7289 15.2194 17.8842 15.4094 18.0923 15.5213C18.3005 15.6332 18.5446 15.6578 18.771 15.5897V15.5927Z" fill="white"/>
<path d="M12.2376 16.8155L31.2106 53.8413C31.2859 53.9856 31.3993 54.1066 31.5385 54.191C31.6777 54.2754 31.8374 54.32 32.0002 54.32C32.1629 54.32 32.3226 54.2754 32.4618 54.191C32.601 54.1066 32.7144 53.9856 32.7897 53.8413L44.3658 32.2028L44.3836 32.1702L51.7894 16.7799C51.8467 16.6739 51.8819 16.5574 51.8929 16.4374C51.9039 16.3175 51.8905 16.1965 51.8534 16.0819C51.8162 15.9673 51.7563 15.8614 51.6771 15.7706C51.5978 15.6799 51.501 15.6061 51.3925 15.5539C51.2839 15.5016 51.1659 15.4719 51.0456 15.4666C50.9252 15.4612 50.805 15.4804 50.6923 15.5229C50.5795 15.5653 50.4766 15.6302 50.3897 15.7136C50.3027 15.7971 50.2336 15.8972 50.1865 16.0081L42.7838 31.3806L32.0209 51.5082L13.8227 16.0052C13.7716 15.8975 13.6994 15.8012 13.6105 15.7219C13.5215 15.6427 13.4175 15.5821 13.3047 15.5438C13.1919 15.5054 13.0725 15.4901 12.9537 15.4987C12.8348 15.5074 12.7189 15.5398 12.6128 15.594C12.5067 15.6482 12.4126 15.7232 12.336 15.8145C12.2594 15.9058 12.2019 16.0115 12.1669 16.1254C12.1319 16.2393 12.1202 16.3591 12.1323 16.4776C12.1445 16.5962 12.1803 16.711 12.2376 16.8155Z" fill="white"/>
<path d="M21.3202 33.3041H42.4184C42.6546 33.3041 42.8811 33.2103 43.048 33.0433C43.215 32.8763 43.3089 32.6498 43.3089 32.4136C43.3089 32.1775 43.215 31.951 43.048 31.784C42.8811 31.617 42.6546 31.5232 42.4184 31.5232H21.3202C21.084 31.5232 20.8575 31.617 20.6905 31.784C20.5235 31.951 20.4297 32.1775 20.4297 32.4136C20.4297 32.6498 20.5235 32.8763 20.6905 33.0433C20.8575 33.2103 21.084 33.3041 21.3202 33.3041Z" fill="white"/>
<defs>
<linearGradient id="paint0_linear_18_1469" x1="12.2553" y1="7.14894" x2="54.8085" y2="51.4043" gradientUnits="userSpaceOnUse">
<stop stop-color="#DDA547"/>
<stop offset="0.322917" stop-color="#CF9331"/>
<stop offset="1" stop-color="#533402"/>
</linearGradient>
</defs>
</svg>
