<svg width="64" height="64" viewBox="0 0 64 64" fill="none" xmlns="http://www.w3.org/2000/svg">
<circle cx="32" cy="32" r="32" fill="url(#paint0_linear_28_5516)"/>
<path d="M27.763 35.7659C27.763 37.872 26.0547 39.5797 23.947 39.5797C21.8393 39.5797 20.131 37.872 20.131 35.7659C20.131 33.6598 21.8393 31.9521 23.947 31.9521C26.0547 31.9521 27.763 33.6598 27.763 35.7659Z" stroke="white" stroke-width="0.8"/>
<path d="M46.3931 35.5047C46.3931 37.6108 44.6848 39.3185 42.5771 39.3185C40.4694 39.3185 38.7611 37.6108 38.7611 35.5047C38.7611 33.3986 40.4694 31.6909 42.5771 31.6909C44.6848 31.6909 46.3931 33.3986 46.3931 35.5047Z" stroke="white" stroke-width="0.8"/>
<path d="M25.1088 35.234C25.8747 35.234 26.4956 34.6 26.4956 33.8179C26.4956 33.0358 25.8747 32.4017 25.1088 32.4017C24.3428 32.4017 23.7219 33.0358 23.7219 33.8179C23.7219 34.6 24.3428 35.234 25.1088 35.234Z" fill="white"/>
<path d="M43.6588 34.9193C44.4248 34.9193 45.0457 34.2853 45.0457 33.5032C45.0457 32.7211 44.4248 32.087 43.6588 32.087C42.8929 32.087 42.272 32.7211 42.272 33.5032C42.272 34.2853 42.8929 34.9193 43.6588 34.9193Z" fill="white"/>
<path d="M40.0128 39.3849C40.4622 39.3849 40.8265 39.0129 40.8265 38.5541C40.8265 38.0952 40.4622 37.7233 40.0128 37.7233C39.5635 37.7233 39.1992 38.0952 39.1992 38.5541C39.1992 39.0129 39.5635 39.3849 40.0128 39.3849Z" fill="white"/>
<path d="M22.0856 39.687C22.5349 39.687 22.8992 39.315 22.8992 38.8562C22.8992 38.3974 22.5349 38.0254 22.0856 38.0254C21.6362 38.0254 21.272 38.3974 21.272 38.8562C21.272 39.315 21.6362 39.687 22.0856 39.687Z" fill="white"/>
<path d="M33.1495 50.0038C32.7022 49.8081 32.2209 49.4357 31.9969 48.6628L36.5344 48.3254C36.4537 48.4937 36.3531 48.679 36.23 48.8662C35.8146 49.498 35.1795 50.1026 34.2288 50.2245C34.216 50.2248 34.195 50.2249 34.1669 50.2244C34.11 50.2234 34.0249 50.2194 33.9205 50.2073C33.7097 50.183 33.4312 50.127 33.1495 50.0038ZM34.2428 50.2241C34.2429 50.2241 34.2429 50.2241 34.2428 50.2241L34.2428 50.2241Z" fill="white" stroke="white"/>
<mask id="path-9-inside-1_28_5516" fill="white">
<path fill-rule="evenodd" clip-rule="evenodd" d="M31.6364 34.7903C31.661 35.1365 31.661 35.4512 31.661 35.7659C31.6612 36.0906 31.6354 36.4147 31.584 36.7351C31.5 37.3462 31.2962 37.9336 30.9848 38.4624C30.6735 38.9912 30.2609 39.4505 29.7718 39.8129C29.3847 40.0504 29.0186 40.3221 28.6778 40.6248C28.4616 40.8339 28.2655 41.0636 28.0922 41.3109C27.5884 42.0295 27.3237 42.8943 27.3372 43.7781C27.3545 44.4595 27.4988 45.1313 27.7625 45.7575C27.873 46.0374 28.0071 46.3069 28.1631 46.5632C28.5308 47.1652 29.0179 47.6819 29.5931 48.08C30.2655 48.5135 31.0174 48.8026 31.8028 48.9297C32.5546 49.0533 33.3184 49.0829 34.0772 49.0178C34.721 48.9619 35.3597 48.8567 35.988 48.7031C36.4128 48.6306 36.827 48.5037 37.2208 48.3255C37.5652 48.1388 37.8877 47.9129 38.1823 47.652C38.6406 47.2725 39.0334 46.8173 39.3442 46.3051C39.7562 45.6098 39.9398 44.7983 39.8681 43.9889C39.7903 43.2749 39.5689 42.5849 39.2178 41.9623C38.9604 41.4753 38.6502 41.0192 38.2933 40.6028C37.9338 40.213 37.5531 39.8442 37.153 39.4982C36.4161 38.856 35.8044 38.0777 35.3501 37.204C35.1105 36.7047 34.9881 36.1552 34.9926 35.5991C34.9895 34.4851 34.9617 33.3679 34.8785 32.257C34.8287 31.5065 34.7371 30.7594 34.6042 30.0195C34.5949 29.9699 34.5857 29.9188 34.5762 29.8665C34.4569 29.2081 34.3037 28.3629 33.6242 28.1093C33.4276 28.039 33.2175 28.0175 33.0112 28.0465C32.8049 28.0755 32.6083 28.1542 32.4377 28.2761C32.1145 28.5388 31.8955 28.9122 31.8213 29.3272C31.7595 29.6494 31.7173 29.9752 31.6949 30.3027C31.6225 31.0862 31.5885 31.8729 31.5932 32.6598C31.5932 33.3731 31.6076 34.0833 31.6364 34.7903ZM34.5168 42.0357C34.3819 42.0399 34.2474 42.0441 34.1143 42.0441C33.726 42.0504 33.3408 42.0756 32.9555 42.1196C32.4624 42.1763 31.5933 42.3179 31.5101 42.9473C31.4392 43.5011 31.9909 43.9165 32.3915 44.1683C32.6545 44.3288 32.9285 44.4697 33.2113 44.59C33.6501 44.7736 34.1269 44.8417 34.5982 44.7883C34.9275 44.7005 35.24 44.5569 35.5228 44.3634C36.0498 44.0833 37.3503 42.8749 36.3764 42.3053C36.0511 42.1382 35.6928 42.0489 35.3286 42.0441C35.061 42.0189 34.788 42.0273 34.5168 42.0357Z"/>
</mask>
<path fill-rule="evenodd" clip-rule="evenodd" d="M31.6364 34.7903C31.661 35.1365 31.661 35.4512 31.661 35.7659C31.6612 36.0906 31.6354 36.4147 31.584 36.7351C31.5 37.3462 31.2962 37.9336 30.9848 38.4624C30.6735 38.9912 30.2609 39.4505 29.7718 39.8129C29.3847 40.0504 29.0186 40.3221 28.6778 40.6248C28.4616 40.8339 28.2655 41.0636 28.0922 41.3109C27.5884 42.0295 27.3237 42.8943 27.3372 43.7781C27.3545 44.4595 27.4988 45.1313 27.7625 45.7575C27.873 46.0374 28.0071 46.3069 28.1631 46.5632C28.5308 47.1652 29.0179 47.6819 29.5931 48.08C30.2655 48.5135 31.0174 48.8026 31.8028 48.9297C32.5546 49.0533 33.3184 49.0829 34.0772 49.0178C34.721 48.9619 35.3597 48.8567 35.988 48.7031C36.4128 48.6306 36.827 48.5037 37.2208 48.3255C37.5652 48.1388 37.8877 47.9129 38.1823 47.652C38.6406 47.2725 39.0334 46.8173 39.3442 46.3051C39.7562 45.6098 39.9398 44.7983 39.8681 43.9889C39.7903 43.2749 39.5689 42.5849 39.2178 41.9623C38.9604 41.4753 38.6502 41.0192 38.2933 40.6028C37.9338 40.213 37.5531 39.8442 37.153 39.4982C36.4161 38.856 35.8044 38.0777 35.3501 37.204C35.1105 36.7047 34.9881 36.1552 34.9926 35.5991C34.9895 34.4851 34.9617 33.3679 34.8785 32.257C34.8287 31.5065 34.7371 30.7594 34.6042 30.0195C34.5949 29.9699 34.5857 29.9188 34.5762 29.8665C34.4569 29.2081 34.3037 28.3629 33.6242 28.1093C33.4276 28.039 33.2175 28.0175 33.0112 28.0465C32.8049 28.0755 32.6083 28.1542 32.4377 28.2761C32.1145 28.5388 31.8955 28.9122 31.8213 29.3272C31.7595 29.6494 31.7173 29.9752 31.6949 30.3027C31.6225 31.0862 31.5885 31.8729 31.5932 32.6598C31.5932 33.3731 31.6076 34.0833 31.6364 34.7903ZM34.5168 42.0357C34.3819 42.0399 34.2474 42.0441 34.1143 42.0441C33.726 42.0504 33.3408 42.0756 32.9555 42.1196C32.4624 42.1763 31.5933 42.3179 31.5101 42.9473C31.4392 43.5011 31.9909 43.9165 32.3915 44.1683C32.6545 44.3288 32.9285 44.4697 33.2113 44.59C33.6501 44.7736 34.1269 44.8417 34.5982 44.7883C34.9275 44.7005 35.24 44.5569 35.5228 44.3634C36.0498 44.0833 37.3503 42.8749 36.3764 42.3053C36.0511 42.1382 35.6928 42.0489 35.3286 42.0441C35.061 42.0189 34.788 42.0273 34.5168 42.0357Z" fill="white"/>
<path d="M31.661 35.7659H31.061L31.061 35.7661L31.661 35.7659ZM31.6364 34.7903L31.0369 34.8147L31.0372 34.8238L31.0379 34.8329L31.6364 34.7903ZM31.584 36.7351L30.9914 36.6401L30.9896 36.6534L31.584 36.7351ZM29.7718 39.8129L30.0856 40.3243L30.108 40.3106L30.129 40.295L29.7718 39.8129ZM28.6778 40.6248L28.2793 40.1762L28.2698 40.1847L28.2606 40.1936L28.6778 40.6248ZM28.0922 41.3109L27.6009 40.9664L27.6009 40.9664L28.0922 41.3109ZM27.3372 43.7781L26.7372 43.7872L26.7373 43.7934L27.3372 43.7781ZM27.7625 45.7575L28.3206 45.537L28.3155 45.5247L27.7625 45.7575ZM28.1631 46.5632L27.6506 46.8752L27.651 46.8759L28.1631 46.5632ZM29.5931 48.08L29.2516 48.5734L29.2597 48.579L29.268 48.5843L29.5931 48.08ZM31.8028 48.9297L31.9002 48.3376L31.8986 48.3374L31.8028 48.9297ZM34.0772 49.0178L34.1286 49.6156L34.1291 49.6156L34.0772 49.0178ZM35.988 48.7031L35.8871 48.1117L35.8661 48.1152L35.8455 48.1203L35.988 48.7031ZM37.2208 48.3255L37.4682 48.8721L37.4878 48.8632L37.5067 48.853L37.2208 48.3255ZM38.1823 47.652L37.7997 47.1899L37.792 47.1962L37.7846 47.2028L38.1823 47.652ZM39.3442 46.3051L39.8571 46.6164L39.8604 46.611L39.3442 46.3051ZM39.8681 43.9889L40.4659 43.936L40.4646 43.9239L39.8681 43.9889ZM39.2178 41.9623L38.6874 42.2427L38.6912 42.2499L38.6952 42.257L39.2178 41.9623ZM38.2933 40.6028L38.7488 40.2123L38.7417 40.204L38.7343 40.196L38.2933 40.6028ZM37.153 39.4982L36.7588 39.9505L36.7605 39.952L37.153 39.4982ZM35.3501 37.204L34.8091 37.4636L34.8133 37.4723L34.8178 37.4809L35.3501 37.204ZM34.9926 35.5991L35.5926 35.6039L35.5926 35.5974L34.9926 35.5991ZM34.8785 32.257L34.2798 32.2967L34.2802 32.3018L34.8785 32.257ZM34.6042 30.0195L35.1948 29.9134L35.1939 29.9088L34.6042 30.0195ZM34.5762 29.8665L35.1666 29.7595L35.1666 29.7595L34.5762 29.8665ZM33.6242 28.1093L33.834 27.5471L33.8262 27.5443L33.6242 28.1093ZM33.0112 28.0465L32.9277 27.4523H32.9277L33.0112 28.0465ZM32.4377 28.2761L32.0889 27.7878L32.0737 27.7987L32.0593 27.8104L32.4377 28.2761ZM31.8213 29.3272L32.4106 29.4401L32.4119 29.4327L31.8213 29.3272ZM31.6949 30.3027L32.2924 30.358L32.293 30.3508L32.2935 30.3436L31.6949 30.3027ZM31.5932 32.6598H32.1933L32.1932 32.6562L31.5932 32.6598ZM34.1143 42.0441V41.444L34.1046 41.4442L34.1143 42.0441ZM34.5168 42.0357L34.4982 41.436H34.4982L34.5168 42.0357ZM32.9555 42.1196L32.8874 41.5235L32.8871 41.5235L32.9555 42.1196ZM31.5101 42.9473L30.9153 42.8686L30.915 42.8711L31.5101 42.9473ZM32.3915 44.1683L32.0723 44.6764L32.079 44.6805L32.3915 44.1683ZM33.2113 44.59L32.9765 45.1422L32.9797 45.1435L33.2113 44.59ZM34.5982 44.7883L34.6659 45.3844L34.7099 45.3794L34.7527 45.368L34.5982 44.7883ZM35.5228 44.3634L35.2412 43.8336L35.2116 43.8493L35.1839 43.8683L35.5228 44.3634ZM36.3764 42.3053L36.6793 41.7874L36.6652 41.7791L36.6505 41.7716L36.3764 42.3053ZM35.3286 42.0441L35.2723 42.6414L35.2964 42.6437L35.3207 42.644L35.3286 42.0441ZM32.261 35.7659C32.261 35.4532 32.2612 35.1181 32.2349 34.7477L31.0379 34.8329C31.0608 35.1548 31.061 35.4492 31.061 35.7659H32.261ZM32.1764 36.8302C32.2329 36.4783 32.2612 36.1222 32.261 35.7656L31.061 35.7661C31.0612 36.0589 31.0379 36.3512 30.9916 36.6401L32.1764 36.8302ZM31.5019 38.7669C31.8537 38.1693 32.0836 37.5061 32.1784 36.8169L30.9896 36.6534C30.9163 37.1862 30.7387 37.6979 30.4678 38.158L31.5019 38.7669ZM30.129 40.295C30.6833 39.8843 31.15 39.3644 31.5019 38.7669L30.4678 38.158C30.1969 38.618 29.8385 39.0167 29.4147 39.3308L30.129 40.295ZM29.0762 41.0734C29.3908 40.794 29.7286 40.5434 30.0856 40.3243L29.4581 39.3015C29.0408 39.5575 28.6464 39.8502 28.2793 40.1762L29.0762 41.0734ZM28.5835 41.6553C28.735 41.4392 28.9063 41.2385 29.0949 41.0561L28.2606 40.1936C28.0169 40.4293 27.796 40.6881 27.6009 40.9664L28.5835 41.6553ZM27.9371 43.769C27.9256 43.0106 28.1528 42.2697 28.5835 41.6553L27.6009 40.9664C27.024 41.7894 26.7219 42.7781 26.7372 43.7872L27.9371 43.769ZM28.3155 45.5247C28.081 44.9677 27.9524 44.3697 27.937 43.7628L26.7373 43.7934C26.7566 44.5493 26.9167 45.2949 27.2095 45.9903L28.3155 45.5247ZM28.6756 46.2511C28.5374 46.0241 28.4185 45.7852 28.3205 45.537L27.2044 45.978C27.3275 46.2895 27.4768 46.5897 27.6506 46.8752L28.6756 46.2511ZM29.9345 47.5866C29.4288 47.2366 28.9996 46.7817 28.6752 46.2504L27.651 46.8759C28.062 47.5488 28.607 48.1272 29.2516 48.5734L29.9345 47.5866ZM31.8986 48.3374C31.1953 48.2236 30.5215 47.9646 29.9182 47.5757L29.268 48.5843C30.0095 49.0624 30.8394 49.3816 31.707 49.522L31.8986 48.3374ZM34.0259 48.42C33.3167 48.4809 32.6029 48.4532 31.9002 48.3376L31.7054 49.5217C32.5064 49.6535 33.3201 49.685 34.1286 49.6156L34.0259 48.42ZM35.8455 48.1203C35.2469 48.2666 34.6385 48.3668 34.0254 48.42L34.1291 49.6156C34.8035 49.557 35.4725 49.4468 36.1305 49.2859L35.8455 48.1203ZM36.9733 47.7789C36.6261 47.9361 36.2612 48.0478 35.8871 48.1117L36.0889 49.2946C36.5645 49.2134 37.0279 49.0714 37.4682 48.8721L36.9733 47.7789ZM37.7846 47.2028C37.524 47.4335 37.2389 47.6331 36.9348 47.798L37.5067 48.853C37.8914 48.6444 38.2515 48.3922 38.5801 48.1012L37.7846 47.2028ZM38.8313 45.9938C38.5549 46.4492 38.2061 46.8534 37.7997 47.1899L38.565 48.1142C39.0752 47.6917 39.5118 47.1853 39.8571 46.6164L38.8313 45.9938ZM39.2704 44.0419C39.3311 44.7267 39.1756 45.4127 38.828 45.9992L39.8604 46.611C40.3368 45.807 40.5485 44.8698 40.4658 43.936L39.2704 44.0419ZM38.6952 42.257C39.0062 42.8085 39.2026 43.4202 39.2716 44.0539L40.4646 43.9239C40.378 43.1295 40.1317 42.3613 39.7405 41.6676L38.6952 42.257ZM37.8377 40.9933C38.1656 41.3758 38.4506 41.7949 38.6874 42.2427L39.7483 41.6819C39.4701 41.1557 39.1349 40.6627 38.7488 40.2123L37.8377 40.9933ZM36.7605 39.952C37.1435 40.2833 37.508 40.6364 37.8522 41.0096L38.7343 40.196C38.3596 39.7897 37.9627 39.4052 37.5455 39.0444L36.7605 39.952ZM34.8178 37.4809C35.3065 38.4207 35.9648 39.2586 36.7588 39.9505L37.5472 39.0459C36.8673 38.4534 36.3024 37.7347 35.8824 36.9272L34.8178 37.4809ZM34.3926 35.5943C34.3874 36.2414 34.5298 36.8814 34.8091 37.4636L35.891 36.9445C35.6912 36.5279 35.5888 36.0689 35.5925 35.6039L34.3926 35.5943ZM34.2802 32.3018C34.362 33.3933 34.3895 34.495 34.3926 35.6007L35.5926 35.5974C35.5895 34.4751 35.5615 33.3425 35.4769 32.2122L34.2802 32.3018ZM34.0137 30.1256C34.1426 30.8435 34.2315 31.5684 34.2798 32.2967L35.4772 32.2173C35.4259 31.4445 35.3316 30.6753 35.1948 29.9134L34.0137 30.1256ZM33.9858 29.9735C33.9952 30.0255 34.0048 30.0784 34.0145 30.1301L35.1939 29.9088C35.1851 29.8614 35.1761 29.8122 35.1666 29.7595L33.9858 29.9735ZM33.4144 28.6714C33.5416 28.7189 33.655 28.8281 33.758 29.0706C33.8654 29.3234 33.9238 29.6312 33.9858 29.9735L35.1666 29.7595C35.1093 29.4434 35.0315 28.9993 34.8625 28.6016C34.6892 28.1935 34.3863 27.7533 33.834 27.5472L33.4144 28.6714ZM33.0947 28.6406C33.2047 28.6252 33.3169 28.6366 33.4222 28.6742L33.8262 27.5443C33.5384 27.4414 33.2304 27.4098 32.9277 27.4523L33.0947 28.6406ZM32.7864 28.7643C32.879 28.6981 32.9847 28.6561 33.0947 28.6406L32.9277 27.4523C32.6251 27.4948 32.3376 27.6102 32.0889 27.7878L32.7864 28.7643ZM32.4119 29.4327C32.4611 29.1574 32.606 28.9125 32.8161 28.7417L32.0593 27.8104C31.623 28.165 31.3298 28.6669 31.2307 29.2216L32.4119 29.4327ZM32.2935 30.3436C32.3143 30.0403 32.3534 29.7385 32.4106 29.4401L31.232 29.2142C31.1657 29.5602 31.1204 29.9101 31.0963 30.2618L32.2935 30.3436ZM32.1932 32.6562C32.1886 31.8889 32.2217 31.1219 32.2924 30.358L31.0975 30.2475C31.0232 31.0505 30.9884 31.8568 30.9933 32.6634L32.1932 32.6562ZM32.2359 34.7659C32.2074 34.0671 32.1932 33.3651 32.1932 32.6598H30.9932C30.9932 33.3812 31.0078 34.0995 31.0369 34.8147L32.2359 34.7659ZM34.1143 42.6441C34.2583 42.6441 34.4021 42.6396 34.5354 42.6355L34.4982 41.436C34.3617 41.4403 34.2365 41.4441 34.1143 41.4441V42.6441ZM33.0237 42.7157C33.3896 42.6739 33.7553 42.65 34.124 42.644L34.1046 41.4442C33.6967 41.4508 33.2919 41.4772 32.8874 41.5235L33.0237 42.7157ZM32.1049 43.0259C32.1053 43.0235 32.102 42.9596 32.3109 42.8721C32.5155 42.7864 32.7821 42.7435 33.024 42.7157L32.8871 41.5235C32.6359 41.5524 32.2214 41.6086 31.8474 41.7652C31.4776 41.9201 30.9982 42.2416 30.9153 42.8686L32.1049 43.0259ZM32.7108 43.6603C32.523 43.5423 32.3454 43.4129 32.2254 43.2758C32.1076 43.1412 32.1 43.0648 32.1053 43.0234L30.915 42.8711C30.8494 43.3836 31.0822 43.7918 31.3226 44.0664C31.5609 44.3384 31.8594 44.5425 32.0723 44.6763L32.7108 43.6603ZM33.4461 44.0378C33.1902 43.929 32.9422 43.8015 32.7041 43.6561L32.079 44.6805C32.3668 44.8561 32.6668 45.0104 32.9765 45.1421L33.4461 44.0378ZM34.5305 44.1921C34.1613 44.234 33.7875 44.1807 33.4429 44.0365L32.9797 45.1435C33.5127 45.3665 34.0925 45.4495 34.6659 45.3844L34.5305 44.1921ZM35.1839 43.8683C34.9571 44.0235 34.7068 44.1384 34.4437 44.2085L34.7527 45.368C35.1481 45.2626 35.523 45.0903 35.8616 44.8586L35.1839 43.8683ZM36.0735 42.8232C36.1302 42.8564 36.1401 42.8762 36.1362 42.8701C36.1345 42.8675 36.132 42.8626 36.1301 42.8565C36.1284 42.8505 36.1283 42.8473 36.1284 42.8484C36.1289 42.8652 36.1173 42.9522 36.0115 43.1126C35.8015 43.4311 35.4226 43.7372 35.2412 43.8336L35.8043 44.8932C36.1499 44.7096 36.6848 44.2714 37.0133 43.7732C37.1768 43.5253 37.3406 43.1859 37.3276 42.8072C37.3128 42.3744 37.0735 42.0179 36.6793 41.7874L36.0735 42.8232ZM35.3207 42.644C35.5918 42.6476 35.859 42.7141 36.1023 42.839L36.6505 41.7716C36.2431 41.5623 35.7937 41.4501 35.3365 41.4441L35.3207 42.644ZM34.5354 42.6355C34.8133 42.6268 35.0485 42.6203 35.2723 42.6414L35.3849 41.4467C35.0736 41.4174 34.7627 41.4278 34.4982 41.436L34.5354 42.6355Z" fill="white" mask="url(#path-9-inside-1_28_5516)"/>
<path d="M36.5759 35.8637C36.5755 36.6454 36.7259 37.4198 37.0188 38.1428C37.3118 38.8659 37.7417 39.5236 38.2845 40.0782C38.8273 40.6328 39.4723 41.0733 40.1831 41.374C40.8938 41.6748 41.656 41.8297 42.426 41.8297H42.4262C42.7799 41.8296 43.1317 41.7966 43.4774 41.7318C40.8543 45.0979 36.6894 47.281 31.9723 47.281C26.2484 47.281 21.3241 44.0699 19.0208 39.436C19.2246 39.7414 19.4573 40.0291 19.717 40.2944C20.8131 41.4143 22.3021 42.0459 23.8573 42.0468H23.8579C25.4131 42.0459 26.9022 41.4143 27.9983 40.2944C29.0941 39.1749 29.7078 37.659 29.7078 36.0805C29.7078 34.5023 29.0939 32.9867 27.998 31.8677C26.9017 30.7482 25.4126 30.1174 23.8576 30.1174C22.3027 30.1174 20.8136 30.7482 19.7173 31.8677C18.6214 32.9867 18.0075 34.5023 18.0075 36.0805C18.0075 36.3458 18.0248 36.6093 18.0589 36.8694C17.7786 35.7955 17.6299 34.6719 17.6299 33.5157C17.6299 25.9304 24.0317 19.7505 31.9723 19.7505C39.1024 19.7505 44.9918 24.7344 46.1207 31.2394C45.8127 30.9821 45.4786 30.7566 45.123 30.5672C44.291 30.1242 43.3661 29.8919 42.4266 29.8908H42.426C41.6554 29.8908 40.8927 30.046 40.1815 30.3471C39.4703 30.6483 38.825 31.0894 38.2821 31.6447C37.7392 32.2 37.3095 32.8586 37.0169 33.5825C36.7244 34.3062 36.5746 35.0813 36.5759 35.8637ZM36.5759 35.8637C36.5759 35.8639 36.5759 35.8641 36.5759 35.8642L37.0759 35.8634L36.5759 35.8631C36.5759 35.8633 36.5759 35.8635 36.5759 35.8637Z" stroke="white"/>
<path fill-rule="evenodd" clip-rule="evenodd" d="M23.0184 22.1371C20.4123 24.0343 18.4783 26.7396 17.6202 29.8654C17.0525 28.6485 14.7807 23.4781 15.2346 19.5747C15.2497 19.4819 15.2982 19.3982 15.3706 19.34C15.443 19.2818 15.5341 19.2532 15.626 19.26C18.3269 19.408 20.9112 20.4158 23.0184 22.1371Z" fill="white"/>
<path fill-rule="evenodd" clip-rule="evenodd" d="M17.1484 34.2356C15.8026 32.9501 9.66246 26.5829 11.265 18.8163C11.265 18.8163 11.6842 16.9627 11.4099 15.7417C11.3484 15.4738 11.3903 15.192 11.527 14.9549C11.752 14.6182 12.2173 14.6843 12.5563 14.7346C13.0083 14.8025 13.4609 14.8575 13.9132 14.9126C14.8458 15.0261 15.777 15.1394 16.6984 15.364C18.3449 15.74 19.9234 16.3771 21.3767 17.2522C22.1186 17.7105 22.8071 18.2531 23.4292 18.8698C23.7516 19.1883 24.0523 19.529 24.3292 19.8894C24.474 20.0782 24.6127 20.2733 24.7421 20.4716C24.7504 20.4842 24.7701 20.5119 24.7963 20.5488L24.7963 20.5488C24.8609 20.6395 24.965 20.7859 25.0356 20.9006C24.6074 21.1185 24.1917 21.3559 23.7897 21.6116C20.4708 18.1387 15.7616 17.3466 14.2975 17.1798C14.2394 17.1733 14.1807 17.1791 14.1248 17.1968C14.069 17.2145 14.0174 17.2437 13.9732 17.2827C13.9289 17.3217 13.893 17.3695 13.8677 17.4233C13.8424 17.4771 13.8282 17.5356 13.826 17.5952C13.4663 26.8064 16.5379 30.3611 17.3372 31.1255C17.2008 31.9027 17.1298 32.7012 17.1298 33.5158C17.1298 33.7572 17.1361 33.9971 17.1484 34.2356Z" fill="white"/>
<path fill-rule="evenodd" clip-rule="evenodd" d="M46.3889 30.1045C47.0768 28.5419 49.3376 23.0242 48.8765 18.9736C48.8626 18.8694 48.8094 18.7749 48.7282 18.7102C48.647 18.6455 48.5443 18.6158 48.442 18.6275C45.5882 18.9695 42.8876 20.1162 40.6406 21.9342C43.459 23.8859 45.536 26.7643 46.3889 30.1045Z" fill="white"/>
<path fill-rule="evenodd" clip-rule="evenodd" d="M38.0596 20.6505C38.5713 19.5916 41.3893 14.8954 51.2863 14.4294C51.3762 14.4191 51.4673 14.4302 51.5523 14.4619C51.6373 14.4935 51.714 14.5449 51.7763 14.6119C51.9012 14.7701 51.9716 14.9658 51.9767 15.1689C51.9875 15.3408 51.9875 15.5132 51.9767 15.685V16.176V17.1515C52.0214 17.6694 52.1007 18.1836 52.214 18.6904C52.3323 19.1398 52.3914 19.6034 52.3896 20.0688C52.3896 20.4287 52.3582 20.7914 52.3267 21.1542L52.3267 21.1542L52.3187 21.2457C52.2725 21.7461 52.2109 22.2465 52.1308 22.7437C52.0383 23.3228 51.9212 23.9018 51.7794 24.4745C51.6231 25.1137 51.4338 25.744 51.2123 26.3627C50.9761 27.025 50.6992 27.6714 50.3833 28.2981C50.048 28.9553 49.6658 29.5864 49.2399 30.1863C48.7891 30.8255 48.2848 31.4235 47.7329 31.9738C47.5696 32.1306 47.4063 32.2838 47.243 32.4325C47.1887 31.9119 47.1053 31.3995 46.9944 30.8969C48.2609 28.9239 51.4252 23.2623 50.4419 17.2554C50.423 17.145 50.3638 17.0459 50.2764 16.9782C50.1889 16.9105 50.0795 16.8791 49.9703 16.8903C46.2471 17.3866 42.7532 19.0039 39.9341 21.5358C39.3347 21.2003 38.7086 20.904 38.0596 20.6505ZM46.0323 31.7679L46.8083 32.8172C46.8673 32.7666 46.9263 32.7153 46.9853 32.6633C46.7042 32.3262 46.3841 32.0256 46.0323 31.7679Z" fill="white"/>
<defs>
<linearGradient id="paint0_linear_28_5516" x1="12.2553" y1="7.14894" x2="54.8085" y2="51.4043" gradientUnits="userSpaceOnUse">
<stop stop-color="#FFCD68"/>
<stop offset="0.322917" stop-color="#F4B330"/>
<stop offset="1" stop-color="#A5771B"/>
</linearGradient>
</defs>
</svg>
