<svg width="64" height="64" viewBox="0 0 64 64" fill="none" xmlns="http://www.w3.org/2000/svg">
<circle cx="32" cy="32" r="32" fill="url(#paint0_linear_18_1342)"/>
<path d="M45.5183 37.608H26.5488V27.2897H23.6783V39.0285C23.6808 39.2172 23.7207 39.4035 23.7956 39.5767C23.8705 39.7499 23.9789 39.9066 24.1146 40.0377C24.2503 40.1688 24.4106 40.2718 24.5863 40.3407C24.762 40.4096 24.9495 40.443 25.1382 40.4391H41.7204L38.2975 43.4478H19.91V26.4315H38.84C39.2008 26.4357 39.5511 26.3096 39.8265 26.0764L46.5047 20.2366C46.7254 20.0509 46.8829 19.8011 46.9554 19.5218C47.0279 19.2426 47.0117 18.9477 46.9092 18.678C46.7975 18.4063 46.6075 18.1739 46.3633 18.0105C46.1191 17.8471 45.8318 17.7601 45.538 17.7606H25.1382C24.9491 17.758 24.7613 17.7927 24.5855 17.8627C24.4098 17.9327 24.2496 18.0366 24.114 18.1685C23.9784 18.3004 23.8702 18.4577 23.7954 18.6315C23.7206 18.8052 23.6808 18.992 23.6783 19.1811V22.7126H26.5488V20.6016H41.7204L38.2975 23.561H18.4599C18.2708 23.5584 18.083 23.593 17.9073 23.663C17.7315 23.733 17.5713 23.8369 17.4357 23.9688C17.3002 24.1007 17.1919 24.258 17.1171 24.4318C17.0424 24.6055 17.0026 24.7923 17 24.9814V44.819C17.0026 45.0081 17.0424 45.1949 17.1171 45.3686C17.1919 45.5424 17.3002 45.6997 17.4357 45.8316C17.5713 45.9635 17.7315 46.0674 17.9073 46.1374C18.083 46.2074 18.2708 46.2421 18.4599 46.2395H38.84C39.2027 46.2446 39.5544 46.1145 39.8265 45.8745L46.485 40.1136C46.7034 39.9261 46.8591 39.6763 46.9314 39.3977C47.0037 39.1191 46.9891 38.825 46.8894 38.555C46.7824 38.2777 46.5944 38.039 46.3498 37.8701C46.1053 37.7012 45.8155 37.6099 45.5183 37.608Z" fill="white"/>
<defs>
<linearGradient id="paint0_linear_18_1342" x1="12.2553" y1="7.14894" x2="54.8085" y2="51.4043" gradientUnits="userSpaceOnUse">
<stop stop-color="#FF5763"/>
<stop offset="0.322917" stop-color="#E22E3B"/>
<stop offset="1" stop-color="#8C0B14"/>
</linearGradient>
</defs>
</svg>
