<svg width="64" height="64" viewBox="0 0 64 64" fill="none" xmlns="http://www.w3.org/2000/svg">
<circle cx="32" cy="32" r="32" fill="url(#paint0_linear_18_1327)"/>
<path fill-rule="evenodd" clip-rule="evenodd" d="M29.1613 46.9413C29.8259 50.3868 30.7734 52.6418 31.9909 52.6418C34.0424 52.6418 35.323 46.2708 35.7811 38.583C40.9459 41.1678 45.7022 42.9823 48.1915 42.9823C49.0235 42.9823 49.6015 42.78 49.8596 42.3361C50.4604 41.2997 49.1307 39.4023 45.9182 36.6957C43.8785 35.0416 41.7651 33.4823 39.5849 32.0226C41.7647 30.5631 43.8776 29.0041 45.9168 27.3504C49.1293 24.6416 50.4549 22.7422 49.8582 21.7099C49.2046 20.5782 46.4604 21.0139 42.7696 22.3734C42.5244 21.9225 42.0465 21.6164 41.4972 21.6164C40.6979 21.6164 40.0499 22.2644 40.0499 23.0637C40.0499 23.1953 40.0675 23.3229 40.1005 23.4442C38.7243 24.0363 37.2697 24.7174 35.7809 25.4625C35.3221 17.773 34.0395 11.3999 31.9909 11.3999C29.9429 11.3999 28.6604 17.7695 28.2011 25.4561C21.3164 22.0101 15.1625 19.9342 14.1404 21.7131C13.6 22.6453 14.6215 24.2741 17.1701 26.5618C16.9984 26.7998 16.8972 27.092 16.8972 27.4078C16.8972 28.2071 17.5451 28.8551 18.3444 28.8551C18.7598 28.8551 19.1342 28.6801 19.3982 28.3999C21.025 29.6674 22.6964 30.8757 24.409 32.0226C22.2304 33.4814 20.1187 35.0396 18.0804 36.6925C14.8679 39.4013 13.5424 41.3007 14.139 42.3329C14.3971 42.7727 14.9813 42.9792 15.8072 42.9792C18.2938 42.9792 23.0428 41.1662 28.2014 38.5861C28.3188 40.5481 28.4898 42.4243 28.7134 44.1306C28.1528 44.33 27.7514 44.8654 27.7514 45.4945C27.7514 46.2813 28.3792 46.9214 29.1613 46.9413ZM29.8861 46.7684C30.5246 50.0909 31.3224 51.9192 31.9909 51.9192C33.1054 51.9192 34.5786 46.8393 35.075 38.2261C34.0563 37.7063 33.0252 37.1587 31.9956 36.5912C30.9628 37.16 29.9286 37.7088 28.9069 38.2298C29.0327 40.4113 29.2212 42.3661 29.4507 44.0691C30.1298 44.1883 30.6459 44.7811 30.6459 45.4945C30.6459 46.045 30.3386 46.5237 29.8861 46.7684ZM28.8647 37.4411C29.6363 37.0451 30.4321 36.6238 31.2503 36.1768C30.836 35.9444 30.4226 35.7091 30.0108 35.4714C29.5942 35.2363 29.1796 34.9979 28.767 34.756C28.789 35.6833 28.822 36.5789 28.8647 37.4411ZM28.7502 33.9116C29.288 34.2309 29.8293 34.5444 30.3742 34.852C30.9216 35.1681 31.4607 35.4735 31.9909 35.7685C32.5266 35.4706 33.0712 35.1621 33.6244 34.8427C34.1636 34.5383 34.6992 34.2282 35.2314 33.9123C35.2414 33.2951 35.2466 32.6644 35.2466 32.0208C35.2466 31.3776 35.2414 30.7473 35.2315 30.1304C34.7011 29.8156 34.1673 29.5066 33.6301 29.2033C33.0756 28.8834 32.5296 28.5742 31.9927 28.2759C31.4608 28.5714 30.92 28.8774 30.3708 29.194C29.8271 29.501 29.2868 29.8138 28.7502 30.1325C28.7402 30.7487 28.7351 31.3783 28.7351 32.0208C28.7351 32.6642 28.7402 33.2946 28.7502 33.9116ZM28.0194 30.5713C28.0133 31.0541 28.0102 31.5376 28.0102 32.0208C28.0102 32.5049 28.0133 32.9892 28.0194 33.4727C27.2434 33.0013 26.4751 32.5176 25.7147 32.0219C26.4751 31.5262 27.2434 31.0427 28.0194 30.5713ZM28.7669 29.2893C29.179 29.0477 29.5932 28.8095 30.0094 28.5747C30.4221 28.3364 30.8366 28.1006 31.2518 27.8677C30.4331 27.4208 29.6367 26.9995 28.8645 26.6035C28.8219 27.4659 28.7889 28.3617 28.7669 29.2893ZM28.1572 26.2444C28.098 27.385 28.0566 28.5504 28.0331 29.7245C27.0294 30.3265 26.0382 30.9487 25.0601 31.5909C23.242 30.3816 21.4704 29.1027 19.7493 27.7569C19.777 27.6451 19.7917 27.5282 19.7917 27.4078C19.7917 26.6085 19.1437 25.9606 18.3444 25.9606C18.1265 25.9606 17.9199 26.0087 17.7346 26.095C15.1777 23.8113 14.5162 22.5085 14.7679 22.0744C14.8856 21.87 15.2098 21.7647 15.7239 21.7647V21.7668C17.6221 21.7668 22.0925 23.1968 28.1572 26.2444ZM28.9068 25.8128C29.9289 26.3344 30.9636 26.884 31.9968 27.4535C33.0262 26.8862 34.0571 26.3387 35.0755 25.819C34.5802 17.2032 33.109 12.1204 31.9909 12.1204V12.1225C30.8766 12.1225 29.4035 17.2013 28.9068 25.8128ZM35.1175 26.6056C34.3477 27.0004 33.5538 27.4203 32.7377 27.8656C33.156 28.1002 33.5735 28.3378 33.9892 28.5778C34.3997 28.8094 34.8081 29.0443 35.2146 29.2824C35.1927 28.3581 35.1599 27.4653 35.1175 26.6056ZM35.9623 30.569C35.9683 31.0525 35.9714 31.5368 35.9714 32.0208C35.9714 32.5052 35.9683 32.9898 35.9623 33.4736C36.7395 33.0017 37.5091 32.5175 38.2707 32.0212C37.5091 31.5249 36.7395 31.0408 35.9623 30.569ZM35.2144 34.7629C34.8076 35.0013 34.3987 35.2365 33.9878 35.4682C33.5722 35.708 33.1547 35.9453 32.7365 36.1796C33.5528 36.6257 34.3469 37.0463 35.117 37.4416C35.1595 36.5814 35.1924 35.688 35.2144 34.7629ZM35.8247 37.8014C35.8836 36.6628 35.9249 35.4997 35.9484 34.3279C36.9555 33.7242 37.95 33.1001 38.9312 32.4559C41.1797 33.9509 43.3571 35.5524 45.4557 37.2552C48.6847 39.9783 49.5107 41.5041 49.2341 41.981C48.6774 42.9471 43.5384 41.6822 35.8247 37.8014ZM35.9484 29.7173C35.9249 28.5465 35.8836 27.3843 35.8246 26.2466C37.5022 25.4036 39.0579 24.6842 40.4711 24.0843C40.7332 24.3478 41.0962 24.5109 41.4972 24.5109C42.2842 24.5109 42.9245 23.8828 42.944 23.1005C45.3934 22.1981 47.2242 21.7622 48.2726 21.7616C48.7875 21.7619 49.1129 21.8671 49.2284 22.0651C49.5051 22.544 48.6814 24.0677 45.4503 26.7909C43.3527 28.4928 41.1765 30.0934 38.9291 31.5878C37.9485 30.9442 36.9548 30.3206 35.9484 29.7173ZM28.0332 34.3208C28.0567 35.4947 28.0982 36.6599 28.1575 37.8004C20.4535 41.6747 15.3225 42.937 14.7646 41.9716C14.49 41.4927 15.3138 39.969 18.5449 37.2458C20.6403 35.5457 22.8142 33.9466 25.0591 32.4536C26.0375 33.096 27.0291 33.7186 28.0332 34.3208ZM34.1701 32.0236C34.1701 33.222 33.1986 34.1935 32.0002 34.1935C30.8018 34.1935 29.8303 33.222 29.8303 32.0236C29.8303 30.8252 30.8018 29.8537 32.0002 29.8537C33.1986 29.8537 34.1701 30.8252 34.1701 32.0236Z" fill="white"/>
<path d="M29.1613 46.9413L29.3085 46.9129L29.2857 46.7944L29.1651 46.7913L29.1613 46.9413ZM35.7811 38.583L35.8483 38.4489L35.6449 38.3471L35.6314 38.5741L35.7811 38.583ZM49.8596 42.3361L49.9893 42.4115L49.9894 42.4113L49.8596 42.3361ZM45.9182 36.6957L46.0149 36.581L46.0127 36.5792L45.9182 36.6957ZM39.5849 32.0226L39.5014 31.8979L39.3153 32.0226L39.5014 32.1472L39.5849 32.0226ZM45.9168 27.3504L46.0113 27.4669L46.0135 27.465L45.9168 27.3504ZM49.8582 21.7099L49.7283 21.785L49.7283 21.785L49.8582 21.7099ZM42.7696 22.3734L42.6378 22.445L42.6997 22.559L42.8214 22.5141L42.7696 22.3734ZM40.1005 23.4442L40.1598 23.582L40.2794 23.5305L40.2452 23.4048L40.1005 23.4442ZM35.7809 25.4625L35.6312 25.4714L35.6447 25.6984L35.848 25.5966L35.7809 25.4625ZM28.2011 25.4561L28.134 25.5903L28.3373 25.692L28.3509 25.4651L28.2011 25.4561ZM14.1404 21.7131L14.2702 21.7883L14.2705 21.7878L14.1404 21.7131ZM17.1701 26.5618L17.2917 26.6496L17.3706 26.5402L17.2703 26.4502L17.1701 26.5618ZM19.3982 28.3999L19.4904 28.2816L19.3826 28.1976L19.289 28.2971L19.3982 28.3999ZM24.409 32.0226L24.4925 32.1472L24.6786 32.0226L24.4925 31.8979L24.409 32.0226ZM18.0804 36.6925L17.9859 36.576L17.9837 36.5779L18.0804 36.6925ZM14.139 42.3329L14.0092 42.408L14.0097 42.4089L14.139 42.3329ZM28.2014 38.5861L28.3511 38.5772L28.3376 38.3503L28.1343 38.452L28.2014 38.5861ZM28.7134 44.1306L28.7637 44.2719L28.8779 44.2313L28.8622 44.1111L28.7134 44.1306ZM29.8861 46.7684L29.8148 46.6364L29.7181 46.6887L29.7388 46.7967L29.8861 46.7684ZM35.075 38.2261L35.2247 38.2348L35.2304 38.137L35.1432 38.0925L35.075 38.2261ZM31.9956 36.5912L32.068 36.4598L31.9956 36.42L31.9232 36.4598L31.9956 36.5912ZM28.9069 38.2298L28.8388 38.0962L28.7515 38.1407L28.7571 38.2385L28.9069 38.2298ZM29.4507 44.0691L29.302 44.0891L29.3167 44.1978L29.4247 44.2168L29.4507 44.0691ZM28.8647 37.4411L28.7148 37.4485L28.7263 37.6807L28.9331 37.5745L28.8647 37.4411ZM31.2503 36.1768L31.3222 36.3084L31.56 36.1785L31.3237 36.046L31.2503 36.1768ZM30.0108 35.4714L30.0858 35.3415L30.0845 35.3407L30.0108 35.4714ZM28.767 34.756L28.8429 34.6266L28.6107 34.4904L28.6171 34.7595L28.767 34.756ZM30.3742 34.852L30.4492 34.7221L30.4479 34.7214L30.3742 34.852ZM28.7502 33.9116L28.6002 33.914L28.6016 33.9978L28.6736 34.0406L28.7502 33.9116ZM31.9909 35.7685L31.918 35.8996L31.9909 35.9402L32.0638 35.8996L31.9909 35.7685ZM33.6244 34.8427L33.5507 34.712L33.5494 34.7128L33.6244 34.8427ZM35.2314 33.9123L35.308 34.0413L35.38 33.9986L35.3814 33.9148L35.2314 33.9123ZM35.2315 30.1304L35.3815 30.1279L35.3801 30.0441L35.308 30.0014L35.2315 30.1304ZM33.6301 29.2033L33.5551 29.3333L33.5563 29.334L33.6301 29.2033ZM31.9927 28.2759L32.0656 28.1447L31.9927 28.1043L31.9198 28.1447L31.9927 28.2759ZM30.3708 29.194L30.4445 29.3246L30.4457 29.324L30.3708 29.194ZM28.7502 30.1325L28.6736 30.0035L28.6015 30.0463L28.6002 30.13L28.7502 30.1325ZM28.0194 30.5713L28.1693 30.5732L28.1727 30.3027L27.9415 30.4431L28.0194 30.5713ZM28.0194 33.4727L27.9415 33.6009L28.1728 33.7413L28.1694 33.4708L28.0194 33.4727ZM25.7147 32.0219L25.6328 31.8963L25.44 32.0219L25.6328 32.1476L25.7147 32.0219ZM28.7669 29.2893L28.617 29.2858L28.6106 29.5549L28.8428 29.4187L28.7669 29.2893ZM30.0094 28.5747L30.0831 28.7053L30.0844 28.7046L30.0094 28.5747ZM31.2518 27.8677L31.3252 27.9986L31.5616 27.866L31.3237 27.7361L31.2518 27.8677ZM28.8645 26.6035L28.933 26.47L28.7262 26.364L28.7147 26.5961L28.8645 26.6035ZM28.0331 29.7245L28.1103 29.8531L28.1814 29.8104L28.1831 29.7275L28.0331 29.7245ZM28.1572 26.2444L28.307 26.2521L28.312 26.1543L28.2245 26.1103L28.1572 26.2444ZM25.0601 31.5909L24.977 31.7158L25.0596 31.7706L25.1424 31.7162L25.0601 31.5909ZM19.7493 27.7569L19.6037 27.7208L19.5804 27.8152L19.6569 27.875L19.7493 27.7569ZM17.7346 26.095L17.6346 26.2068L17.7083 26.2726L17.7978 26.231L17.7346 26.095ZM14.7679 22.0744L14.8977 22.1497L14.8979 22.1492L14.7679 22.0744ZM15.7239 21.7647H15.8739V21.6147H15.7239V21.7647ZM15.7239 21.7668H15.5739V21.9168H15.7239V21.7668ZM31.9968 27.4535L31.9243 27.5849L31.9967 27.6248L32.0692 27.5849L31.9968 27.4535ZM28.9068 25.8128L28.7571 25.8042L28.7514 25.9019L28.8386 25.9464L28.9068 25.8128ZM35.0755 25.819L35.1437 25.9526L35.2309 25.9081L35.2253 25.8104L35.0755 25.819ZM31.9909 12.1204V11.9704H31.8409V12.1204H31.9909ZM31.9909 12.1225V12.2725H32.1409V12.1225H31.9909ZM35.1175 26.6056L35.2673 26.5982L35.2559 26.3661L35.0491 26.4722L35.1175 26.6056ZM32.7377 27.8656L32.6659 27.7339L32.4279 27.8638L32.6644 27.9964L32.7377 27.8656ZM33.9892 28.5778L33.9142 28.7077L33.9155 28.7084L33.9892 28.5778ZM35.2146 29.2824L35.1388 29.4119L35.3709 29.5479L35.3646 29.2789L35.2146 29.2824ZM35.9623 30.569L36.0401 30.4408L35.8089 30.3004L35.8123 30.5709L35.9623 30.569ZM35.9623 33.4736L35.8123 33.4717L35.8089 33.7422L36.0401 33.6018L35.9623 33.4736ZM38.2707 32.0212L38.3526 32.1469L38.5455 32.0212L38.3526 31.8955L38.2707 32.0212ZM35.2144 34.7629L35.3644 34.7664L35.3708 34.4974L35.1386 34.6335L35.2144 34.7629ZM33.9878 35.4682L33.9141 35.3376L33.9129 35.3383L33.9878 35.4682ZM32.7365 36.1796L32.6632 36.0488L32.4267 36.1813L32.6646 36.3113L32.7365 36.1796ZM35.117 37.4416L35.0485 37.5751L35.2553 37.6813L35.2668 37.4491L35.117 37.4416ZM35.9484 34.3279L35.8712 34.1992L35.8001 34.2419L35.7984 34.3249L35.9484 34.3279ZM35.8247 37.8014L35.6749 37.7936L35.6698 37.8914L35.7572 37.9353L35.8247 37.8014ZM38.9312 32.4559L39.0142 32.331L38.9317 32.2762L38.8489 32.3305L38.9312 32.4559ZM45.4557 37.2552L45.5525 37.1405L45.5503 37.1387L45.4557 37.2552ZM49.2341 41.981L49.1043 41.9057L49.1041 41.9061L49.2341 41.981ZM35.8246 26.2466L35.7573 26.1126L35.6698 26.1566L35.6748 26.2544L35.8246 26.2466ZM35.9484 29.7173L35.7984 29.7203L35.8001 29.8033L35.8713 29.846L35.9484 29.7173ZM40.4711 24.0843L40.5775 23.9785L40.5059 23.9066L40.4125 23.9462L40.4711 24.0843ZM42.944 23.1005L42.8921 22.9597L42.7966 22.9949L42.794 23.0967L42.944 23.1005ZM48.2726 21.7616L48.2727 21.6116H48.2725L48.2726 21.7616ZM49.2284 22.0651L49.3583 21.99L49.358 21.9895L49.2284 22.0651ZM45.4503 26.7909L45.5449 26.9074L45.547 26.9056L45.4503 26.7909ZM38.9291 31.5878L38.8468 31.7132L38.9296 31.7676L39.0121 31.7127L38.9291 31.5878ZM28.1575 37.8004L28.2249 37.9344L28.3124 37.8904L28.3073 37.7926L28.1575 37.8004ZM28.0332 34.3208L28.1832 34.3178L28.1815 34.2348L28.1104 34.1922L28.0332 34.3208ZM14.7646 41.9716L14.6344 42.0463L14.6347 42.0467L14.7646 41.9716ZM18.5449 37.2458L18.4504 37.1293L18.4482 37.1311L18.5449 37.2458ZM25.0591 32.4536L25.1414 32.3282L25.0586 32.2738L24.976 32.3287L25.0591 32.4536ZM31.9909 52.4917C31.7371 52.4917 31.4853 52.3753 31.2336 52.1285C30.9807 51.8804 30.7364 51.5082 30.5042 51.0193C30.0401 50.0418 29.64 48.6312 29.3085 46.9129L29.014 46.9697C29.3471 48.6969 29.753 50.1365 30.2332 51.1479C30.4732 51.6534 30.7356 52.0603 31.0236 52.3427C31.3128 52.6263 31.636 52.7918 31.9909 52.7918V52.4917ZM35.6314 38.5741C35.4026 42.414 34.9686 45.9183 34.338 48.4592C34.0223 49.7308 33.6597 50.7516 33.2544 51.451C32.8444 52.1585 32.4185 52.4917 31.9909 52.4917V52.7918C32.5891 52.7918 33.0926 52.3286 33.514 51.6014C33.9401 50.866 34.3109 49.8135 34.6291 48.5314C35.2662 45.9649 35.7016 42.4398 35.9309 38.5919L35.6314 38.5741ZM35.714 38.7172C38.2998 40.0112 40.7856 41.1137 42.9386 41.893C45.0869 42.6706 46.9191 43.1323 48.1915 43.1323V42.8323C46.9746 42.8323 45.1841 42.3867 43.0407 41.6109C40.902 40.8368 38.4273 39.7396 35.8483 38.4489L35.714 38.7172ZM48.1915 43.1323C49.0348 43.1323 49.6884 42.929 49.9893 42.4115L49.7299 42.2607C49.5147 42.6309 49.0122 42.8323 48.1915 42.8323V43.1323ZM49.9894 42.4113C50.1638 42.1104 50.1917 41.7554 50.0946 41.3622C49.9981 40.9715 49.7768 40.5353 49.4418 40.0563C48.7717 39.098 47.6243 37.937 46.0149 36.581L45.8216 36.8104C47.4246 38.161 48.5483 39.302 49.1959 40.2282C49.5198 40.6913 49.7191 41.093 49.8033 41.4341C49.887 41.7727 49.8558 42.0436 49.7298 42.2609L49.9894 42.4113ZM46.0127 36.5792C43.9694 34.9222 41.8524 33.3602 39.6683 31.8979L39.5014 32.1472C41.6779 33.6044 43.7876 35.1609 45.8237 36.8122L46.0127 36.5792ZM39.6683 32.1472C41.8519 30.6852 43.9685 29.1235 46.0113 27.4669L45.8223 27.2339C43.7866 28.8848 41.6774 30.441 39.5014 31.8979L39.6683 32.1472ZM46.0135 27.465C47.623 26.1079 48.7693 24.9459 49.4389 23.9874C49.7737 23.5082 49.9948 23.0722 50.0914 22.6819C50.1887 22.2892 50.1615 21.9349 49.9881 21.6349L49.7283 21.785C49.8533 22.0011 49.8841 22.2714 49.8002 22.6098C49.7158 22.9506 49.5166 23.3523 49.193 23.8156C48.5458 24.742 47.4231 25.8841 45.8201 27.2357L46.0135 27.465ZM49.9881 21.6349C49.7974 21.3048 49.4606 21.1021 49.0287 20.9991C48.5982 20.8964 48.0592 20.8888 47.4362 20.9584C46.1892 21.0978 44.5671 21.5514 42.7177 22.2326L42.8214 22.5141C44.6628 21.8359 46.2582 21.3919 47.4695 21.2565C48.0755 21.1888 48.5759 21.1995 48.9591 21.2909C49.3409 21.382 49.5922 21.5492 49.7283 21.785L49.9881 21.6349ZM42.9013 22.3017C42.631 21.8045 42.1037 21.4664 41.4972 21.4664V21.7664C41.9894 21.7664 42.4178 22.0405 42.6378 22.445L42.9013 22.3017ZM41.4972 21.4664C40.6151 21.4664 39.8999 22.1815 39.8999 23.0637H40.1999C40.1999 22.3472 40.7807 21.7664 41.4972 21.7664V21.4664ZM39.8999 23.0637C39.8999 23.2088 39.9193 23.3496 39.9557 23.4835L40.2452 23.4048C40.2157 23.2963 40.1999 23.1819 40.1999 23.0637H39.8999ZM40.0412 23.3064C38.662 23.8998 37.2047 24.5821 35.7138 25.3283L35.848 25.5966C37.3346 24.8526 38.7866 24.1727 40.1598 23.582L40.0412 23.3064ZM31.9909 11.5499C32.4177 11.5499 32.8432 11.8831 33.253 12.591C33.6581 13.2906 34.0208 14.3117 34.3365 15.5838C34.9674 18.1254 35.402 21.6307 35.6312 25.4714L35.9306 25.4535C35.701 21.6048 35.2649 18.0788 34.6277 15.5115C34.3093 14.2291 33.9386 13.1763 33.5127 12.4407C33.0915 11.7133 32.5885 11.2499 31.9909 11.2499V11.5499ZM28.3509 25.4651C28.5803 21.6257 29.015 18.122 29.6458 15.5817C29.9616 14.3102 30.3242 13.2897 30.7292 12.5904C31.1389 11.8829 31.5643 11.5499 31.9909 11.5499V11.2499C31.3936 11.2499 30.8906 11.7131 30.4696 12.4401C30.0437 13.1753 29.673 14.2276 29.3547 15.5094C28.7174 18.0754 28.2813 21.5999 28.0514 25.4472L28.3509 25.4651ZM28.2683 25.322C24.8223 23.5972 21.5533 22.2121 19.0138 21.4811C17.7452 21.1159 16.6492 20.9111 15.8001 20.9129C14.9604 20.9146 14.3084 21.1196 14.0103 21.6384L14.2705 21.7878C14.4834 21.4171 14.9839 21.2145 15.8007 21.2129C16.6081 21.2112 17.6725 21.4072 18.9308 21.7694C21.4448 22.4931 24.6952 23.869 28.134 25.5903L28.2683 25.322ZM14.0106 21.6379C13.6958 22.1811 13.8574 22.8895 14.3697 23.7087C14.8872 24.5361 15.792 25.5264 17.0699 26.6734L17.2703 26.4502C15.9996 25.3095 15.1193 24.3415 14.6241 23.5496C14.1236 22.7494 14.0447 22.1773 14.2702 21.7883L14.0106 21.6379ZM17.0485 26.474C16.8589 26.7367 16.7472 27.0594 16.7472 27.4078H17.0472C17.0472 27.1245 17.1378 26.8628 17.2917 26.6496L17.0485 26.474ZM16.7472 27.4078C16.7472 28.29 17.4623 29.0051 18.3444 29.0051V28.7051C17.628 28.7051 17.0472 28.1243 17.0472 27.4078H16.7472ZM18.3444 29.0051C18.8028 29.0051 19.2163 28.8118 19.5074 28.5028L19.289 28.2971C19.0522 28.5485 18.7167 28.7051 18.3444 28.7051V29.0051ZM19.306 28.5182C20.9356 29.7879 22.6099 30.9983 24.3256 32.1472L24.4925 31.8979C22.7828 30.753 21.1143 29.5468 19.4904 28.2816L19.306 28.5182ZM24.3256 31.8979C22.1432 33.3593 20.0277 34.9202 17.9859 36.576L18.1749 36.809C20.2096 35.159 22.3177 33.6035 24.4925 32.1472L24.3256 31.8979ZM17.9837 36.5779C16.3742 37.935 15.2279 39.097 14.5583 40.0555C14.2236 40.5347 14.0025 40.9707 13.9058 41.361C13.8085 41.7537 13.8358 42.108 14.0092 42.408L14.2689 42.2579C14.144 42.0417 14.1132 41.7715 14.197 41.4331C14.2814 41.0923 14.4806 40.6906 14.8043 40.2273C15.4514 39.3009 16.5741 38.1588 18.1771 36.8072L17.9837 36.5779ZM14.0097 42.4089C14.3105 42.9215 14.9695 43.1292 15.8072 43.1292V42.8292C14.9932 42.8292 14.4837 42.6239 14.2684 42.257L14.0097 42.4089ZM15.8072 43.1292C17.0783 43.1292 18.908 42.6678 21.0534 41.8912C23.2034 41.1129 25.6858 40.012 28.2685 38.7203L28.1343 38.452C25.5584 39.7403 23.0871 40.836 20.9512 41.6091C18.8108 42.384 17.0227 42.8292 15.8072 42.8292V43.1292ZM28.8622 44.1111C28.639 42.4089 28.4683 40.5363 28.3511 38.5772L28.0517 38.5951C28.1692 40.5599 28.3405 42.4396 28.5647 44.1501L28.8622 44.1111ZM27.9014 45.4945C27.9014 44.9308 28.261 44.4508 28.7637 44.2719L28.6632 43.9892C28.0446 44.2093 27.6014 44.7999 27.6014 45.4945H27.9014ZM29.1651 46.7913C28.4642 46.7735 27.9014 46.1997 27.9014 45.4945H27.6014C27.6014 46.3628 28.2943 47.0693 29.1575 47.0912L29.1651 46.7913ZM29.7388 46.7967C30.059 48.4626 30.4203 49.7615 30.7887 50.6473C30.9726 51.0894 31.1614 51.4363 31.3527 51.6753C31.5399 51.9092 31.7537 52.0692 31.9909 52.0692V51.7692C31.8938 51.7692 31.7572 51.7006 31.5869 51.4878C31.4207 51.2802 31.2447 50.9624 31.0657 50.5321C30.7085 49.6732 30.3518 48.3967 30.0334 46.74L29.7388 46.7967ZM31.9909 52.0692C32.1895 52.0692 32.3711 51.9566 32.5318 51.7874C32.6943 51.6163 32.853 51.3695 33.0076 51.0574C33.3173 50.4323 33.6245 49.5159 33.9105 48.3379C34.4829 45.9799 34.9762 42.5471 35.2247 38.2348L34.9252 38.2175C34.6774 42.5183 34.1858 45.932 33.619 48.2672C33.3353 49.4358 33.0343 50.3278 32.7388 50.9243C32.5908 51.223 32.4477 51.4403 32.3143 51.5808C32.1792 51.723 32.071 51.7692 31.9909 51.7692V52.0692ZM31.9232 36.7226C32.9541 37.2908 33.9867 37.8391 35.0068 38.3597L35.1432 38.0925C34.126 37.5734 33.0962 37.0266 32.068 36.4598L31.9232 36.7226ZM28.975 38.3635C29.9982 37.8417 31.0339 37.2921 32.068 36.7226L31.9232 36.4598C30.8918 37.0278 29.859 37.576 28.8388 38.0962L28.975 38.3635ZM28.7571 38.2385C28.8832 40.4234 29.072 42.382 29.302 44.0891L29.5993 44.049C29.3704 42.3503 29.1823 40.3993 29.0566 38.2212L28.7571 38.2385ZM29.4247 44.2168C30.0334 44.3237 30.4959 44.8552 30.4959 45.4945H30.7959C30.7959 44.707 30.2263 44.053 29.4766 43.9213L29.4247 44.2168ZM30.4959 45.4945C30.4959 45.9877 30.2207 46.4169 29.8148 46.6364L29.9575 46.9003C30.4564 46.6305 30.7959 46.1022 30.7959 45.4945H30.4959ZM28.9331 37.5745C29.7059 37.1779 30.5029 36.756 31.3222 36.3084L31.1784 36.0452C30.3613 36.4915 29.5666 36.9122 28.7962 37.3076L28.9331 37.5745ZM31.3237 36.046C30.91 35.8139 30.497 35.5789 30.0858 35.3415L29.9358 35.6013C30.3481 35.8393 30.7621 36.0749 31.1769 36.3076L31.3237 36.046ZM30.0845 35.3407C29.6686 35.1061 29.2547 34.868 28.8429 34.6266L28.6912 34.8854C29.1044 35.1277 29.5197 35.3666 29.9371 35.602L30.0845 35.3407ZM28.6171 34.7595C28.6391 35.6882 28.6721 36.585 28.7148 37.4485L29.0145 37.4337C28.9719 36.5728 28.939 35.6785 28.917 34.7524L28.6171 34.7595ZM30.4479 34.7214C29.904 34.4143 29.3636 34.1014 28.8268 33.7826L28.6736 34.0406C29.2123 34.3605 29.7546 34.6745 30.3005 34.9826L30.4479 34.7214ZM32.0639 35.6375C31.5343 35.3428 30.9959 35.0378 30.4492 34.7221L30.2992 34.9819C30.8473 35.2984 31.3871 35.6042 31.918 35.8996L32.0639 35.6375ZM33.5494 34.7128C32.9969 35.0318 32.453 35.3399 31.918 35.6374L32.0638 35.8996C32.6002 35.6013 33.1455 35.2924 33.6994 34.9726L33.5494 34.7128ZM35.1549 33.7834C34.6236 34.0987 34.0889 34.4083 33.5507 34.7121L33.6982 34.9733C34.2382 34.6684 34.7749 34.3578 35.308 34.0413L35.1549 33.7834ZM35.3814 33.9148C35.3914 33.2967 35.3966 32.6652 35.3966 32.0208H35.0966C35.0966 32.6636 35.0914 33.2935 35.0814 33.9099L35.3814 33.9148ZM35.3966 32.0208C35.3966 31.3768 35.3914 30.7457 35.3815 30.1279L35.0815 30.1328C35.0914 30.7489 35.0966 31.3784 35.0966 32.0208H35.3966ZM33.5563 29.334C34.0926 29.6367 34.6255 29.9452 35.1549 30.2594L35.308 30.0014C34.7768 29.6861 34.242 29.3765 33.7038 29.0727L33.5563 29.334ZM31.9198 28.407C32.456 28.705 33.0013 29.0137 33.5551 29.3333L33.7051 29.0734C33.1498 28.7531 32.6032 28.4435 32.0656 28.1447L31.9198 28.407ZM30.4457 29.324C30.9942 29.0077 31.5343 28.7021 32.0655 28.407L31.9198 28.1447C31.3873 28.4406 30.8458 28.747 30.2959 29.0641L30.4457 29.324ZM28.8267 30.2614C29.3625 29.9433 29.9018 29.631 30.4445 29.3246L30.2971 29.0634C29.7524 29.3709 29.2112 29.6843 28.6736 30.0035L28.8267 30.2614ZM28.6002 30.13C28.5902 30.7471 28.5851 31.3775 28.5851 32.0208H28.8851C28.8851 31.3791 28.8902 30.7503 28.9001 30.1349L28.6002 30.13ZM28.5851 32.0208C28.5851 32.665 28.5902 33.2962 28.6002 33.914L28.9002 33.9092C28.8902 33.2929 28.8851 32.6634 28.8851 32.0208H28.5851ZM28.1602 32.0208C28.1602 31.5382 28.1633 31.0553 28.1693 30.5732L27.8694 30.5695C27.8633 31.0528 27.8602 31.537 27.8602 32.0208H28.1602ZM28.1694 33.4708C28.1633 32.9879 28.1602 32.5042 28.1602 32.0208H27.8602C27.8602 32.5055 27.8633 32.9904 27.8694 33.4745L28.1694 33.4708ZM28.0973 33.3444C27.3226 32.8739 26.5557 32.3911 25.7966 31.8963L25.6328 32.1476C26.3945 32.6442 27.1642 33.1287 27.9415 33.6009L28.0973 33.3444ZM25.7966 32.1476C26.5556 31.6528 27.3226 31.17 28.0972 30.6996L27.9415 30.4431C27.1641 30.9153 26.3945 31.3997 25.6328 31.8963L25.7966 32.1476ZM28.8428 29.4187C29.2542 29.1775 29.6676 28.9397 30.0831 28.7053L29.9357 28.444C29.5188 28.6792 29.1039 28.9179 28.6911 29.1599L28.8428 29.4187ZM30.0844 28.7046C30.4966 28.4666 30.9105 28.2311 31.3252 27.9986L31.1784 27.7369C30.7627 27.9701 30.3477 28.2062 29.9344 28.4447L30.0844 28.7046ZM31.3237 27.7361C30.5038 27.2885 29.7063 26.8666 28.933 26.47L28.7961 26.7369C29.567 27.1323 30.3623 27.553 31.1799 27.9994L31.3237 27.7361ZM28.7147 26.5961C28.672 27.4598 28.639 28.3569 28.617 29.2858L28.9169 29.2929C28.9388 28.3665 28.9717 27.472 29.0143 26.6109L28.7147 26.5961ZM28.1831 29.7275C28.2065 28.5549 28.2479 27.3912 28.307 26.2521L28.0074 26.2366C27.9481 27.3789 27.9066 28.5459 27.8832 29.7215L28.1831 29.7275ZM25.1424 31.7162C26.1188 31.0752 27.1083 30.454 28.1103 29.8531L27.956 29.5958C26.9505 30.1989 25.9575 30.8222 24.9778 31.4655L25.1424 31.7162ZM19.6569 27.875C21.381 29.2232 23.1557 30.5043 24.977 31.7158L25.1432 31.466C23.3282 30.2588 21.5597 28.9821 19.8417 27.6387L19.6569 27.875ZM19.6417 27.4078C19.6417 27.5159 19.6285 27.6207 19.6037 27.7208L19.8949 27.7929C19.9255 27.6695 19.9417 27.5404 19.9417 27.4078H19.6417ZM18.3444 26.1106C19.0609 26.1106 19.6417 26.6914 19.6417 27.4078H19.9417C19.9417 26.5257 19.2266 25.8106 18.3444 25.8106V26.1106ZM17.7978 26.231C17.9638 26.1538 18.1488 26.1106 18.3444 26.1106V25.8106C18.1042 25.8106 17.876 25.8637 17.6713 25.959L17.7978 26.231ZM14.6382 21.9991C14.5445 22.1607 14.5508 22.3735 14.6222 22.6082C14.6948 22.8471 14.8427 23.1362 15.0741 23.4756C15.5373 24.1552 16.3518 25.0611 17.6346 26.2068L17.8345 25.9831C16.5604 24.8452 15.7658 23.9578 15.322 23.3066C15.0998 22.9806 14.9697 22.7198 14.9092 22.5209C14.8475 22.318 14.8655 22.2051 14.8977 22.1497L14.6382 21.9991ZM15.7239 21.6147C15.4584 21.6147 15.2316 21.6417 15.051 21.7002C14.8709 21.7586 14.722 21.8536 14.638 21.9996L14.8979 22.1492C14.9316 22.0908 15.0036 22.0309 15.1435 21.9856C15.283 21.9404 15.4753 21.9147 15.7239 21.9147V21.6147ZM15.8739 21.7668V21.7647H15.5739V21.7668H15.8739ZM28.2245 26.1103C25.1877 24.5843 22.5479 23.4622 20.4276 22.7211C18.3124 21.9819 16.6999 21.6168 15.7239 21.6168V21.9168C16.6461 21.9168 18.2179 22.2667 20.3286 23.0043C22.4342 23.7402 25.0619 24.8568 28.0898 26.3784L28.2245 26.1103ZM32.0692 27.3222C31.0346 26.7519 29.9985 26.2016 28.975 25.6792L28.8386 25.9464C29.8592 26.4673 30.8925 27.0161 31.9243 27.5849L32.0692 27.3222ZM35.0073 25.6854C33.9875 26.2059 32.9552 26.7541 31.9244 27.3222L32.0692 27.5849C33.0973 27.0183 34.1268 26.4716 35.1437 25.9526L35.0073 25.6854ZM35.2253 25.8104C34.9773 21.4967 34.4848 18.0626 33.9125 15.7034C33.6266 14.5249 33.3193 13.6081 33.0093 12.9826C32.8546 12.6704 32.6956 12.4234 32.5329 12.2523C32.3718 12.0829 32.1898 11.9704 31.9909 11.9704V12.2704C32.0716 12.2704 32.1802 12.3168 32.3155 12.459C32.4491 12.5996 32.5924 12.817 32.7405 13.1158C33.0363 13.7126 33.3374 14.605 33.621 15.7741C34.1877 18.1103 34.6784 21.5254 34.9258 25.8276L35.2253 25.8104ZM31.8409 12.1204V12.1225H32.1409V12.1204H31.8409ZM31.9909 11.9725C31.7924 11.9725 31.6108 12.0851 31.4501 12.2542C31.2877 12.4252 31.1289 12.672 30.9744 12.984C30.6647 13.6091 30.3574 14.5252 30.0715 15.703C29.499 18.0606 29.0057 21.4927 28.7571 25.8042L29.0566 25.8215C29.3046 21.5215 29.7961 18.1084 30.363 15.7737C30.6467 14.6054 30.9477 13.7136 31.2432 13.1172C31.3912 12.8185 31.5342 12.6013 31.6676 12.4609C31.8027 12.3187 31.9109 12.2725 31.9909 12.2725V11.9725ZM35.0491 26.4722C34.2781 26.8675 33.4831 27.288 32.6659 27.7339L32.8096 27.9973C33.6246 27.5525 34.4173 27.1333 35.186 26.7391L35.0491 26.4722ZM32.6644 27.9964C33.0821 28.2307 33.499 28.468 33.9142 28.7077L34.0642 28.4479C33.6479 28.2076 33.2299 27.9697 32.8111 27.7348L32.6644 27.9964ZM33.9155 28.7084C34.3252 28.9396 34.733 29.1741 35.1388 29.4119L35.2904 29.153C34.8833 28.9144 34.4741 28.6791 34.0629 28.4472L33.9155 28.7084ZM35.3646 29.2789C35.3426 28.3533 35.3098 27.4592 35.2673 26.5982L34.9677 26.613C35.01 27.4714 35.0428 28.3629 35.0646 29.286L35.3646 29.2789ZM35.8123 30.5709C35.8183 31.0537 35.8214 31.5374 35.8214 32.0208H36.1214C36.1214 31.5362 36.1183 31.0512 36.1122 30.5671L35.8123 30.5709ZM35.8214 32.0208C35.8214 32.5045 35.8184 32.9886 35.8123 33.4717L36.1123 33.4755C36.1183 32.9911 36.1214 32.5058 36.1214 32.0208H35.8214ZM38.1888 31.8955C37.4286 32.391 36.6603 32.8743 35.8844 33.3454L36.0401 33.6018C36.8188 33.1291 37.5897 32.6441 38.3526 32.1469L38.1888 31.8955ZM35.8844 30.6972C36.6603 31.1682 37.4286 31.6515 38.1888 32.1469L38.3526 31.8955C37.5897 31.3984 36.8187 30.9134 36.0401 30.4408L35.8844 30.6972ZM35.1386 34.6335C34.7324 34.8715 34.3243 35.1062 33.9141 35.3376L34.0615 35.5989C34.4731 35.3667 34.8827 35.1311 35.2903 34.8923L35.1386 34.6335ZM33.9129 35.3383C33.4978 35.5777 33.0809 35.8147 32.6632 36.0488L32.8098 36.3105C33.2286 36.0758 33.6466 35.8382 34.0628 35.5982L33.9129 35.3383ZM32.6646 36.3113C33.482 36.758 34.2772 37.1791 35.0485 37.5751L35.1855 37.3082C34.4166 36.9134 33.6236 36.4935 32.8084 36.048L32.6646 36.3113ZM35.2668 37.4491C35.3094 36.5875 35.3424 35.6928 35.3644 34.7664L35.0645 34.7593C35.0425 35.6832 35.0097 36.5753 34.9672 37.4342L35.2668 37.4491ZM35.7984 34.3249C35.775 35.4952 35.7338 36.6567 35.6749 37.7936L35.9745 37.8091C36.0335 36.669 36.0749 35.5042 36.0983 34.3309L35.7984 34.3249ZM38.8489 32.3305C37.8694 32.9735 36.8766 33.5966 35.8712 34.1992L36.0255 34.4565C37.0344 33.8518 38.0306 33.2266 39.0135 32.5813L38.8489 32.3305ZM45.5503 37.1387C43.4479 35.4329 41.2667 33.8287 39.0142 32.331L38.8481 32.5809C41.0927 34.0732 43.2663 35.6719 45.3612 37.3717L45.5503 37.1387ZM49.3638 42.0562C49.4665 41.8793 49.4497 41.6406 49.356 41.3745C49.2602 41.1024 49.0726 40.7684 48.7803 40.3715C48.1949 39.5767 47.1713 38.5058 45.5525 37.1405L45.359 37.3698C46.9692 38.7277 47.9731 39.7813 48.5387 40.5494C48.822 40.9339 48.9909 41.2409 49.073 41.4741C49.1573 41.7134 49.14 41.8442 49.1043 41.9057L49.3638 42.0562ZM35.7572 37.9353C39.6192 39.8784 42.8411 41.1688 45.171 41.8527C46.3349 42.1943 47.2827 42.3865 47.9792 42.4309C48.3269 42.4531 48.6202 42.439 48.8496 42.3838C49.0765 42.3291 49.2649 42.228 49.364 42.0559L49.1041 41.9061C49.0641 41.9755 48.9701 42.0462 48.7793 42.0921C48.591 42.1375 48.3312 42.1527 47.9983 42.1315C47.3337 42.0892 46.4102 41.9038 45.2555 41.5648C42.9483 40.8876 39.7438 39.6052 35.8921 37.6674L35.7572 37.9353ZM35.6748 26.2544C35.7337 27.3904 35.775 28.551 35.7984 29.7203L36.0983 29.7143C36.0749 28.5419 36.0335 27.3782 35.9744 26.2389L35.6748 26.2544ZM40.4125 23.9462C38.9961 24.5475 37.4374 25.2683 35.7573 26.1126L35.892 26.3807C37.5669 25.539 39.1197 24.8209 40.5297 24.2224L40.4125 23.9462ZM41.4972 24.3609C41.1377 24.3609 40.8126 24.2149 40.5775 23.9785L40.3648 24.1901C40.6539 24.4807 41.0546 24.6609 41.4972 24.6609V24.3609ZM42.794 23.0967C42.7765 23.7979 42.2026 24.3609 41.4972 24.3609V24.6609C42.3658 24.6609 43.0724 23.9677 43.094 23.1042L42.794 23.0967ZM48.2725 21.6116C47.1955 21.6122 45.3432 22.0567 42.8921 22.9597L42.9959 23.2412C45.4436 22.3394 47.2529 21.9121 48.2727 21.9116L48.2725 21.6116ZM49.358 21.9895C49.2744 21.8462 49.1251 21.7535 48.9459 21.6963C48.7656 21.6388 48.5387 21.6117 48.2727 21.6116L48.2725 21.9116C48.5215 21.9117 48.7147 21.9374 48.8547 21.9821C48.9958 22.0271 49.0669 22.086 49.0988 22.1406L49.358 21.9895ZM45.547 26.9056C47.1669 25.5403 48.1905 24.4699 48.7755 23.6753C49.0677 23.2785 49.255 22.9445 49.3507 22.6723C49.4443 22.406 49.4607 22.1673 49.3583 21.99L49.0985 22.1401C49.1345 22.2023 49.1517 22.3337 49.0676 22.5729C48.9857 22.8061 48.817 23.1131 48.534 23.4974C47.9686 24.2652 46.9648 25.3183 45.3537 26.6762L45.547 26.9056ZM39.0121 31.7127C41.2635 30.2157 43.4436 28.6122 45.5448 26.9073L45.3558 26.6744C43.2619 28.3733 41.0895 29.9712 38.846 31.4629L39.0121 31.7127ZM35.8713 29.846C36.8759 30.4482 37.8679 31.0707 38.8468 31.7132L39.0114 31.4624C38.0291 30.8177 37.0336 30.193 36.0255 29.5887L35.8713 29.846ZM28.3073 37.7926C28.2481 36.6538 28.2067 35.4902 28.1832 34.3178L27.8833 34.3238C27.9068 35.4992 27.9483 36.666 28.0077 37.8082L28.3073 37.7926ZM14.6347 42.0467C14.734 42.2186 14.9222 42.3196 15.1491 42.3743C15.3783 42.4296 15.6713 42.4437 16.0187 42.4217C16.7145 42.3776 17.6611 42.1858 18.8235 41.8448C21.1503 41.1623 24.3677 39.8741 28.2249 37.9344L28.0901 37.6664C24.2432 39.601 21.0432 40.8811 18.739 41.557C17.5859 41.8952 16.6636 42.0802 15.9997 42.1223C15.6672 42.1434 15.4076 42.128 15.2194 42.0827C15.0288 42.0367 14.9346 41.9661 14.8944 41.8966L14.6347 42.0467ZM18.4482 37.1311C16.8283 38.4964 15.8047 39.5668 15.2193 40.3613C14.927 40.7581 14.7395 41.0921 14.6436 41.3642C14.5497 41.6305 14.5328 41.869 14.6344 42.0463L14.8947 41.897C14.859 41.8348 14.8421 41.7032 14.9265 41.464C15.0088 41.2307 15.1777 40.9237 15.4609 40.5393C16.0265 39.7715 17.0304 38.7184 18.6416 37.3605L18.4482 37.1311ZM24.976 32.3287C22.7272 33.8243 20.5495 35.4263 18.4504 37.1294L18.6394 37.3623C20.7311 35.6652 22.9012 34.0689 25.1422 32.5785L24.976 32.3287ZM28.1104 34.1922C27.108 33.591 26.1181 32.9695 25.1414 32.3282L24.9768 32.579C25.9569 33.2225 26.9502 33.8462 27.9561 34.4494L28.1104 34.1922ZM32.0002 34.3435C33.2814 34.3435 34.3201 33.3048 34.3201 32.0236H34.0201C34.0201 33.1391 33.1157 34.0435 32.0002 34.0435V34.3435ZM29.6803 32.0236C29.6803 33.3048 30.719 34.3435 32.0002 34.3435V34.0435C30.8847 34.0435 29.9803 33.1391 29.9803 32.0236H29.6803ZM32.0002 29.7037C30.719 29.7037 29.6803 30.7424 29.6803 32.0236H29.9803C29.9803 30.9081 30.8847 30.0037 32.0002 30.0037V29.7037ZM34.3201 32.0236C34.3201 30.7424 33.2814 29.7037 32.0002 29.7037V30.0037C33.1157 30.0037 34.0201 30.9081 34.0201 32.0236H34.3201Z" fill="white"/>
<defs>
<linearGradient id="paint0_linear_18_1327" x1="12.2553" y1="7.14894" x2="54.8085" y2="51.4043" gradientUnits="userSpaceOnUse">
<stop stop-color="#C071FF"/>
<stop offset="0.338542" stop-color="#7F2BC0"/>
<stop offset="1" stop-color="#35025E"/>
</linearGradient>
</defs>
</svg>
