<svg width="64" height="64" viewBox="0 0 64 64" fill="none" xmlns="http://www.w3.org/2000/svg">
<path d="M64 32C64 49.6731 49.6731 64 32 64C14.3269 64 0 49.6731 0 32C0 14.3269 14.3269 0 32 0C49.6731 0 64 14.3269 64 32Z" fill="url(#paint0_linear_18_1379)"/>
<path fill-rule="evenodd" clip-rule="evenodd" d="M33.3401 13.6721C36.4854 13.6702 39.5781 14.4778 42.3204 16.017C45.0628 17.5563 47.3625 19.7753 48.9977 22.4605C47.7329 22.4425 46.4772 22.6759 45.3036 23.1472C44.1298 23.6185 43.0616 24.3182 42.1608 25.2057C41.26 26.0932 40.5448 27.1509 40.0565 28.317C39.5683 29.4832 39.3169 30.7349 39.3169 31.9991C39.3169 33.2632 39.5683 34.5147 40.0565 35.6809C40.5448 36.8472 41.26 37.9048 42.1608 38.7923C43.0616 39.6798 44.1298 40.3796 45.3036 40.8508C46.4772 41.3221 47.7329 41.5555 48.9977 41.5376C47.3321 44.2692 44.9802 46.5176 42.1757 48.0592C39.3713 49.6008 36.2119 50.3819 33.0117 50.325C29.8116 50.2681 26.682 49.375 23.9342 47.7345C21.1864 46.0941 18.916 43.7635 17.3488 40.9744C15.7816 38.1852 14.9721 35.0346 15.0007 31.8358C15.0294 28.6372 15.8953 25.5015 17.5122 22.7409C19.1292 19.9802 21.4409 17.6906 24.2177 16.0996C26.9944 14.5087 30.1395 13.6718 33.3401 13.6721Z" fill="white"/>
<path fill-rule="evenodd" clip-rule="evenodd" d="M49 22.4513C47.7354 22.4333 46.4796 22.6668 45.3059 23.138C44.1323 23.6093 43.0639 24.309 42.1631 25.1966C41.2624 26.0841 40.5471 27.1416 40.059 28.3078C39.5707 29.4741 39.3193 30.7257 39.3193 31.9898C39.3193 33.254 39.5707 34.5057 40.059 35.6718C40.5471 36.838 41.2624 37.8956 42.1631 38.7831C43.0639 39.6707 44.1323 40.3703 45.3059 40.8416C46.4796 41.3129 47.7354 41.5463 49 41.5283L48.944 41.6212C47.0802 43.3103 44.7654 44.4216 42.2812 44.8197C39.7971 45.2178 37.2507 44.8857 34.952 43.8636C32.6534 42.8415 30.7015 41.1736 29.334 39.0631C27.9666 36.9525 27.2424 34.49 27.2498 31.9756C27.2572 29.4611 27.9957 27.0031 29.3756 24.9005C30.7553 22.7979 32.717 21.1416 35.0216 20.133C37.3262 19.1244 39.8745 18.8071 42.3562 19.2198C44.8381 19.6324 47.1463 20.7572 49 22.4572V22.4513Z" fill="url(#paint1_linear_18_1379)"/>
<defs>
<linearGradient id="paint0_linear_18_1379" x1="12.2553" y1="7.14894" x2="54.8085" y2="51.4043" gradientUnits="userSpaceOnUse">
<stop stop-color="#FFD9A9"/>
<stop offset="0.286458" stop-color="#FFC780"/>
<stop offset="1" stop-color="#9A504B"/>
</linearGradient>
<linearGradient id="paint1_linear_18_1379" x1="38.1207" y1="44.9838" x2="38.1207" y2="19.0367" gradientUnits="userSpaceOnUse">
<stop stop-color="white"/>
<stop offset="1" stop-color="#DADADA"/>
</linearGradient>
</defs>
</svg>
