<svg width="64" height="64" viewBox="0 0 64 64" fill="none" xmlns="http://www.w3.org/2000/svg">
<circle cx="32" cy="32" r="32" fill="url(#paint0_linear_18_1351)"/>
<path d="M31.9999 11L14 21.4455V42.2434L31.9999 52.6889L49.9998 42.2434V21.4455L31.9999 11ZM44.6838 39.1657L31.9999 46.4402L19.316 39.1657V24.5232L31.9999 17.1554L44.6838 24.5232V39.1657Z" fill="white"/>
<g style="mix-blend-mode:multiply">
<path style="mix-blend-mode:multiply" d="M31.9999 17.1554V11L14 21.4455V42.2434L31.9999 52.6889V46.4402L19.316 39.1657V24.5232L31.9999 17.1554Z" fill="white"/>
</g>
<g style="mix-blend-mode:multiply">
<path style="mix-blend-mode:multiply" d="M32 46.4402V52.5956L49.9999 42.1501V21.4455L32 11V17.1554L44.6839 24.43V39.0724L32 46.4402Z" fill="white"/>
</g>
<path d="M40.4872 36.6453L32.0002 41.4951L23.6064 36.6453V26.9459L32.0002 22.0962L40.4872 26.9459V36.6453Z" fill="white"/>
<defs>
<linearGradient id="paint0_linear_18_1351" x1="12.2553" y1="7.14894" x2="54.8085" y2="51.4043" gradientUnits="userSpaceOnUse">
<stop stop-color="#3F79DA"/>
<stop offset="0.322917" stop-color="#18499D"/>
<stop offset="1" stop-color="#051C43"/>
</linearGradient>
</defs>
</svg>
