<svg width="64" height="64" viewBox="0 0 64 64" fill="none" xmlns="http://www.w3.org/2000/svg">
<circle cx="32" cy="32" r="32" fill="url(#paint0_linear_18_1466)"/>
<path d="M31.9978 12.9978C21.5035 12.9978 13 21.5057 13 32C13 42.4943 21.507 51.0022 31.9978 51.0022C42.4886 51.0022 51 42.4943 51 32.0044C51 21.5144 42.4921 12.9978 31.9978 12.9978ZM31.9978 40.5753C30.302 40.5753 28.6442 40.0724 27.2341 39.1302C25.8241 38.1881 24.7251 36.8489 24.0761 35.2821C23.4271 33.7154 23.2573 31.9914 23.5882 30.3281C23.919 28.6648 24.7356 27.137 25.9348 25.9378C27.1339 24.7387 28.6618 23.9221 30.325 23.5912C31.9883 23.2604 33.7123 23.4302 35.2791 24.0792C36.8459 24.7281 38.185 25.8271 39.1272 27.2372C40.0693 28.6472 40.5722 30.305 40.5722 32.0009C40.5694 34.2741 39.6652 36.4534 38.0578 38.0608C36.4503 39.6682 34.271 40.5725 31.9978 40.5753ZM15.1011 32.0009C15.1011 23.036 22.1198 15.682 30.9472 15.1375V21.3761C28.3175 21.6465 25.8816 22.8826 24.1105 24.8451C22.3394 26.8077 21.359 29.3573 21.359 32.0009C21.359 34.6444 22.3394 37.1941 24.1105 39.1566C25.8816 41.1192 28.3175 42.3552 30.9472 42.6256V48.8643C22.1172 48.3206 15.0985 40.9666 15.0985 32.0017L15.1011 32.0009ZM33.0484 48.8643V42.6265C35.6781 42.3561 38.114 41.1201 39.8851 39.1575C41.6562 37.1949 42.6366 34.6453 42.6366 32.0017C42.6366 29.3582 41.6562 26.8085 39.8851 24.846C38.114 22.8834 35.6781 21.6474 33.0484 21.377V15.1383C41.8784 15.6829 48.8945 23.0369 48.8945 32.0017C48.8945 40.9666 41.8784 48.3206 33.0484 48.8651V48.8643Z" fill="white"/>
<defs>
<linearGradient id="paint0_linear_18_1466" x1="12.2553" y1="7.14894" x2="54.8085" y2="51.4043" gradientUnits="userSpaceOnUse">
<stop stop-color="#4579D0"/>
<stop offset="0.322917" stop-color="#234D94"/>
<stop offset="1" stop-color="#0B2A5F"/>
</linearGradient>
</defs>
</svg>
