<svg width="64" height="64" viewBox="0 0 64 64" fill="none" xmlns="http://www.w3.org/2000/svg">
<circle cx="32" cy="32" r="32" fill="url(#paint0_linear_18_1438)"/>
<path fill-rule="evenodd" clip-rule="evenodd" d="M36.3259 17.1849C38.61 18.606 40.9067 20.4473 42.7572 22.5478C46.6615 25.959 49.7241 30.4697 49.1248 35.1533C48.6267 38.9718 45.1815 44.2242 36.938 47.5235C35.6983 48.0245 34.4234 48.4336 33.1237 48.7477H33.1223C32.931 48.8348 32.7405 48.9213 32.5492 48.9956C29.6261 50.1554 26.7555 50.7738 24.2547 50.7738C22.0464 50.7738 20.2349 50.2794 19.0228 49.3527C16.3682 47.3265 15.0923 42.1357 15.2071 33.9177C15.3218 26.0582 16.3689 21.189 18.4737 18.8412C19.2013 16.3943 20.2477 14.8002 21.6384 13.9721C24.5097 12.2541 30.545 13.5768 36.3259 17.1849ZM23.4378 46.5968C23.6291 46.8072 23.8204 46.9794 24.0244 47.1409C25.8111 48.4997 29.0523 48.7222 32.8042 47.8451C37.6656 45.7694 40.6772 43.0135 42.2974 40.3809C40.3967 42.1357 37.8441 43.7914 34.5137 45.1261C31.5914 46.288 28.7207 46.9057 26.2192 46.9057C25.199 46.9057 24.2674 46.7945 23.4378 46.5968ZM22.519 45.2749C25.0963 46.4608 29.4858 46.1023 34.1439 44.2363C38.6992 42.4078 41.7101 39.9856 43.5223 37.5882C43.6251 37.2049 43.7016 36.8465 43.7398 36.5007C44.4795 30.729 39.1073 25.1436 33.8251 21.8436C30.1497 19.5454 26.4239 18.1987 23.5908 18.0251C21.6894 20.188 20.7075 24.9332 20.5913 32.4605C20.502 38.466 21.1531 42.7542 22.5182 45.2756L22.519 45.2749ZM44.799 35.5365C45.309 34.5235 45.6023 33.5345 45.7178 32.6319C46.1386 29.3079 44.5305 26.0334 42.0934 23.2527C40.8888 22.1975 39.5999 21.2426 38.2394 20.3977C34.3989 18.001 30.3417 16.5678 27.3683 16.5678C26.2206 16.5678 25.2883 16.7782 24.5997 17.1856L24.5742 17.1983C27.4576 17.5809 30.9545 18.9156 34.3614 21.0417C39.5678 24.2913 44.8634 29.7294 44.7997 35.5372L44.799 35.5365ZM22.3532 18.0379C21.4981 18.0995 20.7705 18.2971 20.1967 18.6436C19.8929 18.8249 19.6141 19.0449 19.3671 19.2982C18.6267 21.8684 18.2314 25.4404 18.1677 30.0496C18.0656 37.217 19.01 41.9501 20.9745 44.1378C19.9926 41.4067 19.5328 37.5018 19.6094 32.447C19.7114 25.2669 20.592 20.584 22.3532 18.0379ZM23.1566 17.0864C23.4335 16.8121 23.742 16.5714 24.0754 16.3695C26.385 14.9731 30.788 15.5788 35.4581 17.7786C31.7196 15.5044 27.8139 14.1577 24.9433 14.1577C23.7949 14.1577 22.8633 14.3674 22.1747 14.7882C21.2813 15.3195 20.5282 16.283 19.9409 17.6914C20.796 17.2593 21.8934 17.0609 23.1573 17.0864H23.1566ZM21 45.4725C18.3462 43.4457 17.0575 38.2556 17.185 30.0376C17.2233 26.8984 17.4273 24.229 17.7844 22.0045C16.8025 24.6243 16.2789 28.5668 16.2024 33.9177C16.0877 41.8261 17.2361 46.7569 19.6349 48.5989C21.4088 49.9457 24.6365 50.1809 28.3757 49.3031C26.2957 49.2535 24.5855 48.7718 23.4251 47.882C22.8123 47.4123 22.2767 46.7825 21.8169 45.9911C21.5236 45.831 21.2558 45.6581 21 45.4725ZM46.6877 32.7559C46.483 34.3378 45.7809 36.1671 44.4284 37.9956C43.7143 40.4794 41.8129 43.3585 38.3287 45.8678C44.8882 42.7294 47.7086 38.3044 48.1294 35.0427C48.4737 32.4102 47.5293 29.8024 45.8964 27.4418C46.5977 29.1477 46.9165 30.9394 46.6877 32.7559Z" fill="white"/>
<defs>
<linearGradient id="paint0_linear_18_1438" x1="12.2553" y1="7.14894" x2="54.8085" y2="51.4043" gradientUnits="userSpaceOnUse">
<stop stop-color="#FF9E8B"/>
<stop offset="0.286458" stop-color="#ED6C53"/>
<stop offset="1" stop-color="#982711"/>
</linearGradient>
</defs>
</svg>
