<svg width="64" height="64" viewBox="0 0 64 64" fill="none" xmlns="http://www.w3.org/2000/svg">
<circle cx="32" cy="32" r="32" fill="url(#paint0_linear_18_1463)"/>
<g clip-path="url(#clip0_18_1463)">
<path d="M32.1724 25.0044C28.8906 25.0044 26.2997 27.1635 25.6088 30.2726H22.7588V32.518H25.4361C25.7815 36.0589 28.6315 38.6498 32.1724 38.6498C34.8497 38.6498 37.0952 37.6135 38.0452 35.7998L35.627 34.2453C35.0224 35.2817 33.6406 35.8862 32.1724 35.8862C30.0997 35.8862 28.6315 34.5907 28.2861 32.518H40.377L41.1542 30.2726H38.3906C37.9588 27.2498 35.3679 25.0044 32.1724 25.0044ZM28.4588 30.2726C28.977 28.5453 30.1861 27.5089 31.9997 27.5089C33.8133 27.5089 35.1088 28.6317 35.2815 30.2726H28.4588Z" fill="white"/>
<path d="M27.7994 46.4282L26.9303 49.4133C17.3116 46.6129 11.7864 36.549 14.5869 26.9302L17.572 27.7993C15.2544 35.7597 19.8391 44.1106 27.7994 46.4282ZM37.07 14.5868L36.2009 17.5719C44.1612 19.8896 48.7459 28.2404 46.4283 36.2008L49.4134 37.0699C52.2139 27.4512 46.6887 17.3873 37.07 14.5868Z" fill="white"/>
</g>
<defs>
<linearGradient id="paint0_linear_18_1463" x1="12.2553" y1="7.14894" x2="54.8085" y2="51.4043" gradientUnits="userSpaceOnUse">
<stop stop-color="#119BAB"/>
<stop offset="0.322917" stop-color="#0D6672"/>
<stop offset="1" stop-color="#002429"/>
</linearGradient>
<clipPath id="clip0_18_1463">
<rect width="38" height="38" fill="white" transform="translate(13 13)"/>
</clipPath>
</defs>
</svg>
