<svg width="64" height="64" viewBox="0 0 64 64" fill="none" xmlns="http://www.w3.org/2000/svg">
<circle cx="32" cy="32" r="32" fill="url(#paint0_linear_18_1451)"/>
<path d="M27.1154 19.2643C19.5111 22.1834 18.8145 29.6593 16.634 33.1507C14.4277 36.6835 9.37318 38.6328 10.0644 40.4331C10.7556 42.2334 15.8161 40.2998 19.8197 41.4486C23.7759 42.5835 29.2959 47.6735 36.9002 44.7544C40.7741 43.2675 43.5791 40.2067 44.869 36.5814C45.0078 36.1923 44.7483 35.7761 44.337 35.7377C44.0812 35.7137 43.8355 35.8476 43.7202 36.077C42.5534 38.401 40.5519 40.3148 37.9325 41.3201C33.6082 42.9799 28.8767 41.6768 25.9708 38.4082C25.3109 37.6659 24.7464 36.821 24.3008 35.8872C24.1783 35.6302 24.0618 35.369 23.9585 35.0987C23.8546 34.8285 23.7663 34.5565 23.6853 34.2832C25.9708 33.2179 28.6083 32.0895 31.5982 30.942C34.53 29.8166 37.198 28.9038 39.5737 28.1736C41.1807 27.68 42.6537 27.2692 43.9839 26.9335C44.08 26.9095 44.1748 26.8855 44.2691 26.8621C44.4703 26.8122 44.6769 26.9197 44.7513 27.1131L44.7525 27.1167C44.7964 27.2314 44.8342 27.3467 44.875 27.462C45.1381 28.206 45.335 28.9579 45.4653 29.7115C45.5224 30.0412 45.8827 30.2207 46.1782 30.0622C47.2699 29.4761 48.2685 28.9044 49.1609 28.3543C52.486 26.3066 54.3295 24.5699 53.9512 23.5856C53.5735 22.6008 51.0417 22.5444 47.2002 23.247C45.9794 23.4703 44.6258 23.7706 43.1672 24.1423C42.915 24.2066 42.6597 24.2732 42.4015 24.3417C41.1741 24.6672 39.8793 25.0401 38.5312 25.4575C36.024 26.2339 33.3343 27.1641 30.5576 28.23C27.9597 29.2275 25.4976 30.2616 23.2397 31.2921C23.212 26.9185 25.8561 22.784 30.1804 21.1241C32.7993 20.1189 35.5676 20.2011 37.9901 21.1482C38.2291 21.2418 38.5012 21.177 38.6759 20.9878C38.9558 20.6846 38.8699 20.2017 38.5066 20.0048C35.1221 18.175 30.9893 17.7775 27.1154 19.2643Z" fill="white"/>
<defs>
<linearGradient id="paint0_linear_18_1451" x1="12.2553" y1="7.14894" x2="54.8085" y2="51.4043" gradientUnits="userSpaceOnUse">
<stop stop-color="#828282"/>
<stop offset="0.286458" stop-color="#4F4F4F"/>
<stop offset="1" stop-color="#131313"/>
</linearGradient>
</defs>
</svg>
