<svg width="64" height="64" viewBox="0 0 64 64" fill="none" xmlns="http://www.w3.org/2000/svg">
<circle cx="32" cy="32" r="32" fill="url(#paint0_linear_18_1369)"/>
<path d="M18.3647 20.3618C18.5882 20.0741 18.8251 19.7983 19.062 19.5213C19.0727 19.5079 19.0968 19.5052 19.1075 19.4918C19.1289 19.4651 19.1637 19.4477 19.1851 19.4209L19.2066 19.3941C19.3712 19.2375 19.5465 19.0675 19.75 18.919C20.4259 18.3819 21.1837 17.9571 21.9946 17.6608C24.5109 16.7587 27.3109 17.3155 29.5074 19.4356C32.5724 22.3735 32.2981 27.109 29.8513 30.2557C26.7568 34.9457 21.4418 41.4908 28.802 47.3533C30.1257 48.408 31.1068 49.2766 35.2748 50.508C32.5497 51.022 30.0213 50.8627 27.2079 50.1279C25.2176 48.9781 22.0883 46.5194 21.0242 43.1973C19.414 38.1607 23.8564 30.6305 26.0033 27.7314C28.9506 23.716 24.1816 19.3727 20.6708 24.2233C18.8345 26.7503 15.6248 33.9044 16.7398 39.2101C17.3916 42.2189 18.2616 44.4127 21.7095 47.4255C21.059 47.0318 20.4369 46.5931 19.8477 46.1125C11.8356 38.4833 12.7659 26.6861 18.3647 20.3618Z" fill="white"/>
<path d="M45.6361 44.4461C45.4126 44.7339 45.1756 45.0096 44.9387 45.2867C44.928 45.3001 44.9039 45.3027 44.8932 45.3161C44.8718 45.3429 44.837 45.3603 44.8156 45.3871L44.7942 45.4138C44.6296 45.5704 44.4542 45.7404 44.2508 45.889C43.5749 46.426 42.817 46.8509 42.0062 47.1471C39.4899 48.0493 36.6898 47.4925 34.4934 45.3723C31.4283 42.4344 31.7027 37.6989 34.1494 34.5522C37.2426 29.8623 42.559 23.3172 35.1988 17.4547C33.875 16.4 32.8939 15.5313 28.7246 14.3C31.4511 13.786 33.9794 13.9453 36.7929 14.6801C38.7832 15.8298 41.9125 18.2886 42.9766 21.6106C44.5867 26.6473 40.1444 34.1775 37.9975 37.0766C35.0502 41.0919 39.8191 45.4353 43.3299 40.5847C45.1663 38.0577 48.3759 30.9036 47.261 25.5979C46.6078 22.5891 45.7391 20.3953 42.2913 17.3824C42.9297 17.7679 43.5508 18.2056 44.1531 18.6955C52.1638 26.3247 51.2349 38.1219 45.6361 44.4461Z" fill="white"/>
<defs>
<linearGradient id="paint0_linear_18_1369" x1="12.2553" y1="7.14894" x2="54.8085" y2="51.4043" gradientUnits="userSpaceOnUse">
<stop stop-color="#D9FAFF"/>
<stop offset="0.322917" stop-color="#01EEFD"/>
<stop offset="1" stop-color="#006CAC"/>
</linearGradient>
</defs>
</svg>
