<svg width="64" height="64" viewBox="0 0 64 64" fill="none" xmlns="http://www.w3.org/2000/svg">
<circle cx="32" cy="32" r="32" fill="url(#paint0_linear_18_1336)"/>
<path d="M50.65 32C50.65 42.3001 42.3001 50.65 32 50.65C21.6999 50.65 13.35 42.3001 13.35 32C13.35 21.6999 21.6999 13.35 32 13.35C42.3001 13.35 50.65 21.6999 50.65 32Z" stroke="white" stroke-width="0.7"/>
<path fill-rule="evenodd" clip-rule="evenodd" d="M32.773 23.8878C32.773 23.4857 32.4829 23.1597 32.1249 23.1597C32.1249 23.1597 32.1245 23.1597 32.1241 23.1597C31.7665 23.1597 31.4763 23.4857 31.4763 23.8878C31.4763 26.822 31.4763 37.7651 31.4763 40.6998C31.4763 41.1019 31.7665 41.4279 32.1241 41.4279C32.1245 41.4279 32.1249 41.4279 32.1249 41.4279C32.4829 41.4279 32.773 41.1019 32.773 40.6998C32.773 37.7651 32.773 26.822 32.773 23.8878Z" fill="white"/>
<path fill-rule="evenodd" clip-rule="evenodd" d="M30.1505 37.7426C29.7927 37.7422 29.5023 38.068 29.502 38.4701C29.502 38.4701 29.502 38.4706 29.502 38.471C29.5017 38.8727 29.7917 39.199 30.1495 39.1993C31.145 39.2003 33.0396 39.202 34.0351 39.203C34.393 39.2033 34.6835 38.8776 34.6838 38.4758C34.6838 38.4754 34.6838 38.475 34.6838 38.475C34.6841 38.0728 34.3941 37.7465 34.0362 37.7462C33.0406 37.7453 31.1461 37.7435 30.1505 37.7426Z" fill="white"/>
<path fill-rule="evenodd" clip-rule="evenodd" d="M26.9487 28.222C26.5906 28.2217 26.3004 28.5474 26.3001 28.9496C26.3001 28.9496 26.3001 28.95 26.3001 28.9505C26.2998 29.3522 26.5895 29.6785 26.9476 29.6788C28.9822 29.6807 35.227 29.6866 37.2615 29.6885C37.6193 29.6888 37.9098 29.3631 37.9101 28.9613C37.9101 28.9609 37.9101 28.9604 37.9101 28.9604C37.9104 28.5583 37.6204 28.232 37.2626 28.2317C35.2281 28.2298 28.9832 28.2239 26.9487 28.222Z" fill="white"/>
<path fill-rule="evenodd" clip-rule="evenodd" d="M29.0835 24.5343C28.8301 24.2503 28.4197 24.2508 28.1669 24.5355C28.1669 24.5355 28.1666 24.5358 28.1663 24.5361C27.9137 24.8205 27.9141 25.2815 28.1675 25.5656C29.5631 27.13 33.7474 31.8204 35.143 33.3848C35.3963 33.6689 35.8067 33.6683 36.0593 33.384C36.0596 33.3837 36.0599 33.3834 36.0599 33.3834C36.3127 33.0987 36.3123 32.6377 36.0589 32.3536C34.6633 30.7892 30.4791 26.0988 29.0835 24.5343Z" fill="white"/>
<path fill-rule="evenodd" clip-rule="evenodd" d="M28.1803 32.371C27.9276 32.6558 27.9284 33.1168 28.1819 33.4007C28.1819 33.4007 28.1822 33.401 28.1825 33.4013C28.4358 33.6849 28.8462 33.6841 29.0988 33.3993C30.4905 31.8305 34.663 27.1268 36.0546 25.5579C36.3073 25.2731 36.3065 24.8121 36.0532 24.5285C36.053 24.5282 36.0527 24.5279 36.0527 24.5279C35.7991 24.244 35.3887 24.2448 35.1361 24.5296C33.7444 26.0985 29.5719 30.8022 28.1803 32.371Z" fill="white"/>
<defs>
<linearGradient id="paint0_linear_18_1336" x1="12.2553" y1="7.14894" x2="54.8085" y2="51.4043" gradientUnits="userSpaceOnUse">
<stop stop-color="#FFABA7"/>
<stop offset="0.322917" stop-color="#ED7B75"/>
<stop offset="1" stop-color="#592421"/>
</linearGradient>
</defs>
</svg>
