<svg width="64" height="64" viewBox="0 0 64 64" fill="none" xmlns="http://www.w3.org/2000/svg">
<circle cx="32" cy="32" r="32" fill="url(#paint0_linear_18_1389)"/>
<path d="M21.1094 14.2076V28.0051C21.1094 28.4719 21.5528 28.8511 22.0195 28.8511C22.4862 28.8511 22.9296 28.4719 22.9296 28.0051V14.9136C23.7697 14.7677 24.7148 14.6919 25.6366 14.6919C34.4927 14.6919 41.7444 21.3368 42.5378 30.1404C42.5786 30.6071 42.9812 30.9513 43.4421 30.9047C43.9088 30.8638 44.2472 30.4554 44.2005 29.9887C43.7863 25.3623 41.6627 21.0743 38.2264 17.9239C34.7727 14.7502 30.2805 13 25.5899 13C24.3239 13 23.0346 13.1283 21.8036 13.3792C21.4127 13.4609 21.1094 13.8051 21.1094 14.2076Z" fill="white"/>
<path d="M26.0334 49.4754C26.0334 49.4929 26.0334 49.5163 26.0334 49.5338C26.0685 50.0005 26.471 50.3505 26.9377 50.3155C31.3658 50.0005 35.5546 48.0986 38.7225 44.9716C41.8904 41.8445 43.8389 37.6848 44.2065 33.2685C44.2473 32.8018 43.9031 32.3934 43.4364 32.3525C42.9697 32.3117 42.5613 32.6559 42.5204 33.1226C41.8262 41.372 35.0762 48.0403 26.8152 48.6295C26.3777 48.6645 26.0334 49.0379 26.0334 49.4754Z" fill="white"/>
<path d="M24.7542 17.5149V31.219C24.7542 31.6858 25.1275 32.065 25.5943 32.065C26.061 32.065 26.4344 31.6858 26.4344 31.219V18.39C33.2952 18.8275 38.9134 24.6207 38.9134 31.6799C38.9134 34.8536 37.7816 37.9223 35.7221 40.3318C35.4188 40.6877 35.4596 41.2186 35.8155 41.5219C36.1714 41.8253 36.7023 41.7845 37.0056 41.4286C39.3276 38.7158 40.5994 35.2562 40.5994 31.6799C40.5994 27.6719 39.0359 23.9032 36.2005 21.0678C33.3652 18.2325 29.5964 16.6689 25.5884 16.6689C25.1334 16.6689 24.7542 17.0482 24.7542 17.5149Z" fill="white"/>
<path d="M26.0339 42.0374C26.0339 42.0724 26.0339 42.1074 26.0398 42.1424C26.0981 42.6033 26.5182 42.9358 26.9791 42.8775C32.6206 42.1832 36.8736 37.3701 36.8736 31.6819C36.8736 29.3425 36.1618 27.0964 34.82 25.1887C33.5073 23.3276 31.6871 21.9158 29.5635 21.1165C29.3068 21.0173 28.9976 21.0523 28.7701 21.2098C28.5426 21.3674 28.3909 21.6299 28.3909 21.9041V33.8405C28.3909 34.3073 28.7643 34.6865 29.231 34.6865C29.6977 34.6865 30.0711 34.3073 30.0711 33.8405V23.2226C33.1515 24.8736 35.1642 28.1348 35.1642 31.6819C35.1642 36.5184 31.5588 40.608 26.769 41.1973C26.3373 41.2556 26.0339 41.6173 26.0339 42.0374Z" fill="white"/>
<path d="M21.9661 30.9098C23.0519 30.9098 23.9321 30.0296 23.9321 28.9437C23.9321 27.8579 23.0519 26.9777 21.9661 26.9777C20.8802 26.9777 20 27.8579 20 28.9437C20 30.0296 20.8802 30.9098 21.9661 30.9098Z" fill="white"/>
<path d="M26.0376 51.4122C27.1234 51.4122 28.0037 50.532 28.0037 49.4462C28.0037 48.3603 27.1234 47.4801 26.0376 47.4801C24.9518 47.4801 24.0715 48.3603 24.0715 49.4462C24.0715 50.532 24.9518 51.4122 26.0376 51.4122Z" fill="white"/>
<defs>
<linearGradient id="paint0_linear_18_1389" x1="12.2553" y1="7.14894" x2="54.8085" y2="51.4043" gradientUnits="userSpaceOnUse">
<stop stop-color="#376CB7"/>
<stop offset="0.286458" stop-color="#2A478B"/>
<stop offset="1" stop-color="#0F265B"/>
</linearGradient>
</defs>
</svg>
