<svg width="64" height="64" viewBox="0 0 64 64" fill="none" xmlns="http://www.w3.org/2000/svg">
<circle cx="32" cy="32" r="32" fill="url(#paint0_linear_18_1455)"/>
<path d="M32 51C21.5234 51 13 42.4766 13 32C13 21.5234 21.5234 13 32 13C42.4766 13 51 21.5234 51 32C51 42.4766 42.4766 51 32 51ZM32 14.6087C22.4101 14.6087 14.6087 22.4113 14.6087 32C14.6087 41.5887 22.4101 49.3913 32 49.3913C41.5887 49.3913 49.3913 41.5893 49.3913 32C49.3913 22.4107 41.5893 14.6087 32.0006 14.6087H32Z" fill="white"/>
<path d="M30.7505 28.5293C30.6407 28.5294 30.5335 28.4961 30.4431 28.4337C30.3527 28.3714 30.2835 28.2829 30.2446 28.1802C30.2057 28.0775 30.1991 27.9654 30.2255 27.8588C30.252 27.7523 30.3103 27.6563 30.3927 27.5837C31.919 26.2391 32.5942 25.1289 32.7139 24.9199C33.1629 24.1384 33.8836 23.7343 34.6405 23.8369C34.7799 23.859 34.9052 23.9349 34.9894 24.0482C35.0736 24.1616 35.1101 24.3034 35.091 24.4433C35.072 24.5832 34.9989 24.7101 34.8875 24.7968C34.7761 24.8835 34.6351 24.9231 34.4948 24.9072C34.0534 24.849 33.7576 25.2727 33.6512 25.4582C33.5163 25.6932 32.7607 26.9364 31.1084 28.3944C31.0093 28.481 30.8821 28.5287 30.7505 28.5286V28.5293ZM21.6552 37.6873C21.5442 37.6871 21.4359 37.6528 21.3451 37.5891C21.2542 37.5253 21.1852 37.4351 21.1474 37.3307C21.1095 37.2263 21.1047 37.1129 21.1336 37.0057C21.1625 36.8985 21.2237 36.8028 21.3088 36.7316C21.9358 36.2369 22.6008 35.7923 23.2975 35.4028C23.4248 35.3457 23.5694 35.3399 23.7009 35.3869C23.8323 35.4339 23.9406 35.5298 24.0029 35.6548C24.0652 35.7797 24.0769 35.9239 24.0353 36.0572C23.9938 36.1905 23.9023 36.3025 23.7801 36.3699C23.1583 36.7228 22.5634 37.1212 22.0004 37.5619C21.9037 37.6431 21.7815 37.6875 21.6552 37.6873Z" fill="white"/>
<path d="M35.2275 32.5625C35.4415 32.7633 35.6904 32.6765 35.9203 32.4593C37.4859 30.9671 39.144 28.6244 39.6975 27.4084C39.8153 27.1488 40.0541 27.0037 40.3106 27.1063C40.6114 27.2286 40.6076 27.746 40.3347 28.309C39.6108 29.7974 38.6076 31.4377 36.6265 33.4897C36.5847 33.5291 36.5516 33.5768 36.5292 33.6297C36.5069 33.6826 36.4958 33.7396 36.4967 33.7971C36.4976 33.8545 36.5104 33.9111 36.5344 33.9633C36.5584 34.0155 36.593 34.0621 36.636 34.1002C36.8108 34.2573 37.0939 34.2472 37.3593 33.9774C38.3884 32.9279 39.0813 32.116 39.6773 31.273C39.8293 31.052 40.0129 30.9627 40.1941 31.0032C40.4544 31.0552 40.4955 31.3053 40.4157 31.6062C40.2872 32.0926 38.9198 33.8811 38.3789 34.4878C36.9109 36.1263 35.4415 37.0237 32.6156 38.493C31.6289 39.0098 30.891 39.4962 30.4439 40.2505C30.0379 40.9371 29.9157 41.1619 29.8739 41.2487C29.7943 41.4101 29.7813 41.5963 29.8377 41.7673C29.8941 41.9382 30.0154 42.0802 30.1754 42.1626C30.2569 42.2016 30.3456 42.2236 30.436 42.2272C30.5263 42.2308 30.6165 42.2159 30.7009 42.1835C30.7853 42.1511 30.8622 42.1018 30.9269 42.0386C30.9916 41.9754 31.0428 41.8997 31.0772 41.8161C31.0772 41.8079 31.0563 41.8275 31.5877 40.9295C31.9868 40.2873 32.5658 39.7766 33.2527 39.4608C36.0793 38.1726 37.2377 37.1529 38.8774 35.5132C39.626 34.764 40.6602 33.1604 40.9452 32.686C41.7356 31.356 41.3208 30.216 40.6076 30.0222C40.5867 30.0173 40.5682 30.0051 40.5555 29.9878C40.5427 29.9705 40.5365 29.9493 40.538 29.9278C40.539 29.9137 40.5434 29.9001 40.5506 29.8879C41.1029 28.9417 41.3537 28.2881 41.4582 27.7815C41.5988 27.093 41.4037 26.2577 40.4588 26.0537C40.441 26.0494 40.425 26.0398 40.4127 26.0263C40.4004 26.0127 40.3924 25.9958 40.3898 25.9777C40.3881 25.9654 40.389 25.9529 40.3923 25.941C40.4512 25.7225 40.5101 25.4476 40.5506 25.2665C40.7489 24.3722 40.1833 23.5628 39.5044 23.4172C39.2853 23.3682 39.0583 23.3666 38.8385 23.4124C38.6187 23.4583 38.4113 23.5506 38.2301 23.6832C38.2047 23.7001 38.1741 23.7073 38.1439 23.7034C38.1136 23.6996 38.0858 23.685 38.0654 23.6623C37.9764 23.5625 37.868 23.4818 37.7468 23.4252C37.6256 23.3686 37.4942 23.3372 37.3605 23.3329C36.7684 23.3228 36.1857 23.5046 35.7601 24.4147C35.4548 25.0651 35.0007 25.9391 33.6714 27.4135C32.4376 28.7815 30.72 30.1153 29.6605 30.8113C29.4743 30.9336 29.214 30.9044 29.2469 30.6549C29.2963 30.2578 29.7219 27.5959 29.7935 26.8106C29.9119 25.5357 29.226 24.9492 28.4571 24.846C27.8238 24.7598 26.863 24.9422 26.3367 26.3837C26.0264 27.2286 25.3855 28.6162 24.8408 30.8519C24.457 32.4244 24.3943 34.2579 24.7445 36.3638C24.7667 36.4908 24.7419 36.6216 24.6749 36.7317C24.2556 37.4227 23.6413 38.3315 23.298 39.1245C23.2295 39.2782 23.2205 39.4519 23.2727 39.612C23.3249 39.772 23.4345 39.907 23.5805 39.9909C23.66 40.0344 23.7477 40.0613 23.838 40.0697C23.9283 40.0782 24.0194 40.068 24.1056 40.04C24.1919 40.0119 24.2715 39.9665 24.3395 39.9065C24.4076 39.8466 24.4626 39.7733 24.5013 39.6913C24.7084 39.2606 25.122 38.45 25.2886 38.1187C25.5736 37.5342 25.7636 37.1485 25.8408 36.9059C25.9105 36.6842 25.9523 36.4277 25.825 35.8451C25.6097 34.8634 25.5343 33.0185 25.9346 31.3934C26.371 29.71 26.9028 28.0529 27.5274 26.4299C27.6883 26.0322 27.9169 25.9081 28.1481 25.9283C28.378 25.9492 28.8124 26.0601 28.687 26.8707C28.4641 28.3274 28.1474 30.1793 28.0429 30.7999C27.9923 31.1046 27.9334 31.8183 28.497 32.1439C28.9366 32.3985 29.4204 32.2566 29.955 31.9C31.1583 31.0976 33.2318 29.463 34.5346 28C35.9013 26.4641 36.3371 25.5502 36.6879 24.7231C36.8488 24.3456 37.2605 24.3488 37.4061 24.3912C37.5518 24.4337 37.7279 24.63 37.6037 25.0455C37.3004 26.055 36.0521 28.3667 33.6473 30.5352C33.375 30.7816 33.4136 31.0716 33.5523 31.2236C33.691 31.3756 33.9361 31.4668 34.216 31.2236C36.377 29.3806 37.6107 27.1785 38.1649 26.0012C38.3498 25.6085 38.5081 25.2044 38.6386 24.7915C38.7564 24.4495 39.0199 24.3273 39.2042 24.3653C39.467 24.421 39.6412 24.6908 39.5569 25.1348C39.4225 25.7022 39.2249 26.2529 38.9679 26.7764C38.2757 28.247 36.8127 30.2154 35.2351 31.9038C35.1886 31.945 35.1512 31.9954 35.1255 32.0518C35.0997 32.1083 35.086 32.1695 35.0853 32.2316C35.0847 32.2937 35.0971 32.3552 35.1216 32.4122C35.1462 32.4692 35.1825 32.5204 35.2281 32.5625H35.2275ZM25.457 25.2399C25.5406 25.1664 25.5077 25.0727 25.4836 24.9967C25.3684 24.6256 24.7053 23.0726 24.5317 22.7604C24.4437 22.6033 24.3329 22.5818 24.2144 22.6274C24.058 22.6869 23.8648 22.8339 23.5684 23.0897C23.2733 23.3469 23.1061 23.5223 23.0263 23.6692C22.9649 23.782 22.9725 23.8947 23.1169 24.0011C23.4038 24.2145 24.8573 25.0733 25.2107 25.2424C25.2822 25.2754 25.3715 25.3197 25.4551 25.2424L25.457 25.2399ZM37.4397 38.9883C37.3295 38.9953 37.2985 39.0915 37.2719 39.1637C37.1389 39.5298 36.7209 41.167 36.6702 41.5204C36.6442 41.6977 36.7183 41.7819 36.8406 41.818C37.0008 41.8655 37.2415 41.8687 37.6348 41.8421C38.0274 41.8155 38.2643 41.7813 38.4176 41.7116C38.5341 41.6603 38.5962 41.566 38.5468 41.3931C38.4486 41.0511 37.8159 39.4842 37.6348 39.139C37.5987 39.0694 37.5537 38.9801 37.4435 38.9883H37.4403H37.4397ZM38.3853 38.2296C38.3346 38.3277 38.3986 38.4037 38.4486 38.4652C38.6912 38.7692 39.8736 39.9757 40.1485 40.203C40.2865 40.3177 40.3974 40.298 40.4917 40.2125C40.6159 40.0998 40.7438 39.8959 40.9249 39.5463C41.1054 39.1973 41.1998 38.9763 41.2207 38.8103C41.2372 38.6837 41.189 38.5823 41.0136 38.5342C40.6697 38.4405 39.0028 38.1662 38.6133 38.1422C38.5354 38.1371 38.4359 38.1276 38.384 38.227L38.3853 38.2296ZM24.8839 26.2532C24.8649 26.1437 24.7661 26.1228 24.6907 26.1044C24.3126 26.0113 22.6393 25.7751 22.2828 25.7624C22.1035 25.7561 22.0269 25.8397 22.0041 25.9689C21.9743 26.1335 21.9978 26.3729 22.0674 26.7605C22.1371 27.1469 22.1966 27.3806 22.2815 27.525C22.3467 27.6345 22.4468 27.6865 22.6127 27.6193C22.9433 27.4838 24.431 26.6883 24.7534 26.4673C24.8193 26.423 24.9041 26.3704 24.8839 26.2608V26.2532ZM31.9943 47.9272C32.0751 47.9298 32.1556 47.9161 32.231 47.887C32.3064 47.8579 32.3752 47.814 32.4332 47.7577C32.4913 47.7015 32.5375 47.6342 32.569 47.5598C32.6005 47.4854 32.6168 47.4054 32.6168 47.3245C32.6168 47.2437 32.6005 47.1637 32.569 47.0893C32.5375 47.0149 32.4913 46.9476 32.4332 46.8914C32.3752 46.8351 32.3064 46.7912 32.231 46.7621C32.1556 46.733 32.0751 46.7193 31.9943 46.7219C31.8379 46.727 31.6895 46.7927 31.5807 46.9052C31.4718 47.0176 31.4109 47.168 31.4109 47.3245C31.4109 47.4811 31.4718 47.6315 31.5807 47.7439C31.6895 47.8564 31.8379 47.9221 31.9943 47.9272ZM31.9943 17.2814C32.1542 17.2814 32.3076 17.2179 32.4206 17.1048C32.5337 16.9918 32.5972 16.8384 32.5972 16.6785C32.5972 16.5186 32.5337 16.3652 32.4206 16.2522C32.3076 16.1391 32.1542 16.0756 31.9943 16.0756C31.8344 16.0756 31.681 16.1391 31.568 16.2522C31.4549 16.3652 31.3914 16.5186 31.3914 16.6785C31.3914 16.8384 31.4549 16.9918 31.568 17.1048C31.681 17.2179 31.8344 17.2814 31.9943 17.2814ZM35.9602 47.4053C36.0394 47.4053 36.1178 47.3897 36.191 47.3594C36.2641 47.3291 36.3306 47.2847 36.3866 47.2287C36.4426 47.1727 36.487 47.1062 36.5173 47.0331C36.5476 46.9599 36.5632 46.8815 36.5632 46.8024C36.5632 46.7232 36.5476 46.6448 36.5173 46.5716C36.487 46.4985 36.4426 46.432 36.3866 46.376C36.3306 46.32 36.2641 46.2756 36.191 46.2453C36.1178 46.215 36.0394 46.1994 35.9602 46.1994C35.8003 46.1994 35.647 46.263 35.5339 46.376C35.4208 46.4891 35.3573 46.6425 35.3573 46.8024C35.3573 46.9623 35.4208 47.1156 35.5339 47.2287C35.647 47.3418 35.8003 47.4053 35.9602 47.4053ZM28.0284 17.8033C28.1883 17.8033 28.3416 17.7398 28.4547 17.6267C28.5678 17.5136 28.6313 17.3603 28.6313 17.2004C28.6313 17.0405 28.5678 16.8871 28.4547 16.774C28.3416 16.661 28.1883 16.5974 28.0284 16.5974C27.8685 16.5974 27.7151 16.661 27.602 16.774C27.489 16.8871 27.4254 17.0405 27.4254 17.2004C27.4254 17.3603 27.489 17.5136 27.602 17.6267C27.7151 17.7398 27.8685 17.8033 28.0284 17.8033ZM39.6564 45.8745C39.7372 45.8771 39.8176 45.8635 39.893 45.8344C39.9684 45.8053 40.0372 45.7613 40.0953 45.7051C40.1534 45.6489 40.1995 45.5816 40.2311 45.5072C40.2626 45.4327 40.2788 45.3527 40.2788 45.2719C40.2788 45.1911 40.2626 45.1111 40.2311 45.0367C40.1995 44.9623 40.1534 44.8949 40.0953 44.8387C40.0372 44.7825 39.9684 44.7385 39.893 44.7094C39.8176 44.6803 39.7372 44.6667 39.6564 44.6693C39.4999 44.6744 39.3516 44.7401 39.2427 44.8525C39.1338 44.965 39.073 45.1154 39.073 45.2719C39.073 45.4284 39.1338 45.5788 39.2427 45.6913C39.3516 45.8037 39.4999 45.8695 39.6564 45.8745ZM24.3329 19.3334C24.4137 19.336 24.4941 19.3224 24.5695 19.2933C24.6449 19.2642 24.7137 19.2202 24.7718 19.164C24.8299 19.1078 24.876 19.0405 24.9076 18.9661C24.9391 18.8916 24.9553 18.8116 24.9553 18.7308C24.9553 18.65 24.9391 18.57 24.9076 18.4956C24.876 18.4212 24.8299 18.3538 24.7718 18.2976C24.7137 18.2414 24.6449 18.1974 24.5695 18.1683C24.4941 18.1392 24.4137 18.1256 24.3329 18.1282C24.1764 18.1333 24.0281 18.199 23.9192 18.3114C23.8103 18.4239 23.7495 18.5743 23.7495 18.7308C23.7495 18.8873 23.8103 19.0377 23.9192 19.1502C24.0281 19.2626 24.1764 19.3284 24.3329 19.3334ZM42.8294 43.4394C42.9102 43.442 42.9906 43.4283 43.066 43.3992C43.1414 43.3701 43.2102 43.3262 43.2683 43.2699C43.3264 43.2137 43.3725 43.1464 43.4041 43.072C43.4356 42.9976 43.4518 42.9176 43.4518 42.8367C43.4518 42.7559 43.4356 42.6759 43.4041 42.6015C43.3725 42.5271 43.3264 42.4598 43.2683 42.4036C43.2102 42.3473 43.1414 42.3034 43.066 42.2743C42.9906 42.2452 42.9102 42.2315 42.8294 42.2341C42.6729 42.2392 42.5246 42.3049 42.4157 42.4174C42.3068 42.5298 42.246 42.6802 42.246 42.8367C42.246 42.9933 42.3068 43.1437 42.4157 43.2561C42.5246 43.3686 42.6729 43.4343 42.8294 43.4394ZM21.1586 21.7686C21.2394 21.7712 21.3199 21.7576 21.3953 21.7285C21.4707 21.6994 21.5394 21.6554 21.5975 21.5992C21.6556 21.543 21.7018 21.4756 21.7333 21.4012C21.7648 21.3268 21.7811 21.2468 21.7811 21.166C21.7811 21.0852 21.7648 21.0052 21.7333 20.9307C21.7018 20.8563 21.6556 20.789 21.5975 20.7328C21.5394 20.6766 21.4707 20.6326 21.3953 20.6035C21.3199 20.5744 21.2394 20.5607 21.1586 20.5634C21.0022 20.5684 20.8538 20.6341 20.745 20.7466C20.6361 20.8591 20.5752 21.0095 20.5752 21.166C20.5752 21.3225 20.6361 21.4729 20.745 21.5854C20.8538 21.6978 21.0022 21.7635 21.1586 21.7686ZM46.7953 36.5696C46.9552 36.5696 47.1086 36.5061 47.2216 36.393C47.3347 36.2799 47.3982 36.1266 47.3982 35.9667C47.3982 35.8068 47.3347 35.6534 47.2216 35.5403C47.1086 35.4273 46.9552 35.3637 46.7953 35.3637C46.6354 35.3637 46.482 35.4273 46.369 35.5403C46.2559 35.6534 46.1924 35.8068 46.1924 35.9667C46.1924 36.1266 46.2559 36.2799 46.369 36.393C46.482 36.5061 46.6354 36.5696 46.7953 36.5696ZM45.2645 40.2664C45.3437 40.2664 45.4221 40.2508 45.4953 40.2205C45.5684 40.1902 45.6349 40.1458 45.6909 40.0898C45.7469 40.0338 45.7913 39.9673 45.8216 39.8942C45.8519 39.821 45.8675 39.7426 45.8675 39.6634C45.8675 39.5843 45.8519 39.5058 45.8216 39.4327C45.7913 39.3595 45.7469 39.2931 45.6909 39.2371C45.6349 39.1811 45.5684 39.1367 45.4953 39.1064C45.4221 39.0761 45.3437 39.0605 45.2645 39.0605C45.1046 39.0605 44.9513 39.124 44.8382 39.2371C44.7251 39.3502 44.6616 39.5035 44.6616 39.6634C44.6616 39.8233 44.7251 39.9767 44.8382 40.0898C44.9513 40.2028 45.1046 40.2664 45.2645 40.2664ZM18.7234 24.9422C18.8833 24.9422 19.0367 24.8787 19.1498 24.7656C19.2628 24.6526 19.3264 24.4992 19.3264 24.3393C19.3264 24.1794 19.2628 24.026 19.1498 23.913C19.0367 23.7999 18.8833 23.7364 18.7234 23.7364C18.5635 23.7364 18.4102 23.7999 18.2971 23.913C18.184 24.026 18.1205 24.1794 18.1205 24.3393C18.1205 24.4992 18.184 24.6526 18.2971 24.7656C18.4102 24.8787 18.5635 24.9422 18.7234 24.9422ZM17.1933 28.6384C17.2741 28.641 17.3546 28.6273 17.43 28.5982C17.5054 28.5691 17.5741 28.5252 17.6322 28.4689C17.6903 28.4127 17.7365 28.3454 17.768 28.271C17.7995 28.1966 17.8158 28.1166 17.8158 28.0357C17.8158 27.9549 17.7995 27.8749 17.768 27.8005C17.7365 27.7261 17.6903 27.6588 17.6322 27.6026C17.5741 27.5463 17.5054 27.5024 17.43 27.4733C17.3546 27.4442 17.2741 27.4305 17.1933 27.4331C17.0334 27.4331 16.88 27.4967 16.767 27.6097C16.6539 27.7228 16.5904 27.8762 16.5904 28.0361C16.5904 28.196 16.6539 28.3493 16.767 28.4624C16.88 28.5755 17.0334 28.639 17.1933 28.639V28.6384ZM47.3172 32.6043C47.4771 32.6043 47.6304 32.5408 47.7435 32.4277C47.8566 32.3146 47.9201 32.1613 47.9201 32.0014C47.9201 31.8415 47.8566 31.6881 47.7435 31.575C47.6304 31.462 47.4771 31.3984 47.3172 31.3984C47.1573 31.3984 47.0039 31.462 46.8908 31.575C46.7778 31.6881 46.7142 31.8415 46.7142 32.0014C46.7142 32.1613 46.7778 32.3146 46.8908 32.4277C47.0039 32.5408 47.1573 32.6043 47.3172 32.6043ZM16.6708 32.6043C16.8307 32.6043 16.9841 32.5408 17.0971 32.4277C17.2102 32.3146 17.2737 32.1613 17.2737 32.0014C17.2737 31.8415 17.2102 31.6881 17.0971 31.575C16.9841 31.462 16.8307 31.3984 16.6708 31.3984C16.5109 31.3984 16.3575 31.462 16.2445 31.575C16.1314 31.6881 16.0679 31.8415 16.0679 32.0014C16.0679 32.1613 16.1314 32.3146 16.2445 32.4277C16.3575 32.5408 16.5109 32.6043 16.6708 32.6043ZM46.7953 28.6384C46.8761 28.641 46.9566 28.6273 47.032 28.5982C47.1074 28.5691 47.1761 28.5252 47.2342 28.4689C47.2923 28.4127 47.3385 28.3454 47.37 28.271C47.4015 28.1966 47.4178 28.1166 47.4178 28.0357C47.4178 27.9549 47.4015 27.8749 47.37 27.8005C47.3385 27.7261 47.2923 27.6588 47.2342 27.6026C47.1761 27.5463 47.1074 27.5024 47.032 27.4733C46.9566 27.4442 46.8761 27.4305 46.7953 27.4331C46.6354 27.4331 46.482 27.4967 46.369 27.6097C46.2559 27.7228 46.1924 27.8762 46.1924 28.0361C46.1924 28.196 46.2559 28.3493 46.369 28.4624C46.482 28.5755 46.6354 28.639 46.7953 28.639V28.6384ZM17.1933 36.5696C17.3532 36.5696 17.5066 36.5061 17.6196 36.393C17.7327 36.2799 17.7962 36.1266 17.7962 35.9667C17.7962 35.8068 17.7327 35.6534 17.6196 35.5403C17.5066 35.4273 17.3532 35.3637 17.1933 35.3637C17.0334 35.3637 16.88 35.4273 16.767 35.5403C16.6539 35.6534 16.5904 35.8068 16.5904 35.9667C16.5904 36.1266 16.6539 36.2799 16.767 36.393C16.88 36.5061 17.0334 36.5696 17.1933 36.5696ZM45.2645 24.9422C45.4244 24.9422 45.5778 24.8787 45.6909 24.7656C45.8039 24.6526 45.8675 24.4992 45.8675 24.3393C45.8675 24.1794 45.8039 24.026 45.6909 23.913C45.5778 23.7999 45.4244 23.7364 45.2645 23.7364C45.1046 23.7364 44.9513 23.7999 44.8382 23.913C44.7251 24.026 44.6616 24.1794 44.6616 24.3393C44.6616 24.4992 44.7251 24.6526 44.8382 24.7656C44.9513 24.8787 45.1046 24.9422 45.2645 24.9422ZM18.7234 40.2664C18.8026 40.2664 18.881 40.2508 18.9542 40.2205C19.0273 40.1902 19.0938 40.1458 19.1498 40.0898C19.2058 40.0338 19.2502 39.9673 19.2805 39.8942C19.3108 39.821 19.3264 39.7426 19.3264 39.6634C19.3264 39.5843 19.3108 39.5058 19.2805 39.4327C19.2502 39.3595 19.2058 39.2931 19.1498 39.2371C19.0938 39.1811 19.0273 39.1367 18.9542 39.1064C18.881 39.0761 18.8026 39.0605 18.7234 39.0605C18.5635 39.0605 18.4102 39.124 18.2971 39.2371C18.184 39.3502 18.1205 39.5035 18.1205 39.6634C18.1205 39.8233 18.184 39.9767 18.2971 40.0898C18.4102 40.2028 18.5635 40.2664 18.7234 40.2664ZM42.8294 21.7686C42.9102 21.7712 42.9906 21.7576 43.066 21.7285C43.1414 21.6994 43.2102 21.6554 43.2683 21.5992C43.3264 21.543 43.3725 21.4756 43.4041 21.4012C43.4356 21.3268 43.4518 21.2468 43.4518 21.166C43.4518 21.0852 43.4356 21.0052 43.4041 20.9307C43.3725 20.8563 43.3264 20.789 43.2683 20.7328C43.2102 20.6766 43.1414 20.6326 43.066 20.6035C42.9906 20.5744 42.9102 20.5607 42.8294 20.5634C42.6729 20.5684 42.5246 20.6341 42.4157 20.7466C42.3068 20.8591 42.246 21.0095 42.246 21.166C42.246 21.3225 42.3068 21.4729 42.4157 21.5854C42.5246 21.6978 42.6729 21.7635 42.8294 21.7686ZM21.1586 43.4394C21.2394 43.442 21.3199 43.4283 21.3953 43.3992C21.4707 43.3701 21.5394 43.3262 21.5975 43.2699C21.6556 43.2137 21.7018 43.1464 21.7333 43.072C21.7648 42.9976 21.7811 42.9176 21.7811 42.8367C21.7811 42.7559 21.7648 42.6759 21.7333 42.6015C21.7018 42.5271 21.6556 42.4598 21.5975 42.4036C21.5394 42.3473 21.4707 42.3034 21.3953 42.2743C21.3199 42.2452 21.2394 42.2315 21.1586 42.2341C21.0022 42.2392 20.8538 42.3049 20.745 42.4174C20.6361 42.5298 20.5752 42.6802 20.5752 42.8367C20.5752 42.9933 20.6361 43.1437 20.745 43.2561C20.8538 43.3686 21.0022 43.4343 21.1586 43.4394ZM39.6564 19.3334C39.7372 19.336 39.8176 19.3224 39.893 19.2933C39.9684 19.2642 40.0372 19.2202 40.0953 19.164C40.1534 19.1078 40.1995 19.0405 40.2311 18.9661C40.2626 18.8916 40.2788 18.8116 40.2788 18.7308C40.2788 18.65 40.2626 18.57 40.2311 18.4956C40.1995 18.4212 40.1534 18.3538 40.0953 18.2976C40.0372 18.2414 39.9684 18.1974 39.893 18.1683C39.8176 18.1392 39.7372 18.1256 39.6564 18.1282C39.4999 18.1333 39.3516 18.199 39.2427 18.3114C39.1338 18.4239 39.073 18.5743 39.073 18.7308C39.073 18.8873 39.1338 19.0377 39.2427 19.1502C39.3516 19.2626 39.4999 19.3284 39.6564 19.3334ZM24.3329 45.8745C24.4137 45.8771 24.4941 45.8635 24.5695 45.8344C24.6449 45.8053 24.7137 45.7613 24.7718 45.7051C24.8299 45.6489 24.876 45.5816 24.9076 45.5072C24.9391 45.4327 24.9553 45.3527 24.9553 45.2719C24.9553 45.1911 24.9391 45.1111 24.9076 45.0367C24.876 44.9623 24.8299 44.8949 24.7718 44.8387C24.7137 44.7825 24.6449 44.7385 24.5695 44.7094C24.4941 44.6803 24.4137 44.6667 24.3329 44.6693C24.1764 44.6744 24.0281 44.7401 23.9192 44.8525C23.8103 44.965 23.7495 45.1154 23.7495 45.2719C23.7495 45.4284 23.8103 45.5788 23.9192 45.6913C24.0281 45.8037 24.1764 45.8695 24.3329 45.8745ZM35.9602 17.8033C36.1201 17.8033 36.2735 17.7398 36.3866 17.6267C36.4996 17.5136 36.5632 17.3603 36.5632 17.2004C36.5632 17.0405 36.4996 16.8871 36.3866 16.774C36.2735 16.661 36.1201 16.5974 35.9602 16.5974C35.8003 16.5974 35.647 16.661 35.5339 16.774C35.4208 16.8871 35.3573 17.0405 35.3573 17.2004C35.3573 17.3603 35.4208 17.5136 35.5339 17.6267C35.647 17.7398 35.8003 17.8033 35.9602 17.8033ZM28.0284 47.4053C28.1076 47.4053 28.186 47.3897 28.2591 47.3594C28.3323 47.3291 28.3987 47.2847 28.4547 47.2287C28.5107 47.1727 28.5551 47.1062 28.5854 47.0331C28.6157 46.9599 28.6313 46.8815 28.6313 46.8024C28.6313 46.7232 28.6157 46.6448 28.5854 46.5716C28.5551 46.4985 28.5107 46.432 28.4547 46.376C28.3987 46.32 28.3323 46.2756 28.2591 46.2453C28.186 46.215 28.1076 46.1994 28.0284 46.1994C27.8685 46.1994 27.7151 46.263 27.602 46.376C27.489 46.4891 27.4254 46.6425 27.4254 46.8024C27.4254 46.9623 27.489 47.1156 27.602 47.2287C27.7151 47.3418 27.8685 47.4053 28.0284 47.4053Z" fill="white"/>
<defs>
<linearGradient id="paint0_linear_18_1455" x1="12.2553" y1="7.14894" x2="54.8085" y2="51.4043" gradientUnits="userSpaceOnUse">
<stop stop-color="#3E97A6"/>
<stop offset="0.286458" stop-color="#28646E"/>
<stop offset="1" stop-color="#083A43"/>
</linearGradient>
</defs>
</svg>
