<svg width="64" height="64" viewBox="0 0 64 64" fill="none" xmlns="http://www.w3.org/2000/svg">
<path d="M64 32C64 49.6731 49.6731 64 32 64C14.3269 64 0 49.6731 0 32C0 14.3269 14.3269 0 32 0C49.6731 0 64 14.3269 64 32Z" fill="url(#paint0_linear_124_10359)"/>
<path d="M46.8441 17.1559C38.6573 8.94804 25.3462 8.94804 17.1559 17.1559C8.94804 25.3637 8.94804 38.6538 17.1559 46.8441C25.3637 55.052 38.6538 55.052 46.8441 46.8441C55.052 38.6573 55.052 25.3427 46.8441 17.1559ZM45.038 45.038C37.8382 52.2378 26.1408 52.2378 18.941 45.038C11.7412 37.8382 11.7412 26.1408 18.941 18.941C26.1408 11.7412 37.8382 11.7412 45.038 18.941C52.2623 26.1618 52.2623 37.8382 45.038 45.038Z" fill="white"/>
<path d="M43.3361 44.2402V19.7601C42.2693 18.7498 41.0763 17.8815 39.7869 17.177V40.586L24.3373 17.093C22.9955 17.8004 21.7585 18.691 20.6621 19.7391V44.2402C21.7289 45.2505 22.9218 46.1188 24.2113 46.8233V23.4143L39.6644 46.9073C41.0053 46.1915 42.2408 45.294 43.3361 44.2402Z" fill="white"/>
<defs>
<linearGradient id="paint0_linear_124_10359" x1="12.2553" y1="7.14894" x2="54.8085" y2="51.4043" gradientUnits="userSpaceOnUse">
<stop stop-color="#FFB589"/>
<stop offset="0.286458" stop-color="#FF6339"/>
<stop offset="1" stop-color="#CB2332"/>
</linearGradient>
</defs>
</svg>
