<svg width="64" height="64" viewBox="0 0 64 64" fill="none" xmlns="http://www.w3.org/2000/svg">
<circle cx="32" cy="32" r="32" fill="url(#paint0_linear_18_1411)"/>
<circle cx="31.9998" cy="32" r="20.1696" stroke="white" stroke-width="0.6"/>
<circle cx="32" cy="32" r="21.7" stroke="white" stroke-width="0.6"/>
<circle cx="32" cy="32" r="16.7261" stroke="white" stroke-width="0.6"/>
<path fill-rule="evenodd" clip-rule="evenodd" d="M16.4009 39.9144C15.1698 37.511 14.4001 34.8859 14.4001 32C14.4001 22.2798 22.2799 14.4 32.0001 14.4C41.7204 14.4 49.6001 22.2798 49.6001 32C49.6001 41.6883 41.772 49.3572 32.0958 49.4087C41.5607 49.3572 49.2175 41.477 49.2175 32C49.2175 22.4911 41.5091 14.7826 32.0001 14.7826C22.4912 14.7826 14.7828 22.4911 14.7828 32C14.7828 34.8043 15.2116 37.5748 16.4009 39.9144Z" fill="white"/>
<circle cx="32" cy="32" r="13.8565" stroke="white" stroke-width="0.6"/>
<path fill-rule="evenodd" clip-rule="evenodd" d="M45.3913 31.9999C45.3913 39.3958 39.3958 45.3913 31.9999 45.3913C24.6041 45.3913 18.6086 39.3958 18.6086 31.9999C18.6086 24.6041 24.6041 18.6086 31.9999 18.6086C39.3958 18.6086 45.3913 24.6041 45.3913 31.9999ZM25.0174 26.4521C23.3798 26.4521 22.0522 27.7797 22.0522 29.4173V34.5826C22.0522 36.2202 23.3798 37.5478 25.0174 37.5478C26.6551 37.5478 27.9827 36.2202 27.9827 34.5826V32.4782H26.033L27.9827 30.227V29.4173C27.9827 27.7797 26.6551 26.4521 25.0174 26.4521ZM35.4434 29.4173C35.4434 27.7797 36.771 26.4521 38.4086 26.4521C40.0462 26.4521 41.3738 27.7797 41.3738 29.4173V30.227L39.4242 32.4782H41.3738V34.5826C41.3738 36.2202 40.0462 37.5478 38.4086 37.5478C36.771 37.5478 35.4434 36.2202 35.4434 34.5826V29.4173Z" fill="white"/>
<path fill-rule="evenodd" clip-rule="evenodd" d="M19.2632 17.2457C22.6579 14.2508 27.1196 12.7427 32.0067 12.7427C42.6383 12.7427 51.2567 21.3448 51.2567 31.9561C51.2567 37.3216 49.0532 42.3547 45.4999 45.8947C49.3073 42.3687 51.6842 37.5901 51.6842 31.9561C51.6842 21.1089 42.874 12.3158 32.0067 12.3158C27.1459 12.3158 22.6966 14.3303 19.2632 17.2457Z" fill="white"/>
<defs>
<linearGradient id="paint0_linear_18_1411" x1="32" y1="-1.88235" x2="33.3176" y2="74.9176" gradientUnits="userSpaceOnUse">
<stop stop-color="#FF7562"/>
<stop offset="0.268045" stop-color="#FFB053"/>
<stop offset="0.637866" stop-color="#1DDFA5"/>
<stop offset="0.942161" stop-color="#58A4FF"/>
</linearGradient>
</defs>
</svg>
