<svg width="64" height="64" viewBox="0 0 64 64" fill="none" xmlns="http://www.w3.org/2000/svg">
<circle cx="32" cy="32" r="32" fill="url(#paint0_linear_18_1348)"/>
<path d="M42.6736 30.6045C42.6883 32.1163 42.3153 33.6066 41.5902 34.9332C40.8101 36.2778 39.6551 37.3659 38.2663 38.0642C36.5384 38.9154 34.627 39.3267 32.702 39.2618H28.6068V49H22.0098V21.8711H32.7147C34.6063 21.8135 36.4854 22.1975 38.2029 22.9926C39.6092 23.6596 40.7805 24.7371 41.5622 26.0831C42.3236 27.4664 42.7069 29.0259 42.6736 30.6045ZM32.2123 34.0071C33.2324 34.0884 34.2441 33.7699 35.0338 33.119C35.6327 32.4186 35.9618 31.5274 35.9618 30.6058C35.9618 29.6842 35.6327 28.793 35.0338 28.0926C34.2441 27.4417 33.2324 27.1232 32.2123 27.2045H28.6068V34.0045L32.2123 34.0071Z" fill="white"/>
<path d="M42.674 15H22V19.3667H42.674V15Z" fill="white"/>
<defs>
<linearGradient id="paint0_linear_18_1348" x1="12.2553" y1="7.14894" x2="54.8085" y2="51.4043" gradientUnits="userSpaceOnUse">
<stop stop-color="#898989"/>
<stop offset="0.322917" stop-color="#575757"/>
<stop offset="0.660048" stop-color="#1D1D1D"/>
</linearGradient>
</defs>
</svg>
