<svg width="64" height="64" viewBox="0 0 64 64" fill="none" xmlns="http://www.w3.org/2000/svg">
<circle cx="32" cy="32" r="32" fill="url(#paint0_linear_18_1393)"/>
<path d="M53 32.4732C53 30.8809 47.0198 29.5479 38.7161 29.0723C43.6317 28.6303 47.0071 27.7207 47.0071 26.6747C47.0071 25.617 41.9712 24.3824 35.24 24.0688C37.7001 23.7818 39.393 23.1974 39.393 22.6246C39.393 21.9894 36.0836 21 32 21C27.9176 21 24.607 21.9246 24.607 22.6246C24.607 23.2865 26.1691 23.8061 28.4707 24.0653C21.8865 24.3419 16.994 25.3775 16.994 26.6735C16.994 27.7138 20.3174 28.6175 25.1751 29.0619C16.9269 29.5097 11 30.7675 11 32.4732C11 34.1904 16.9501 35.4459 25.2226 35.8868C20.3405 36.3404 16.9929 37.258 16.9929 38.2717C16.9929 39.563 21.8448 40.5941 28.3874 40.8764C26.1309 41.1402 24.6058 41.654 24.6058 42.3078C24.6058 43.009 27.9164 43.9336 31.9988 43.9336C36.0824 43.9336 39.3919 42.9442 39.3919 42.3078C39.3919 41.742 37.7348 41.1645 35.3187 40.8741C42.0094 40.5559 47.006 39.3258 47.006 38.2717C47.006 37.2592 43.6664 36.3415 38.7925 35.8902C47.0569 35.4517 53 34.2077 53 32.4732ZM26.4954 28.5458C26.5753 28.4764 26.6655 28.4116 26.7812 28.341L31.0303 25.8878C31.3312 25.7154 31.6667 25.6298 32.0035 25.6298C32.339 25.6298 32.6746 25.7154 32.972 25.8878L37.2222 28.341C37.4664 28.4821 37.6805 28.68 37.8367 28.9091L37.8401 28.9207L37.8517 28.9288C37.9142 29.0214 37.9697 29.114 38.0091 29.1984C38.0103 29.2054 38.0126 29.2112 38.0218 29.2331C38.0716 29.3419 38.1086 29.4553 38.1387 29.5687C38.1456 29.6023 38.1352 29.6208 38.1271 29.6335C38.0762 29.6972 37.9119 29.7411 37.6828 29.7492C37.5289 29.7562 37.3646 29.7481 37.1621 29.7261C35.5444 29.5537 33.9267 29.4206 32.309 29.2482C30.3754 29.0422 28.4649 28.8663 26.5082 28.5932C26.4943 28.5898 26.4873 28.5793 26.4862 28.5736C26.4839 28.5666 26.4839 28.5562 26.4954 28.5458ZM37.9975 35.7641C37.9593 35.8474 37.9119 35.9296 37.8575 36.0106L37.8228 36.0603C37.6874 36.249 37.5173 36.4121 37.3194 36.544L32.9697 39.0585C32.3714 39.4034 31.6286 39.4034 31.0292 39.0585L27.2418 36.8715L27.2348 36.868C27.155 36.816 27.0682 36.75 27.0092 36.6702C26.9594 36.6065 26.9641 36.5822 26.9652 36.5776C26.9664 36.5741 26.9745 36.5568 27.0416 36.5371C27.0809 36.5244 27.1272 36.5105 27.1747 36.5035C27.3448 36.4746 27.516 36.4353 27.6885 36.4086L27.7359 36.4005C28.0125 36.3612 28.289 36.3195 28.5644 36.279C29.1326 36.2015 29.6602 36.1332 30.1775 36.0719C30.7132 36.0083 31.2374 35.9527 31.735 35.9076C32.2511 35.859 32.7568 35.8185 33.2405 35.7861C33.7137 35.7572 34.2032 35.7294 34.6939 35.712C35.1718 35.6947 35.645 35.6843 36.1021 35.6808C36.1935 35.6808 36.2861 35.6785 36.3775 35.6785C36.7466 35.6785 37.11 35.6715 37.4664 35.6808C37.574 35.6831 37.6828 35.7028 37.7904 35.7063L37.9732 35.7282C37.986 35.7282 37.9941 35.7375 37.9964 35.741C38.001 35.7456 38.0033 35.7549 37.9975 35.7641ZM38.1896 33.6859C38.1896 34.2297 37.4699 34.3165 37.4618 34.3177C34.4856 34.6764 31.3242 34.8696 28.0645 34.9252C27.3749 34.9367 26.6852 34.9379 25.9967 34.9043C25.9469 34.902 25.9007 34.8858 25.8648 34.8511C25.8301 34.8164 25.8092 34.769 25.8092 34.7192V31.0244L25.8116 30.6553C25.8139 30.6507 25.8139 30.6402 25.8139 30.6275C25.8046 30.3509 26.0638 30.0732 26.5822 30.0559C26.9097 30.0443 27.2406 30.0316 27.5739 30.0408C30.8313 30.1322 35.0132 30.5153 38.1688 31.6296C38.1804 31.6331 38.1896 31.6423 38.1896 31.6539V33.6859Z" fill="white"/>
<defs>
<linearGradient id="paint0_linear_18_1393" x1="12.2553" y1="7.14894" x2="54.8085" y2="51.4043" gradientUnits="userSpaceOnUse">
<stop stop-color="#807BD6"/>
<stop offset="0.322917" stop-color="#493F8F"/>
<stop offset="1" stop-color="#130F36"/>
</linearGradient>
</defs>
</svg>
