<svg width="64" height="64" viewBox="0 0 64 64" fill="none" xmlns="http://www.w3.org/2000/svg">
<circle cx="32" cy="32" r="32" fill="url(#paint0_linear_18_1360)"/>
<path d="M22.0221 38.4685C21.3147 37.0775 20.9644 35.5324 21.0029 33.9723C20.9772 32.5053 21.2509 31.0484 21.8074 29.6908C22.2551 28.5961 22.8552 27.5702 23.5899 26.6433C24.2445 25.8671 25.0555 25.2377 25.9699 24.7962C26.8999 24.328 27.9271 24.0852 28.9683 24.0874C30.2734 24.0221 31.5512 24.476 32.5228 25.3498L36.5792 21.9634C36.4974 21.2584 36.456 20.5493 36.4551 19.8395C36.4551 15.2812 37.6606 13.002 40.0717 13.002C40.3477 12.9888 40.623 13.0404 40.8754 13.1527C41.1279 13.2651 41.3506 13.4349 41.5256 13.6488C41.8926 14.1271 42.0982 14.7095 42.1128 15.3122C42.1101 16.3736 41.7754 17.4075 41.1557 18.2692C40.3402 19.4573 39.3848 20.5431 38.3099 21.5029C38.8066 24.3754 39.1263 27.2758 39.2671 30.1875C39.27 31.6851 39.0725 33.1764 38.6799 34.6217C38.3032 36.0062 37.6972 37.3179 36.8871 38.5022C36.053 39.6975 34.9104 40.6443 33.5809 41.2418C32.0456 41.927 30.3775 42.2637 28.6966 42.2275C27.5473 42.3011 26.3973 42.0928 25.3468 41.6207C24.2963 41.1487 23.377 40.4271 22.6689 39.5189C22.2801 40.9519 22.0929 42.4321 22.1127 43.9168C22.0884 45.5009 22.5389 47.0561 23.4062 48.3819C23.7482 48.9838 24.2421 49.4855 24.8386 49.8368C25.4351 50.1882 26.1133 50.377 26.8055 50.3843C26.909 50.3843 26.9607 50.4869 26.9607 50.6921C26.9607 50.8974 26.909 51 26.8055 51C25.9961 50.9938 25.2019 50.7792 24.4995 50.3768C23.7972 49.9745 23.2104 49.3979 22.7957 48.7027C21.7546 47.2143 21.2039 45.4382 21.2202 43.6219C21.1992 41.8714 21.4702 40.1298 22.0221 38.4685ZM33.0557 25.9371C33.628 26.7008 33.9325 27.6319 33.9224 28.5862C33.9354 29.4803 33.7783 30.3688 33.4593 31.2042C33.1325 32.0148 32.5871 32.7187 31.8838 33.2376C31.1444 33.8104 30.232 34.1142 29.2968 34.0991C29.1189 34.1076 28.9437 34.0526 28.8027 33.9439C28.6827 33.8054 28.607 33.6342 28.5854 33.4523C29.0573 33.4362 29.5202 33.3178 29.9418 33.1051C30.3635 32.8925 30.734 32.5908 31.0275 32.2209C32.0508 31.1878 32.6276 29.7944 32.634 28.3404C32.6353 27.7486 32.5201 27.1623 32.2952 26.6149C30.1864 28.3807 28.2266 30.3172 26.4356 32.4046C24.895 34.2171 23.7125 36.3055 22.9509 38.5591C23.5282 39.4908 24.3483 40.2479 25.3231 40.7493C26.2979 41.2506 27.3907 41.4772 28.4845 41.4048C29.8972 41.4376 31.2936 41.0976 32.5332 40.4191C33.6741 39.8126 34.6257 38.9031 35.2831 37.7907C36.6416 35.3797 37.3152 32.6432 37.2312 29.8771C37.2312 29.1182 37.0458 26.8089 36.675 22.9491L33.0557 25.9371ZM31.8191 25.9681C31.4644 25.6139 31.0388 25.3386 30.5702 25.1603C30.1017 24.9819 29.6007 24.9046 29.1002 24.9333C28.0028 24.9176 26.9223 25.205 25.9777 25.7637C24.1411 26.961 22.8266 28.8099 22.299 30.9378C21.9719 31.9587 21.806 33.0244 21.8074 34.0965C21.795 35.2441 21.9941 36.3841 22.3947 37.4596C24.5834 32.9371 27.8132 28.998 31.8191 25.9655V25.9681ZM38.028 18.2692C38.0406 19.0104 38.0924 19.7505 38.1832 20.4862C39.803 19.247 40.8965 17.4431 41.2462 15.4338C41.2462 14.3662 40.8547 13.8325 40.0717 13.8325C38.7127 13.8325 38.0331 15.3105 38.0331 18.2666L38.028 18.2692Z" fill="white"/>
<defs>
<linearGradient id="paint0_linear_18_1360" x1="12.2553" y1="7.14894" x2="54.8085" y2="51.4043" gradientUnits="userSpaceOnUse">
<stop stop-color="#F3CE57"/>
<stop offset="0.322917" stop-color="#B09029"/>
<stop offset="1" stop-color="#524008"/>
</linearGradient>
</defs>
</svg>
