<svg width="64" height="64" viewBox="0 0 64 64" fill="none" xmlns="http://www.w3.org/2000/svg">
<circle cx="32" cy="32" r="32" fill="url(#paint0_linear_335_10782)"/>
<path d="M15.7339 20.4C15.7339 19.3744 16.1413 18.3907 16.8665 17.6655C17.5918 16.9403 18.5754 16.5328 19.601 16.5328H44.2699C45.2955 16.5328 46.2791 16.9403 47.0044 17.6655C47.7296 18.3907 48.137 19.3744 48.137 20.4C48.137 21.4256 47.7296 22.4092 47.0044 23.1345C46.2791 23.8597 45.2955 24.2671 44.2699 24.2671H36.5646V35.8787C36.5646 35.9875 36.4515 36.0556 36.35 36.0179C35.9733 35.8805 35.569 35.8361 35.1714 35.8883C34.7739 35.9405 34.3948 36.0878 34.0663 36.3178C33.7379 36.5478 33.4697 36.8536 33.2847 37.2093C33.0996 37.565 33.0031 37.9602 33.0034 38.3611V38.7889C33.0034 39.5661 32.7134 40.5071 31.9362 40.5071C30.9531 40.5071 30.9197 39.1441 31.3054 38.2393C31.5056 37.7695 31.5863 37.2574 31.5403 36.7487C31.4944 36.2401 31.3231 35.7507 31.042 35.3244C30.7608 34.898 30.3784 34.548 29.929 34.3054C29.4796 34.0628 28.9771 33.9353 28.4663 33.9343C27.8979 33.9343 27.3063 33.5399 27.3063 32.9729V24.2671H19.6025C19.0945 24.2673 18.5915 24.1674 18.1221 23.9732C17.6528 23.7789 17.2263 23.4941 16.8671 23.135C16.5078 22.7759 16.2228 22.3495 16.0284 21.8802C15.834 21.4109 15.7339 20.908 15.7339 20.4Z" fill="white"/>
<path d="M36.5645 38.5728C36.5645 38.8802 36.4425 39.175 36.2253 39.3925C36.008 39.61 35.7134 39.7324 35.406 39.7328C35.0983 39.7328 34.8033 39.6106 34.5857 39.3931C34.3682 39.1755 34.246 38.8805 34.246 38.5728C34.246 38.2652 34.3682 37.9701 34.5857 37.7526C34.8033 37.535 35.0983 37.4128 35.406 37.4128C35.7134 37.4132 36.008 37.5356 36.2253 37.7531C36.4425 37.9706 36.5645 38.2654 36.5645 38.5728ZM34.9652 44.4714C34.5364 44.4714 34.1251 44.3011 33.8219 43.9979C33.5187 43.6947 33.3484 43.2835 33.3484 42.8547C33.3484 42.4259 33.5187 42.0147 33.8219 41.7115C34.1251 41.4083 34.5364 41.2379 34.9652 41.2379C35.394 41.2379 35.8052 41.4083 36.1084 41.7115C36.4116 42.0147 36.5819 42.4259 36.5819 42.8547C36.5819 43.2835 36.4116 43.6947 36.1084 43.9979C35.8052 44.3011 35.394 44.4714 34.9652 44.4714ZM35.448 48.675C35.1481 48.675 34.8604 48.5558 34.6483 48.3437C34.4362 48.1316 34.317 47.8439 34.317 47.544C34.317 47.244 34.4362 46.9563 34.6483 46.7442C34.8604 46.5321 35.1481 46.413 35.448 46.413C35.748 46.413 36.0356 46.5321 36.2477 46.7442C36.4599 46.9563 36.579 47.244 36.579 47.544C36.579 47.8439 36.4599 48.1316 36.2477 48.3437C36.0356 48.5558 35.748 48.675 35.448 48.675ZM32.1594 47.0582C32.4763 47.0582 32.7802 46.9323 33.0043 46.7083C33.2283 46.4842 33.3542 46.1803 33.3542 45.8634C33.3542 45.5465 33.2283 45.2426 33.0043 45.0186C32.7802 44.7945 32.4763 44.6686 32.1594 44.6686C31.8425 44.6686 31.5386 44.7945 31.3146 45.0186C31.0905 45.2426 30.9646 45.5465 30.9646 45.8634C30.9646 46.1803 31.0905 46.4842 31.3146 46.7083C31.5386 46.9323 31.8425 47.0582 32.1594 47.0582ZM29.8046 50.328C29.8046 51.3082 30.5978 52.1071 31.578 52.1071C32.0496 52.1071 32.502 51.9197 32.8355 51.5862C33.169 51.2527 33.3564 50.8004 33.3564 50.3287C33.3564 49.857 33.169 49.4047 32.8355 49.0712C32.502 48.7376 32.0496 48.5503 31.578 48.5503C30.5992 48.5503 29.8046 49.3478 29.8046 50.3294V50.328ZM28.388 45.6387C27.7877 45.6387 27.2119 45.4002 26.7875 44.9757C26.363 44.5512 26.1245 43.9755 26.1245 43.3752C26.1245 42.7749 26.363 42.1992 26.7875 41.7747C27.2119 41.3502 27.7877 41.1118 28.388 41.1118C28.9883 41.1118 29.564 41.3502 29.9885 41.7747C30.4129 42.1992 30.6514 42.7749 30.6514 43.3752C30.6514 43.9755 30.4129 44.5512 29.9885 44.9757C29.564 45.4002 28.9883 45.6387 28.388 45.6387ZM26.9206 37.0257C26.9206 36.1731 27.6108 35.4785 28.4634 35.4785C28.8737 35.4785 29.2672 35.6415 29.5574 35.9317C29.8475 36.2218 30.0105 36.6153 30.0105 37.0257C30.0105 37.436 29.8475 37.8295 29.5574 38.1197C29.2672 38.4098 28.8737 38.5728 28.4634 38.5728C28.0537 38.572 27.661 38.4087 27.3717 38.1186C27.0825 37.8284 26.9202 37.4354 26.9206 37.0257Z" fill="white"/>
<defs>
<linearGradient id="paint0_linear_335_10782" x1="12.2553" y1="7.14894" x2="54.8085" y2="51.4043" gradientUnits="userSpaceOnUse">
<stop stop-color="#898989"/>
<stop offset="0.322917" stop-color="#575757"/>
<stop offset="0.660048" stop-color="#1D1D1D"/>
</linearGradient>
</defs>
</svg>
