<svg width="64" height="64" viewBox="0 0 64 64" fill="none" xmlns="http://www.w3.org/2000/svg">
<circle cx="32" cy="32" r="32" fill="url(#paint0_linear_18_1363)"/>
<path d="M17.129 21.4729C19.8477 21.4729 22.1877 22.0028 24.0841 23.0468C25.897 24.0454 27.6055 25.6611 29.2579 27.2227C32.0075 29.8233 34.8515 32.5125 38.2577 32.5125H38.3499C40.9418 32.4765 42.5092 29.6224 43.8938 27.1047C44.6217 25.7806 45.2495 24.638 45.9889 23.9554C47.2086 22.8301 48.5233 22.1439 49.897 21.915L50 21.8977V17.6044C50 17.6044 47.5045 16.3877 44.6663 19.2899C42.8426 21.154 41.3861 27.8491 37.4837 27.9103C32.2732 27.991 28.7273 21.0669 24.4873 18.4785C20.0587 15.7764 14.0129 17.6044 14.0129 17.6044V21.6968C15.0452 21.5502 16.0864 21.4754 17.129 21.4729Z" fill="white"/>
<path d="M49.9993 29.8699V29.3962V28.111C49.0835 28.4696 48.2371 28.9849 47.498 29.6338C45.2978 31.5194 43.5381 38.2952 38.828 38.3564C32.5367 38.4378 28.2557 31.4309 23.1373 28.8123C20.1645 27.2917 16.5919 27.1901 14 27.3975V29.8699L14.0036 29.3962C14.0756 39.6013 22.1049 48.3246 32.0032 48.3246C41.9016 48.3246 49.9208 40.0779 49.9993 29.8699Z" fill="white"/>
<path d="M23.4224 28.2559C25.3664 29.2509 27.2053 30.8651 28.9822 32.4261C31.9507 35.0382 35.0236 37.7316 38.7193 37.7316H38.8201C41.6482 37.6949 43.343 34.8323 44.8377 32.3065C45.621 30.9832 46.2978 29.8399 47.0913 29.1595C47.8857 28.4647 48.7943 27.9125 49.7768 27.5273L49.9993 27.4423V22.5327C48.9834 22.7019 47.7328 23.1973 46.4123 24.4162C44.3683 26.3019 42.7346 33.0776 38.3578 33.1388C32.5137 33.2202 28.5372 26.2133 23.7824 23.5947C20.4799 21.7768 16.3803 21.9848 14 22.329V26.7713C14.6674 26.7187 15.3327 26.6914 15.9764 26.6914C18.8873 26.6914 21.3928 27.2177 23.4224 28.2559Z" fill="white"/>
<defs>
<linearGradient id="paint0_linear_18_1363" x1="12.2553" y1="7.14894" x2="54.8085" y2="51.4043" gradientUnits="userSpaceOnUse">
<stop stop-color="#D9B8FF"/>
<stop offset="0.286458" stop-color="#B2A8E6"/>
<stop offset="0.972566" stop-color="#34ACBC"/>
</linearGradient>
</defs>
</svg>
