<svg xmlns="http://www.w3.org/2000/svg" width="32" height="32" fill="none" viewBox="0 0 32 32">
    <path fill="url(#paint0_linear)" d="M16 32c8.837 0 16-7.163 16-16S24.837 0 16 0 0 7.163 0 16s7.163 16 16 16z"/>
    <path stroke="#fff" stroke-width=".5" d="M16 31.75c8.698 0 15.75-7.052 15.75-15.75S24.698.25 16 .25.25 7.302.25 16 7.302 31.75 16 31.75z"/>
    <path fill="#fff" d="M12.146 24.609V7.169H9.104v17.44h3.043zM20.47 24.608l-6.67-8.72 6.67-8.72h3.816l-6.577 8.72 6.577 8.72H20.47z"/>
    <defs>
        <linearGradient id="paint0_linear" x1="16" x2="16" y1="0" y2="32" gradientUnits="userSpaceOnUse">
            <stop stop-color="#FF564F"/>
            <stop offset="1" stop-color="#DB433D"/>
        </linearGradient>
    </defs>
</svg>
