<svg width="32" height="32" viewBox="0 0 32 32" fill="none" xmlns="http://www.w3.org/2000/svg">
    <circle cx="16" cy="16" r="16" fill="url(#6m4xsho2ia)"/>
    <circle cx="16" cy="16" r="15.75" stroke="#fff" stroke-width=".5"/>
    <path d="M16.38 25c-2.058 0-3.745-.481-5.06-1.443-1.209-.883-1.979-2.114-2.31-3.693a.458.458 0 0 1 .314-.538l2.848-.795c.245-.069.492.1.56.364.15.573.357 1.039.624 1.399.361.458.796.79 1.305.996.53.183 1.104.275 1.719.275.934 0 1.623-.172 2.069-.515.445-.367.668-.813.668-1.34 0-.527-.212-.928-.636-1.202-.425-.298-1.104-.539-2.037-.722l-.891-.172a15.964 15.964 0 0 1-3.024-.927c-.913-.412-1.645-.973-2.196-1.683-.552-.71-.828-1.626-.828-2.748 0-1.695.573-2.989 1.719-3.882C12.37 7.458 13.876 7 15.744 7c1.76 0 3.225.424 4.392 1.27 1.038.755 1.758 1.718 2.158 2.89a.457.457 0 0 1-.28.58l-2.848.946c-.248.082-.506-.085-.59-.35-.194-.61-.501-1.06-.923-1.351-.51-.367-1.146-.55-1.91-.55s-1.347.149-1.75.447c-.403.274-.605.664-.605 1.168 0 .55.212.961.637 1.236.424.252.997.447 1.718.584l.892.172c1.188.229 2.26.538 3.214.927.976.367 1.74.905 2.292 1.615.573.687.859 1.626.859 2.817 0 1.786-.605 3.172-1.814 4.156C19.998 24.52 18.396 25 16.38 25z" fill="#fff"/>
    <defs>
        <linearGradient id="6m4xsho2ia" x1="16" y1="0" x2="16" y2="32" gradientUnits="userSpaceOnUse">
            <stop stop-color="#FF59A9"/>
            <stop offset="1" stop-color="#E91179"/>
        </linearGradient>
    </defs>
</svg>
