<svg width="200" height="200" viewBox="0 0 200 200" fill="none" xmlns="http://www.w3.org/2000/svg">
<path d="M100 200C155.228 200 200 155.228 200 100C200 44.7715 155.228 0 100 0C44.7715 0 0 44.7715 0 100C0 155.228 44.7715 200 100 200Z" fill="url(#paint0_linear)"/>
<path d="M155.083 57.2733L155.802 61.6188C156.37 65.666 156.635 69.7502 156.592 73.837C156.589 82.8616 155.503 91.8531 153.356 100.619C150.448 112.529 145.383 123.806 138.411 133.891C128.914 147.363 116.342 158.377 101.738 166.019L99.647 167.128L97.5743 166.01C82.9724 158.368 70.4035 147.354 60.9106 133.882C53.9401 123.796 48.8748 112.52 45.9652 100.61C43.8183 91.8441 42.7317 82.8525 42.7288 73.8279C42.6869 69.7411 42.9513 65.6569 43.5197 61.6097L44.2379 57.2642C44.3585 56.5494 44.1901 55.8159 43.7698 55.2251C43.3496 54.6344 42.7119 54.2348 41.997 54.1142C41.2821 53.9937 40.5486 54.1621 39.9579 54.5823C39.3672 55.0026 38.9676 55.6403 38.847 56.3551L38.1288 60.7006C37.5141 65.0486 37.2285 69.4368 37.2743 73.8279C37.278 83.2939 38.4195 92.7252 40.6743 101.919C43.7421 114.473 49.0816 126.36 56.4288 136.992C66.4112 151.18 79.6309 162.785 94.9925 170.846L98.3652 172.664C98.7575 172.871 99.1944 172.979 99.6379 172.979C100.081 172.979 100.518 172.871 100.911 172.664L104.274 170.846C119.634 162.795 132.856 151.203 142.847 137.028C150.194 126.396 155.534 114.509 158.602 101.955C160.856 92.7616 161.998 83.3303 162.002 73.8642C162.047 69.482 161.758 65.1026 161.138 60.7642L160.42 56.4188C160.299 55.7039 159.9 55.0662 159.309 54.6459C158.718 54.2257 157.985 54.0573 157.27 54.1779C156.555 54.2984 155.917 54.698 155.497 55.2888C155.077 55.8795 154.908 56.613 155.029 57.3279L155.083 57.2733Z" fill="white"/>
<path d="M59.1173 54.3273L99.6537 41.9455L141.09 54.5455C141.438 54.6727 141.808 54.7276 142.178 54.7069C142.548 54.6862 142.91 54.5904 143.242 54.4252C143.573 54.2601 143.868 54.029 144.107 53.7463C144.347 53.4635 144.526 53.1349 144.634 52.7805C144.743 52.4261 144.778 52.0534 144.737 51.6851C144.696 51.3168 144.581 50.9607 144.398 50.6384C144.216 50.3161 143.969 50.0344 143.674 49.8106C143.378 49.5867 143.041 49.4254 142.681 49.3364L100.445 36.4819C99.9261 36.3238 99.3722 36.3238 98.8537 36.4819L57.5446 49.091C56.8514 49.2995 56.2695 49.7749 55.9268 50.4125C55.5841 51.0501 55.5087 51.7978 55.7173 52.491C55.9259 53.1841 56.4013 53.7661 57.0389 54.1088C57.6765 54.4514 58.4241 54.5268 59.1173 54.3182V54.3273Z" fill="white"/>
<path d="M39.1063 58.0735L97.2153 171.474C97.4459 171.916 97.7932 172.286 98.2196 172.544C98.6459 172.803 99.1349 172.94 99.6335 172.94C100.132 172.94 100.621 172.803 101.047 172.544C101.474 172.286 101.821 171.916 102.052 171.474L137.506 105.201L137.561 105.101L160.243 57.9644C160.418 57.6399 160.526 57.2831 160.56 56.9156C160.593 56.5482 160.552 56.1778 160.439 55.8267C160.325 55.4757 160.141 55.1514 159.899 54.8734C159.656 54.5954 159.359 54.3695 159.027 54.2095C158.695 54.0494 158.333 53.9584 157.964 53.9421C157.596 53.9258 157.228 53.9845 156.882 54.1145C156.537 54.2446 156.222 54.4434 155.956 54.6989C155.689 54.9543 155.478 55.2611 155.334 55.6008L132.661 102.683L99.6972 164.328L43.9608 55.5917C43.8044 55.262 43.5833 54.967 43.3108 54.7243C43.0383 54.4815 42.7199 54.296 42.3743 54.1785C42.0288 54.0611 41.6632 54.0142 41.2992 54.0406C40.9353 54.0671 40.5803 54.1663 40.2553 54.3324C39.9304 54.4985 39.6421 54.7282 39.4075 55.0077C39.173 55.2873 38.9969 55.6111 38.8897 55.96C38.7826 56.3088 38.7465 56.6756 38.7837 57.0387C38.8209 57.4017 38.9306 57.7536 39.1063 58.0735Z" fill="white"/>
<path d="M66.9324 108.574H131.551C132.274 108.574 132.968 108.286 133.479 107.775C133.99 107.263 134.278 106.57 134.278 105.846C134.278 105.123 133.99 104.429 133.479 103.918C132.968 103.406 132.274 103.119 131.551 103.119H66.9324C66.2091 103.119 65.5153 103.406 65.0039 103.918C64.4924 104.429 64.2051 105.123 64.2051 105.846C64.2051 106.57 64.4924 107.263 65.0039 107.775C65.5153 108.286 66.2091 108.574 66.9324 108.574Z" fill="white"/>
<defs>
<linearGradient id="paint0_linear" x1="100" y1="0" x2="100" y2="200" gradientUnits="userSpaceOnUse">
<stop stop-color="#E1AA4C"/>
<stop offset="1" stop-color="#C1811D"/>
</linearGradient>
</defs>
</svg>
