<svg width="32" height="32" viewBox="0 0 32 32" fill="none" xmlns="http://www.w3.org/2000/svg">
    <path d="M31.75 16c0 8.698-7.052 15.75-15.75 15.75S.25 24.698.25 16 7.302.25 16 .25 31.75 7.302 31.75 16z" fill="url(#x83ogl528a)" stroke="#fff" stroke-width=".5"/>
    <path fill-rule="evenodd" clip-rule="evenodd" d="M16.441 19.418c5.76-.708 10.152-3.542 9.81-6.331-.343-2.79-5.29-4.477-11.05-3.77-5.76.708-10.152 3.542-9.81 6.331.343 2.79 5.29 4.477 11.05 3.77z" fill="#fff"/>
    <path fill-rule="evenodd" clip-rule="evenodd" d="M22.85 9.625c2.027.691 3.49 1.866 3.681 3.428.192 1.563-.943 3.056-2.743 4.218-1.818 1.173-4.399 2.07-7.311 2.427-2.913.358-5.634.112-7.682-.586-2.028-.692-3.49-1.866-3.682-3.429-.192-1.562.943-3.056 2.743-4.217 1.818-1.174 4.399-2.07 7.312-2.428 2.913-.357 5.633-.112 7.681.587zm-.183.534c-1.95-.666-4.583-.91-7.43-.561-2.848.35-5.343 1.224-7.075 2.342-1.75 1.13-2.64 2.448-2.49 3.674.151 1.227 1.333 2.291 3.305 2.964 1.951.666 4.584.91 7.43.56l.035.28-.034-.28c2.847-.35 5.342-1.223 7.075-2.341 1.75-1.13 2.64-2.448 2.489-3.675-.15-1.227-1.333-2.29-3.305-2.963z" fill="#979797"/>
    <path fill-rule="evenodd" clip-rule="evenodd" d="M16.334 18.624c5.41-.664 9.562-3.102 9.274-5.445-.287-2.343-4.906-3.704-10.316-3.04-5.41.664-9.562 3.102-9.274 5.445.288 2.343 4.906 3.704 10.316 3.04z" fill="#000002"/>
    <path fill-rule="evenodd" clip-rule="evenodd" d="M16.029 25.168c2.962.207 5.72-3.157 6.918-7.986.027-.111-.091.015-.304.115-.368.173-1.065.47-2.106.784-1.425.428-3.453.82-4.143.92-.715.103-2.16.142-3.404.133-.733-.005-1.284.034-1.686-.02-.28-.038-.55-.24-.496-.035.933 3.516 2.84 5.923 5.22 6.09z" fill="#6758FF"/>
    <path fill-rule="evenodd" clip-rule="evenodd" d="M18.43 23.075c1.638-.349 2.422-2.416 2.35-2.75-.07-.335-.995 1.069-2.633 1.417-1.638.348-3.343.36-3.272.695.045.211 1.008.665 2.073.702.624.021.877.064 1.482-.064z" fill="#FF7FA7"/>
    <g filter="url(#w4vcjgc8wb)">
        <path fill-rule="evenodd" clip-rule="evenodd" d="M16.205 17.42c4.27 0 8.379 3.516 8.379-4.356s-4.724-1.86-8.993-1.86c-4.268 0-7.609-2.469-7.609 5.404 0 7.872 3.955.813 8.223.813z" fill="#FFD5E2" fill-opacity=".102"/>
    </g>
    <g filter="url(#uk6wy1ol8c)">
        <path fill-rule="evenodd" clip-rule="evenodd" d="M24.648 10.66c.144.618.218 1.409.218 2.404 0 1.982-.256 3.3-.747 4.144-.507.873-1.249 1.21-2.104 1.268-.813.055-1.75-.142-2.705-.342l-.052-.01c-.99-.208-2.019-.421-3.052-.421-.994 0-1.99.412-2.949.945-.452.25-.888.523-1.307.786l-.072.045c-.438.274-.863.537-1.255.739-.39.2-.776.353-1.137.387-.376.036-.731-.058-1.02-.351-.273-.279-.46-.711-.58-1.293-.123-.587-.185-1.36-.185-2.353 0-1.98.209-3.348.612-4.278.412-.95 1.028-1.441 1.8-1.649.745-.199 1.614-.128 2.522-.02l.492.06c.78.098 1.602.2 2.465.2 1.007 0 2.059-.355 3.096-.793.32-.136.643-.28.962-.424.688-.31 1.359-.61 1.957-.792.878-.266 1.75-.321 2.378.348.3.32.518.784.663 1.4zm-5.74-.013c-1.049.443-2.189.839-3.316.839-.901 0-1.764-.108-2.546-.206l-.477-.059c-.919-.109-1.684-.162-2.31.005-.595.16-1.08.527-1.429 1.329-.356.822-.565 2.097-.565 4.053 0 .975.061 1.704.172 2.238.112.538.268.846.432 1.013.149.152.326.208.564.185.252-.024.56-.138.932-.328.368-.189.772-.439 1.214-.716l.075-.046c.417-.261.864-.541 1.33-.8.982-.545 2.081-1.015 3.222-1.015 1.101 0 2.186.227 3.168.432.998.21 1.87.392 2.603.343.705-.048 1.258-.308 1.655-.99.413-.71.67-1.905.67-3.86 0-.972-.073-1.715-.204-2.276-.13-.561-.315-.92-.524-1.143-.392-.418-.967-.446-1.803-.193-.564.17-1.178.447-1.846.747-.326.147-.665.3-1.017.448z" fill="#979797" fill-opacity=".102"/>
    </g>
    <defs>
        <filter id="w4vcjgc8wb" x="2.028" y="3.053" width="28.511" height="23.232" filterUnits="userSpaceOnUse" color-interpolation-filters="sRGB">
            <feFlood flood-opacity="0" result="BackgroundImageFix"/>
            <feBlend in="SourceGraphic" in2="BackgroundImageFix" result="shape"/>
            <feGaussianBlur stdDeviation="2.977" result="effect1_foregroundBlur_3798_54437"/>
        </filter>
        <filter id="uk6wy1ol8c" x="1.747" y="2.772" width="29.073" height="23.796" filterUnits="userSpaceOnUse" color-interpolation-filters="sRGB">
            <feFlood flood-opacity="0" result="BackgroundImageFix"/>
            <feBlend in="SourceGraphic" in2="BackgroundImageFix" result="shape"/>
            <feGaussianBlur stdDeviation="2.977" result="effect1_foregroundBlur_3798_54437"/>
        </filter>
        <linearGradient id="x83ogl528a" x1="16" y1="0" x2="16" y2="32" gradientUnits="userSpaceOnUse">
            <stop stop-color="#EDEDED"/>
            <stop offset="1" stop-color="#E5E5E5"/>
        </linearGradient>
    </defs>
</svg>
