<svg width="200" height="200" viewBox="0 0 200 200" fill="none" xmlns="http://www.w3.org/2000/svg">
<path d="M100 200C155.228 200 200 155.228 200 100C200 44.7715 155.228 0 100 0C44.7715 0 0 44.7715 0 100C0 155.228 44.7715 200 100 200Z" fill="url(#paint0_linear_625_1468)"/>
<path d="M49.0091 63.6364C49.0091 60.4212 50.2863 57.3378 52.5598 55.0643C54.8332 52.7909 57.9167 51.5136 61.1318 51.5136H138.464C141.679 51.5136 144.762 52.7909 147.036 55.0643C149.309 57.3378 150.586 60.4212 150.586 63.6364C150.586 66.8515 149.309 69.935 147.036 72.2084C144.762 74.4819 141.679 75.7591 138.464 75.7591H114.309V112.159C114.309 112.5 113.955 112.714 113.636 112.595C112.455 112.165 111.188 112.025 109.942 112.189C108.696 112.353 107.507 112.815 106.478 113.535C105.448 114.256 104.607 115.215 104.027 116.33C103.447 117.445 103.145 118.684 103.145 119.941V121.282C103.145 123.718 102.236 126.668 99.8 126.668C96.7182 126.668 96.6136 122.395 97.8227 119.559C98.4502 118.086 98.7032 116.481 98.5591 114.886C98.415 113.292 97.8783 111.758 96.9968 110.421C96.1154 109.085 94.9168 107.987 93.5079 107.227C92.099 106.467 90.5237 106.067 88.9227 106.064C87.1409 106.064 85.2864 104.827 85.2864 103.05V75.7591H61.1364C59.544 75.7597 57.9671 75.4466 56.4958 74.8376C55.0245 74.2287 53.6875 73.3358 52.5614 72.21C51.4352 71.0843 50.5418 69.7477 49.9323 68.2766C49.3228 66.8055 49.0091 65.2287 49.0091 63.6364Z" fill="white"/>
<path d="M114.309 120.605C114.309 121.568 113.927 122.492 113.246 123.174C112.565 123.856 111.641 124.24 110.677 124.241C109.713 124.241 108.788 123.858 108.106 123.176C107.424 122.494 107.041 121.569 107.041 120.605C107.041 119.64 107.424 118.715 108.106 118.033C108.788 117.351 109.713 116.968 110.677 116.968C111.641 116.969 112.565 117.353 113.246 118.035C113.927 118.717 114.309 119.641 114.309 120.605ZM109.295 139.095C107.951 139.095 106.662 138.562 105.712 137.611C104.761 136.661 104.227 135.371 104.227 134.027C104.227 132.683 104.761 131.394 105.712 130.444C106.662 129.493 107.951 128.959 109.295 128.959C110.64 128.959 111.929 129.493 112.879 130.444C113.83 131.394 114.364 132.683 114.364 134.027C114.364 135.371 113.83 136.661 112.879 137.611C111.929 138.562 110.64 139.095 109.295 139.095ZM110.809 152.273C109.869 152.273 108.967 151.899 108.302 151.234C107.637 150.569 107.264 149.668 107.264 148.727C107.264 147.787 107.637 146.885 108.302 146.22C108.967 145.555 109.869 145.182 110.809 145.182C111.749 145.182 112.651 145.555 113.316 146.22C113.981 146.885 114.355 147.787 114.355 148.727C114.355 149.668 113.981 150.569 113.316 151.234C112.651 151.899 111.749 152.273 110.809 152.273ZM100.5 147.205C101.493 147.205 102.446 146.81 103.148 146.108C103.851 145.405 104.245 144.452 104.245 143.459C104.245 142.466 103.851 141.513 103.148 140.811C102.446 140.108 101.493 139.714 100.5 139.714C99.5066 139.714 98.554 140.108 97.8516 140.811C97.1492 141.513 96.7545 142.466 96.7545 143.459C96.7545 144.452 97.1492 145.405 97.8516 146.108C98.554 146.81 99.5066 147.205 100.5 147.205ZM93.1182 157.455C93.1182 160.527 95.6045 163.032 98.6773 163.032C100.156 163.032 101.574 162.444 102.619 161.399C103.665 160.353 104.252 158.935 104.252 157.457C104.252 155.978 103.665 154.56 102.619 153.515C101.574 152.469 100.156 151.882 98.6773 151.882C95.6091 151.882 93.1182 154.382 93.1182 157.459V157.455ZM88.6773 142.755C86.7954 142.755 84.9907 142.007 83.66 140.676C82.3294 139.346 81.5818 137.541 81.5818 135.659C81.5818 133.777 82.3294 131.973 83.66 130.642C84.9907 129.311 86.7954 128.564 88.6773 128.564C90.5591 128.564 92.3639 129.311 93.6945 130.642C95.0252 131.973 95.7727 133.777 95.7727 135.659C95.7727 137.541 95.0252 139.346 93.6945 140.676C92.3639 142.007 90.5591 142.755 88.6773 142.755ZM84.0773 115.755C84.0773 113.082 86.2409 110.905 88.9136 110.905C90.1999 110.905 91.4336 111.416 92.3431 112.325C93.2527 113.235 93.7636 114.468 93.7636 115.755C93.7636 117.041 93.2527 118.274 92.3431 119.184C91.4336 120.094 90.1999 120.605 88.9136 120.605C87.6293 120.602 86.3985 120.09 85.4916 119.181C84.5848 118.271 84.0761 117.039 84.0773 115.755Z" fill="white"/>
<defs>
<linearGradient id="paint0_linear_625_1468" x1="100" y1="0" x2="100" y2="200" gradientUnits="userSpaceOnUse">
<stop stop-color="#575757"/>
<stop offset="1"/>
</linearGradient>
</defs>
</svg>
