<svg width="200" height="200" viewBox="0 0 200 200" fill="none" xmlns="http://www.w3.org/2000/svg">
<path d="M100 200C155.228 200 200 155.228 200 100C200 44.7715 155.228 0 100 0C44.7715 0 0 44.7715 0 100C0 155.228 44.7715 200 100 200Z" fill="url(#paint0_linear_241_1421)"/>
<g clip-path="url(#clip0_241_1421)">
<path d="M161.034 89.7204L156.074 83.2925L127.729 64.9963C127.822 65.5342 127.923 66.072 128.039 66.6052C128.265 67.5956 128.514 68.5806 128.785 69.5595C128.946 70.1558 129.113 70.7386 129.284 71.3079C129.338 71.4815 129.39 71.6582 129.439 71.8334C135.041 89.832 146.219 98.3833 161.225 109.842C162.202 103.725 162.264 97.4961 161.409 91.3603L161.034 89.7204Z" fill="#EF7730"/>
<path d="M105.955 115.5C78.9851 103.438 62.1242 78.9557 61.1415 54.3169C61.1316 54.0826 61.0556 53.8559 60.9221 53.6631C60.7886 53.4704 60.6032 53.3194 60.3874 53.2277C60.1716 53.136 59.9342 53.1074 59.7028 53.1452C59.4714 53.183 59.2555 53.2856 59.08 53.4411C52.0216 59.6626 46.4712 67.4084 42.8488 76.0921C39.2264 84.7757 37.627 94.1697 38.1717 103.563C38.7164 112.956 41.391 122.102 45.9928 130.309C50.5947 138.516 57.0033 145.568 64.7336 150.932C72.4638 156.296 81.313 159.831 90.6113 161.269C99.9096 162.708 109.413 162.012 118.403 159.234C127.393 156.457 135.633 151.671 142.499 145.239C149.366 138.806 154.679 130.896 158.037 122.106C158.119 121.895 158.142 121.665 158.103 121.442C158.065 121.218 157.965 121.01 157.816 120.839C157.667 120.668 157.474 120.542 157.258 120.473C157.042 120.404 156.811 120.396 156.59 120.449C139.633 124.504 121.806 122.762 105.955 115.5ZM161.403 91.4146C159.21 86.343 159.21 86.343 100.401 65.1018C70.7996 54.4068 65.3002 44.0853 86.732 39.4136C87.7757 39.1894 88.8281 38.9899 89.8894 38.8153C98.0497 37.4826 106.394 37.7925 114.433 39.7268C122.472 41.6612 130.044 45.1811 136.704 50.0802C143.365 54.9793 148.981 61.1589 153.222 68.2567C157.463 75.3545 160.245 83.2277 161.403 91.4146Z" fill="#F9D85E"/>
<path d="M104.944 38.2061L104.23 38.1426C105.2 38.2108 106.155 38.3317 107.113 38.4417C106.942 38.4216 106.778 38.3968 106.605 38.3766C106.062 38.31 105.513 38.2588 104.944 38.2061Z" fill="#EF7730"/>
</g>
<defs>
<linearGradient id="paint0_linear_241_1421" x1="100" y1="0" x2="100" y2="200" gradientUnits="userSpaceOnUse">
<stop stop-color="#264286"/>
<stop offset="1" stop-color="#0B1B42"/>
</linearGradient>
<clipPath id="clip0_241_1421">
<rect width="124" height="124" fill="white" transform="translate(38 38)"/>
</clipPath>
</defs>
</svg>
