<svg width="32" height="32" viewBox="0 0 32 32" fill="none" xmlns="http://www.w3.org/2000/svg">
    <path d="M16 32c8.837 0 16-7.163 16-16S24.837 0 16 0 0 7.163 0 16s7.163 16 16 16z" fill="url(#9yp32nnsva)"/>
    <path d="M16 31.75c8.698 0 15.75-7.052 15.75-15.75S24.698.25 16 .25.25 7.302.25 16 7.302 31.75 16 31.75z" fill="url(#6nv2p4enbb)" stroke="#fff" stroke-width=".5"/>
    <path d="M11.976 11.764c-3.306-1.843-4.593-.403-4.885 2.158-.76-4.926.79-6.789 3.55-5.54a13.107 13.107 0 0 1 3.268 2.14c.57.5 1.306.77 2.064.757" fill="#E1DFEB"/>
    <path d="M15.96 11.28a3.267 3.267 0 0 0 2.08-.783c1-.857 2.115-1.57 3.314-2.115 2.762-1.249 4.316.614 3.556 5.54-.345.244-.682.491-1.038.761.033-.776-.074-1.675-.086-2.353-.039-2.206-3.137-1.405-4.74.451-.93 1.079.335 2.554 1.782 3.533.259.074.523.128.79.16-.585.478-1.256 1.033-2.056 1.697-1.005-.944-2.29-2.153-3.575-3.288" fill="#E1DFEB"/>
    <path d="M16 11.28a3.26 3.26 0 0 1-2.05-.784 14.007 14.007 0 0 0-3.31-2.114c-2.758-1.248-4.309.613-3.549 5.54.344.244.68.49 1.036.76-.033-.775.075-1.675.086-2.353.038-2.206 3.133-1.405 4.731.451.929 1.079-.335 2.554-1.778 3.533a5.251 5.251 0 0 1-.79.16c.583.478 1.254 1.033 2.053 1.697 1.003-.944 2.288-2.154 3.572-3.29 1.284-1.135 0-3.6 0-3.6zM17.215 21.274a7.623 7.623 0 0 0 2.971 3.431c3.153 1.558 4.984-.865 4.184-3.47-.358-1.169-1.701-3.481-3.79-4.332-.525-.214-3.946 2.979-3.365 4.37zm1.43-2.308c.149-.835.552-.766.774-.67.903.386 1.989 1.336 2.372 2.294.549 1.369-.392 2.229-1.62 1.43-1.119-.727-1.732-1.893-1.525-3.054z" fill="#E1DFEB"/>
    <path d="M11.423 16.903c-2.089.85-3.432 3.163-3.79 4.332-.8 2.604 1.03 5.028 4.184 3.47a7.623 7.623 0 0 0 2.971-3.431c.58-1.392-2.841-4.586-3.365-4.371zm.408 5.118c-1.227.798-2.169-.062-1.62-1.43.384-.959 1.47-1.91 2.372-2.296.223-.095.626-.164.774.671.206 1.16-.407 2.327-1.526 3.055z" fill="#E1DFEB"/>
    <path d="M21.36 8.383c6.024-2.086 2.466 8.6-5.36 8.6-7.826 0-11.384-10.686-5.359-8.6-6.567-3.41-8.269 5.136-.395 9.811 2.339 1.389 4.696 3.947 1.571 6.51 1.98-.985 2.47-2.765 4.183-2.765 1.714 0 2.206 1.78 4.183 2.765-3.124-2.563-.768-5.121 1.572-6.51 7.873-4.674 6.17-13.222-.396-9.81z" fill="#fff"/>
    <defs>
        <linearGradient id="9yp32nnsva" x1="16" y1="0" x2="16" y2="32" gradientUnits="userSpaceOnUse">
            <stop stop-color="#353340"/>
            <stop offset="1" stop-color="#00000E"/>
        </linearGradient>
        <linearGradient id="6nv2p4enbb" x1="16" y1=".25" x2="16" y2="31.75" gradientUnits="userSpaceOnUse">
            <stop stop-color="#353340"/>
            <stop offset="1" stop-color="#00000E"/>
        </linearGradient>
    </defs>
</svg>
