<svg xmlns="http://www.w3.org/2000/svg" width="32" height="32" fill="none" viewBox="0 0 32 32">
    <path fill="url(#paint0_linear)" d="M16 32c8.837 0 16-7.163 16-16S24.837 0 16 0 0 7.163 0 16s7.163 16 16 16z"/>
    <path stroke="#fff" stroke-width=".5" d="M16 31.75c8.698 0 15.75-7.052 15.75-15.75S24.698.25 16 .25.25 7.302.25 16 7.302 31.75 16 31.75z"/>
    <g clip-path="url(#clip0)">
        <path fill="url(#paint1_linear)" d="M24.607 20.931l-.005.009c-.027.048-.056.096-.083.14l-.057.075c-.199.284-.446.52-.739.714l-6.291 3.638c-.438.25-.93.376-1.424.376-.495 0-.984-.126-1.43-.376l-5.48-3.165c-.067-.048-.13-.091-.175-.132l-.013-.005c-.07-.078-.1-.156-.076-.231.068-.212.535-.309.557-.312.126-.021.244-.037.368-.059l.078-.01c.201-.027.397-.06.599-.09.198-.029.397-.053.599-.082.79-.113 1.553-.21 2.332-.301.73-.09 1.488-.17 2.254-.237.803-.075 1.518-.134 2.173-.174.715-.043 1.421-.084 2.107-.108.684-.032 1.37-.043 2.036-.046l.199-.002h.198c.503 0 1.035.005 1.575.016.064.005.132.008.196.01l.11.006c.202.019.328.078.382.164.034.05.034.113.01.183z"/>
        <path fill="url(#paint2_linear)" d="M25 15.381v2.075c0 .768.008.784-1.58.983l-1.037.088c-.134.014-.28.025-.422.043l-.327.027c-2.633.266-5.266.495-7.904.659-1.166.07-2.332.131-3.501.177-.545.019-1.088.037-1.633.05-.261.003-.524.009-.785.014-.207.006-.53.073-.696-.08-.158-.148-.107-.44-.107-.645v-5.228c0-.726.228-.884 1.735-.975.25-.003.516-.009.865-.009 4.415 0 9.11.656 14.777 2.07.008 0 .016 0 .021.002l.01.003c.046.013.098.024.143.034l.01.003c.202.08.43.038.43.71z"/>
        <path fill="url(#paint3_linear)" d="M24.607 11.95c-.025.025-.054.044-.095.052-.172.048-.39.016-.564.01-.204-.005-.403-.016-.604-.026-.395-.027-.793-.065-1.19-.108l-1.575-.169c-.79-.08-1.58-.167-2.367-.25-.924-.1-1.843-.196-2.761-.293-.92-.102-1.835-.196-2.757-.295-.782-.084-1.566-.167-2.348-.247-.516-.057-1.029-.108-1.545-.164l-.39-.04c-.029-.006-.058-.011-.085-.011-.097-.017-.186-.027-.226-.097-.016-.027-.03-.089.024-.172l.03-.024c.04-.027.078-.057.132-.091.048-.035.099-.065.15-.1l6.142-3.546c.44-.247.93-.379 1.431-.379.5 0 .994.132 1.424.379l6.145 3.543c.505.293.908.793 1.037 1.381.035.156.131.505-.008.648z"/>
    </g>
    <defs>
        <linearGradient id="paint0_linear" x1="16" x2="16" y1="0" y2="32" gradientUnits="userSpaceOnUse">
            <stop stop-color="#59588D"/>
            <stop offset="1" stop-color="#1E1433"/>
            <stop offset="1" stop-color="#1E1433"/>
        </linearGradient>
        <linearGradient id="paint1_linear" x1="27.333" x2="13.024" y1="5.871" y2="26.878" gradientUnits="userSpaceOnUse">
            <stop offset=".04" stop-color="#5FF19D"/>
            <stop offset=".205" stop-color="#59EEA3"/>
            <stop offset=".427" stop-color="#49E5B4"/>
            <stop offset=".681" stop-color="#2FD6D0"/>
            <stop offset=".957" stop-color="#0AC2F7"/>
            <stop offset="1" stop-color="#04BEFE"/>
        </linearGradient>
        <linearGradient id="paint2_linear" x1="24.095" x2="9.787" y1="3.666" y2="24.672" gradientUnits="userSpaceOnUse">
            <stop offset=".04" stop-color="#5FF19D"/>
            <stop offset=".205" stop-color="#59EEA3"/>
            <stop offset=".427" stop-color="#49E5B4"/>
            <stop offset=".681" stop-color="#2FD6D0"/>
            <stop offset=".957" stop-color="#0AC2F7"/>
            <stop offset="1" stop-color="#04BEFE"/>
        </linearGradient>
        <linearGradient id="paint3_linear" x1="22.25" x2="7.941" y1="2.408" y2="23.414" gradientUnits="userSpaceOnUse">
            <stop offset=".04" stop-color="#5FF19D"/>
            <stop offset=".205" stop-color="#59EEA3"/>
            <stop offset=".427" stop-color="#49E5B4"/>
            <stop offset=".681" stop-color="#2FD6D0"/>
            <stop offset=".957" stop-color="#0AC2F7"/>
            <stop offset="1" stop-color="#04BEFE"/>
        </linearGradient>
        <clipPath id="clip0">
            <path fill="#fff" d="M0 0H18V19.886H0z" transform="translate(7 6)"/>
        </clipPath>
    </defs>
</svg>
