<svg width="32" height="32" viewBox="0 0 32 32" fill="none" xmlns="http://www.w3.org/2000/svg">
<circle cx="16" cy="16" r="16" fill="white"/>
<path fill-rule="evenodd" clip-rule="evenodd" d="M0 16C0 11.7565 1.68571 7.68687 4.68629 4.68629C7.68687 1.68571 11.7565 0 16 0C20.2435 0 24.3131 1.68571 27.3137 4.68629C30.3143 7.68687 32 11.7565 32 16C32 20.2435 30.3143 24.3131 27.3137 27.3137C24.3131 30.3143 20.2435 32 16 32C11.7565 32 7.68687 30.3143 4.68629 27.3137C1.68571 24.3131 0 20.2435 0 16ZM13.3272 11.5301H8.85726C8.26452 11.5301 7.69605 11.2946 7.27692 10.8755C6.85778 10.4564 6.62232 9.8879 6.62232 9.29516C6.62232 8.70241 6.85778 8.13395 7.27692 7.71481C7.69605 7.29568 8.26452 7.06021 8.85726 7.06021H15.9646C15.9938 7.05977 16.023 7.05977 16.0522 7.06021H23.1629C23.7557 7.06021 24.3242 7.29568 24.7433 7.71481C25.1624 8.13395 25.3979 8.70241 25.3979 9.29516C25.3979 9.8879 25.1624 10.4564 24.7433 10.8755C24.3242 11.2946 23.7557 11.5301 23.1629 11.5301H18.6914V18.2349C18.6914 18.3023 18.624 18.3427 18.5617 18.3192C18.3435 18.2401 18.1095 18.2148 17.8795 18.2454C17.6495 18.276 17.4302 18.3616 17.2403 18.495C17.0504 18.6284 16.8955 18.8056 16.7886 19.0116C16.6818 19.2176 16.6262 19.4463 16.6265 19.6783V19.9192C16.6265 20.0657 16.6484 20.2072 16.6888 20.3402C16.7579 20.5693 16.6737 20.8455 16.4396 20.8825C16.0752 20.9411 15.7026 20.9244 15.3448 20.8337C15.0585 20.7613 15.0653 20.3705 15.2724 20.16C15.5282 19.8988 15.6979 19.5655 15.7585 19.205C15.8191 18.8445 15.7678 18.474 15.6114 18.1436C15.4551 17.8131 15.2013 17.5385 14.8841 17.3567C14.5669 17.1749 14.2016 17.0946 13.8375 17.1267C13.5865 17.1469 13.3272 16.9735 13.3272 16.7208V11.5301ZM18.0194 20.4699C18.1074 20.4699 18.1946 20.4526 18.2759 20.4189C18.3572 20.3852 18.4311 20.3358 18.4934 20.2736C18.5556 20.2113 18.605 20.1374 18.6387 20.0561C18.6723 19.9748 18.6897 19.8876 18.6897 19.7996C18.6897 19.7116 18.6723 19.6244 18.6387 19.5431C18.605 19.4617 18.5556 19.3878 18.4934 19.3256C18.4311 19.2633 18.3572 19.214 18.2759 19.1803C18.1946 19.1466 18.1074 19.1293 18.0194 19.1293C17.8416 19.1293 17.6711 19.1999 17.5454 19.3256C17.4197 19.4513 17.3491 19.6218 17.3491 19.7996C17.3491 19.9774 17.4197 20.1479 17.5454 20.2736C17.6711 20.3993 17.8416 20.4699 18.0194 20.4699ZM16.832 22.2737C16.832 22.5216 16.9305 22.7593 17.1058 22.9346C17.2811 23.1099 17.5188 23.2084 17.7667 23.2084C18.0146 23.2084 18.2524 23.1099 18.4277 22.9346C18.603 22.7593 18.7015 22.5216 18.7015 22.2737C18.7015 22.0258 18.603 21.788 18.4277 21.6127C18.2524 21.4374 18.0146 21.3389 17.7667 21.3389C17.5188 21.3389 17.2811 21.4374 17.1058 21.6127C16.9305 21.788 16.832 22.0258 16.832 22.2737ZM17.3912 24.9853C17.3912 25.1588 17.4601 25.3252 17.5828 25.4479C17.7055 25.5706 17.8719 25.6396 18.0455 25.6396C18.219 25.6396 18.3854 25.5706 18.5081 25.4479C18.6309 25.3252 18.6998 25.1588 18.6998 24.9853C18.6998 24.8117 18.6309 24.6453 18.5081 24.5226C18.3854 24.3999 18.219 24.3309 18.0455 24.3309C17.8719 24.3309 17.7055 24.3999 17.5828 24.5226C17.4601 24.6453 17.3912 24.8117 17.3912 24.9853ZM16.8303 24.0135C16.8303 24.1966 16.7576 24.3723 16.6281 24.5018C16.4986 24.6312 16.3229 24.704 16.1398 24.704C15.9567 24.704 15.781 24.6312 15.6515 24.5018C15.522 24.3723 15.4493 24.1966 15.4493 24.0135C15.4493 23.8303 15.522 23.6547 15.6515 23.5252C15.781 23.3957 15.9567 23.3229 16.1398 23.3229C16.3229 23.3229 16.4986 23.3957 16.6281 23.5252C16.7576 23.6547 16.8303 23.8303 16.8303 24.0135ZM15.8029 27.6211C15.5305 27.6211 15.2692 27.5128 15.0765 27.3201C14.8838 27.1275 14.7756 26.8662 14.7756 26.5937C14.7756 26.3212 14.8838 26.0599 15.0765 25.8672C15.2692 25.6746 15.5305 25.5663 15.8029 25.5663C16.0754 25.5663 16.3367 25.6746 16.5294 25.8672C16.7221 26.0599 16.8303 26.3212 16.8303 26.5937C16.8303 26.8662 16.7221 27.1275 16.5294 27.3201C16.3367 27.5128 16.0754 27.6211 15.8029 27.6211ZM12.6451 22.5752C12.6451 22.9222 12.7829 23.2551 13.0283 23.5005C13.2738 23.7459 13.6066 23.8838 13.9537 23.8838C14.3008 23.8838 14.6336 23.7459 14.879 23.5005C15.1244 23.2551 15.2623 22.9222 15.2623 22.5752C15.2623 22.2281 15.1244 21.8952 14.879 21.6498C14.6336 21.4044 14.3008 21.2665 13.9537 21.2665C13.6066 21.2665 13.2738 21.4044 13.0283 21.6498C12.7829 21.8952 12.6451 22.2281 12.6451 22.5752ZM13.9975 18.0109C13.7603 18.0109 13.5328 18.1052 13.3651 18.2729C13.1974 18.4406 13.1032 18.6681 13.1032 18.9053C13.1032 19.1425 13.1974 19.3699 13.3651 19.5376C13.5328 19.7054 13.7603 19.7996 13.9975 19.7996C14.2347 19.7996 14.4621 19.7054 14.6299 19.5376C14.7976 19.3699 14.8918 19.1425 14.8918 18.9053C14.8918 18.6681 14.7976 18.4406 14.6299 18.2729C14.4621 18.1052 14.2347 18.0109 13.9975 18.0109Z" fill="url(#paint0_linear_3498_63390)"/>
<circle cx="16" cy="16" r="15.75" stroke="white" stroke-width="0.5"/>
<defs>
<linearGradient id="paint0_linear_3498_63390" x1="32" y1="32" x2="12.608" y2="-6.37137" gradientUnits="userSpaceOnUse">
<stop stop-color="#71399F"/>
<stop offset="0.11" stop-color="#71399F"/>
<stop offset="0.8" stop-color="#EC096D"/>
<stop offset="1" stop-color="#EC096D"/>
</linearGradient>
</defs>
</svg>
