<svg id="Layer_1" data-name="Layer 1" xmlns="http://www.w3.org/2000/svg" viewBox="0 0 1080 1080"><defs><style>.cls-1{fill:#a93bff;}</style></defs><path class="cls-1" d="M743.92,784.7a117.67,117.67,0,0,0,50.76-97c0,25.59-32.91,36-47.74,15.61v0c-7.62-9.94-4.74-23.83-4.13-35.43,1.91-22.78,8.57-43.52,16.75-64.21,12.42-38.69,4.9-84-19.28-116.45,9.73,37.82-24,73.68-62.08,68-57.43-5-93.68-67.05-70.62-119.31h0a87.26,87.26,0,0,1,7.71-14.16c24.39-37.83,28.08-91.22,9-132.48a142.76,142.76,0,0,0-25.6-38.79C578.34,227.83,567.16,195,570.82,163c-20.18,32.85-22.19,79.39-5,113.89A91,91,0,0,1,575.23,302c5.4,24.39-.78,51.87-15.05,71.14-34.57,49.95-112.54,17.95-101.3-42.37-17.73,24.07-21.95,60-9.65,88.17,2.35,5.77,6.11,11,8.45,16.78a117.31,117.31,0,0,1,9.77,59.08,108.37,108.37,0,0,1-3.36,19.09c-.12.6-.33,1.22-.46,1.82a2.19,2.19,0,0,0-.43.15c-20.5,42.9-84.4,35.27-93.72-11.93a89.92,89.92,0,0,0-72-71.7C321.75,447,335.27,479.32,327.39,508a290.85,290.85,0,0,0-8.73,71c0,8.53.34,16.91,1.11,25.32a288.37,288.37,0,0,0,14.34,68.4c5,10.57,5.3,24-3.21,32.62v0c-9,10.13-25.76,11.33-36,2.49h0a27,27,0,0,1-6.32-7.74,23.11,23.11,0,0,1-1.58-3.48,25.75,25.75,0,0,1-1.6-9A118.05,118.05,0,0,0,336.39,785a14,14,0,0,1,3.88,17.67c-12.15,22.23,0,52.25,23.32,60.26,26.61-34.22,82.39-21.25,91.19,21.31l0,.23a29.62,29.62,0,0,0,20.35,23.47l.13,0c8.07-19.26,36.78-12.79,35.74,8.08,3.11.4,6.26.77,9.43,1-1.61-27.4,38.54-27.41,36.92,0,4.25-.34,8.48-.86,12.64-1.48-.71-20,26.91-26.6,35.37-8.51l.1,0a27.93,27.93,0,0,0,17.66-18.2c2.15-7,3.51-14.41,7.5-20.44,17.75-30.81,63.62-33.8,85.11-5.31a43.24,43.24,0,0,0,23.41-61.27A14,14,0,0,1,743.92,784.7ZM347.8,792.2a2.21,2.21,0,0,1-.15-.37,1.11,1.11,0,0,1,.33.15A1.06,1.06,0,0,0,347.8,792.2Zm101.63-13.81c-85.67,0-43.58-94.77-94.77-94.77,12-8.64,45.95-7.68,65.1,14.83s106.7,79,106.7,31.12C526.46,729.57,535.1,778.39,449.43,778.39Zm101.21,68.55s-3.49-19-11.81-19-11.81,19-11.81,19-17.18-1-17.18-21.87,19.8-49.61,19.8-49.61c.8,5.39,4.38,8.2,9.19,8.2s8.39-2.81,9.16-8.2c0,0,19.79,28.8,19.79,49.61S550.64,846.94,550.64,846.94Zm79.93-68.55c-85.67,0-77.06-48.82-77.06-48.82,0,47.86,87.58-8.64,106.73-31.12s53.13-23.47,65.1-14.83C674.12,683.62,716.24,778.39,630.57,778.39Z"/></svg>