<svg width="200" height="200" viewBox="0 0 200 200" fill="none" xmlns="http://www.w3.org/2000/svg">
<path d="M100 200C155.228 200 200 155.228 200 100C200 44.7715 155.228 0 100 0C44.7715 0 0 44.7715 0 100C0 155.228 44.7715 200 100 200Z" fill="url(#paint0_linear_417_1456)"/>
<g clip-path="url(#clip0_417_1456)">
<path fill-rule="evenodd" clip-rule="evenodd" d="M161.375 94.6596C162.532 91.4651 167.373 89.9483 170.288 89.9483H171.614V97.0367C169.95 97.0367 168.255 96.948 166.656 97.4996C165.546 97.8612 164.56 98.5367 163.816 99.4465C162.458 101.302 162.571 102.447 162.464 104.187C162.364 105.878 162.409 107.034 162.409 108.728V121.303H154.755V90.2668H161.388L161.375 94.6596ZM68.3096 113.952C62.8272 119.385 58.097 122.012 50.3094 122.012C37.341 122.012 28.3864 112.842 28.3864 99.9291C28.3864 86.6684 38.5406 77.9647 50.4326 77.9647C57.3743 77.9727 63.9678 81.0439 68.4911 86.3762L62.9439 91.7507C59.1928 87.719 55.098 85.6178 50.2511 85.6178C42.47 85.6178 36.1188 91.6917 36.1188 99.9291C36.1188 108.577 42.2334 114.359 50.4261 114.359C55.5584 114.359 59.021 112.257 62.9439 108.285L68.3096 113.952ZM101.153 115.111C97.8653 119.845 93.5306 121.959 87.0756 121.959C77.3266 121.959 71.0401 114.717 71.0401 105.602C71.0401 97.1319 77.0964 89.3015 86.9621 89.3015C96.6527 89.3015 103.228 96.3144 103.228 106.128C103.228 106.83 103.173 107.178 103.173 107.881H78.4807C79.2297 112.497 82.6955 115.065 87.0756 115.065C90.363 115.065 92.5579 114.132 94.6912 112.028L101.153 115.111ZM95.4985 101.732C94.4611 98.1201 91.1736 95.8908 87.0691 95.8908C83.2628 95.8908 80.319 97.8181 78.8212 101.732H95.4985ZM107.116 78.1321H114.787V121.142H107.116V78.1321ZM148.788 115.111C145.501 119.845 141.172 121.959 134.711 121.959C124.962 121.959 118.675 114.717 118.675 105.602C118.675 97.1319 124.732 89.3015 134.597 89.3015C144.288 89.3015 150.866 96.3144 150.866 106.128C150.866 106.83 150.808 107.178 150.808 107.881H126.116C126.865 112.497 130.331 115.065 134.711 115.065C138.002 115.065 140.193 114.132 142.327 112.028L148.788 115.111ZM143.134 101.732C142.096 98.1201 138.809 95.8908 134.704 95.8908C130.898 95.8908 127.958 97.8181 126.456 101.732H143.134Z" fill="white"/>
</g>
<defs>
<linearGradient id="paint0_linear_417_1456" x1="100" y1="0" x2="100" y2="200" gradientUnits="userSpaceOnUse">
<stop stop-color="#575757"/>
<stop offset="1"/>
</linearGradient>
<clipPath id="clip0_417_1456">
<rect width="144" height="45.1765" fill="white" transform="translate(28 77.4)"/>
</clipPath>
</defs>
</svg>
