<svg width="200" height="200" viewBox="0 0 200 200" fill="none" xmlns="http://www.w3.org/2000/svg">
<path d="M100 200C155.228 200 200 155.228 200 100C200 44.7715 155.228 0 100 0C44.7715 0 0 44.7715 0 100C0 155.228 44.7715 200 100 200Z" fill="url(#paint0_linear_1331:28242)"/>
<path d="M105.073 125.742L103.526 125.994H103.413C103.297 126.022 103.184 126.022 103.068 126.052L102.667 126.108C82.3987 129.429 65.2504 129.86 50.2832 127.455C46.2536 126.795 40.3226 125.679 35.2555 123.503C29.2665 120.932 25.859 117.439 25.1438 113.117C23.3406 102.552 38.9954 94.0802 44.1532 91.3023C57.8361 83.8879 74.6998 78.5639 95.6837 75.0128C116.668 71.4618 134.36 70.9203 149.702 73.4111C159.723 75.0405 173.235 78.2767 174.849 87.7412C176.464 97.2056 164.775 104.718 155.84 109.556C142.492 116.772 126.182 122.01 105.941 125.559L105.541 125.616C105.428 125.647 105.312 125.647 105.198 125.674C105.13 125.742 105.1 125.742 105.073 125.742ZM103.325 125.168H103.38L104.957 124.884H104.984C105.098 124.853 105.214 124.853 105.327 124.826L105.73 124.768C125.855 121.242 142.086 116.036 155.369 108.851C175.64 97.8856 174.346 90.3856 173.95 87.925C172.29 77.9619 155.172 75.1841 149.561 74.2976C134.302 71.8345 116.725 72.3508 95.8272 75.9044C74.9289 79.4579 58.1811 84.7467 44.5537 92.1032C24.285 103.069 25.5745 110.569 25.9749 113.032C27.6623 122.992 44.7828 125.742 50.4041 126.657C65.2907 129.062 82.3534 128.634 102.536 125.312L102.939 125.254C103.053 125.226 103.169 125.226 103.282 125.198L103.325 125.168Z" fill="white"/>
<path d="M103.543 121.698C103.143 121.756 102.712 121.841 102.256 121.897C101.395 122.04 100.423 122.184 99.3626 122.355L99.2493 122.385C98.7909 122.441 98.3049 122.529 97.7886 122.584C97.3302 122.642 96.8442 122.728 96.3304 122.786H96.2397C95.4691 122.899 94.638 122.985 93.8069 123.101H93.6936L92.6333 123.214C92.3462 123.244 92.0314 123.272 91.7468 123.33H91.7065C85.2088 124.045 79.0235 124.476 73.3569 124.561C63.0513 124.702 54.7756 123.758 48.822 121.756C43.1176 119.837 39.481 116.918 38.0631 113.08C37.8182 112.421 37.6361 111.74 37.5191 111.047C37.0154 108.043 37.7483 105.066 39.7227 102.233C42.4729 98.2836 47.6811 94.5034 55.2113 91.0405C62.263 87.7665 71.186 84.8274 81.7207 82.251C88.3897 80.619 93.7439 79.6469 96.3505 79.2289C98.9572 78.8108 104.422 77.9419 111.179 77.2544C118.621 76.4988 129.501 75.8214 139.147 76.7683C147.42 77.5692 153.605 79.4303 157.499 82.3215C160.219 84.3539 161.879 86.8724 162.365 89.8769C162.484 90.5958 162.532 91.3246 162.508 92.0529V92.0529C162.392 96.1454 159.96 100.067 155.293 103.703C150.329 107.557 142.831 111.191 133.009 114.455C127.57 116.258 121.586 117.89 115.201 119.351C114.985 119.412 114.766 119.46 114.544 119.494L112.34 119.97C111.766 120.083 111.222 120.199 110.678 120.313L110.134 120.429C109.819 120.484 109.535 120.542 109.22 120.6C108.905 120.658 108.56 120.743 108.213 120.801L107.669 120.915C106.608 121.116 105.636 121.287 104.777 121.459C104.382 121.554 103.951 121.64 103.543 121.698ZM93.6382 122.27H93.7817C94.5826 122.184 95.3835 122.071 96.1566 121.955H96.2397C96.7283 121.897 97.2144 121.811 97.7004 121.756C98.1865 121.7 98.7078 121.612 99.1612 121.554L99.2745 121.527C100.335 121.353 101.289 121.212 102.138 121.096C103.055 120.952 103.77 120.844 104.687 120.668C105.545 120.524 106.518 120.323 107.578 120.124L108.122 120.008C108.437 119.95 108.779 119.895 109.094 119.809L109.983 119.635L110.527 119.522C111.071 119.409 111.615 119.293 112.187 119.179L114.39 118.691C114.62 118.635 114.821 118.605 115.05 118.547C121.424 117.117 127.368 115.457 132.78 113.674C142.514 110.44 149.928 106.862 154.794 103.054C159.259 99.5705 161.579 95.8759 161.695 92.0403C161.718 91.3655 161.67 90.6902 161.551 90.0255C161.093 87.2552 159.536 84.9005 156.998 83.0116C153.22 80.2413 147.209 78.4028 139.079 77.6296C129.489 76.7129 118.667 77.3778 111.28 78.1157C104.526 78.7755 99.1133 79.6268 96.5092 80.0625C93.9051 80.4982 88.5508 81.493 81.9373 83.0972C71.6116 85.6157 62.4696 88.6228 55.5715 91.8288C48.1848 95.2463 43.1 98.9107 40.4279 102.746C38.5945 105.381 37.9094 108.156 38.3653 110.934C38.4731 111.578 38.6417 112.21 38.869 112.823C40.2138 116.429 43.6541 119.179 49.1166 121.01C54.9847 122.985 63.1445 123.901 73.3645 123.758C79.0335 123.672 85.1887 123.272 91.6586 122.529H91.714C92.0122 122.506 92.3089 122.467 92.6031 122.413L93.6331 122.27H93.6382Z" fill="white"/>
<path d="M70.1062 113.288L70.0206 113.26H69.94L70.0206 114.061C70.2724 114.033 70.5066 114.033 70.7761 114.006C71.4464 113.953 72.1193 113.942 72.7909 113.973C71.8829 113.799 70.9863 113.571 70.1062 113.288V113.288ZM78.052 115.416H78.2031H78.052ZM79.4623 114.66L79.558 114.64L79.4623 114.66ZM79.7796 114.613H79.7544V114.66H79.8124L79.7796 114.613ZM162.345 89.9014C161.859 86.8944 160.199 84.3759 157.48 82.346C153.586 79.4548 147.406 77.5936 139.127 76.7902C129.482 75.8458 118.602 76.5384 111.172 77.2788C104.415 77.9639 98.9754 78.7899 96.3436 79.2533C93.7118 79.7167 88.3727 80.6611 81.7012 82.2856C71.1665 84.8619 62.2334 87.8111 55.1918 91.075C47.6565 94.5379 42.4534 98.3156 39.7032 102.267C37.7287 105.1 36.9858 108.08 37.4995 111.082C37.586 111.601 37.7106 112.114 37.8723 112.616C37.9277 112.787 37.9831 112.95 38.0435 113.119C38.0838 113.225 38.1241 113.328 38.1669 113.431C39.678 117.113 43.2643 119.927 48.8075 121.793C54.7637 123.808 63.0368 124.742 73.3424 124.598H73.5137L73.627 124.457C75.1129 122.886 76.7121 121.259 78.3114 119.874C78.3441 119.844 78.3768 119.818 78.4096 119.791L79.2961 119.017H78.13C78.0646 119.017 77.9966 119.017 77.9311 119.017C70.2875 119.09 64.1273 118.408 59.6193 116.94H59.579L59.6319 116.92C63.5884 115.328 66.8649 114.446 69.8846 114.106H69.9022C72.1109 114.796 74.8258 115.237 77.984 115.421C76.1234 115.322 74.2721 115.093 72.4433 114.736C72.1134 114.668 71.7885 114.595 71.4712 114.522L71.0783 114.409C70.698 114.305 70.3228 114.2 69.9752 114.089L69.8896 114.069H69.8619C69.3196 113.901 68.8058 113.71 68.3206 113.497C65.3765 113.986 62.1302 114.975 58.2971 116.59L57.3627 116.99L57.3023 117.015L58.3097 117.388C62.8026 119.078 69.1391 119.937 77.0899 119.906C75.7425 121.11 74.4556 122.455 73.2241 123.742C63.0897 123.886 55.0155 122.941 49.1777 120.994C43.9065 119.232 40.5242 116.612 39.0837 113.187C39.0283 113.061 38.9754 112.935 38.9275 112.799C38.8797 112.663 38.8243 112.52 38.7789 112.376C38.6218 111.897 38.4998 111.407 38.4137 110.91C37.9554 108.14 38.6404 105.357 40.4739 102.723C43.1233 98.8898 48.2056 95.2255 55.5922 91.818C62.4929 88.612 71.6248 85.6049 81.9581 83.0864C88.5716 81.4847 93.9259 80.4823 96.53 80.0517C99.1341 79.621 104.546 78.7647 111.303 78.1049C118.687 77.3493 129.509 76.7021 139.1 77.6188C147.229 78.392 153.241 80.2229 157.021 83.0008C159.57 84.8897 161.114 87.2369 161.572 90.0147C161.692 90.6792 161.74 91.3547 161.716 92.0295C161.602 95.8651 159.283 99.5572 154.817 103.05C149.98 106.828 142.621 110.407 132.975 113.613C131.371 112.784 129.653 111.925 127.938 111.18C135.41 108.548 141.107 105.685 144.885 102.65L145.716 101.962H145.544L144.628 101.912C139.304 101.569 135.325 101.857 132.146 102.771L132.061 102.801L131.975 102.856C129.74 104.382 127.338 105.649 124.817 106.634L124.417 106.778C123.644 107.092 122.813 107.407 121.984 107.692L121.468 107.866L121.483 107.772C121.516 107.574 121.546 107.372 121.569 107.173C121.718 106.026 121.781 104.869 121.755 103.713C121.755 103.531 121.755 103.348 121.732 103.164C121.71 102.98 121.712 102.796 121.697 102.61C121.682 102.423 121.664 102.237 121.649 102.048C121.634 101.859 121.609 101.673 121.581 101.486C121.548 101.235 121.511 100.983 121.468 100.731C121.425 100.479 121.365 100.227 121.317 99.9753C121.294 99.8494 121.266 99.7234 121.239 99.6026C120.806 97.6489 120.093 95.7682 119.121 94.0191C118.79 93.4221 118.429 92.8421 118.04 92.2814C117.922 92.1101 117.801 91.9363 117.675 91.7777C117.549 91.619 117.464 91.488 117.353 91.347C117.242 91.206 117.116 91.0448 116.995 90.8962C115.652 89.2536 114.072 87.8207 112.306 86.645C110.916 85.7094 109.416 84.9482 107.84 84.3784C104.571 83.1974 101.063 82.8334 97.6205 83.3181C97.2821 83.3532 96.9459 83.4061 96.6131 83.4768H96.525C93.1137 84.1578 89.9202 85.6612 87.2217 87.8564C85.9799 88.847 84.8635 89.9854 83.8973 91.2463L83.8142 91.3495C83.1613 92.1963 82.572 93.0903 82.0513 94.0241C81.948 94.2105 81.8498 94.3994 81.7541 94.5883C81.6735 94.7369 81.6005 94.888 81.5275 95.0441C81.4544 95.2003 81.4015 95.296 81.3461 95.432C81.0624 96.0586 80.8102 96.6991 80.5906 97.351V97.351C80.5301 97.5273 80.4722 97.7036 80.4143 97.8799C80.3564 98.0562 80.3085 98.23 80.2581 98.4088C80.2204 98.5423 80.1801 98.6808 80.1448 98.8168C80.1448 98.8445 80.1448 98.8697 80.1272 98.8949C80.1116 98.9393 80.099 98.9848 80.0894 99.0309C80.0567 99.1492 80.029 99.2827 80.0013 99.396C79.999 99.4102 79.999 99.4247 80.0013 99.4389V99.4766C79.9761 99.5749 79.9584 99.668 79.9383 99.7663C79.9181 99.8645 79.9005 99.94 79.8829 100.018C79.8451 100.202 79.8124 100.388 79.7796 100.575C79.7091 100.99 79.6487 101.403 79.5983 101.819C79.5832 101.96 79.5681 102.103 79.5555 102.247C79.5404 102.436 79.5253 102.625 79.5127 102.816C79.4623 103.666 79.4623 104.518 79.5127 105.367C79.5303 105.707 79.5555 106.05 79.5933 106.392C79.5933 106.465 79.5933 106.541 79.6159 106.614C79.6487 106.866 79.6839 107.085 79.7192 107.312C79.7192 107.359 79.7192 107.407 79.7419 107.453C79.7406 107.462 79.7406 107.471 79.7419 107.48C79.7419 107.518 79.7544 107.556 79.7595 107.594C79.7578 107.603 79.7578 107.612 79.7595 107.621C79.7595 107.669 79.7746 107.715 79.7796 107.76C79.7947 107.861 79.8124 107.956 79.83 108.057C80.0138 109.043 80.2663 110.015 80.5855 110.966C81.0003 112.248 81.5411 113.485 82.1999 114.66H82.2175C82.3283 114.859 82.4467 115.056 82.5651 115.257L82.691 115.461H82.9428C82.8245 115.461 82.7111 115.461 82.5953 115.461H82.55L81.5174 115.509H81.5652C81.8171 115.509 82.0463 115.509 82.2805 115.494C82.3762 115.494 82.4694 115.494 82.5651 115.494H82.5802H82.9403L83.6959 115.464L83.3005 114.842C83.2576 114.774 83.2148 114.706 83.1745 114.633C82.4222 113.391 81.8114 112.069 81.3537 110.691C81.0134 109.683 80.7548 108.649 80.5805 107.599C80.5251 107.228 80.4672 106.883 80.437 106.511C80.4143 106.312 80.3941 106.11 80.379 105.911C80.2228 104.172 80.3007 102.419 80.6107 100.701C81.1578 97.469 82.4857 94.4198 84.4791 91.818C84.7561 91.4654 85.0458 91.1203 85.3429 90.7854C86.0763 89.9477 86.8783 89.1727 87.7405 88.4684C90.3349 86.3712 93.4009 84.9372 96.6735 84.2903L96.7566 84.2751L97.1898 84.2021L97.6935 84.1165C101.003 83.6497 104.376 84.0043 107.516 85.1491C109.019 85.6907 110.451 86.4111 111.782 87.2948C116.133 90.1755 119.201 94.6272 120.345 99.7184C120.4 100.063 120.486 100.406 120.544 100.779C120.708 101.725 120.804 102.682 120.831 103.642C120.861 105.142 120.73 106.641 120.44 108.112C120.44 108.175 120.418 108.236 120.405 108.299L120.264 109.042L120.979 108.813L121.274 108.712C121.594 108.604 121.901 108.493 122.208 108.384C123.067 108.097 123.871 107.783 124.671 107.468L125.072 107.324C127.628 106.314 130.066 105.028 132.343 103.489C135.206 102.688 138.813 102.401 143.394 102.602L143.361 102.627C139.523 105.508 133.866 108.221 126.56 110.701L125.445 111.074H125.457L126.533 111.5L126.623 111.535C128.706 112.379 130.74 113.338 132.715 114.409L132.887 114.494H133.002C142.825 111.22 150.322 107.594 155.276 103.73C159.94 100.094 162.375 96.1749 162.489 92.0774C162.513 91.3491 162.464 90.6202 162.345 89.9014V89.9014ZM79.7796 114.613H79.7544V114.66H79.8124L79.7796 114.613ZM79.5605 114.66L79.4598 114.678L79.5605 114.66ZM79.5227 115.512H79.5681L80.0592 115.527H80.4445C80.1096 115.527 79.7746 115.507 79.4623 115.492C79.3767 115.492 79.2936 115.492 79.2105 115.492H79.1173C79.1031 115.489 79.0886 115.489 79.0745 115.492L79.5227 115.512ZM69.9374 113.285L70.018 114.086C70.2699 114.059 70.5041 114.059 70.7736 114.031C71.4439 113.978 72.1167 113.968 72.7884 113.998C71.8829 113.824 70.9889 113.595 70.1112 113.313L70.0256 113.285H69.9374ZM70.1037 113.313L70.018 113.285H69.9374L70.018 114.086C70.2699 114.059 70.5041 114.059 70.7736 114.031C71.4439 113.978 72.1167 113.968 72.7884 113.998C71.8807 113.816 70.985 113.579 70.1062 113.288L70.1037 113.313ZM79.4623 114.66L79.558 114.64L79.4623 114.66ZM79.7796 114.613H79.7544V114.66H79.8124L79.7796 114.613ZM79.7796 114.62H79.7544V114.66H79.8124L79.7796 114.62ZM79.4623 114.66L79.558 114.64L79.4623 114.66ZM70.1062 113.288L70.0206 113.26H69.94L70.0206 114.061C70.2724 114.033 70.5066 114.033 70.7761 114.006C71.4464 113.953 72.1193 113.942 72.7909 113.973C71.8829 113.799 70.9863 113.571 70.1062 113.288V113.288Z" fill="white"/>
<path d="M70.1062 113.288L70.0206 113.26H69.94L70.0206 114.061C70.2724 114.033 70.5066 114.033 70.7761 114.006C71.4464 113.953 72.1193 113.942 72.7909 113.973C71.8829 113.799 70.9863 113.571 70.1062 113.288V113.288ZM78.052 115.416H78.2031H78.052ZM79.4623 114.66L79.558 114.64L79.4623 114.66ZM79.7796 114.613H79.7544V114.66H79.8124L79.7796 114.613ZM162.345 89.9014C161.859 86.8944 160.199 84.3759 157.48 82.346C153.586 79.4548 147.406 77.5936 139.127 76.7902C129.482 75.8458 118.602 76.5384 111.172 77.2788C104.415 77.9639 98.9754 78.7899 96.3436 79.2533C93.7118 79.7167 88.3727 80.6611 81.7012 82.2856C71.1665 84.8619 62.2334 87.8111 55.1918 91.075C47.6565 94.5379 42.4534 98.3156 39.7032 102.267C37.7287 105.1 36.9858 108.08 37.4995 111.082C37.586 111.601 37.7106 112.114 37.8723 112.616C37.9277 112.787 37.9831 112.95 38.0435 113.119C38.0838 113.225 38.1241 113.328 38.1669 113.431C39.678 117.113 43.2643 119.927 48.8075 121.793C54.7637 123.808 63.0368 124.742 73.3424 124.598H73.5137L73.627 124.457C75.1129 122.886 76.7121 121.259 78.3114 119.874C78.3441 119.844 78.3768 119.818 78.4096 119.791L79.2961 119.017H78.13C78.0646 119.017 77.9966 119.017 77.9311 119.017C70.2875 119.09 64.1273 118.408 59.6193 116.94H59.579L59.6319 116.92C63.5884 115.328 66.8649 114.446 69.8846 114.106H69.9022C72.1109 114.796 74.8258 115.237 77.984 115.421C76.1234 115.322 74.2721 115.093 72.4433 114.736C72.1134 114.668 71.7885 114.595 71.4712 114.522L71.0783 114.409C70.698 114.305 70.3228 114.2 69.9752 114.089L69.8896 114.069H69.8619C69.3196 113.901 68.8058 113.71 68.3206 113.497C65.3765 113.986 62.1302 114.975 58.2971 116.59L57.3627 116.99L57.3023 117.015L58.3097 117.388C62.8026 119.078 69.1391 119.937 77.0899 119.906C75.7425 121.11 74.4556 122.455 73.2241 123.742C63.0897 123.886 55.0155 122.941 49.1777 120.994C43.9065 119.232 40.5242 116.612 39.0837 113.187C39.0283 113.061 38.9754 112.935 38.9275 112.799C38.8797 112.663 38.8243 112.52 38.7789 112.376C38.6218 111.897 38.4998 111.407 38.4137 110.91C37.9554 108.14 38.6404 105.357 40.4739 102.723C43.1233 98.8898 48.2056 95.2255 55.5922 91.818C62.4929 88.612 71.6248 85.6049 81.9581 83.0864C88.5716 81.4847 93.9259 80.4823 96.53 80.0517C99.1341 79.621 104.546 78.7647 111.303 78.1049C118.687 77.3493 129.509 76.7021 139.1 77.6188C147.229 78.392 153.241 80.2229 157.021 83.0008C159.57 84.8897 161.114 87.2369 161.572 90.0147C161.692 90.6792 161.74 91.3547 161.716 92.0295C161.602 95.8651 159.283 99.5572 154.817 103.05C149.98 106.828 142.621 110.407 132.975 113.613C131.371 112.784 129.653 111.925 127.938 111.18C135.41 108.548 141.107 105.685 144.885 102.65L145.716 101.962H145.544L144.628 101.912C139.304 101.569 135.325 101.857 132.146 102.771L132.061 102.801L131.975 102.856C129.74 104.382 127.338 105.649 124.817 106.634L124.417 106.778C123.644 107.092 122.813 107.407 121.984 107.692L121.468 107.866L121.483 107.772C121.516 107.574 121.546 107.372 121.569 107.173C121.718 106.026 121.781 104.869 121.755 103.713C121.755 103.531 121.755 103.348 121.732 103.164C121.71 102.98 121.712 102.796 121.697 102.61C121.682 102.423 121.664 102.237 121.649 102.048C121.634 101.859 121.609 101.673 121.581 101.486C121.548 101.235 121.511 100.983 121.468 100.731C121.425 100.479 121.365 100.227 121.317 99.9753C121.294 99.8494 121.266 99.7234 121.239 99.6026C120.806 97.6489 120.093 95.7682 119.121 94.0191C118.79 93.4221 118.429 92.8421 118.04 92.2814C117.922 92.1101 117.801 91.9363 117.675 91.7777C117.549 91.619 117.464 91.488 117.353 91.347C117.242 91.206 117.116 91.0448 116.995 90.8962C115.652 89.2536 114.072 87.8207 112.306 86.645C110.916 85.7094 109.416 84.9482 107.84 84.3784C104.571 83.1974 101.063 82.8334 97.6205 83.3181C97.2821 83.3532 96.9459 83.4061 96.6131 83.4768H96.525C93.1137 84.1578 89.9202 85.6612 87.2217 87.8564C85.9799 88.847 84.8635 89.9854 83.8973 91.2463L83.8142 91.3495C83.1613 92.1963 82.572 93.0903 82.0513 94.0241C81.948 94.2105 81.8498 94.3994 81.7541 94.5883C81.6735 94.7369 81.6005 94.888 81.5275 95.0441C81.4544 95.2003 81.4015 95.296 81.3461 95.432C81.0624 96.0586 80.8102 96.6991 80.5906 97.351V97.351C80.5301 97.5273 80.4722 97.7036 80.4143 97.8799C80.3564 98.0562 80.3085 98.23 80.2581 98.4088C80.2204 98.5423 80.1801 98.6808 80.1448 98.8168C80.1448 98.8445 80.1448 98.8697 80.1272 98.8949C80.1116 98.9393 80.099 98.9848 80.0894 99.0309C80.0567 99.1492 80.029 99.2827 80.0013 99.396C79.999 99.4102 79.999 99.4247 80.0013 99.4389V99.4766C79.9761 99.5749 79.9584 99.668 79.9383 99.7663C79.9181 99.8645 79.9005 99.94 79.8829 100.018C79.8451 100.202 79.8124 100.388 79.7796 100.575C79.7091 100.99 79.6487 101.403 79.5983 101.819C79.5832 101.96 79.5681 102.103 79.5555 102.247C79.5404 102.436 79.5253 102.625 79.5127 102.816C79.4623 103.666 79.4623 104.518 79.5127 105.367C79.5303 105.707 79.5555 106.05 79.5933 106.392C79.5933 106.465 79.5933 106.541 79.6159 106.614C79.6487 106.866 79.6839 107.085 79.7192 107.312C79.7192 107.359 79.7192 107.407 79.7419 107.453C79.7406 107.462 79.7406 107.471 79.7419 107.48C79.7419 107.518 79.7544 107.556 79.7595 107.594C79.7578 107.603 79.7578 107.612 79.7595 107.621C79.7595 107.669 79.7746 107.715 79.7796 107.76C79.7947 107.861 79.8124 107.956 79.83 108.057C80.0138 109.043 80.2663 110.015 80.5855 110.966C81.0003 112.248 81.5411 113.485 82.1999 114.66H82.2175C82.3283 114.859 82.4467 115.056 82.5651 115.257L82.691 115.461H82.9428C82.8245 115.461 82.7111 115.461 82.5953 115.461H82.55L81.5174 115.509H81.5652C81.8171 115.509 82.0463 115.509 82.2805 115.494C82.3762 115.494 82.4694 115.494 82.5651 115.494H82.5802H82.9403L83.6959 115.464L83.3005 114.842C83.2576 114.774 83.2148 114.706 83.1745 114.633C82.4222 113.391 81.8114 112.069 81.3537 110.691C81.0134 109.683 80.7548 108.649 80.5805 107.599C80.5251 107.228 80.4672 106.883 80.437 106.511C80.4143 106.312 80.3941 106.11 80.379 105.911C80.2228 104.172 80.3007 102.419 80.6107 100.701C81.1578 97.469 82.4857 94.4198 84.4791 91.818C84.7561 91.4654 85.0458 91.1203 85.3429 90.7854C86.0763 89.9477 86.8783 89.1727 87.7405 88.4684C90.3349 86.3712 93.4009 84.9372 96.6735 84.2903L96.7566 84.2751L97.1898 84.2021L97.6935 84.1165C101.003 83.6497 104.376 84.0043 107.516 85.1491C109.019 85.6907 110.451 86.4111 111.782 87.2948C116.133 90.1755 119.201 94.6272 120.345 99.7184C120.4 100.063 120.486 100.406 120.544 100.779C120.708 101.725 120.804 102.682 120.831 103.642C120.861 105.142 120.73 106.641 120.44 108.112C120.44 108.175 120.418 108.236 120.405 108.299L120.264 109.042L120.979 108.813L121.274 108.712C121.594 108.604 121.901 108.493 122.208 108.384C123.067 108.097 123.871 107.783 124.671 107.468L125.072 107.324C127.628 106.314 130.066 105.028 132.343 103.489C135.206 102.688 138.813 102.401 143.394 102.602L143.361 102.627C139.523 105.508 133.866 108.221 126.56 110.701L125.445 111.074H125.457L126.533 111.5L126.623 111.535C128.706 112.379 130.74 113.338 132.715 114.409L132.887 114.494H133.002C142.825 111.22 150.322 107.594 155.276 103.73C159.94 100.094 162.375 96.1749 162.489 92.0774C162.513 91.3491 162.464 90.6202 162.345 89.9014V89.9014ZM79.7796 114.613H79.7544V114.66H79.8124L79.7796 114.613ZM79.5605 114.66L79.4598 114.678L79.5605 114.66ZM79.5227 115.512H79.5681L80.0592 115.527H80.4445C80.1096 115.527 79.7746 115.507 79.4623 115.492C79.3767 115.492 79.2936 115.492 79.2105 115.492H79.1173C79.1031 115.489 79.0886 115.489 79.0745 115.492L79.5227 115.512ZM69.9374 113.285L70.018 114.086C70.2699 114.059 70.5041 114.059 70.7736 114.031C71.4439 113.978 72.1167 113.968 72.7884 113.998C71.8829 113.824 70.9889 113.595 70.1112 113.313L70.0256 113.285H69.9374ZM70.1037 113.313L70.018 113.285H69.9374L70.018 114.086C70.2699 114.059 70.5041 114.059 70.7736 114.031C71.4439 113.978 72.1167 113.968 72.7884 113.998C71.8807 113.816 70.985 113.579 70.1062 113.288L70.1037 113.313ZM79.4623 114.66L79.558 114.64L79.4623 114.66ZM79.4623 114.66L79.558 114.64L79.4623 114.66ZM70.1062 113.288L70.0206 113.26H69.94L70.0206 114.061C70.2724 114.033 70.5066 114.033 70.7761 114.006C71.4464 113.953 72.1193 113.942 72.7909 113.973C71.8829 113.799 70.9863 113.571 70.1062 113.288V113.288Z" fill="white"/>
<path d="M79.5462 114.643L79.3976 114.665H79.3674C78.841 114.65 78.3222 114.625 77.8185 114.595C77.1771 114.556 76.5559 114.506 75.9548 114.444C74.9475 114.345 74.0055 114.213 73.1291 114.048C72.0961 113.864 71.0764 113.612 70.0767 113.293L69.9886 113.263H69.903C69.3539 113.323 68.7948 113.407 68.2257 113.515C65.3294 114.018 62.1511 114.983 58.4036 116.537C54.5252 115.071 52.0822 112.938 51.1328 110.208C51.0799 110.059 51.032 109.908 50.9892 109.752C50.9464 109.596 50.9187 109.485 50.891 109.354C50.8532 109.178 50.823 109.001 50.7878 108.835C50.3873 106.488 51.0169 104.171 52.6489 101.965L52.7622 101.821C54.976 98.8923 58.9854 96.0842 64.7124 93.4826C67.8081 92.0965 70.9797 90.8865 74.2121 89.8585C77.7379 88.7076 81.6164 87.6272 85.724 86.6399C87.5524 86.2042 89.2272 85.8189 90.7383 85.5066C90.8113 85.489 90.8869 85.4764 90.9624 85.4613C89.6364 86.1337 88.3882 86.9495 87.2401 87.8941C85.9862 88.8966 84.8604 90.0495 83.888 91.3268L83.8351 91.3923C83.5598 91.7465 83.2995 92.11 83.0544 92.4828C82.0226 94.0129 81.1993 95.6738 80.6065 97.4215V97.4215C80.546 97.5978 80.4881 97.7741 80.4302 97.9504C80.3722 98.1267 80.3244 98.3004 80.274 98.4792C80.2514 98.5573 80.2312 98.6354 80.2111 98.716C80.1909 98.7966 80.1783 98.8318 80.1607 98.8872C80.1431 98.9426 80.1607 98.9401 80.1431 98.9653C80.1275 99.0098 80.1149 99.0552 80.1053 99.1013C80.0725 99.2197 80.0448 99.3532 80.0171 99.4665C80.0149 99.4807 80.0149 99.4951 80.0171 99.5093V99.5471C79.9919 99.6453 79.9743 99.7385 79.9542 99.8367C79.934 99.9349 79.9164 100.01 79.8988 100.089C79.8988 100.119 79.8837 100.146 79.8786 100.179C79.8459 100.325 79.8207 100.469 79.7955 100.615C79.72 101.038 79.662 101.464 79.6142 101.889C79.5991 102.03 79.584 102.174 79.5714 102.317C79.5563 102.506 79.5411 102.695 79.5286 102.887C79.4782 103.736 79.4782 104.588 79.5286 105.438C79.5487 105.778 79.5739 106.118 79.6117 106.458C79.6117 106.526 79.6117 106.591 79.6318 106.657C79.6645 106.909 79.7023 107.143 79.7376 107.377C79.7412 107.403 79.7462 107.429 79.7527 107.455C79.7678 107.573 79.7854 107.687 79.8031 107.803C79.8434 108.054 79.8887 108.306 79.9441 108.558C79.9441 108.583 79.9441 108.606 79.9567 108.634C79.9894 108.772 80.0197 108.913 80.0524 109.049C80.1808 109.598 80.3244 110.112 80.478 110.606C80.5183 110.739 80.5611 110.858 80.6039 111.004L80.7702 111.475C80.8281 111.633 80.886 111.789 80.949 111.948C81.0724 112.26 81.2008 112.573 81.3368 112.88C81.3973 113.013 81.4552 113.132 81.5181 113.273C81.5811 113.414 81.6415 113.525 81.707 113.656C81.8783 114.008 82.0647 114.356 82.2611 114.693C82.3719 114.892 82.4903 115.089 82.6086 115.29L82.7346 115.494H82.9864C82.868 115.494 82.7547 115.494 82.6389 115.494H82.5935L81.561 115.542H81.6088C81.8607 115.542 82.0898 115.542 82.3241 115.527H82.6061H82.6238H82.9839H83.0418L83.7848 115.497L83.4171 114.874C83.3743 114.806 83.3314 114.738 83.2886 114.665C82.522 113.432 81.8952 112.117 81.4199 110.744C81.0856 109.735 80.833 108.701 80.6644 107.652C80.609 107.281 80.5511 106.936 80.5233 106.564C80.4956 106.347 80.473 106.13 80.4553 105.911C80.3121 104.188 80.3968 102.454 80.7072 100.753C81.2569 97.524 82.5865 94.4775 84.5806 91.8783C84.7947 91.6063 85.0138 91.3394 85.2404 91.0775C88.2129 87.5903 92.2833 85.218 96.7826 84.3506V84.3355L96.6441 83.5346V83.5195C96.2336 83.59 95.7349 83.6807 95.1531 83.7865C92.947 84.192 89.5848 84.8568 85.583 85.8013C77.1939 87.816 70.0944 90.1255 64.4278 92.7019C58.6731 95.3362 54.5529 98.1695 52.2334 101.174L52.1175 101.318C50.2589 103.781 49.5411 106.355 49.9995 108.991C50.0297 109.168 50.065 109.336 50.1052 109.495C50.1455 109.654 50.1858 109.817 50.2287 109.981C50.2639 110.102 50.3017 110.233 50.3395 110.344C51.2688 113.182 53.6135 115.413 57.3056 116.995C57.3258 117.007 57.3468 117.017 57.3685 117.025C57.6682 117.154 57.9805 117.277 58.3029 117.398L58.4741 117.453L58.6177 117.398C58.9602 117.254 59.2977 117.113 59.6251 116.98L59.6805 116.96C63.6143 115.378 66.8707 114.482 69.908 114.139H69.9483C70.3109 114.252 70.6887 114.358 71.0791 114.459C70.6988 114.356 70.3235 114.25 69.976 114.139L69.8904 114.119H69.8627C69.3203 113.951 68.8066 113.76 68.3214 113.547C68.8754 113.454 69.4169 113.376 69.9483 113.318L70.0289 114.119C70.2807 114.091 70.5149 114.091 70.7844 114.064C71.4547 114.011 72.1276 114 72.7992 114.031C73.9741 114.261 75.1603 114.429 76.3528 114.534C76.8565 114.582 77.3601 114.62 77.8915 114.653C78.4229 114.686 78.9241 114.706 79.4555 114.723H79.4832L79.5789 114.703L79.6872 114.688L79.7703 114.676V114.721H79.8282H80.1431C80.609 114.721 81.0724 114.746 81.5156 114.746H82.2334C82.2266 114.737 82.2207 114.728 82.2158 114.718H81.4602C81.022 114.718 80.5636 114.698 80.1002 114.693H79.9088L79.8257 114.676H79.793H79.7678L79.5462 114.643ZM79.584 115.567H79.5965L80.0751 115.585H80.4604C80.1254 115.585 79.7905 115.565 79.4782 115.549C79.3926 115.549 79.3094 115.549 79.2263 115.549H79.1533L79.584 115.567ZM79.5411 114.66L79.5991 114.681L79.5411 114.66ZM82.2107 114.741H81.4552C81.017 114.741 80.5586 114.721 80.0952 114.716H79.9088L79.8257 114.698H79.793H79.7678V114.721H79.8257H80.1405C80.6065 114.721 81.0699 114.746 81.5131 114.746H82.2309C82.2251 114.738 82.2201 114.73 82.2158 114.721L82.2107 114.741Z" fill="white"/>
<path d="M120.34 109.122L120.483 108.366C120.799 106.831 120.943 105.266 120.912 103.7C120.886 102.744 120.79 101.792 120.624 100.851C120.569 100.478 120.483 100.136 120.426 99.7934C119.283 94.7011 116.215 90.2482 111.863 87.3673C110.532 86.4831 109.1 85.7626 107.596 85.2215C104.457 84.0773 101.083 83.7235 97.7744 84.1915L97.6309 83.3604C99.5776 83.0456 103.642 82.416 108.795 81.9299C114.605 81.3557 123.138 80.8419 130.809 81.5269H130.867C137.279 82.1012 142.147 83.446 145.381 85.5364L145.525 85.622C148.073 87.3119 149.589 89.4576 150.02 92.0642C150.084 92.4423 150.122 92.8243 150.133 93.2076C150.247 96.4993 148.474 99.7078 144.845 102.685L144.701 102.798H144.53C139.435 102.483 135.463 102.74 132.363 103.629C130.086 105.168 127.648 106.454 125.092 107.465L124.692 107.608C123.888 107.923 123.088 108.238 122.229 108.525C121.828 108.666 121.428 108.81 120.997 108.953L120.34 109.122ZM103.585 83.2999C105.044 83.5074 106.478 83.8627 107.866 84.3602C109.442 84.93 110.941 85.6912 112.331 86.6268C115.158 88.5109 117.494 91.0435 119.144 94.0135C120.115 95.7606 120.827 97.6398 121.257 99.5919C121.342 99.9647 121.398 100.347 121.483 100.708C121.65 101.693 121.746 102.688 121.77 103.687C121.804 105.076 121.708 106.466 121.483 107.837L122 107.666C122.831 107.379 123.659 107.064 124.432 106.749L124.833 106.606C127.354 105.621 129.755 104.353 131.99 102.828L132.076 102.77L132.162 102.74C135.312 101.826 139.233 101.566 144.472 101.881C147.794 99.1109 149.426 96.1844 149.31 93.2076C149.299 92.8526 149.261 92.499 149.197 92.1499C148.796 89.8303 147.449 87.8836 145.187 86.3372L145.074 86.2516C141.981 84.2192 137.201 82.902 130.875 82.3001H130.817C123.203 81.6151 114.699 82.1289 108.888 82.7031C106.942 82.8995 105.166 83.101 103.585 83.2999Z" fill="white"/>
<path d="M79.8628 114.622V114.647L79.9459 114.63L79.8628 114.622ZM82.2504 114.65H81.4948C81.0566 114.65 80.5982 114.63 80.1348 114.625L80.1776 114.652C80.6436 114.652 81.107 114.677 81.5502 114.677H82.268C82.2611 114.668 82.2552 114.658 82.2504 114.647V114.65ZM79.6387 114.589L79.4548 114.62H79.4397C78.9134 114.602 78.4021 114.579 77.901 114.547C77.3242 114.516 76.7676 114.473 76.2236 114.418C75.1295 114.32 74.0409 114.167 72.9622 113.96V113.96C72.0003 113.782 71.0506 113.543 70.1189 113.244L70.0307 113.217H70.0055L69.9451 113.197C66.9607 112.204 64.9333 110.693 63.9134 108.689C63.8177 108.5 63.727 108.303 63.6489 108.102C63.6086 108.001 63.5683 107.898 63.5306 107.792C63.4055 107.436 63.3104 107.071 63.246 106.699C62.9941 105.324 63.4474 103.929 64.5934 102.491C65.5798 101.31 66.7317 100.277 68.0134 99.4256C69.7253 98.2565 71.5246 97.2208 73.3954 96.3279C76.5225 94.8306 79.7398 93.5294 83.0286 92.4318L83.0915 92.4092C82.7389 92.933 82.4115 93.4711 82.1093 94.0235C82.0061 94.2099 81.9078 94.3987 81.8121 94.5876C81.7315 94.7362 81.6585 94.8873 81.5855 95.0435C81.5124 95.1996 81.4596 95.2953 81.4041 95.4313C81.1204 96.058 80.8682 96.6985 80.6486 97.3504V97.3504C80.5882 97.5267 80.5302 97.703 80.4723 97.8793C80.4144 98.0556 80.3665 98.2293 80.3162 98.4082C80.2784 98.5416 80.2381 98.6801 80.2028 98.8161C80.2028 98.8438 80.2028 98.869 80.1852 98.8942C80.1696 98.9387 80.157 98.9841 80.1474 99.0302C80.1147 99.1486 80.087 99.2821 80.0593 99.3954C80.0571 99.4096 80.0571 99.424 80.0593 99.4382V99.476C80.0341 99.5742 80.0165 99.6674 79.9963 99.7656C79.9762 99.8638 79.9434 99.9998 79.9208 100.118C79.8981 100.237 79.8628 100.408 79.8377 100.554C79.7621 100.977 79.7042 101.403 79.6563 101.828C79.6412 101.969 79.6261 102.113 79.6135 102.256C79.5984 102.445 79.5833 102.634 79.5707 102.826C79.5203 103.675 79.5203 104.527 79.5707 105.377C79.5908 105.717 79.616 106.057 79.6538 106.397C79.6538 106.465 79.6538 106.53 79.674 106.596C79.7067 106.848 79.7445 107.082 79.7797 107.316C79.7833 107.342 79.7884 107.368 79.7948 107.394C79.81 107.512 79.8276 107.626 79.8452 107.742C79.8855 107.993 79.9308 108.245 79.9862 108.497C79.9862 108.522 79.9862 108.545 79.9988 108.573C80.0316 108.711 80.0618 108.852 80.0945 108.988C80.223 109.537 80.3665 110.051 80.5202 110.545C80.5605 110.678 80.6033 110.797 80.6461 110.943L80.8123 111.414C80.8702 111.572 80.9282 111.728 80.9911 111.887C81.1145 112.199 81.243 112.512 81.379 112.819C81.4394 112.952 81.4973 113.071 81.5603 113.212C81.6233 113.353 81.6837 113.464 81.7492 113.595C81.9204 113.947 82.1068 114.295 82.3032 114.632C82.414 114.831 82.5324 115.028 82.6508 115.229L82.7767 115.433H83.0286C82.9102 115.433 82.7969 115.433 82.681 115.433H82.6357L81.6031 115.481H81.651C81.9028 115.481 82.132 115.481 82.3662 115.466H82.6483H82.6659H83.026H83.084L83.8269 115.436L83.4894 114.844C83.4366 114.763 83.3887 114.683 83.3434 114.592C82.6007 113.359 81.9968 112.047 81.5427 110.681C81.2 109.674 80.9414 108.64 80.7695 107.59C80.7116 107.218 80.6536 106.875 80.6259 106.503C80.3967 104.567 80.4544 102.608 80.7972 100.69C81.3529 97.4586 82.6895 94.4119 84.6907 91.8148L85.3229 90.9862L85.5218 90.7344L85.4413 90.7596L84.2047 91.1625L84.0007 91.2305H83.9705C83.9478 91.2305 83.9226 91.2305 83.8999 91.2532C81.8852 91.9248 79.993 92.6073 78.2233 93.3007C76.3764 94.0277 74.6773 94.7715 73.1259 95.5321C68.774 97.6224 65.6813 99.7706 63.994 101.916C62.7045 103.548 62.1882 105.208 62.4829 106.812C62.5486 107.133 62.6327 107.449 62.7347 107.759C62.7972 107.972 62.8703 108.181 62.9538 108.386C62.9891 108.472 63.0243 108.558 63.0621 108.638C63.9637 110.678 65.7216 112.272 68.3182 113.403L68.3585 113.421L68.4239 113.448C68.978 113.355 69.5195 113.277 70.0509 113.219L70.1315 114.02C70.3833 113.992 70.6175 113.992 70.887 113.965C71.5573 113.912 72.2302 113.901 72.9018 113.932C74.0767 114.162 75.2628 114.33 76.4553 114.436C76.959 114.484 77.4627 114.521 77.9941 114.554C78.5255 114.587 79.0267 114.607 79.5581 114.625H79.5858L79.6815 114.604L79.7898 114.589L79.8729 114.577L79.6387 114.589ZM82.336 114.652C82.3292 114.644 82.3233 114.634 82.3183 114.625H81.5628C81.1246 114.625 80.6662 114.604 80.2028 114.599L80.2456 114.627C80.7116 114.627 81.175 114.652 81.6182 114.652H82.336ZM79.9308 114.615L80.0139 114.597H79.9308V114.615ZM79.679 115.458H79.6916L80.1701 115.476H80.5554C80.2205 115.476 79.8855 115.456 79.5732 115.441C79.4876 115.441 79.4045 115.441 79.3214 115.441H79.1879L79.679 115.458ZM82.2504 114.647H81.4948C81.0566 114.647 80.5982 114.627 80.1348 114.622H79.8049V114.647H79.8628H80.1776C80.6436 114.647 81.107 114.672 81.5502 114.672H82.268C82.2613 114.665 82.2554 114.656 82.2504 114.647V114.647Z" fill="white"/>
<path d="M120.365 109.105L120.509 108.349C120.825 106.814 120.968 105.249 120.937 103.682C120.911 102.727 120.815 101.775 120.65 100.834C120.594 100.461 120.509 100.119 120.451 99.7762C119.308 94.6838 116.24 90.231 111.888 87.35L110.742 86.5769L112.117 86.5492C116.007 86.483 119.898 86.6512 123.768 87.0529C128.578 87.6246 132.184 88.5967 134.534 90.0297C136.365 91.1177 137.425 92.4902 137.682 94.0945C137.767 94.6434 137.795 95.1995 137.768 95.7542C137.624 98.5245 135.849 101.136 132.499 103.514L132.414 103.569C130.525 104.916 128.064 106.176 125.17 107.377L124.77 107.52C123.969 107.835 123.168 108.15 122.31 108.437C121.909 108.581 121.506 108.724 121.078 108.865L120.365 109.105ZM113.432 87.3777C115.781 89.1587 117.731 91.4115 119.156 93.9913C120.133 95.7392 120.849 97.6201 121.282 99.5747C121.368 99.9474 121.423 100.33 121.509 100.69C121.675 101.675 121.771 102.671 121.796 103.67C121.829 105.059 121.733 106.449 121.509 107.82L122.025 107.649C122.856 107.362 123.685 107.047 124.458 106.732L124.858 106.589C127.379 105.603 129.78 104.336 132.016 102.811L132.101 102.753C135.166 100.549 136.798 98.1719 136.912 95.7013C136.94 95.2127 136.911 94.7225 136.826 94.2406C136.602 92.9033 135.68 91.7674 134.083 90.7827C131.849 89.4379 128.356 88.4934 123.662 87.9217C120.265 87.5495 116.849 87.3679 113.432 87.3777V87.3777Z" fill="white"/>
<path d="M82.2121 114.687H81.4566C81.0184 114.687 80.56 114.666 80.0966 114.661L80.1394 114.689C80.6053 114.689 81.0687 114.714 81.512 114.714H82.2297C82.223 114.706 82.2171 114.696 82.2121 114.687V114.687ZM83.7408 115.48L83.4033 114.888C83.3505 114.808 83.3026 114.727 83.2573 114.636C82.5146 113.403 81.9107 112.091 81.4566 110.725C81.114 109.718 80.8553 108.685 80.6834 107.635C80.6255 107.262 80.5675 106.92 80.5398 106.547L80.4542 105.859L80.3761 105.912L79.8901 106.227L79.5853 106.429H79.5677C78.8336 106.921 78.1473 107.481 77.5177 108.101C76.4524 109.166 75.9336 110.231 75.9663 111.246C75.9663 111.297 75.9663 111.345 75.9663 111.392C75.9717 111.635 76.0106 111.876 76.0822 112.108C76.1023 112.186 76.1275 112.264 76.1527 112.339C76.3341 112.858 76.6157 113.335 76.9812 113.745C77.2342 114.032 77.5161 114.293 77.8224 114.523C77.8348 114.534 77.8483 114.543 77.8627 114.551C77.8627 114.551 77.8854 114.568 77.8954 114.581C78.3991 114.611 78.9205 114.635 79.4594 114.651H79.4821L79.4242 114.624L79.3713 114.596L79.3159 114.568L79.2025 114.483H79.1723C79.0867 114.437 79.0036 114.387 78.9205 114.337C78.3184 114 77.7907 113.545 77.3691 112.999C77.1334 112.68 76.9623 112.318 76.8654 111.934C76.8528 111.861 76.8377 111.778 76.8276 111.682C76.8175 111.586 76.7949 111.46 76.7772 111.35C76.6916 110.549 77.15 109.66 78.0667 108.715C78.5715 108.206 79.1201 107.741 79.7062 107.328V107.328C79.7113 107.378 79.7155 107.428 79.7188 107.479C79.7176 107.488 79.7176 107.497 79.7188 107.506C79.7188 107.544 79.7314 107.582 79.7364 107.62C79.7348 107.629 79.7348 107.638 79.7364 107.647C79.7364 107.685 79.7516 107.723 79.7566 107.758C79.7969 108.01 79.8422 108.262 79.8976 108.514C79.8976 108.539 79.8976 108.562 79.9102 108.589C79.943 108.728 79.9732 108.869 80.0059 109.005C80.1344 109.554 80.2779 110.068 80.4315 110.561C80.4718 110.695 80.5147 110.813 80.5575 110.959L80.7237 111.43C80.7816 111.589 80.8395 111.745 80.9025 111.904C81.0259 112.216 81.1543 112.528 81.2903 112.836C81.3508 112.969 81.4087 113.087 81.4717 113.228C81.5346 113.369 81.5951 113.48 81.6606 113.611C81.8318 113.964 82.0182 114.311 82.2146 114.649C82.3254 114.848 82.4438 115.044 82.5622 115.246L82.6881 115.45H82.9399C82.8216 115.45 82.7082 115.45 82.5924 115.45H82.5471L81.5145 115.498H81.5623C81.8142 115.498 82.0434 115.498 82.2776 115.482H82.5597H82.5773H82.9374H82.9953L83.7383 115.452L83.7408 115.48ZM82.2297 114.724C82.223 114.716 82.2171 114.706 82.2121 114.697H81.4566C81.0184 114.697 80.56 114.677 80.0966 114.672L80.1394 114.699C80.6053 114.699 81.0687 114.724 81.512 114.724H82.2297ZM82.2121 114.697H81.4566C81.0184 114.697 80.56 114.677 80.0966 114.672H79.9052L79.8221 114.689H80.1369C80.6028 114.689 81.0662 114.714 81.5095 114.714H82.2272C82.2213 114.706 82.2163 114.696 82.2121 114.687V114.697Z" fill="white"/>
<path d="M120.322 109.114L120.465 108.358C120.781 106.823 120.925 105.258 120.893 103.691C120.868 102.736 120.772 101.784 120.606 100.843C120.551 100.47 120.465 100.128 120.407 99.7852L120.264 99.0977L120.951 99.2689C121.876 99.4858 122.777 99.7928 123.641 100.186C125.187 100.901 126.104 101.818 126.361 102.875C126.391 103.019 126.419 103.162 126.447 103.334C126.648 104.737 126.132 106.104 124.872 107.429L124.815 107.484L124.729 107.514C123.928 107.829 123.127 108.144 122.268 108.431C121.868 108.572 121.465 108.716 121.037 108.859L120.322 109.114ZM121.379 100.269L121.465 100.697C121.632 101.682 121.728 102.678 121.752 103.676C121.786 105.066 121.689 106.455 121.465 107.827L121.981 107.655C122.782 107.368 123.555 107.081 124.328 106.766C125.336 105.651 125.762 104.535 125.618 103.447C125.588 103.331 125.588 103.218 125.56 103.074C125.359 102.273 124.588 101.563 123.293 100.956C122.674 100.678 122.034 100.448 121.379 100.269V100.269Z" fill="white"/>
<path d="M138.176 117.136C136.886 116.592 135.34 115.791 133.708 114.96L132.764 114.474L133.164 113.719L134.109 114.207C135.741 115.036 137.259 115.839 138.518 116.353L138.176 117.136Z" fill="white"/>
<path d="M125.214 107.28L124.67 106.623C126.786 104.896 129.215 103.593 131.825 102.787C131.91 102.762 131.994 102.733 132.077 102.699L132.276 103.53C132.22 103.558 132.132 103.558 132.077 103.588C129.575 104.371 127.246 105.624 125.214 107.28Z" fill="white"/>
<path d="M163.615 104.676C161.096 104.533 158.233 104.19 155.052 103.76L154.8 103.732C151.45 103.331 147.985 102.901 144.58 102.672L144.625 101.82C148.063 102.022 151.526 102.45 154.903 102.881L155.155 102.908C158.331 103.309 161.167 103.664 163.685 103.795L163.615 104.676Z" fill="white"/>
<path d="M122.428 108.329L121.74 107.825C123.201 105.936 124.46 104.448 125.661 103.131C129.326 99.1514 132.935 96.6908 137.027 95.3737L137.113 95.3434C140.606 94.2277 144.701 93.369 149.625 92.767C153.775 92.2633 158.011 91.9385 162.076 91.6514L162.507 91.6237C166.657 91.324 170.546 91.0368 174.273 90.5508L174.386 91.4096C170.636 91.8956 166.715 92.1828 162.565 92.4699L162.134 92.4976C158.069 92.7847 153.861 93.0995 149.71 93.6132C144.842 94.2152 140.777 95.0463 137.342 96.1619L137.257 96.1896C133.335 97.4489 129.842 99.854 126.263 103.72C125.118 104.979 123.888 106.468 122.428 108.329Z" fill="white"/>
<path d="M121.705 103.939L120.982 103.481C121.756 102.28 122.443 101.247 123.1 100.333C126.536 95.5479 129.943 92.3167 133.892 90.1407L133.95 90.113C134.002 90.0906 134.05 90.0609 134.094 90.0249C137.101 88.3652 140.735 86.9045 145.145 85.4916H145.172C148.922 84.318 152.672 83.3736 157.168 82.2579L157.42 82.2C161.114 81.2858 164.605 80.4371 167.927 79.4297L168.179 80.2306C164.859 81.2379 161.338 82.1194 157.644 83.0361L157.392 83.0941C152.909 84.2274 149.159 85.1592 145.412 86.3328H145.384C141.032 87.7079 137.453 89.1661 134.476 90.7981C134.418 90.8283 134.391 90.856 134.361 90.856L134.305 90.8837C130.497 93.0042 127.148 96.1523 123.798 100.847C123.166 101.736 122.478 102.766 121.705 103.939Z" fill="white"/>
<path d="M119.139 94.3986L118.396 93.9679C119.662 91.6889 121.189 89.5657 122.947 87.6415C123.091 87.498 123.234 87.3267 123.378 87.1832C125.239 85.2666 127.614 83.4054 130.591 81.5141L130.677 81.4587C133.283 79.7965 136.089 78.3081 138.95 76.7919L139.38 76.5628C141.7 75.3312 143.914 74.1853 145.928 73.0117L146.359 73.7673C144.296 74.9686 142.093 76.1145 139.773 77.346L139.345 77.5752C136.451 79.0863 133.648 80.5797 131.034 82.2419L130.949 82.2973C128.045 84.1207 125.75 85.9239 123.95 87.7851L123.522 88.2132C121.86 90.1248 120.392 92.1968 119.139 94.3986V94.3986Z" fill="white"/>
<path d="M108.113 84.9216L107.312 84.6068C107.627 83.8336 108 83.0604 108.456 82.0883C109.229 80.5142 110.088 78.9377 110.891 77.4795L111.176 76.9909C111.894 75.6763 112.664 74.3289 113.324 73.0117L114.095 73.3895C113.435 74.7066 112.662 76.0817 111.946 77.3989L111.662 77.885C110.859 79.3457 110 80.8895 109.227 82.4661C108.768 83.4054 108.398 84.1786 108.113 84.9216Z" fill="white"/>
<path d="M87.2022 88.4604C86.6305 87.8006 86.0009 87.171 85.3133 86.4835C84.1397 85.3098 82.9082 84.2168 81.5356 82.9929L81.1578 82.6755C79.954 81.5901 78.8081 80.5877 77.7227 79.5274L78.3296 78.918C79.3899 79.9505 80.5333 80.9806 81.7371 82.0384L82.1098 82.3532C83.4824 83.5847 84.7139 84.7029 85.9178 85.879C86.6028 86.564 87.2324 87.2239 87.8343 87.8938L87.2022 88.4604Z" fill="white"/>
<path d="M132.35 103.534C130.074 105.073 127.636 106.36 125.079 107.369L124.679 107.513C123.878 107.828 123.075 108.142 122.216 108.43C121.909 108.538 121.601 108.649 121.282 108.757L120.987 108.858L120.272 109.087L120.413 108.344C120.425 108.281 120.44 108.221 120.448 108.158C119.566 108.45 118.609 108.742 117.579 109.059C115.748 109.603 113.771 110.117 111.596 110.633C109.42 111.15 107.158 111.641 104.811 112.064C103.753 112.265 102.809 112.433 101.977 112.567C101.177 112.681 100.202 112.855 99.114 113.026C96.6534 113.426 94.4472 113.741 92.3594 113.97C90.1256 114.222 88.0075 114.429 86.0028 114.542C85.0886 114.595 84.1517 114.623 83.2526 114.645H83.1569C83.1972 114.718 83.2401 114.786 83.2829 114.854L83.6783 115.476H83.7362C84.2701 115.461 84.8015 115.439 85.3253 115.413L86.1212 115.371C88.136 115.255 90.2716 115.056 92.5005 114.799C94.5908 114.57 96.7945 114.255 99.2852 113.852C99.7461 113.794 100.187 113.726 100.605 113.658L101.328 113.537L101.58 113.492C101.776 113.462 101.965 113.426 102.141 113.396C102.972 113.252 103.944 113.081 105.005 112.88C107.38 112.449 109.671 111.963 111.847 111.449C112.817 111.223 113.744 110.991 114.635 110.752H114.683C115.799 110.457 116.859 110.155 117.887 109.855C119.002 109.54 120.035 109.198 121.007 108.883C121.093 108.853 121.178 108.825 121.259 108.792C121.594 108.681 121.916 108.568 122.236 108.452C123.095 108.165 123.896 107.85 124.697 107.536L125.1 107.392C128.018 106.191 130.451 104.904 132.37 103.556C135.219 102.758 138.805 102.471 143.358 102.667L143.391 102.642C138.833 102.446 135.214 102.733 132.35 103.534ZM79.5958 114.638L79.412 114.668H79.3969C78.8705 114.65 78.3593 114.628 77.8581 114.595C77.2814 114.565 76.7248 114.522 76.1808 114.466C75.0866 114.369 73.9981 114.216 72.9194 114.008V114.008C71.9574 113.83 71.0077 113.591 70.076 113.293L69.9879 113.265H69.9022C69.3683 113.326 68.8243 113.399 68.2677 113.494C65.3262 113.985 62.0849 114.97 58.2543 116.584L57.3149 116.985L57.252 117.015L57.3174 117.04L58.2417 117.39C62.9664 119.153 69.663 120.022 78.1653 119.909H78.3265C80.7997 119.876 83.4667 119.765 86.2118 119.566L86.6979 119.539C86.8692 119.511 87.0706 119.511 87.2696 119.481L87.4988 119.453C88.6447 119.367 89.7654 119.282 90.8484 119.166C91.5082 119.11 92.1378 119.025 92.7372 118.967L93.9687 118.823C94.5127 118.765 95.0567 118.68 95.573 118.622L95.7166 118.594C97.4342 118.393 99.0938 118.163 100.696 117.907C101.554 117.793 102.272 117.677 102.872 117.564C103.471 117.451 104.219 117.335 104.934 117.164C106.622 116.849 108.284 116.504 109.943 116.131C110.515 116.018 111.089 115.902 111.689 115.761L112.862 115.474C113.406 115.33 113.95 115.222 114.525 115.073C115.555 114.844 116.615 114.557 117.7 114.272L118.36 114.099C118.612 114.043 118.846 113.958 119.103 113.9L119.191 113.87C121.783 113.137 124.294 112.376 126.638 111.588L126.747 111.553H126.777C134.803 108.83 140.848 105.823 144.776 102.607L145.55 101.97L145.605 101.919L144.517 101.864C139.193 101.519 135.214 101.806 132.035 102.723L131.95 102.75L131.864 102.808C129.629 104.334 127.228 105.601 124.707 106.586L124.306 106.73C123.533 107.044 122.704 107.359 121.873 107.646L121.488 107.782C121.488 107.782 121.488 107.782 121.475 107.782L120.672 108.067L120.448 108.148C119.566 108.44 118.609 108.732 117.579 109.049C115.748 109.593 113.771 110.107 111.596 110.623C109.42 111.139 107.158 111.631 104.811 112.054C103.753 112.255 102.809 112.423 101.977 112.557C101.177 112.671 100.202 112.844 99.114 113.016C96.6534 113.416 94.4472 113.731 92.3594 113.96C90.1256 114.212 88.0075 114.419 86.0028 114.532C85.0886 114.585 84.1517 114.612 83.2526 114.635H83.1569H82.9051C82.6709 114.635 82.4442 114.655 82.215 114.66H81.4469C81.0087 114.66 80.5503 114.64 80.0869 114.635H79.757V114.696H79.8149H80.1297C80.5957 114.696 81.0591 114.721 81.5023 114.721H82.2201C82.2133 114.712 82.2074 114.703 82.2024 114.693H82.2201C82.3309 114.892 82.4493 115.088 82.5676 115.29L82.6935 115.494H82.9454C83.1972 115.494 83.434 115.494 83.6808 115.494H83.7387C84.2726 115.479 84.804 115.456 85.3279 115.431L86.1237 115.388C88.1385 115.272 90.2741 115.073 92.503 114.816C94.5933 114.587 96.797 114.272 99.2878 113.87C99.7486 113.812 100.189 113.744 100.607 113.676L101.33 113.555L101.582 113.509C101.779 113.479 101.967 113.444 102.144 113.414C102.975 113.27 103.947 113.099 105.007 112.897C107.382 112.467 109.674 111.981 111.85 111.467C112.819 111.24 113.746 111.009 114.638 110.769H114.686C115.801 110.475 116.862 110.172 117.889 109.873C119.005 109.558 120.037 109.215 121.01 108.901C121.095 108.87 121.181 108.843 121.261 108.81C121.596 108.699 121.919 108.586 122.239 108.47C123.097 108.183 123.898 107.868 124.699 107.553L125.102 107.41C128.021 106.208 130.454 104.921 132.373 103.574C135.221 102.776 138.808 102.489 143.361 102.685H143.424C139.586 105.576 133.947 108.266 126.618 110.757H126.59L125.457 111.134C123.417 111.802 121.279 112.444 119.06 113.048L118.975 113.076C118.723 113.134 118.489 113.22 118.219 113.278L117.418 113.477C116.388 113.764 115.358 114.021 114.383 114.25C113.812 114.393 113.268 114.502 112.724 114.65L111.55 114.937C110.948 115.051 110.377 115.189 109.805 115.31C108.143 115.653 106.483 115.998 104.823 116.317C104.02 116.458 103.312 116.569 102.675 116.688C102.038 116.806 101.358 116.917 100.529 117.033C98.9528 117.262 97.2553 117.519 95.5755 117.72L95.432 117.748C94.9283 117.834 94.3742 117.891 93.8302 117.949L92.5987 118.09C91.9968 118.176 91.3672 118.234 90.7375 118.292C89.6496 118.378 88.5339 118.493 87.4157 118.579L87.2167 118.607C87.0152 118.634 86.844 118.634 86.645 118.665L86.1564 118.692C83.6732 118.871 81.2756 118.979 79.0115 119.022L78.1401 119.037H77.9412C70.3127 119.11 64.1626 118.43 59.6571 116.967L59.6143 116.955H59.5916C63.5431 115.363 66.7894 114.474 69.867 114.129H69.8393C69.297 113.961 68.7832 113.77 68.298 113.557C68.852 113.464 69.3935 113.386 69.9249 113.328L70.0055 114.129C70.2573 114.101 70.4916 114.101 70.761 114.073C71.4313 114.021 72.1042 114.01 72.7758 114.041C73.9507 114.271 75.1369 114.439 76.3294 114.544C76.8331 114.592 77.3368 114.63 77.8682 114.663C78.3995 114.696 78.9007 114.716 79.4321 114.733H79.4598L79.5555 114.713L79.6638 114.698L79.7469 114.685" fill="white"/>
<path d="M79.907 100.99C77.996 99.3309 75.9022 97.8945 73.6662 96.7089L72.9786 96.3664C70.5735 95.1928 67.7679 94.2761 64.4158 93.5029C61.4969 92.8153 58.432 92.357 55.3116 91.8709L54.8079 91.7853C52.2013 91.3848 49.7407 91.0121 47.3633 90.5538L47.5371 89.7227C49.912 90.181 52.375 90.5538 54.9514 90.9542L55.4551 91.0398C58.6057 91.5284 61.6682 91.9842 64.6173 92.6718C67.6283 93.3148 70.5572 94.2948 73.3489 95.5932L74.0364 95.9357C76.3415 97.1467 78.4948 98.627 80.4509 100.346L79.907 100.99Z" fill="white"/>
<path d="M80.7144 111.195C79.5685 110.306 78.5107 109.505 77.4807 108.79C72.8139 105.516 68.666 103.579 64.3972 102.72L64.1101 102.662C60.8361 102.033 57.0382 101.803 52.4294 101.977H52.4017C48.2513 102.118 43.9271 102.549 40.1192 102.922H40.0335C36.0846 103.322 32.3623 103.695 28.8994 103.836L28.8691 102.977C32.3043 102.836 36.0266 102.473 39.9504 102.063H40.036C43.844 101.69 48.1682 101.259 52.3463 101.118H52.3766C57.0408 100.945 60.9394 101.174 64.2562 101.834L64.5433 101.889C68.9229 102.778 73.1892 104.753 77.939 108.102C78.9716 108.858 80.0596 109.613 81.213 110.535L80.7144 111.195Z" fill="white"/>
<path d="M81.7597 114.743H81.5079C81.0646 114.743 80.6012 114.723 80.1353 114.718L80.0925 114.69C79.1078 114.068 78.2112 113.537 77.36 113.061C76.9797 112.849 76.6044 112.645 76.2443 112.454C76.209 112.436 76.1788 112.419 76.1435 112.404C71.7236 110.061 67.815 108.9 63.8559 108.752C63.6746 108.752 63.4882 108.739 63.3044 108.737H62.9442C59.567 108.737 55.6986 109.225 51.1074 110.195L50.6768 110.283L50.3292 110.359C46.4583 111.187 42.5572 112.27 39.059 113.242L38.5881 113.371L38.1675 113.481C34.1002 114.627 30.2645 115.688 26.6858 116.431L26.502 115.602C30.0278 114.862 33.8509 113.811 37.8678 112.671L37.9257 112.655L38.3539 112.54L38.7493 112.431C42.26 111.457 46.2014 110.376 50.0824 109.505L50.4627 109.419L50.853 109.336C55.4039 108.361 59.2572 107.87 62.6118 107.848C62.8007 107.848 62.9896 107.848 63.1734 107.848H63.2313H63.458C67.5278 107.936 71.5171 109.034 75.937 111.303L76.6019 111.651L76.7933 111.754C78.2439 112.529 79.8356 113.492 81.7094 114.713L81.7597 114.743Z" fill="white"/>
<path d="M79.6507 114.672L79.5424 114.687L79.4467 114.707H79.419C78.8885 114.69 78.3671 114.667 77.8551 114.636C77.3287 114.604 76.8149 114.566 76.3163 114.518L76.145 114.478C76.0695 114.458 75.9939 114.442 75.9184 114.427C74.9884 114.221 74.0435 114.089 73.0926 114.032V114.032L72.8937 114.019H72.7728C72.1012 113.989 71.4283 114 70.758 114.052C70.5062 114.08 70.2719 114.08 70.0025 114.108L69.9219 113.307V113.249C70.1784 113.216 70.4365 113.198 70.695 113.193C72.7989 113.049 74.9121 113.255 76.9484 113.803C77.5847 113.971 78.2311 114.167 78.8876 114.392L79.1395 114.48H79.1974L79.283 114.538L79.5172 114.629L79.5752 114.649C79.5994 114.659 79.6248 114.666 79.6507 114.669V114.672Z" fill="white"/>
<path d="M41.3447 125.461L41.0273 124.688C43.4904 123.655 46.0643 122.396 48.7868 121.051L48.9882 120.965C52.0104 119.477 55.1409 117.943 58.2915 116.613L58.6063 117.386C55.4859 118.704 52.3655 120.22 49.3584 121.711L49.1595 121.824C46.4118 123.169 43.8329 124.428 41.3447 125.461Z" fill="white"/>
<path d="M103.602 121.678C103.201 121.736 102.771 121.822 102.315 121.877C101.453 122.021 100.481 122.164 99.4211 122.335L99.1692 122.366L97.8521 122.537C97.3937 122.595 96.9076 122.68 96.3939 122.736H96.2982C95.5275 122.852 94.6964 122.937 93.8653 123.053H93.7797L92.7219 123.166C86.3101 123.93 79.8639 124.37 73.4078 124.484L72.4004 124.511L73.0879 123.756C74.6205 122.101 76.2352 120.524 77.9259 119.031L78.0392 118.918H78.1828C81.0161 118.888 84.0811 118.744 87.2493 118.487L87.4785 118.459C88.6244 118.374 89.7451 118.258 90.8003 118.172C91.4577 118.114 92.1175 118.029 92.7471 117.973L93.893 117.83C94.437 117.772 94.9508 117.714 95.4368 117.628L95.6106 117.601C97.3282 117.399 98.9879 117.142 100.562 116.913C101.393 116.797 102.109 116.683 102.71 116.571C103.34 116.455 104.055 116.341 104.856 116.198C106.516 115.883 108.178 115.538 109.837 115.19C110.409 115.075 110.983 114.939 111.583 114.818L112.872 114.503C113.389 114.39 113.902 114.274 114.419 114.13C115.391 113.902 116.392 113.644 117.423 113.357L118.226 113.158C121.145 112.357 123.951 111.526 126.555 110.64L126.729 110.609L126.842 110.64C128.96 111.468 131.108 112.556 133.113 113.586L134.027 114.045L133.068 114.377C126.878 116.4 120.591 118.11 114.23 119.502L112.512 119.875C111.882 120.018 111.281 120.127 110.709 120.248L110.165 120.361L109.248 120.532C108.933 120.59 108.591 120.676 108.276 120.734L107.732 120.847C106.672 121.048 105.7 121.22 104.841 121.391C104.438 121.528 104.023 121.624 103.602 121.678ZM93.6966 122.25H93.8099C94.6133 122.164 95.4142 122.051 96.1873 121.935H96.273C96.759 121.877 97.2476 121.791 97.7035 121.736C98.1593 121.681 98.6202 121.62 99.0206 121.562L99.2498 121.535C100.31 121.363 101.265 121.22 102.113 121.106C102.538 121.014 102.968 120.947 103.4 120.905C103.803 120.847 104.231 120.761 104.659 120.676C105.518 120.532 106.49 120.333 107.551 120.132L108.095 120.018C108.409 119.96 108.724 119.903 109.067 119.817C109.354 119.759 109.669 119.704 109.956 119.646L110.5 119.53C111.072 119.416 111.673 119.278 112.303 119.16L113.99 118.787C120.375 117.354 126.359 115.765 131.768 114.002C130.109 113.143 128.363 112.314 126.646 111.627C124.069 112.486 121.291 113.344 118.4 114.118L117.74 114.289C116.652 114.576 115.595 114.863 114.565 115.09C114.048 115.206 113.532 115.342 113.018 115.462L111.701 115.777C111.099 115.921 110.528 116.029 109.956 116.15C108.294 116.523 106.606 116.865 104.944 117.18C104.143 117.324 103.433 117.467 102.798 117.553C102.164 117.638 101.481 117.782 100.622 117.895C99.0173 118.154 97.3568 118.383 95.6408 118.583L95.4696 118.613C94.9533 118.668 94.4395 118.726 93.8955 118.812L92.7496 118.956C92.12 119.014 91.4602 119.099 90.7752 119.157C89.6872 119.27 88.569 119.356 87.4256 119.442L87.1964 119.472C84.0458 119.701 81.0413 119.842 78.2357 119.9C76.8883 121.074 75.5434 122.418 74.2842 123.736C79.9231 123.622 86.0505 123.164 92.4928 122.418L93.6941 122.247L93.6966 122.25Z" fill="white"/>
<path d="M69.4565 128.747L68.8848 128.115C69.9148 127.2 71.1161 125.911 72.3754 124.566L73.0931 123.793L73.7227 124.395L73.0075 125.15C71.718 126.513 70.5167 127.8 69.4565 128.747Z" fill="white"/>
<path d="M121.253 108.006L120.875 108.777L126.504 111.536L126.882 110.765L121.253 108.006Z" fill="white"/>
<path d="M82.6258 115.504L82.5955 115.532C82.3135 115.806 80.3944 117.677 79.0697 119.002C79.0567 119.018 79.0424 119.032 79.0269 119.045L78.5685 119.506L77.9414 119.073L77.9993 119.017L78.0573 118.959C78.0573 118.959 80.8704 115.937 81.5479 115.552L82.5804 115.504H82.6258Z" fill="white"/>
<path d="M82.9487 115.466C82.8303 115.466 82.717 115.466 82.6011 115.466H82.5558L81.5232 115.513H80.4604C80.1255 115.513 79.7905 115.493 79.4782 115.478C79.3926 115.478 79.3095 115.478 79.2264 115.478H79.1332C79.119 115.476 79.1045 115.476 79.0904 115.478V115.478H78.9619H78.8259H78.7227H78.5338H78.4456H78.3676C78.3206 115.482 78.2735 115.482 78.2265 115.478H78.0754H77.9974C76.1368 115.379 74.2855 115.15 72.4567 114.793C72.1268 114.725 71.8019 114.652 71.4846 114.579L71.0917 114.41C70.7114 114.307 70.3362 114.201 69.9886 114.091L69.903 114.07H69.8753C69.333 113.903 68.8192 113.712 68.334 113.499C68.888 113.406 69.4295 113.327 69.9609 113.27L70.0415 114.07C70.2934 114.043 70.5276 114.043 70.797 114.015C71.4673 113.963 72.1402 113.952 72.8118 113.982C73.9867 114.212 75.1729 114.38 76.3654 114.486C76.8691 114.534 77.3728 114.572 77.9042 114.604C78.4356 114.637 78.9367 114.657 79.4681 114.675H79.4958L79.5915 114.655L79.6998 114.64L79.7829 114.627V114.662H79.8409H80.1557C80.6216 114.662 81.085 114.687 81.5283 114.687H82.246C82.2393 114.679 82.2333 114.67 82.2284 114.66H82.246C82.3568 114.859 82.4752 115.055 82.5936 115.257L82.7195 115.461L82.9487 115.466Z" fill="white"/>
<path d="M121.583 107.181C121.553 107.382 121.523 107.586 121.485 107.788C121.44 108.039 121.387 108.306 121.331 108.566L121.291 108.745L121.279 108.785V108.803L121.049 108.881C119.931 109.253 118.836 109.583 117.914 109.86C116.907 110.157 115.846 110.45 114.703 110.744H114.655C113.779 110.971 112.857 111.198 111.885 111.429C109.427 112.021 107.147 112.469 105.052 112.865C104.168 113.034 103.254 113.195 102.184 113.381L101.604 113.484L101.352 113.53L100.63 113.651C100.219 113.714 99.7709 113.779 99.31 113.842C96.8872 114.235 94.6609 114.545 92.5101 114.786C90.3064 115.038 88.1532 115.227 86.1056 115.363L85.3501 115.406C84.8263 115.431 84.2949 115.454 83.7609 115.469H83.6879C83.4361 115.469 83.1993 115.469 82.9525 115.469H82.7007L82.5747 115.265C82.4564 115.063 82.338 114.867 82.2272 114.668C82.0308 114.321 81.8444 113.975 81.6731 113.63C81.6076 113.502 81.5447 113.379 81.4842 113.248C81.4238 113.117 81.3634 112.996 81.3029 112.855C81.1594 112.542 81.0309 112.233 80.9151 111.923C80.8521 111.764 80.7942 111.608 80.7363 111.449C80.6783 111.291 80.6204 111.109 80.565 110.946L80.4441 110.588C80.2905 110.084 80.1469 109.581 80.0185 109.032C79.9858 108.896 79.9555 108.755 79.9228 108.616C79.9228 108.588 79.9228 108.566 79.9102 108.541C79.8775 108.397 79.8472 108.254 79.8195 108.105C79.7918 107.956 79.7717 107.866 79.749 107.742L79.6911 107.364L79.5752 106.609C79.5752 106.554 79.5627 106.501 79.5576 106.445C79.3401 104.478 79.4045 102.489 79.749 100.539C80.2531 97.6479 81.3572 94.894 82.9903 92.4551C83.2421 92.0623 83.5242 91.682 83.8113 91.3067C84.81 90.0251 85.9431 88.854 87.1911 87.8136C89.5221 85.9118 92.2291 84.5248 95.1344 83.7437C95.5793 83.6229 96.0301 83.5179 96.4868 83.4289L97.5294 83.2526C101.161 82.722 104.868 83.1491 108.283 84.4915C111.698 85.8339 114.704 88.0452 117.002 90.9063C117.123 91.0549 117.254 91.206 117.36 91.3571C117.466 91.5082 117.579 91.6442 117.682 91.7877C117.785 91.9313 117.934 92.1303 118.047 92.2914C118.403 92.8153 118.739 93.3542 119.055 93.9083C120.021 95.6526 120.738 97.5235 121.185 99.4666C121.241 99.6429 121.294 99.8141 121.334 99.9854C121.395 100.216 121.444 100.45 121.48 100.686C121.481 100.7 121.481 100.714 121.48 100.728C121.523 100.98 121.561 101.232 121.593 101.484C121.621 101.67 121.644 101.857 121.661 102.045C121.679 102.234 121.694 102.421 121.709 102.607C121.724 102.793 121.734 102.972 121.745 103.161C121.755 103.35 121.76 103.496 121.767 103.665V103.708C121.81 104.868 121.748 106.031 121.583 107.181Z" fill="white"/>
<defs>
<linearGradient id="paint0_linear_1331:28242" x1="28.125" y1="25" x2="168.75" y2="175" gradientUnits="userSpaceOnUse">
<stop stop-color="#0088C8"/>
<stop offset="0.442708" stop-color="#5831C9"/>
<stop offset="1" stop-color="#81A3F2"/>
</linearGradient>
</defs>
</svg>
