<svg width="32" height="32" viewBox="0 0 32 32" fill="none" xmlns="http://www.w3.org/2000/svg">
    <path d="M16 32c8.837 0 16-7.163 16-16S24.837 0 16 0 0 7.163 0 16s7.163 16 16 16z" fill="url(#a)"/>
    <path d="M16 31.636c8.635 0 15.636-7 15.636-15.636S24.636.363 16 .363.363 7.363.363 16c0 8.635 7 15.636 15.637 15.636z" stroke="#fff" stroke-width=".5"/>
    <path d="M15.999 30.546c-8.02 0-14.546-6.525-14.546-14.546C1.453 7.98 7.978 1.455 16 1.455c8.02 0 14.545 6.525 14.545 14.545s-6.525 14.546-14.545 14.546zm0-27.86C8.657 2.687 2.685 8.66 2.685 16c0 7.341 5.972 13.314 13.314 13.314 7.34 0 13.313-5.972 13.313-13.314C29.313 8.66 23.34 2.687 16 2.687z" fill="#28646E"/>
    <path d="M15.04 13.343a.414.414 0 0 1-.273-.724c1.168-1.03 1.685-1.88 1.777-2.04.343-.598.895-.907 1.474-.829a.413.413 0 0 1-.111.82c-.338-.045-.564.28-.646.421-.103.18-.681 1.132-1.946 2.248a.416.416 0 0 1-.274.103zm-6.962 7.01a.414.414 0 0 1-.266-.731 11.6 11.6 0 0 1 1.523-1.017.415.415 0 0 1 .37.74c-.477.27-.932.575-1.363.913a.41.41 0 0 1-.264.096z" fill="#28646E"/>
    <path d="M18.468 16.43c.164.154.355.087.53-.079 1.2-1.142 2.469-2.936 2.892-3.866.09-.2.273-.31.47-.232.23.094.227.49.018.92-.554 1.14-1.322 2.396-2.839 3.967a.317.317 0 0 0 .008.467c.133.12.35.113.553-.094.788-.803 1.319-1.425 1.775-2.07.116-.17.257-.238.396-.207.199.04.23.232.17.462-.1.372-1.146 1.742-1.56 2.206-1.124 1.254-2.249 1.941-4.412 3.066-.756.396-1.32.768-1.663 1.346-.31.525-.404.697-.436.764a.525.525 0 0 0 .23.7.51.51 0 0 0 .691-.266c0-.006-.016.009.391-.678a2.953 2.953 0 0 1 1.275-1.125c2.163-.986 3.05-1.767 4.306-3.022.573-.573 1.364-1.801 1.583-2.164.605-1.018.287-1.891-.259-2.04a.069.069 0 0 1-.044-.103c.423-.724.615-1.224.695-1.612.108-.527-.041-1.166-.765-1.323a.071.071 0 0 1-.053-.058.068.068 0 0 1 .002-.028c.045-.167.09-.378.122-.516.151-.685-.282-1.305-.801-1.416a1.206 1.206 0 0 0-.976.204.097.097 0 0 1-.126-.016.757.757 0 0 0-.54-.253c-.453-.007-.899.132-1.225.829-.234.498-.581 1.167-1.599 2.295-.944 1.048-2.26 2.069-3.07 2.602-.143.093-.342.07-.317-.12.038-.304.364-2.342.418-2.943.091-.976-.434-1.425-1.023-1.504-.485-.066-1.22.074-1.623 1.177-.238.647-.728 1.71-1.145 3.42-.294 1.205-.342 2.608-.074 4.22a.407.407 0 0 1-.053.282c-.321.529-.791 1.225-1.054 1.832a.52.52 0 0 0 .216.663.509.509 0 0 0 .705-.23c.159-.33.475-.95.603-1.203.218-.448.363-.743.423-.929.053-.17.085-.366-.013-.812-.165-.751-.222-2.164.084-3.408a35.15 35.15 0 0 1 1.22-3.8c.123-.304.298-.4.475-.384.176.016.508.101.412.722-.17 1.115-.413 2.533-.493 3.008-.038.233-.084.78.348 1.029.336.195.707.086 1.116-.187.921-.614 2.509-1.866 3.506-2.986 1.046-1.175 1.38-1.875 1.649-2.508.123-.29.438-.287.55-.254.11.032.246.182.15.5-.232.773-1.187 2.543-3.028 4.203-.209.189-.18.41-.073.527.106.117.294.186.508 0 1.654-1.41 2.599-3.096 3.023-3.998.142-.3.263-.61.363-.926.09-.262.292-.355.433-.326.201.042.334.249.27.589A5.977 5.977 0 0 1 21.332 12c-.53 1.125-1.65 2.632-2.858 3.925a.342.342 0 0 0-.087.39.34.34 0 0 0 .082.114zm-7.48-5.606c.065-.056.04-.128.021-.186a19.66 19.66 0 0 0-.729-1.712c-.067-.12-.152-.137-.243-.102-.12.046-.267.158-.494.354-.226.197-.354.331-.415.444-.047.086-.041.173.07.254.219.163 1.332.82 1.602.95.055.025.123.06.187 0l.002-.002zm9.174 10.525c-.084.006-.108.08-.128.135-.102.28-.422 1.533-.461 1.804-.02.136.037.2.13.228.123.036.307.039.608.018.3-.02.482-.046.6-.1.089-.039.136-.111.098-.244-.075-.261-.559-1.46-.698-1.725-.027-.053-.062-.122-.146-.116h-.003zm.724-.58c-.039.075.01.133.048.18.186.233 1.091 1.156 1.302 1.33.105.088.19.073.262.008.095-.087.193-.243.332-.51.138-.268.21-.437.227-.564.012-.097-.025-.174-.159-.211a19.821 19.821 0 0 0-1.838-.3c-.06-.004-.135-.012-.175.065v.002zM10.55 11.6c-.015-.084-.09-.1-.148-.114-.29-.071-1.57-.252-1.843-.262-.138-.005-.196.06-.214.158-.023.127-.005.31.049.607.053.295.099.474.164.585.05.084.126.123.253.072.253-.104 1.392-.713 1.639-.882.05-.034.115-.074.1-.158V11.6zm5.443 16.593a.461.461 0 1 0 .03-.922.461.461 0 0 0-.03.922zm0-23.461a.461.461 0 1 0 0-.923.461.461 0 0 0 0 .923zm3.036 23.061a.461.461 0 1 0 0-.923.461.461 0 0 0 0 .923zM12.957 5.131a.461.461 0 1 0 0-.922.461.461 0 0 0 0 .922zm8.902 21.49a.461.461 0 1 0 .03-.921.461.461 0 0 0-.03.921zM10.129 6.303a.461.461 0 1 0 .029-.922.461.461 0 0 0-.03.922zm14.16 18.454a.461.461 0 1 0 .029-.922.461.461 0 0 0-.03.922zM7.697 8.167a.462.462 0 1 0 .03-.923.462.462 0 0 0-.03.923zm19.626 11.33a.462.462 0 1 0 0-.922.462.462 0 0 0 0 .923zm-1.172 2.83a.461.461 0 1 0 0-.922.461.461 0 0 0 0 .923zM5.834 10.598a.462.462 0 1 0 0-.924.462.462 0 0 0 0 .924zm-1.172 2.829a.46.46 0 0 0 .477-.461.462.462 0 0 0-.477-.462.461.461 0 1 0 0 .924v-.001zm23.062 3.036a.462.462 0 1 0 0-.924.462.462 0 0 0 0 .924zm-23.462 0a.462.462 0 1 0 0-.923.462.462 0 0 0 0 .923zm23.062-3.036a.46.46 0 0 0 .44-.641.462.462 0 0 0-.44-.282.462.462 0 1 0 0 .924v-.001zM4.662 19.498a.461.461 0 1 0 0-.923.461.461 0 0 0 0 .923zm21.49-8.902a.462.462 0 1 0 0-.923.462.462 0 0 0 0 .924zM5.834 22.328a.462.462 0 1 0 0-.923.462.462 0 0 0 0 .923zM24.288 8.167a.461.461 0 1 0 .03-.922.461.461 0 0 0-.03.922zm-16.59 16.59a.461.461 0 1 0 .03-.922.461.461 0 0 0-.03.922zM21.859 6.303a.461.461 0 1 0 .03-.922.461.461 0 0 0-.03.922zM10.129 26.62a.461.461 0 1 0 .03-.921.461.461 0 0 0-.03.921zm8.9-21.49a.462.462 0 1 0 0-.923.462.462 0 0 0 0 .923zm-6.072 22.662a.462.462 0 1 0 0-.923.462.462 0 0 0 0 .923z" fill="#28646E"/>
    <defs>
        <linearGradient id="a" x1="2.182" y1="13.818" x2="32" y2="16" gradientUnits="userSpaceOnUse">
            <stop offset="0" stop-color="#D4F0ED"/>
            <stop offset="1" stop-color="#F0E6B5"/>
        </linearGradient>
    </defs>
</svg>
