<svg width="32" height="32" viewBox="0 0 32 32" fill="none" xmlns="http://www.w3.org/2000/svg">
    <path d="M31.75 16c0 8.698-7.052 15.75-15.75 15.75S.25 24.698.25 16 7.302.25 16 .25 31.75 7.302 31.75 16z" fill="url(#qzxqeddoxa)" stroke="#fff" stroke-width=".5"/>
    <path fill-rule="evenodd" clip-rule="evenodd" d="M26 16.297c-.002.068-.094.086-.12.023a6.168 6.168 0 0 0-.035-.08.15.15 0 0 1 .017-.15c.006-.01.02-.027.036-.048.044-.057.107-.049.107.015 0 .083-.002.155-.005.24zm-.484-1.322a.203.203 0 0 1-.348.01l-.04-.06a11.866 11.866 0 0 0-1.025-1.345.167.167 0 0 1 .126-.275h.003c.897 0 1.367.22 1.51.491.12.226.083.622-.226 1.179zm-.2 4.688a9.976 9.976 0 0 1-.151.364l-.025.05c-.33.635-.884 1.135-1.623 1.483a.214.214 0 0 1-.299-.25c.246-.88.432-1.833.552-2.833a.755.755 0 0 1 .257-.48c.304-.264.588-.526.85-.787l.003-.003a.24.24 0 0 1 .4.1c.258.86.272 1.659.036 2.356zm-2.011 3.174a9.743 9.743 0 0 1-.65.634c-.09.08-.225-.02-.174-.13a9.194 9.194 0 0 0 .217-.5.111.111 0 0 1 .076-.066c.142-.036.28-.075.415-.119.109-.035.194.097.116.181zm-1.477-.793a8.704 8.704 0 0 1-.941.082c-.802.028-1.65-.04-2.52-.201a.113.113 0 0 1-.03-.212 30.816 30.816 0 0 0 4.234-2.565c.08-.059.193.011.176.11-.15.908-.36 1.762-.622 2.537a.37.37 0 0 1-.297.248zm-.308 1.208c-.714 1.405-1.594 2.194-2.447 2.178-.927-.017-1.851-.982-2.535-2.648l-.001-.002a.21.21 0 0 1 .111-.272l.022-.01a.213.213 0 0 1 .142-.01c1.28.36 2.542.547 3.724.547a11.007 11.007 0 0 0 .82-.032c.132-.01.224.13.164.249zm-4.23 2.672a10.14 10.14 0 0 1-1.291.082 9.938 9.938 0 0 1-5.402-1.58c-.11-.07-.064-.24.067-.247l.075-.004c.405-.026.85-.086 1.333-.179 1.026-.197 2.166-.535 3.36-.991a.211.211 0 0 1 .27.118v.002c.463 1.126 1.033 1.978 1.672 2.52a.16.16 0 0 1-.084.279zm-5.787-7.011a26.051 26.051 0 0 1 3.049-2.113 20.5 20.5 0 0 0 .464 4.098 18.243 18.243 0 0 1-3.513-1.985zm-2.742 3.884c-.21-.397.062-1.317 1.443-2.714a.344.344 0 0 0-.03-.512l-.165-.132a.345.345 0 0 0-.461.025 5.96 5.96 0 0 0-.054.054c-.69.708-1.174 1.364-1.444 1.954a.236.236 0 0 1-.41.032A9.935 9.935 0 0 1 5.993 16c0-.71.073-1.41.217-2.088.022-.103.167-.11.197-.01.208.686.545 1.395 1.012 2.112.629.965 1.458 1.893 2.44 2.744.335.29.69.572 1.059.843.748.55 1.562 1.056 2.427 1.506.384.2.757.39 1.14.562a.867.867 0 0 0 .673.018c.18-.071.362-.145.545-.22a.436.436 0 0 0 .254-.51 3.967 3.967 0 0 1-.015-.059c-.302-1.268-.469-2.695-.489-4.19v-.054c-.002-.082-.001-.164-.002-.245v-.127a21.96 21.96 0 0 1 .03-1.045c.093-1.804.399-3.5.885-4.925a.252.252 0 0 0-.157-.32 15.839 15.839 0 0 0-.385-.127.25.25 0 0 0-.313.158c-.527 1.549-.853 3.386-.94 5.33a.732.732 0 0 1-.357.598 27.58 27.58 0 0 0-3.123 2.135.505.505 0 0 1-.646-.014c-.916-.794-1.687-1.656-2.27-2.55-1.144-1.758-1.416-3.415-.765-4.663l.005-.009c.083-.137.17-.273.26-.407.747-.99 2.14-1.565 3.986-1.63.117-.003.235-.006.354-.006 1.132 0 2.348.187 3.584.544l.082.024.062.018c.286.085.573.18.86.283l.02.007a17.336 17.336 0 0 1 .294.11l.067.026c.604.234 1.207.505 1.803.815a17.254 17.254 0 0 1 3.127 2.072c-1.753.402-3.79 1.176-5.84 2.22a.3.3 0 0 0-.162.25c-.007.127-.017.382-.023.585a.166.166 0 0 0 .243.153l.001-.001c2.029-1.065 4.053-1.861 5.791-2.282a.65.65 0 0 0 .49-.722 17.69 17.69 0 0 0-.108-.683 1.136 1.136 0 0 0-.43-.705 18.844 18.844 0 0 0-4.634-2.57.247.247 0 0 1-.129-.352c.678-1.213 1.485-1.893 2.27-1.893h.025c.927.017 1.851.982 2.535 2.648.347.844.615 1.817.799 2.873l-.003-.002c.078.451.141.917.188 1.396l-.012.007.017.017a22.44 22.44 0 0 1 .01 4.083c-1.24 1.002-2.773 2-4.459 2.892-.553.294-1.107.567-1.656.819l-.025.011-.126.058a28.65 28.65 0 0 1-1.348.569l-.074.03-.094.035-.222.084-.06.023c-.09.034-.18.066-.268.098l-.033.012c-.95.337-1.853.592-2.676.75-1.99.384-2.926.09-3.14-.313zm1.43-14.947a9.931 9.931 0 0 1 5.808-1.856c.557 0 1.108.045 1.647.134a.169.169 0 0 1 .078.299c-.523.41-1.008 1.016-1.438 1.802a.468.468 0 0 1-.538.226c-1.423-.4-2.824-.59-4.118-.544-.478.017-.93.065-1.355.144-.119.022-.183-.134-.085-.205zm13.735 7.293a.116.116 0 0 1 .21-.07 10.082 10.082 0 0 1 .517.805.252.252 0 0 1-.033.294 11.69 11.69 0 0 1-.535.55.1.1 0 0 1-.17-.076 23.715 23.715 0 0 0 .01-1.503zm-1.038-6.4a9.984 9.984 0 0 1 2.39 3.5.168.168 0 0 1-.186.229 5.032 5.032 0 0 0-.969-.069.505.505 0 0 1-.507-.414c-.195-1.09-.476-2.098-.837-2.978l-.063-.148c-.046-.108.087-.2.172-.12zm3.784 4.988a10.834 10.834 0 0 0-2.96-5.445A10.838 10.838 0 0 0 16 5.09a10.838 10.838 0 0 0-7.714 3.195A11.025 11.025 0 0 0 6.95 9.903c-.116.153-.22.316-.312.486a10.842 10.842 0 0 0-1.548 5.61c0 2.915 1.135 5.654 3.195 7.715 2.06 2.06 4.8 3.195 7.714 3.195 2.914 0 5.653-1.135 7.714-3.195a10.9 10.9 0 0 0 2.276-3.318c.066-.136.123-.274.173-.416a11.013 11.013 0 0 0 .517-6.221l-.007-.028z" fill="#fff"/>
    <defs>
        <linearGradient id="qzxqeddoxa" x1="16" y1="0" x2="16" y2="32" gradientUnits="userSpaceOnUse">
            <stop stop-color="#CB32D5"/>
            <stop offset="0" stop-color="#7B2BF9"/>
            <stop offset="1" stop-color="#7B2BF9"/>
        </linearGradient>
    </defs>
</svg>
