<svg width="200" height="200" viewBox="0 0 200 200" fill="none" xmlns="http://www.w3.org/2000/svg">
<circle cx="100" cy="100" r="100" fill="white"/>
<path d="M99.8154 0.00226254C92.2322 -0.0511589 84.671 0.841618 77.3008 2.66066V127.133C77.2818 128.341 76.8004 129.493 75.9592 130.344C75.118 131.195 73.9836 131.678 72.7979 131.689H63.7835C63.3411 131.692 62.9023 131.607 62.4926 131.437C62.0829 131.267 61.7103 131.016 61.3962 130.698C61.0822 130.381 60.8329 130.003 60.6629 129.587C60.4928 129.171 60.4052 128.725 60.4052 128.274V7.97307C42.5757 15.5176 27.3311 28.2581 16.5846 44.5957C5.83809 60.9334 0.0685359 80.1402 0 99.8057C0.0980881 113.091 2.76984 126.227 7.86207 138.459C12.9543 150.69 20.3668 161.778 29.6747 171.086C38.9825 180.394 50.0025 187.738 62.1029 192.699C74.2033 197.66 87.146 200.139 100.189 199.994C113.183 200.139 126.077 197.671 138.132 192.729C150.187 187.788 161.166 180.471 170.439 171.198C179.712 161.926 187.096 150.88 192.169 138.694C197.242 126.508 199.903 113.422 200 100.186C199.675 73.3954 188.958 47.8236 170.187 29.0535C151.417 10.2835 126.119 -0.160307 99.8154 0.00226254V0.00226254ZM97.9396 141.553C97.9261 142.661 97.4857 143.72 96.7134 144.501C95.941 145.282 94.8984 145.723 93.8101 145.729H84.7957C83.7074 145.723 82.6648 145.282 81.8924 144.501C81.12 143.72 80.6797 142.661 80.6662 141.553V78.1757C80.6797 77.0672 81.12 76.0085 81.8924 75.2275C82.6648 74.4465 83.7074 74.0057 84.7957 74.0001H93.8101C94.8984 74.0057 95.941 74.4465 96.7134 75.2275C97.4857 76.0085 97.9261 77.0672 97.9396 78.1757V141.553ZM118.201 147.626C118.187 148.735 117.747 149.793 116.974 150.574C116.202 151.355 115.159 151.796 114.071 151.802H105.057C103.968 151.796 102.926 151.355 102.153 150.574C101.381 149.793 100.941 148.735 100.927 147.626V72.1068C100.941 70.9984 101.381 69.9396 102.153 69.1586C102.926 68.3777 103.968 67.9369 105.057 67.9312H114.071C115.159 67.9369 116.202 68.3777 116.974 69.1586C117.747 69.9396 118.187 70.9984 118.201 72.1068V147.626ZM138.462 136.258C138.448 137.367 138.008 138.425 137.235 139.206C136.463 139.987 135.42 140.428 134.332 140.434H125.343C124.255 140.428 123.213 139.987 122.44 139.206C121.668 138.425 121.227 137.367 121.214 136.258V84.2489C121.227 83.1404 121.668 82.0817 122.44 81.3007C123.213 80.5197 124.255 80.0789 125.343 80.0733H134.358C135.446 80.0789 136.489 80.5197 137.261 81.3007C138.033 82.0817 138.474 83.1404 138.487 84.2489L138.462 136.258Z" fill="url(#paint0_linear_1382_28836)"/>
<defs>
<linearGradient id="paint0_linear_1382_28836" x1="100" y1="0" x2="100" y2="200" gradientUnits="userSpaceOnUse">
<stop stop-color="#FF005C"/>
<stop offset="1" stop-color="#C70048"/>
</linearGradient>
</defs>
</svg>
