<svg xmlns="http://www.w3.org/2000/svg" width="32" height="32" fill="none" viewBox="0 0 32 32">
    <path fill="url(#paint0_linear)" d="M16 32c8.837 0 16-7.163 16-16S24.837 0 16 0 0 7.163 0 16s7.163 16 16 16z"/>
    <path stroke="#fff" stroke-width=".5" d="M16 31.75c8.698 0 15.75-7.052 15.75-15.75S24.698.25 16 .25.25 7.302.25 16 7.302 31.75 16 31.75z"/>
    <path fill="#fff" d="M13.663 11.314l2.272-3.321 2.411 3.184c.462-.48.77-1.085.887-1.741.116-.655.034-1.33-.235-1.94-.27-.608-.714-1.123-1.277-1.478-.564-.355-1.22-.534-1.885-.515-.665.02-1.31.237-1.851.624-.542.388-.955.928-1.189 1.551-.233.623-.275 1.302-.12 1.95.153.647.497 1.234.986 1.686h.001zM12.896 20.457l-3.953.741.546-3.952c-.665.012-1.312.223-1.857.604-.546.381-.966.917-1.206 1.538-.24.62-.29 1.299-.142 1.948.147.65.484 1.24.969 1.697.484.456 1.093.758 1.75.867.657.11 1.331.02 1.937-.256.606-.276 1.115-.726 1.464-1.293.35-.567.521-1.225.495-1.89l-.003-.004zM21.456 16.896l1.527 3.725-3.985.265c.146.65.483 1.24.967 1.698.484.457 1.093.76 1.75.87.656.109 1.33.02 1.937-.255.606-.276 1.116-.725 1.465-1.292.35-.567.523-1.224.496-1.89-.026-.665-.25-1.307-.642-1.845-.393-.537-.937-.945-1.563-1.172-.626-.227-1.305-.263-1.951-.102l-.001-.002z"/>
    <defs>
        <linearGradient id="paint0_linear" x1="16" x2="16" y1="0" y2="32" gradientUnits="userSpaceOnUse">
            <stop stop-color="#6E7FEF"/>
            <stop offset="1" stop-color="#5C67B0"/>
        </linearGradient>
    </defs>
</svg>
