<svg xmlns="http://www.w3.org/2000/svg" width="32" height="32" fill="none" viewBox="0 0 32 32">
    <path fill="url(#paint0_linear)" d="M16 32c8.837 0 16-7.163 16-16S24.837 0 16 0 0 7.163 0 16s7.163 16 16 16z"/>
    <path stroke="#fff" stroke-width=".5" d="M16 31.75c8.698 0 15.75-7.052 15.75-15.75S24.698.25 16 .25.25 7.302.25 16 7.302 31.75 16 31.75z"/>
    <path fill="#fff" d="M15.965 28.758c-2.6 0-2.631-12.2-2.631-12.715 0-.515.03-12.715 2.631-12.715s2.631 12.2 2.631 12.715c0 .515-.03 12.715-2.631 12.715zm-.007-24.553c-.6.165-1.747 4.377-1.747 11.838 0 7.461 1.146 11.674 1.761 11.838.6-.165 1.747-4.377 1.747-11.838 0-7.46-1.147-11.669-1.76-11.834l-.001-.004z"/>
    <path fill="#fff" d="M25.766 22.904c-3.141 0-10.737-4.36-11.116-4.579-2.554-1.44-4.982-3.094-7.26-4.94-2.755-2.323-2.709-3.222-2.436-3.696 1.3-2.252 11.878 3.82 12.327 4.08 2.554 1.44 4.982 3.093 7.26 4.94 2.755 2.322 2.709 3.221 2.436 3.695-.139.184-.325.327-.538.415-.212.088-.445.117-.673.085zM6.105 10.04c-.14-.017-.282.016-.4.094-.157.6 2.917 3.7 9.38 7.432 6.463 3.732 10.682 4.844 11.133 4.395.157-.6-2.917-3.7-9.38-7.432-5.57-3.218-9.476-4.489-10.733-4.489z"/>
    <path fill="#fff" d="M6.163 22.905c-.228.032-.46.002-.673-.085-.213-.088-.399-.232-.538-.415-.274-.474-.319-1.373 2.436-3.695 2.278-1.847 4.707-3.5 7.26-4.941.45-.26 11.025-6.332 12.327-4.08.273.475.32 1.374-2.436 3.696-2.277 1.847-4.706 3.5-7.26 4.94-.379.22-7.974 4.58-11.116 4.58zm19.67-12.872c-1.24 0-5.155 1.268-10.746 4.5-6.462 3.73-9.536 6.829-9.373 7.444.444.436 4.665-.676 11.126-4.407 6.462-3.731 9.538-6.83 9.373-7.444-.112-.075-.247-.108-.38-.093z"/>
    <path fill="#fff" d="M15.963 17.362c.727 0 1.315-.588 1.315-1.315 0-.726-.588-1.315-1.315-1.315-.726 0-1.315.59-1.315 1.315 0 .727.59 1.315 1.315 1.315zM21.72 11.937c.726 0 1.314-.59 1.314-1.315 0-.727-.588-1.315-1.315-1.315-.726 0-1.315.588-1.315 1.315 0 .726.589 1.315 1.315 1.315zM7.688 14.568c.726 0 1.315-.59 1.315-1.316 0-.726-.589-1.315-1.315-1.315s-1.315.59-1.315 1.316c0 .726.589 1.315 1.315 1.315zM14.264 25.528c.727 0 1.315-.588 1.315-1.315 0-.726-.588-1.315-1.315-1.315-.726 0-1.315.59-1.315 1.315 0 .727.589 1.315 1.315 1.315z"/>
    <defs>
        <linearGradient id="paint0_linear" x1="16" x2="16" y1="0" y2="32" gradientUnits="userSpaceOnUse">
            <stop stop-color="#9C6CFF"/>
            <stop offset="1" stop-color="#4E3680"/>
        </linearGradient>
    </defs>
</svg>
