<svg width="32" height="32" viewBox="0 0 32 32" fill="none" xmlns="http://www.w3.org/2000/svg">
    <circle cx="16" cy="16" r="16" fill="#000"/>
    <path d="M16 0c8.836 0 16 7.164 16 16s-7.164 16-16 16C7.163 32 0 24.836 0 16S7.163 0 16 0zm0 1.493C7.988 1.493 1.493 7.988 1.493 16S7.988 30.507 16 30.507 30.506 24.012 30.506 16 24.012 1.493 16 1.493z" fill="#E53935"/>
    <path d="M24.556 10.65V9.417H20.65c-.21-.797-.42-1.498-.648-2.144l-1.315.228c.252.628.474 1.268.667 1.916H15.22v1.233h9.336zm-10.004 9.164v-7.873h-1.924c.4-.589.8-1.31 1.2-2.182v-.911h-3.144c.172-.38.324-.759.476-1.157l-1.219-.38c-.572 1.86-1.467 3.358-2.668 4.516l.286 1.347c.248-.228.496-.455.724-.702v7.342h6.27zm-3.239-7.873H8.76c.515-.633.98-1.306 1.39-2.011h2.402c-.42.758-.82 1.442-1.239 2.01zm7.851 12.787c.953 0 1.448-.53 1.448-1.575v-5.407h3.03v-5.388h-7.413v5.388h3.05v5.085c0 .474-.191.72-.573.72-.438 0-.895-.037-1.352-.094l.266 1.271h1.544zm-8.29-9.41h-1.41V13.06h1.41v2.258zm2.497 0H11.98V13.06h1.39v2.258zm8.975 1.233h-4.82v-2.979h4.82v2.979zm-8.975 2.125H11.98v-2.258h1.39v2.258h.001zm-2.497 0h-1.41v-2.258h1.41v2.258zm12.844 5.18 1.01-.703c-.515-1.214-1.239-2.618-2.192-4.23l-1.01.607c.915 1.574 1.658 3.016 2.192 4.325zm-7.984.322c.838-1.31 1.562-2.865 2.172-4.649L16.801 19c-.59 1.707-1.296 3.187-2.096 4.439l1.029.74zm-1.582-1.29.934-.228c-.267-.91-.534-1.708-.838-2.39l-.896.265c.31.769.576 1.554.8 2.353zm-2.02 1.1.991-.114c-.114-1.442-.323-2.58-.629-3.415l-.953.114c.306.797.496 1.935.591 3.415zm-3.64.512c.4-1.119.649-2.39.763-3.832l-1.03-.133c-.094 1.366-.361 2.58-.78 3.643l1.048.322zm1.601-.227.991-.114c-.038-1.499-.133-2.694-.267-3.567l-.914.114c.095.835.153 2.03.19 3.567z" fill="#E53935"/>
    <circle cx="16" cy="16" r="15.75" stroke="#fff" stroke-width=".5"/>
</svg>
