<svg width="200" height="200" viewBox="0 0 200 200" fill="none" xmlns="http://www.w3.org/2000/svg">
<path d="M100 200C155.228 200 200 155.228 200 100C200 44.7715 155.228 0 100 0C44.7715 0 0 44.7715 0 100C0 155.228 44.7715 200 100 200Z" fill="url(#paint0_linear)"/>
<path d="M62.9005 125.355C60.4144 120.467 59.1834 115.038 59.3186 109.555C59.2283 104.4 60.1904 99.2808 62.1459 94.51C63.7192 90.6632 65.8279 87.0579 68.4096 83.8009C70.71 81.0732 73.5599 78.8615 76.7732 77.31C80.0414 75.6649 83.6507 74.8116 87.3096 74.8191C91.8957 74.5899 96.3863 76.1848 99.8005 79.2554L114.055 67.3554C113.767 64.8779 113.622 62.386 113.619 59.8918C113.619 43.8736 117.855 35.8645 126.328 35.8645C127.298 35.8181 128.265 35.9995 129.152 36.3942C130.039 36.7889 130.822 37.3858 131.437 38.1373C132.727 39.818 133.449 41.8648 133.5 43.9827C133.491 47.7125 132.315 51.3458 130.137 54.3736C127.271 58.5489 123.914 62.3642 120.137 65.7373C121.882 75.8315 123.006 86.0234 123.5 96.2554C123.51 101.518 122.816 106.759 121.437 111.837C120.113 116.703 117.984 121.312 115.137 125.474C112.206 129.674 108.191 133.001 103.519 135.101C98.1234 137.509 92.2618 138.692 86.355 138.565C82.3161 138.823 78.2752 138.091 74.5836 136.432C70.8921 134.774 67.6616 132.238 65.1732 129.046C63.8071 134.082 63.1492 139.284 63.2186 144.501C63.1332 150.068 64.7163 155.533 67.7641 160.192C68.966 162.307 70.7016 164.07 72.7977 165.304C74.8938 166.539 77.277 167.202 79.7096 167.228C80.0732 167.228 80.255 167.589 80.255 168.31C80.255 169.031 80.0732 169.392 79.7096 169.392C76.8652 169.37 74.0743 168.616 71.6062 167.202C69.1381 165.788 67.0759 163.762 65.6186 161.319C61.9604 156.089 60.0251 149.847 60.0823 143.465C60.0086 137.313 60.961 131.193 62.9005 125.355ZM101.673 81.3191C103.684 84.003 104.754 87.2747 104.719 90.6282C104.764 93.7703 104.212 96.8924 103.091 99.8282C101.943 102.676 100.026 105.15 97.555 106.974C94.9567 108.986 91.7503 110.054 88.4641 110.001C87.8389 110.031 87.2234 109.838 86.7277 109.455C86.3062 108.969 86.0402 108.367 85.9641 107.728C87.6226 107.672 89.249 107.255 90.7308 106.508C92.2126 105.761 93.5143 104.701 94.5459 103.401C98.1416 99.7706 100.169 94.8741 100.191 89.7645C100.196 87.6848 99.7911 85.6245 99.0005 83.7009C91.5902 89.9063 84.7033 96.7111 78.4095 104.046C72.9959 110.416 68.8405 117.755 66.1641 125.674C68.193 128.948 71.0746 131.608 74.5002 133.37C77.9257 135.132 81.766 135.928 85.6096 135.674C90.5739 135.789 95.481 134.594 99.8368 132.21C103.846 130.079 107.19 126.883 109.5 122.974C114.274 114.501 116.641 104.885 116.346 95.1645C116.346 92.4979 115.694 84.3827 114.391 70.8191L101.673 81.3191ZM97.3277 81.4282C96.081 80.1834 94.5854 79.216 92.9389 78.5894C91.2924 77.9627 89.532 77.6909 87.7732 77.7918C83.9168 77.7367 80.12 78.7464 76.8005 80.71C70.3468 84.9173 65.7275 91.4143 63.8732 98.8918C62.7238 102.479 62.141 106.224 62.1459 109.992C62.1022 114.024 62.8018 118.031 64.2096 121.81C71.9008 105.918 83.2506 92.0754 97.3277 81.4191V81.4282ZM119.146 54.3736C119.19 56.9784 119.372 59.579 119.691 62.1645C125.383 57.8096 129.226 51.4707 130.455 44.41C130.455 40.6585 129.079 38.7827 126.328 38.7827C121.552 38.7827 119.164 43.9766 119.164 54.3645L119.146 54.3736Z" fill="white"/>
<defs>
<linearGradient id="paint0_linear" x1="100" y1="0" x2="100" y2="200" gradientUnits="userSpaceOnUse">
<stop stop-color="#BF9E32"/>
<stop offset="1" stop-color="#9B7D1C"/>
</linearGradient>
</defs>
</svg>
