<svg xmlns="http://www.w3.org/2000/svg" width="32" height="32" fill="none" viewBox="0 0 32 32">
    <path fill="url(#paint0_linear)" d="M16 32c8.837 0 16-7.163 16-16S24.837 0 16 0 0 7.163 0 16s7.163 16 16 16z"/>
    <path stroke="#fff" stroke-width=".5" d="M16 31.75c8.698 0 15.75-7.052 15.75-15.75S24.698.25 16 .25.25 7.302.25 16 7.302 31.75 16 31.75z"/>
    <path fill="#fff" d="M22.171 15.4c.008.867-.205 1.72-.621 2.48-.446.77-1.106 1.394-1.9 1.795-.99.488-2.085.723-3.188.686h-2.349v5.578h-3.779V10.398h6.132c1.084-.033 2.16.186 3.144.642.805.382 1.476.999 1.924 1.77.436.792.656 1.686.637 2.59zm-5.993 1.95c.584.046 1.164-.136 1.616-.51.343-.4.532-.91.532-1.439 0-.527-.189-1.038-.532-1.44-.452-.372-1.032-.555-1.616-.508h-2.065v3.9l2.065-.003z"/>
    <path fill="#E50913" d="M22.171 6.46H10.328v2.5h11.843v-2.5z"/>
    <defs>
        <linearGradient id="paint0_linear" x1="16" x2="16" y1="0" y2="32" gradientUnits="userSpaceOnUse">
            <stop stop-color="#434343"/>
            <stop offset="1"/>
        </linearGradient>
    </defs>
</svg>
