<svg width="32" height="32" fill="none" xmlns="http://www.w3.org/2000/svg">
    <path d="M16 32c8.837 0 16-7.163 16-16S24.837 0 16 0 0 7.163 0 16s7.163 16 16 16z" fill="url(#a)"/>
    <path d="M16 31.75c8.698 0 15.75-7.052 15.75-15.75S24.698.25 16 .25.25 7.302.25 16 7.302 31.75 16 31.75z" stroke="#fff" stroke-width=".5"/>
    <g clip-path="url(#b)" fill="#fff">
        <path d="M16.1 11.95c-1.9 0-3.4 1.25-3.8 3.05h-1.65v1.3h1.55c.2 2.05 1.85 3.55 3.9 3.55 1.55 0 2.85-.6 3.4-1.65l-1.4-.9c-.35.6-1.15.95-2 .95-1.2 0-2.05-.75-2.25-1.95h7l.45-1.3h-1.6c-.25-1.75-1.75-3.05-3.6-3.05zM13.95 15c.3-1 1-1.6 2.05-1.6 1.05 0 1.8.65 1.9 1.6h-3.95zM13.568 24.352l-.503 1.728c-5.57-1.621-8.768-7.447-7.147-13.016l1.729.503c-1.342 4.609 1.312 9.443 5.92 10.785zm5.367-18.434-.503 1.728c4.608 1.342 7.263 6.176 5.92 10.785l1.73.503c1.62-5.569-1.578-11.395-7.147-13.016z"/>
    </g>
    <defs>
        <linearGradient id="a" x1="16" y1="0" x2="16" y2="32" gradientUnits="userSpaceOnUse">
            <stop stop-color="#04515B"/>
            <stop offset="1" stop-color="#012C32"/>
        </linearGradient>
        <clipPath id="b">
            <path fill="#fff" transform="translate(5 5)" d="M0 0h22v22H0z"/>
        </clipPath>
    </defs>
</svg>
