<svg width="32" height="32" fill="none" xmlns="http://www.w3.org/2000/svg">
    <path d="M16 32c8.837 0 16-7.163 16-16S24.837 0 16 0 0 7.163 0 16s7.163 16 16 16z" fill="url(#a)"/>
    <path d="M16 31.75c8.698 0 15.75-7.052 15.75-15.75S24.698.25 16 .25.25 7.302.25 16 7.302 31.75 16 31.75z" stroke="#fff" stroke-width=".5"/>
    <path d="M28.6 16c0 6.959-5.641 12.6-12.6 12.6S3.4 22.959 3.4 16 9.041 3.4 16 3.4 28.6 9.041 28.6 16z" stroke="#fff" stroke-width=".8"/>
    <path fill-rule="evenodd" clip-rule="evenodd" d="M16.46 10.502c0-.277-.2-.502-.447-.502s-.447.225-.447.502v11.583c0 .277.2.502.447.502s.447-.225.447-.502V10.502z" fill="#fff"/>
    <path fill-rule="evenodd" clip-rule="evenodd" d="M14.654 20.047c-.246 0-.446.225-.447.502 0 .277.2.502.446.502l2.678.003c.246 0 .446-.224.447-.501 0-.278-.2-.503-.447-.503l-2.677-.003zM12.447 13.489c-.246 0-.446.224-.447.501 0 .278.2.502.447.503 1.401 0 5.704.005 7.106.006.246 0 .446-.224.447-.5v-.001c0-.277-.2-.502-.447-.502l-7.106-.007z" fill="#fff"/>
    <path fill-rule="evenodd" clip-rule="evenodd" d="M13.92 10.947a.413.413 0 0 0-.632 0 .546.546 0 0 0 0 .71l4.807 5.387a.413.413 0 0 0 .631 0 .546.546 0 0 0 0-.71l-4.806-5.387z" fill="#fff"/>
    <path fill-rule="evenodd" clip-rule="evenodd" d="M13.296 16.346a.546.546 0 0 0 .001.71.413.413 0 0 0 .631-.001l4.793-5.403a.546.546 0 0 0-.001-.71.413.413 0 0 0-.632.002l-4.792 5.402z" fill="#fff"/>
    <defs>
        <linearGradient id="a" x1="16" y1="0" x2="16" y2="32" gradientUnits="userSpaceOnUse">
            <stop stop-color="#F0827D"/>
            <stop offset="1" stop-color="#E15B54"/>
        </linearGradient>
    </defs>
</svg>
