<svg xmlns="http://www.w3.org/2000/svg" xmlns:xlink="http://www.w3.org/1999/xlink" width="200" height="200" viewBox="0 0 200 200">
  <defs>
    <linearGradient id="linear-gradient" x1="0.193" y1="0.092" x2="0.824" y2="0.907" gradientUnits="objectBoundingBox">
      <stop offset="0" stop-color="#1870c8"/>
      <stop offset="0.493" stop-color="#6048d1"/>
      <stop offset="1" stop-color="#7d97ee"/>
    </linearGradient>
  </defs>
  <g id="그룹_1" data-name="그룹 1" transform="translate(-991 289)">
    <path id="패스_1" data-name="패스 1" d="M100,200A100,100,0,1,0,0,100,100,100,0,0,0,100,200Z" transform="translate(991 -289)" fill="url(#linear-gradient)"/>
    <path id="패스_2" data-name="패스 2" d="M105.073,125.742l-1.547.252h-.113c-.116.028-.229.028-.345.058l-.4.056c-20.268,3.321-37.417,3.752-52.384,1.347A66.869,66.869,0,0,1,35.256,123.5c-5.989-2.571-9.4-6.064-10.112-10.386C23.341,102.552,39,94.08,44.153,91.3,57.836,83.888,74.7,78.564,95.684,75.013s38.676-4.092,54.018-1.6c10.021,1.629,23.533,4.866,25.147,14.33s-10.074,16.977-19.009,21.815c-13.348,7.216-29.658,12.454-49.9,16l-.4.057c-.113.031-.229.031-.343.058C105.13,125.742,105.1,125.742,105.073,125.742Zm-1.748-.574h.055l1.577-.284h.027c.114-.031.23-.031.343-.058l.4-.058c20.125-3.526,36.356-8.732,49.639-15.917,20.271-10.965,18.977-18.465,18.581-20.926-1.66-9.963-18.778-12.741-24.389-13.627C134.3,71.835,116.725,72.351,95.827,75.9S58.181,84.747,44.554,92.1c-20.269,10.966-18.979,18.466-18.579,20.929,1.687,9.96,18.808,12.71,24.429,13.625,14.887,2.4,31.949,1.977,52.132-1.345l.4-.058c.114-.028.23-.028.343-.056Z" transform="translate(991 -289)" fill="#fff"/>
    <path id="패스_3" data-name="패스 3" d="M103.543,121.7c-.4.058-.831.143-1.287.2-.861.143-1.833.287-2.893.458l-.113.03c-.458.056-.944.144-1.461.2-.458.058-.944.144-1.458.2H96.24c-.771.113-1.6.2-2.433.315h-.113l-1.06.113c-.287.03-.6.058-.886.116h-.04c-6.5.715-12.683,1.146-18.35,1.231-10.306.141-18.581-.8-24.535-2.805-5.7-1.919-9.341-4.838-10.759-8.676a11.181,11.181,0,0,1-.544-2.033,11.7,11.7,0,0,1,2.2-8.814c2.75-3.949,7.958-7.73,15.489-11.193a147.189,147.189,0,0,1,26.509-8.789c6.669-1.632,12.023-2.6,14.63-3.022s8.071-1.287,14.828-1.974c7.442-.756,18.322-1.433,27.968-.486,8.273.8,14.458,2.662,18.352,5.553a11.636,11.636,0,0,1,4.866,7.555,11.089,11.089,0,0,1,.143,2.176h0c-.116,4.092-2.548,8.014-7.215,11.65-4.964,3.854-12.462,7.488-22.284,10.752-5.439,1.8-11.423,3.435-17.808,4.9a5.454,5.454,0,0,1-.657.143l-2.2.476c-.574.113-1.118.229-1.662.343l-.544.116c-.315.055-.6.113-.914.171s-.66.143-1.007.2l-.544.114c-1.061.2-2.033.372-2.892.544C104.382,121.554,103.951,121.64,103.543,121.7Zm-9.9.572h.144c.8-.086,1.6-.2,2.375-.315h.083c.489-.058.975-.144,1.461-.2s1.007-.144,1.461-.2l.113-.027c1.061-.174,2.015-.315,2.864-.431.917-.144,1.632-.252,2.549-.428.858-.144,1.831-.345,2.891-.544l.544-.116c.315-.058.657-.113.972-.2l.889-.174.544-.113c.544-.113,1.088-.229,1.66-.343l2.2-.488c.23-.056.431-.086.66-.144,6.374-1.43,12.318-3.09,17.73-4.873,9.734-3.234,17.148-6.812,22.014-10.62,4.465-3.483,6.785-7.178,6.9-11.014a9.581,9.581,0,0,0-.144-2.015A10.883,10.883,0,0,0,157,83.012c-3.778-2.77-9.789-4.609-17.919-5.382-9.59-.917-20.412-.252-27.8.486-6.754.66-12.167,1.511-14.771,1.947s-7.958,1.43-14.572,3.035a147.943,147.943,0,0,0-26.366,8.732c-7.387,3.418-12.472,7.082-15.144,10.917a10.949,10.949,0,0,0-2.063,8.188,10.343,10.343,0,0,0,.5,1.889c1.345,3.606,4.785,6.356,10.248,8.187,5.868,1.975,14.028,2.891,24.248,2.748,5.669-.086,11.824-.486,18.294-1.229h.055a8.58,8.58,0,0,0,.889-.116l1.03-.143Z" transform="translate(991 -289)" fill="#fff"/>
    <path id="패스_4" data-name="패스 4" d="M70.106,113.288l-.086-.028H69.94l.081.8c.252-.028.486-.028.756-.055a16.129,16.129,0,0,1,2.015-.033,22.764,22.764,0,0,1-2.685-.685Zm7.946,2.128h0Zm1.41-.756.1-.02Zm.317-.047h-.025v.047h.058ZM162.345,89.9a11.626,11.626,0,0,0-4.865-7.555c-3.894-2.891-10.074-4.752-18.353-5.556-9.645-.944-20.525-.252-27.955.489-6.757.685-12.2,1.511-14.828,1.975S88.373,80.661,81.7,82.286a147.709,147.709,0,0,0-26.509,8.789c-7.535,3.463-12.738,7.241-15.489,11.192a11.657,11.657,0,0,0-2.2,8.815,10.791,10.791,0,0,0,.373,1.534c.055.171.111.334.171.5.04.106.081.209.123.312,1.511,3.682,5.1,6.5,10.641,8.362,5.956,2.015,14.229,2.949,24.535,2.805h.171l.113-.141c1.486-1.571,3.085-3.2,4.684-4.583.033-.03.065-.056.1-.083l.886-.774H77.931c-7.644.073-13.8-.609-18.312-2.077h-.04l.053-.02a39.158,39.158,0,0,1,10.253-2.814H69.9a34.194,34.194,0,0,0,8.082,1.315,40.015,40.015,0,0,1-5.541-.685c-.33-.068-.655-.141-.972-.214l-.393-.113c-.38-.1-.756-.209-1.1-.32l-.086-.02h-.028a14.526,14.526,0,0,1-1.541-.572A44.9,44.9,0,0,0,58.3,116.59l-.934.4-.06.025,1.007.373c4.493,1.69,10.829,2.549,18.78,2.518-1.347,1.2-2.634,2.549-3.866,3.836-10.134.144-18.209-.8-24.046-2.748-5.271-1.762-8.653-4.382-10.094-7.807-.055-.126-.108-.252-.156-.388s-.1-.279-.149-.423a10.4,10.4,0,0,1-.365-1.466,10.941,10.941,0,0,1,2.06-8.187c2.649-3.833,7.732-7.5,15.118-10.9a147.806,147.806,0,0,1,26.366-8.732c6.614-1.6,11.968-2.6,14.572-3.035s8.016-1.287,14.773-1.947a150.413,150.413,0,0,1,27.8-.486c8.129.773,14.141,2.6,17.921,5.382a10.82,10.82,0,0,1,4.551,7.014,9.448,9.448,0,0,1,.144,2.015c-.114,3.836-2.433,7.528-6.9,11.021-4.837,3.778-12.2,7.357-21.842,10.563-1.6-.829-3.322-1.688-5.037-2.433,7.472-2.632,13.169-5.5,16.947-8.53l.831-.688h-.172l-.916-.05c-5.324-.343-9.3-.055-12.482.859l-.085.03-.086.055a35.8,35.8,0,0,1-7.158,3.778l-.4.144c-.773.314-1.6.629-2.433.914l-.516.174.015-.094c.033-.2.063-.4.086-.6a22.871,22.871,0,0,0,.186-3.46,4.4,4.4,0,0,0-.023-.549c-.022-.184-.02-.368-.035-.554s-.033-.373-.048-.562-.04-.375-.068-.562c-.033-.251-.07-.5-.113-.755s-.1-.5-.151-.756c-.023-.126-.051-.252-.078-.373a20.727,20.727,0,0,0-2.118-5.584,20.416,20.416,0,0,0-1.081-1.738c-.118-.171-.239-.345-.365-.5s-.211-.29-.322-.431-.237-.3-.358-.451a21.313,21.313,0,0,0-4.689-4.251,20.45,20.45,0,0,0-4.466-2.267,21.325,21.325,0,0,0-10.219-1.06,9.627,9.627,0,0,0-1.007.159h-.088a21.373,21.373,0,0,0-9.3,4.38,19.538,19.538,0,0,0-3.324,3.39l-.083.1a21.642,21.642,0,0,0-1.763,2.675c-.1.186-.2.375-.3.564-.081.149-.154.3-.227.456s-.126.252-.181.388a20.588,20.588,0,0,0-.756,1.919h0c-.061.176-.118.353-.176.529s-.106.35-.156.529c-.038.133-.078.272-.113.408a.124.124,0,0,1-.018.078,1.067,1.067,0,0,0-.038.136c-.033.118-.06.252-.088.365a.134.134,0,0,0,0,.043v.038c-.025.1-.043.191-.063.29s-.038.174-.055.252c-.038.184-.07.37-.1.557-.071.415-.131.828-.181,1.244-.015.141-.03.284-.043.428-.015.189-.03.378-.043.569a21.539,21.539,0,0,0,0,2.551c.018.34.043.683.081,1.025a.742.742,0,0,0,.023.222c.033.252.068.471.1.7a.305.305,0,0,0,.023.141.094.094,0,0,0,0,.027.882.882,0,0,0,.018.114.072.072,0,0,0,0,.027,1.223,1.223,0,0,0,.02.139c.015.1.033.2.05.3a21.556,21.556,0,0,0,.756,2.909A20.383,20.383,0,0,0,82.2,114.66h.018c.111.2.229.4.348.6l.126.2H82.55l-1.033.048h.048c.252,0,.481,0,.715-.015h.66l.756-.03-.4-.622c-.043-.068-.086-.136-.126-.209a19.431,19.431,0,0,1-1.821-3.942,19.807,19.807,0,0,1-.773-3.092c-.055-.371-.113-.716-.144-1.088-.023-.2-.043-.4-.058-.6a19.514,19.514,0,0,1,.232-5.21,20.13,20.13,0,0,1,3.868-8.883c.277-.353.567-.7.864-1.033a20.019,20.019,0,0,1,2.4-2.317,20.549,20.549,0,0,1,8.933-4.178l.083-.015.433-.073.5-.086a20.369,20.369,0,0,1,9.823,1.033,19.922,19.922,0,0,1,4.266,2.146,20.214,20.214,0,0,1,8.563,12.424c.055.345.141.688.2,1.061a20.065,20.065,0,0,1,.287,2.863,20.947,20.947,0,0,1-.391,4.47.946.946,0,0,1-.035.187l-.141.743.715-.229.3-.1c.32-.108.627-.219.934-.328.859-.287,1.663-.6,2.463-.916l.4-.144a37.775,37.775,0,0,0,7.271-3.835,35.837,35.837,0,0,1,11.051-.887l-.033.025c-3.838,2.881-9.495,5.594-16.8,8.074l-1.115.373h.012l1.076.426.09.035a60.21,60.21,0,0,1,6.092,2.874l.172.085H133c9.823-3.274,17.32-6.9,22.274-10.764,4.664-3.636,7.1-7.555,7.213-11.653a11.088,11.088,0,0,0-.144-2.176ZM79.78,114.613h-.025v.047h.058Zm-.219.047-.1.018Zm-.038.852h.045l.491.015h.385c-.335,0-.67-.02-.982-.035h-.345a.1.1,0,0,0-.043,0Zm-9.585-2.227.081.8c.252-.027.486-.027.756-.055A16.321,16.321,0,0,1,72.788,114a22.848,22.848,0,0,1-2.677-.685l-.086-.028Zm.166.028-.086-.028h-.081l.081.8c.252-.027.486-.027.756-.055A16.321,16.321,0,0,1,72.788,114a22.777,22.777,0,0,1-2.682-.71Zm9.359,1.347.1-.02Zm.317-.047h-.025v.047h.058Zm0,.007h-.025v.04h.058Zm-.317.04.1-.02Zm-9.356-1.372-.086-.028H69.94l.081.8c.252-.028.486-.028.756-.055a16.129,16.129,0,0,1,2.015-.033,22.764,22.764,0,0,1-2.685-.685Z" transform="translate(991 -289)" fill="#fff"/>
    <path id="패스_5" data-name="패스 5" d="M70.106,113.288l-.086-.028H69.94l.081.8c.252-.028.486-.028.756-.055a16.129,16.129,0,0,1,2.015-.033,22.764,22.764,0,0,1-2.685-.685Zm7.946,2.128h0Zm1.41-.756.1-.02Zm.317-.047h-.025v.047h.058ZM162.345,89.9a11.626,11.626,0,0,0-4.865-7.555c-3.894-2.891-10.074-4.752-18.353-5.556-9.645-.944-20.525-.252-27.955.489-6.757.685-12.2,1.511-14.828,1.975S88.373,80.661,81.7,82.286a147.709,147.709,0,0,0-26.509,8.789c-7.535,3.463-12.738,7.241-15.489,11.192a11.657,11.657,0,0,0-2.2,8.815,10.791,10.791,0,0,0,.373,1.534c.055.171.111.334.171.5.04.106.081.209.123.312,1.511,3.682,5.1,6.5,10.641,8.362,5.956,2.015,14.229,2.949,24.535,2.805h.171l.113-.141c1.486-1.571,3.085-3.2,4.684-4.583.033-.03.065-.056.1-.083l.886-.774H77.931c-7.644.073-13.8-.609-18.312-2.077h-.04l.053-.02a39.158,39.158,0,0,1,10.253-2.814H69.9a34.194,34.194,0,0,0,8.082,1.315,40.015,40.015,0,0,1-5.541-.685c-.33-.068-.655-.141-.972-.214l-.393-.113c-.38-.1-.756-.209-1.1-.32l-.086-.02h-.028a14.526,14.526,0,0,1-1.541-.572A44.9,44.9,0,0,0,58.3,116.59l-.934.4-.06.025,1.007.373c4.493,1.69,10.829,2.549,18.78,2.518-1.347,1.2-2.634,2.549-3.866,3.836-10.134.144-18.209-.8-24.046-2.748-5.271-1.762-8.653-4.382-10.094-7.807-.055-.126-.108-.252-.156-.388s-.1-.279-.149-.423a10.4,10.4,0,0,1-.365-1.466,10.941,10.941,0,0,1,2.06-8.187c2.649-3.833,7.732-7.5,15.118-10.9a147.806,147.806,0,0,1,26.366-8.732c6.614-1.6,11.968-2.6,14.572-3.035s8.016-1.287,14.773-1.947a150.413,150.413,0,0,1,27.8-.486c8.129.773,14.141,2.6,17.921,5.382a10.82,10.82,0,0,1,4.551,7.014,9.448,9.448,0,0,1,.144,2.015c-.114,3.836-2.433,7.528-6.9,11.021-4.837,3.778-12.2,7.357-21.842,10.563-1.6-.829-3.322-1.688-5.037-2.433,7.472-2.632,13.169-5.5,16.947-8.53l.831-.688h-.172l-.916-.05c-5.324-.343-9.3-.055-12.482.859l-.085.03-.086.055a35.8,35.8,0,0,1-7.158,3.778l-.4.144c-.773.314-1.6.629-2.433.914l-.516.174.015-.094c.033-.2.063-.4.086-.6a22.871,22.871,0,0,0,.186-3.46,4.4,4.4,0,0,0-.023-.549c-.022-.184-.02-.368-.035-.554s-.033-.373-.048-.562-.04-.375-.068-.562c-.033-.251-.07-.5-.113-.755s-.1-.5-.151-.756c-.023-.126-.051-.252-.078-.373a20.727,20.727,0,0,0-2.118-5.584,20.416,20.416,0,0,0-1.081-1.738c-.118-.171-.239-.345-.365-.5s-.211-.29-.322-.431-.237-.3-.358-.451a21.313,21.313,0,0,0-4.689-4.251,20.45,20.45,0,0,0-4.466-2.267,21.325,21.325,0,0,0-10.219-1.06,9.627,9.627,0,0,0-1.007.159h-.088a21.373,21.373,0,0,0-9.3,4.38,19.538,19.538,0,0,0-3.324,3.39l-.083.1a21.642,21.642,0,0,0-1.763,2.675c-.1.186-.2.375-.3.564-.081.149-.154.3-.227.456s-.126.252-.181.388a20.588,20.588,0,0,0-.756,1.919h0c-.061.176-.118.353-.176.529s-.106.35-.156.529c-.038.133-.078.272-.113.408a.124.124,0,0,1-.018.078,1.067,1.067,0,0,0-.038.136c-.033.118-.06.252-.088.365a.134.134,0,0,0,0,.043v.038c-.025.1-.043.191-.063.29s-.038.174-.055.252c-.038.184-.07.37-.1.557-.071.415-.131.828-.181,1.244-.015.141-.03.284-.043.428-.015.189-.03.378-.043.569a21.539,21.539,0,0,0,0,2.551c.018.34.043.683.081,1.025a.742.742,0,0,0,.023.222c.033.252.068.471.1.7a.305.305,0,0,0,.023.141.094.094,0,0,0,0,.027.882.882,0,0,0,.018.114.072.072,0,0,0,0,.027,1.223,1.223,0,0,0,.02.139c.015.1.033.2.05.3a21.556,21.556,0,0,0,.756,2.909A20.383,20.383,0,0,0,82.2,114.66h.018c.111.2.229.4.348.6l.126.2H82.55l-1.033.048h.048c.252,0,.481,0,.715-.015h.66l.756-.03-.4-.622c-.043-.068-.086-.136-.126-.209a19.431,19.431,0,0,1-1.821-3.942,19.807,19.807,0,0,1-.773-3.092c-.055-.371-.113-.716-.144-1.088-.023-.2-.043-.4-.058-.6a19.514,19.514,0,0,1,.232-5.21,20.13,20.13,0,0,1,3.868-8.883c.277-.353.567-.7.864-1.033a20.019,20.019,0,0,1,2.4-2.317,20.549,20.549,0,0,1,8.933-4.178l.083-.015.433-.073.5-.086a20.369,20.369,0,0,1,9.823,1.033,19.922,19.922,0,0,1,4.266,2.146,20.214,20.214,0,0,1,8.563,12.424c.055.345.141.688.2,1.061a20.065,20.065,0,0,1,.287,2.863,20.947,20.947,0,0,1-.391,4.47.946.946,0,0,1-.035.187l-.141.743.715-.229.3-.1c.32-.108.627-.219.934-.328.859-.287,1.663-.6,2.463-.916l.4-.144a37.775,37.775,0,0,0,7.271-3.835,35.837,35.837,0,0,1,11.051-.887l-.033.025c-3.838,2.881-9.495,5.594-16.8,8.074l-1.115.373h.012l1.076.426.09.035a60.21,60.21,0,0,1,6.092,2.874l.172.085H133c9.823-3.274,17.32-6.9,22.274-10.764,4.664-3.636,7.1-7.555,7.213-11.653a11.088,11.088,0,0,0-.144-2.176ZM79.78,114.613h-.025v.047h.058Zm-.219.047-.1.018Zm-.038.852h.045l.491.015h.385c-.335,0-.67-.02-.982-.035h-.345a.1.1,0,0,0-.043,0Zm-9.585-2.227.081.8c.252-.027.486-.027.756-.055A16.321,16.321,0,0,1,72.788,114a22.848,22.848,0,0,1-2.677-.685l-.086-.028Zm.166.028-.086-.028h-.081l.081.8c.252-.027.486-.027.756-.055A16.321,16.321,0,0,1,72.788,114a22.777,22.777,0,0,1-2.682-.71Zm9.359,1.347.1-.02Zm0,0,.1-.02Zm-9.356-1.372-.086-.028H69.94l.081.8c.252-.028.486-.028.756-.055a16.129,16.129,0,0,1,2.015-.033,22.764,22.764,0,0,1-2.685-.685Z" transform="translate(991 -289)" fill="#fff"/>
    <path id="패스_6" data-name="패스 6" d="M79.546,114.643l-.149.022h-.03c-.526-.015-1.045-.04-1.549-.07q-.962-.059-1.864-.151-1.511-.148-2.826-.4a23.728,23.728,0,0,1-3.052-.755l-.088-.03H69.9q-.824.09-1.677.252a46.5,46.5,0,0,0-9.822,3.022c-3.878-1.466-6.321-3.6-7.271-6.329-.053-.149-.1-.3-.144-.456s-.07-.267-.1-.4c-.038-.176-.068-.353-.1-.519a8.81,8.81,0,0,1,1.861-6.87l.113-.144c2.214-2.929,6.223-5.737,11.95-8.338a89.972,89.972,0,0,1,9.5-3.624c3.526-1.151,7.4-2.231,11.512-3.219,1.828-.436,3.5-.821,5.014-1.133.073-.018.149-.03.224-.045a20.331,20.331,0,0,0-3.722,2.433,19.579,19.579,0,0,0-3.352,3.433l-.053.066q-.413.531-.781,1.09a20.762,20.762,0,0,0-2.448,4.939h0c-.061.176-.118.353-.176.529s-.106.35-.156.529c-.023.078-.043.156-.063.237s-.033.116-.05.171,0,.053-.018.078a1.071,1.071,0,0,0-.038.136c-.033.118-.061.252-.088.365a.14.14,0,0,0,0,.043v.038c-.025.1-.043.191-.063.29s-.038.173-.055.252a.657.657,0,0,1-.02.09c-.033.146-.058.29-.083.436-.076.423-.133.849-.181,1.274-.015.141-.03.285-.043.428-.015.189-.03.378-.043.57a21.539,21.539,0,0,0,0,2.551c.02.34.045.68.083,1.02a.664.664,0,0,0,.02.2c.033.252.071.486.106.72a.74.74,0,0,0,.015.078c.015.118.033.232.05.348.04.251.086.5.141.755a.168.168,0,0,0,.013.076c.033.138.063.279.1.415.128.549.272,1.063.426,1.557.04.133.083.252.126.4l.166.471c.058.158.116.314.179.473.123.312.252.625.388.932.061.133.118.252.181.393s.123.252.189.383c.171.352.358.7.554,1.037.111.2.229.4.347.6l.126.2h-.141l-1.033.048h.048c.252,0,.481,0,.715-.015h.718l.743-.03-.368-.623c-.043-.068-.086-.136-.129-.209a19.519,19.519,0,0,1-1.869-3.921,19.844,19.844,0,0,1-.756-3.092c-.055-.371-.113-.716-.141-1.088-.028-.217-.05-.434-.068-.653a19.66,19.66,0,0,1,.252-5.158,20.13,20.13,0,0,1,3.873-8.875c.214-.272.433-.539.66-.8a20.188,20.188,0,0,1,11.542-6.727v-.015l-.139-.8V83.52c-.41.07-.909.161-1.491.267-2.206.406-5.568,1.07-9.57,2.015a119.223,119.223,0,0,0-21.155,6.9c-5.755,2.634-9.875,5.468-12.194,8.472l-.116.144A9.678,9.678,0,0,0,50,108.991q.045.266.106.5c.04.159.081.322.123.486.035.121.073.252.111.363.929,2.838,3.274,5.069,6.966,6.651a.381.381,0,0,0,.063.03c.3.129.612.252.934.373l.171.055.144-.055c.343-.144.68-.285,1.007-.418l.055-.02a39.148,39.148,0,0,1,10.227-2.821h.04c.363.113.74.219,1.131.32-.38-.1-.756-.209-1.1-.32l-.086-.02h-.028a14.517,14.517,0,0,1-1.541-.572c.554-.093,1.1-.171,1.627-.229l.081.8c.252-.028.486-.028.756-.055a16.127,16.127,0,0,1,2.015-.033,34.036,34.036,0,0,0,3.554.5c.5.048,1.007.086,1.539.119s1.033.053,1.564.07h.028l.1-.02.108-.015.083-.012v.045h.373c.466,0,.929.025,1.373.025h.718a.172.172,0,0,1-.018-.028H81.46c-.438,0-.9-.02-1.36-.025h-.191l-.083-.017h-.058Zm.038.924H79.6l.479.018h.385c-.335,0-.67-.02-.982-.036h-.325Zm-.043-.907.058.021Zm2.67.081h-.756c-.438,0-.9-.02-1.36-.025h-.186l-.083-.018h-.058v.023h.373c.466,0,.929.025,1.373.025h.718a.158.158,0,0,1-.015-.025Z" transform="translate(991 -289)" fill="#fff"/>
    <path id="패스_7" data-name="패스 7" d="M120.34,109.122l.143-.756a21.073,21.073,0,0,0,.429-4.666,19.439,19.439,0,0,0-.288-2.849c-.055-.373-.141-.715-.2-1.058a20.209,20.209,0,0,0-8.563-12.426,19.862,19.862,0,0,0-4.267-2.146,20.357,20.357,0,0,0-9.822-1.03l-.144-.831c1.947-.315,6.011-.944,11.164-1.43a124.725,124.725,0,0,1,22.014-.4h.058c6.412.574,11.28,1.919,14.514,4.009l.144.086a9.506,9.506,0,0,1,4.5,6.442,8.274,8.274,0,0,1,.113,1.143c.114,3.292-1.659,6.5-5.288,9.477l-.144.113h-.171c-5.1-.315-9.067-.058-12.167.831a37.835,37.835,0,0,1-7.271,3.836l-.4.143c-.8.315-1.6.63-2.463.917-.4.141-.8.285-1.232.428ZM103.585,83.3a21.773,21.773,0,0,1,4.281,1.06,20.444,20.444,0,0,1,4.465,2.267,21.319,21.319,0,0,1,6.813,7.387,20.61,20.61,0,0,1,2.113,5.578c.085.373.141.755.226,1.116a20.805,20.805,0,0,1,.287,2.979,22.266,22.266,0,0,1-.287,4.15l.517-.171c.831-.287,1.659-.6,2.432-.917l.4-.143a35.843,35.843,0,0,0,7.157-3.778l.086-.058.086-.03c3.15-.914,7.071-1.174,12.31-.859,3.322-2.77,4.954-5.7,4.838-8.673a7.083,7.083,0,0,0-.113-1.058,8.788,8.788,0,0,0-4.01-5.813l-.113-.086c-3.093-2.032-7.873-3.35-14.2-3.951h-.058a123.881,123.881,0,0,0-21.929.4C106.942,82.9,105.166,83.1,103.585,83.3Z" transform="translate(991 -289)" fill="#fff"/>
    <path id="패스_8" data-name="패스 8" d="M79.863,114.622v.025l.083-.017Zm2.388.028h-.756c-.438,0-.9-.02-1.36-.025l.043.027c.466,0,.929.025,1.373.025h.718a.144.144,0,0,1-.018-.03Zm-2.612-.061-.184.031H79.44c-.526-.018-1.038-.041-1.539-.073-.577-.031-1.133-.074-1.677-.129a32.864,32.864,0,0,1-3.261-.458h0a23,23,0,0,1-2.843-.716l-.088-.027h-.025l-.06-.02c-2.984-.993-5.012-2.5-6.032-4.508-.1-.189-.186-.386-.264-.587-.04-.1-.081-.2-.118-.31a6.785,6.785,0,0,1-.285-1.093,5.175,5.175,0,0,1,1.347-4.208,15.971,15.971,0,0,1,3.42-3.065,40.4,40.4,0,0,1,5.382-3.1,83.557,83.557,0,0,1,9.633-3.9l.063-.023q-.529.786-.982,1.614c-.1.186-.2.375-.3.564-.081.149-.154.3-.227.456s-.126.252-.181.388a20.6,20.6,0,0,0-.756,1.919h0c-.06.176-.118.353-.176.529s-.106.35-.156.529c-.038.133-.078.272-.113.408a.124.124,0,0,1-.018.078,1.07,1.07,0,0,0-.038.136c-.033.118-.06.252-.088.365a.139.139,0,0,0,0,.043v.038c-.025.1-.043.191-.063.29s-.053.234-.076.352-.058.29-.083.436c-.076.423-.133.849-.181,1.274-.015.141-.03.285-.043.428-.015.189-.03.378-.043.57a21.539,21.539,0,0,0,0,2.551c.02.34.045.68.083,1.02a.661.661,0,0,0,.02.2c.033.252.07.486.106.72a.766.766,0,0,0,.015.078c.015.118.033.232.05.348.04.251.086.5.141.755a.167.167,0,0,0,.013.076c.033.138.063.279.1.415.129.549.272,1.063.426,1.557.04.133.083.252.126.4l.166.471c.058.158.116.314.179.473.123.312.252.625.388.932.06.133.118.252.181.393s.123.252.189.383c.171.352.358.7.554,1.037.111.2.229.4.348.6l.126.2h-.141l-1.033.048h.048c.252,0,.481,0,.715-.015h.718l.743-.03-.337-.592a2.46,2.46,0,0,1-.146-.252,19.506,19.506,0,0,1-1.8-3.911,19.246,19.246,0,0,1-.773-3.091c-.058-.372-.116-.715-.144-1.087a19.806,19.806,0,0,1,.171-5.813,20.13,20.13,0,0,1,3.893-8.875l.632-.829.2-.252-.08.025-1.237.4-.2.068h-.03a.088.088,0,0,0-.071.023q-3.022,1.007-5.677,2.048-2.77,1.091-5.1,2.231c-4.352,2.09-7.445,4.239-9.132,6.384a6.068,6.068,0,0,0-1.511,4.9,8.451,8.451,0,0,0,.252.947,6.551,6.551,0,0,0,.219.627c.035.086.07.172.108.252a9.559,9.559,0,0,0,5.256,4.765l.04.018.065.027c.554-.093,1.1-.171,1.627-.229l.081.8c.252-.028.486-.028.756-.055a16.128,16.128,0,0,1,2.015-.033,34.3,34.3,0,0,0,3.553.5c.5.048,1.007.085,1.539.118s1.033.053,1.564.071h.028l.1-.021.108-.015.083-.012Zm2.7.063a.17.17,0,0,1-.018-.027h-.756c-.438,0-.9-.021-1.36-.026l.043.028c.466,0,.929.025,1.373.025Zm-2.405-.037.083-.018h-.083Zm-.252.843h.013l.479.018h.385c-.335,0-.67-.02-.982-.035h-.385Zm2.571-.811h-.756c-.438,0-.9-.02-1.36-.025H79.8v.025h.373c.466,0,.929.025,1.373.025h.718a.123.123,0,0,1-.018-.025Z" transform="translate(991 -289)" fill="#fff"/>
    <path id="패스_9" data-name="패스 9" d="M120.365,109.105l.144-.756a21.075,21.075,0,0,0,.428-4.667,19.575,19.575,0,0,0-.287-2.848c-.056-.373-.141-.715-.2-1.058a20.209,20.209,0,0,0-8.563-12.426l-1.146-.773,1.375-.028a96.885,96.885,0,0,1,11.651.5c4.81.572,8.416,1.544,10.766,2.977a5.905,5.905,0,0,1,3.148,4.065,8.231,8.231,0,0,1,.086,1.66c-.144,2.77-1.919,5.382-5.269,7.76l-.085.055a37.306,37.306,0,0,1-7.244,3.808l-.4.143c-.8.315-1.6.63-2.46.917-.4.144-.8.287-1.232.428Zm-6.933-21.727a21.107,21.107,0,0,1,5.724,6.614,20.554,20.554,0,0,1,2.126,5.583c.086.373.141.755.227,1.115a21.111,21.111,0,0,1,.287,2.98,22.438,22.438,0,0,1-.287,4.15l.516-.171c.831-.287,1.66-.6,2.433-.917l.4-.143a35.93,35.93,0,0,0,7.158-3.778l.085-.058c3.065-2.2,4.7-4.581,4.811-7.052a6.326,6.326,0,0,0-.086-1.461,5.214,5.214,0,0,0-2.743-3.458c-2.234-1.345-5.727-2.289-10.421-2.861a91.524,91.524,0,0,0-10.23-.544Z" transform="translate(991 -289)" fill="#fff"/>
    <path id="패스_10" data-name="패스 10" d="M82.212,114.687h-.756c-.438,0-.9-.021-1.36-.026l.043.028c.466,0,.929.025,1.373.025h.718a.176.176,0,0,1-.018-.027Zm1.529.793-.338-.592a2.358,2.358,0,0,1-.146-.252,19.506,19.506,0,0,1-1.8-3.911,19.245,19.245,0,0,1-.773-3.09c-.058-.373-.116-.715-.144-1.088l-.086-.688-.078.053-.486.315-.3.2h-.018a14.148,14.148,0,0,0-2.05,1.672,4.389,4.389,0,0,0-1.551,3.145v.146a2.626,2.626,0,0,0,.116.716c.02.078.045.156.071.231a4.189,4.189,0,0,0,.828,1.406,5.623,5.623,0,0,0,.841.778.224.224,0,0,0,.04.028.216.216,0,0,1,.033.03q.756.045,1.564.07h.023l-.058-.027-.053-.028-.055-.028-.113-.085h-.03c-.086-.046-.169-.1-.252-.146A5.118,5.118,0,0,1,77.369,113a3.047,3.047,0,0,1-.5-1.065c-.013-.073-.028-.156-.038-.252s-.033-.222-.05-.332a3.518,3.518,0,0,1,1.29-2.635,12.243,12.243,0,0,1,1.639-1.387h0c.005.05.009.1.013.151a.1.1,0,0,0,0,.027.9.9,0,0,0,.018.114.077.077,0,0,0,0,.027.779.779,0,0,0,.02.111c.04.252.086.5.141.756a.161.161,0,0,0,.013.075c.033.139.063.28.1.416.129.549.272,1.063.426,1.556.04.134.083.252.126.4l.166.471c.058.159.116.315.179.474.123.312.252.624.388.932.061.133.118.251.181.392s.123.252.189.383c.171.353.358.7.554,1.038.111.2.229.395.348.6l.126.2h-.141l-1.033.048h.048c.252,0,.481,0,.715-.016H83l.743-.03Zm-1.511-.756a.176.176,0,0,1-.018-.027h-.756c-.438,0-.9-.02-1.36-.025l.043.027c.466,0,.929.025,1.373.025Zm-.018-.027h-.756c-.438,0-.9-.02-1.36-.025h-.191l-.083.017h.315c.466,0,.929.025,1.373.025h.718a.162.162,0,0,1-.015-.027Z" transform="translate(991 -289)" fill="#fff"/>
    <path id="패스_11" data-name="패스 11" d="M120.322,109.114l.143-.756a21.015,21.015,0,0,0,.428-4.667,19.3,19.3,0,0,0-.287-2.848c-.055-.373-.141-.715-.2-1.058l-.143-.687.687.171a14.468,14.468,0,0,1,2.69.917,4.391,4.391,0,0,1,2.72,2.689c.03.144.058.287.086.459a4.847,4.847,0,0,1-1.575,4.1l-.057.055-.086.03c-.8.315-1.6.63-2.461.917-.4.141-.8.285-1.231.428Zm1.057-8.845.086.428a20.819,20.819,0,0,1,.287,2.979,22.362,22.362,0,0,1-.287,4.151l.516-.172c.8-.287,1.574-.574,2.347-.889a4.141,4.141,0,0,0,1.29-3.319c-.03-.116-.03-.229-.058-.373-.2-.8-.972-1.511-2.267-2.118a13.105,13.105,0,0,0-1.914-.687Z" transform="translate(991 -289)" fill="#fff"/>
    <path id="패스_12" data-name="패스 12" d="M138.176,117.136c-1.29-.544-2.836-1.345-4.468-2.176l-.944-.486.4-.755.945.488c1.632.829,3.15,1.632,4.409,2.146Z" transform="translate(991 -289)" fill="#fff"/>
    <path id="패스_13" data-name="패스 13" d="M125.214,107.28l-.544-.657a21.217,21.217,0,0,1,7.155-3.836,2.593,2.593,0,0,0,.252-.088l.2.831c-.056.028-.144.028-.2.058A20.6,20.6,0,0,0,125.214,107.28Z" transform="translate(991 -289)" fill="#fff"/>
    <path id="패스_14" data-name="패스 14" d="M163.615,104.676c-2.519-.143-5.382-.486-8.563-.916l-.252-.028c-3.35-.4-6.815-.831-10.22-1.06l.045-.852c3.438.2,6.9.63,10.278,1.061l.252.027c3.176.4,6.012.756,8.53.887Z" transform="translate(991 -289)" fill="#fff"/>
    <path id="패스_15" data-name="패스 15" d="M122.428,108.329l-.688-.5c1.461-1.889,2.72-3.377,3.921-4.694,3.665-3.98,7.274-6.44,11.366-7.757l.086-.03a68.455,68.455,0,0,1,12.512-2.576c4.15-.5,8.386-.828,12.451-1.116l.431-.028c4.15-.3,8.039-.587,11.766-1.073l.113.859c-3.75.486-7.671.773-11.821,1.06l-.431.028c-4.065.287-8.273.6-12.424,1.116a66.843,66.843,0,0,0-12.368,2.549l-.085.028c-3.922,1.259-7.415,3.664-10.994,7.53C125.118,104.979,123.888,106.468,122.428,108.329Z" transform="translate(991 -289)" fill="#fff"/>
    <path id="패스_16" data-name="패스 16" d="M121.705,103.939l-.723-.458c.774-1.2,1.461-2.234,2.118-3.148,3.436-4.785,6.843-8.016,10.792-10.192l.058-.028a.6.6,0,0,0,.144-.088,62.3,62.3,0,0,1,11.051-4.533h.027c3.75-1.174,7.5-2.118,12-3.234l.252-.058c3.694-.914,7.185-1.763,10.507-2.77l.252.8c-3.32,1.007-6.841,1.889-10.535,2.806l-.252.058c-4.483,1.133-8.233,2.065-11.98,3.239h-.028A60.841,60.841,0,0,0,134.476,90.8c-.058.03-.085.058-.115.058l-.056.028C130.5,93,127.148,96.152,123.8,100.847,123.166,101.736,122.478,102.766,121.705,103.939Z" transform="translate(991 -289)" fill="#fff"/>
    <path id="패스_17" data-name="패스 17" d="M119.139,94.4l-.743-.431a33.489,33.489,0,0,1,4.551-6.326c.144-.144.287-.315.431-.458a39.48,39.48,0,0,1,7.213-5.669l.086-.055c2.606-1.662,5.412-3.151,8.273-4.667l.43-.229c2.32-1.232,4.534-2.377,6.548-3.551l.431.756c-2.063,1.2-4.266,2.347-6.586,3.579l-.428.229c-2.894,1.511-5.7,3-8.311,4.667l-.085.055a37.033,37.033,0,0,0-7,5.488l-.428.428a38.293,38.293,0,0,0-4.383,6.185Z" transform="translate(991 -289)" fill="#fff"/>
    <path id="패스_18" data-name="패스 18" d="M108.113,84.922l-.8-.315c.315-.773.688-1.546,1.144-2.518.773-1.574,1.632-3.151,2.435-4.609l.285-.489c.718-1.315,1.488-2.662,2.148-3.979l.771.378c-.66,1.317-1.433,2.692-2.149,4.009l-.284.486c-.8,1.461-1.662,3-2.435,4.581C108.768,83.405,108.4,84.179,108.113,84.922Z" transform="translate(991 -289)" fill="#fff"/>
    <path id="패스_19" data-name="패스 19" d="M87.2,88.46c-.572-.66-1.2-1.289-1.889-1.977-1.174-1.174-2.405-2.267-3.778-3.491l-.378-.317c-1.2-1.085-2.35-2.088-3.435-3.148l.607-.609c1.06,1.033,2.2,2.063,3.408,3.12l.373.315c1.373,1.231,2.6,2.35,3.808,3.526.685.685,1.315,1.345,1.916,2.015Z" transform="translate(991 -289)" fill="#fff"/>
    <path id="패스_20" data-name="패스 20" d="M132.35,103.534a37.661,37.661,0,0,1-7.271,3.835l-.4.144c-.8.315-1.6.629-2.463.917-.307.108-.615.219-.934.327l-.295.1-.715.229.141-.743c.012-.063.027-.123.035-.186-.882.292-1.839.584-2.869.9-1.831.544-3.808,1.058-5.983,1.574s-4.438,1.008-6.785,1.431q-1.587.3-2.834.5c-.8.114-1.775.288-2.863.459-2.461.4-4.667.715-6.755.944-2.234.252-4.352.459-6.357.572-.914.053-1.851.081-2.75.1h-.1c.04.073.083.141.126.209l.4.622h.058c.534-.015,1.065-.037,1.589-.063l.8-.042c2.015-.116,4.15-.315,6.379-.572,2.09-.229,4.294-.544,6.785-.947.461-.058.9-.126,1.32-.194l.723-.121.252-.045c.2-.03.385-.066.561-.1.831-.144,1.8-.315,2.864-.516,2.375-.431,4.666-.917,6.842-1.431.97-.226,1.9-.458,2.788-.7h.048c1.116-.295,2.176-.6,3.2-.9,1.115-.315,2.148-.657,3.12-.972.086-.03.171-.058.252-.091.335-.111.657-.224.977-.34.859-.287,1.66-.6,2.461-.916l.4-.144a37.68,37.68,0,0,0,7.27-3.836,35.688,35.688,0,0,1,10.988-.889l.033-.025A35.977,35.977,0,0,0,132.35,103.534ZM79.6,114.638l-.184.03H79.4c-.526-.018-1.038-.04-1.539-.073-.577-.03-1.133-.073-1.677-.129a32.28,32.28,0,0,1-3.261-.458h0a23.174,23.174,0,0,1-2.843-.715l-.088-.028H69.9c-.534.061-1.078.134-1.634.229a44.973,44.973,0,0,0-10.013,3.09l-.939.4-.063.03.065.025.924.35c4.725,1.763,11.421,2.632,19.924,2.519h.161c2.473-.033,5.14-.144,7.885-.343l.486-.027c.171-.028.373-.028.572-.058l.229-.028c1.146-.086,2.267-.171,3.35-.287.66-.056,1.289-.141,1.889-.2l1.231-.144c.544-.058,1.088-.143,1.6-.2l.144-.028q2.576-.3,4.979-.687c.858-.114,1.576-.23,2.176-.343s1.347-.229,2.062-.4c1.688-.315,3.35-.66,5.009-1.033.572-.113,1.146-.229,1.746-.37l1.173-.287c.544-.144,1.088-.252,1.663-.4,1.03-.229,2.09-.516,3.175-.8l.66-.173c.252-.056.486-.141.743-.2l.088-.03c2.592-.733,5.1-1.494,7.447-2.282l.109-.035h.03c8.026-2.723,14.071-5.73,18-8.946l.774-.637.055-.051-1.088-.055c-5.324-.345-9.3-.058-12.482.859l-.085.027-.086.058a35.791,35.791,0,0,1-7.157,3.778l-.4.144c-.773.314-1.6.629-2.433.916l-.385.136h-.013l-.8.285-.224.081c-.882.292-1.839.584-2.869.9-1.831.544-3.808,1.058-5.983,1.574s-4.438,1.008-6.785,1.431q-1.587.3-2.834.5c-.8.114-1.775.287-2.863.459-2.461.4-4.667.715-6.755.944-2.234.252-4.352.459-6.357.572-.914.053-1.851.08-2.75.1h-.348c-.234,0-.461.02-.69.025h-.768c-.438,0-.9-.02-1.36-.025h-.33v.061h.373c.466,0,.929.025,1.373.025h.718a.178.178,0,0,1-.018-.028h.018c.111.2.229.395.347.6l.126.2h1.045c.534-.015,1.065-.038,1.589-.063l.8-.043c2.015-.116,4.15-.315,6.379-.572,2.09-.229,4.294-.544,6.785-.946.461-.058.9-.126,1.319-.194l.723-.121.252-.046c.2-.03.385-.065.562-.1.831-.144,1.8-.315,2.863-.517,2.375-.43,4.667-.916,6.843-1.43.969-.227,1.9-.458,2.788-.7h.048c1.115-.294,2.176-.6,3.2-.9,1.116-.315,2.148-.658,3.121-.972.085-.031.171-.058.251-.091.335-.111.658-.224.978-.34.858-.287,1.659-.6,2.46-.917l.4-.143a37.773,37.773,0,0,0,7.271-3.836,35.685,35.685,0,0,1,10.988-.889h.063c-3.838,2.891-9.477,5.581-16.806,8.072h-.028l-1.133.377c-2.04.668-4.178,1.31-6.4,1.914l-.085.028c-.252.058-.486.144-.756.2l-.8.2c-1.03.287-2.06.544-3.035.773-.571.143-1.115.252-1.659.4l-1.174.287c-.6.114-1.173.252-1.745.373-1.662.343-3.322.688-4.982,1.007-.8.141-1.511.252-2.148.371s-1.317.229-2.146.345c-1.576.229-3.274.486-4.953.687l-.144.028c-.5.086-1.058.143-1.6.2l-1.231.141c-.6.086-1.231.144-1.861.2-1.088.086-2.2.2-3.322.287l-.2.028c-.2.027-.373.027-.572.058l-.489.027c-2.483.179-4.881.287-7.145.33l-.871.015h-.2c-7.629.073-13.779-.607-18.284-2.07l-.043-.012h-.023a38.921,38.921,0,0,1,10.275-2.826h-.028a14.526,14.526,0,0,1-1.541-.572c.554-.093,1.1-.171,1.627-.229l.081.8c.252-.028.486-.028.756-.056a16.322,16.322,0,0,1,2.015-.032,34.036,34.036,0,0,0,3.554.5c.5.048,1.007.086,1.539.119s1.033.053,1.564.07h.028l.1-.02.108-.015.083-.013" transform="translate(991 -289)" fill="#fff"/>
    <path id="패스_21" data-name="패스 21" d="M79.907,100.99a33.351,33.351,0,0,0-6.241-4.281l-.688-.342A39.922,39.922,0,0,0,64.416,93.5c-2.919-.688-5.984-1.146-9.1-1.632l-.5-.086c-2.607-.4-5.067-.773-7.445-1.231l.174-.831c2.375.458,4.838.831,7.414,1.231l.5.086c3.151.489,6.213.944,9.162,1.632a41.018,41.018,0,0,1,8.732,2.921l.688.342a32.888,32.888,0,0,1,6.414,4.41Z" transform="translate(991 -289)" fill="#fff"/>
    <path id="패스_22" data-name="패스 22" d="M80.714,111.195c-1.146-.889-2.2-1.69-3.234-2.4A34.48,34.48,0,0,0,64.4,102.72l-.287-.058a51.688,51.688,0,0,0-11.681-.685H52.4c-4.15.141-8.475.572-12.282.945h-.086c-3.949.4-7.671.773-11.134.914l-.03-.859c3.435-.141,7.157-.5,11.081-.914h.086c3.808-.373,8.132-.8,12.31-.945h.03a51.566,51.566,0,0,1,11.88.716l.287.055a35.236,35.236,0,0,1,13.4,6.213c1.033.756,2.121,1.511,3.274,2.433Z" transform="translate(991 -289)" fill="#fff"/>
    <path id="패스_23" data-name="패스 23" d="M81.76,114.743h-.252c-.443,0-.907-.02-1.373-.025l-.043-.028c-.985-.622-1.881-1.153-2.732-1.629-.38-.212-.756-.416-1.116-.607-.035-.018-.065-.035-.1-.05a28.03,28.03,0,0,0-12.288-3.652c-.181,0-.368-.013-.551-.015h-.36a57.975,57.975,0,0,0-11.837,1.458l-.431.088-.348.076c-3.871.828-7.772,1.911-11.27,2.883l-.471.129-.421.11c-4.067,1.146-7.9,2.207-11.482,2.95L26.5,115.6c3.526-.74,7.349-1.791,11.366-2.931l.058-.016.428-.115.4-.109c3.511-.974,7.452-2.055,11.333-2.926l.38-.086.39-.083a58.632,58.632,0,0,1,11.759-1.488h.846A28.125,28.125,0,0,1,75.937,111.3l.665.348.191.1c1.451.775,3.042,1.738,4.916,2.959Z" transform="translate(991 -289)" fill="#fff"/>
    <path id="패스_24" data-name="패스 24" d="M79.651,114.672l-.108.015-.1.02h-.028q-.8-.025-1.564-.071c-.526-.032-1.04-.07-1.539-.118l-.171-.04c-.075-.02-.151-.036-.227-.051a18.064,18.064,0,0,0-2.826-.4h0l-.2-.013h-.121a16.519,16.519,0,0,0-2.015.033c-.252.028-.486.028-.756.056l-.081-.8v-.058a7.14,7.14,0,0,1,.773-.056,19.056,19.056,0,0,1,6.253.61q.954.252,1.939.589l.252.088H79.2l.086.058.234.091.058.02a.284.284,0,0,0,.076.02Z" transform="translate(991 -289)" fill="#fff"/>
    <path id="패스_25" data-name="패스 25" d="M41.345,125.461l-.317-.773c2.463-1.033,5.037-2.292,7.759-3.637l.2-.086c3.022-1.488,6.153-3.022,9.3-4.352l.315.773c-3.12,1.318-6.241,2.834-9.248,4.325l-.2.113C46.412,123.169,43.833,124.428,41.345,125.461Z" transform="translate(991 -289)" fill="#fff"/>
    <path id="패스_26" data-name="패스 26" d="M103.6,121.678c-.4.058-.831.144-1.287.2-.862.144-1.834.287-2.894.458l-.252.031-1.317.171c-.458.058-.944.143-1.458.2h-.1c-.771.116-1.6.2-2.433.317H93.78l-1.058.113a191.868,191.868,0,0,1-19.314,1.318l-1.007.027.688-.755a67.386,67.386,0,0,1,4.838-4.725l.113-.113h.144c2.833-.03,5.9-.174,9.066-.431l.229-.028c1.146-.085,2.267-.2,3.322-.287.657-.058,1.317-.143,1.947-.2l1.146-.143c.544-.058,1.058-.116,1.544-.2l.174-.027c1.718-.2,3.377-.459,4.951-.688q1.247-.174,2.148-.342c.63-.116,1.345-.23,2.146-.373,1.66-.315,3.322-.66,4.981-1.008.572-.115,1.146-.251,1.746-.372l1.289-.315c.517-.113,1.03-.229,1.547-.373q1.458-.342,3-.773l.8-.2c2.919-.8,5.725-1.632,8.329-2.518l.174-.031.113.031c2.118.828,4.266,1.916,6.271,2.946l.914.459-.959.332A194.451,194.451,0,0,1,114.23,119.5l-1.718.373c-.63.143-1.231.252-1.8.373l-.544.113-.917.171c-.315.058-.657.144-.972.2l-.544.113c-1.06.2-2.032.373-2.891.544A6.365,6.365,0,0,1,103.6,121.678Zm-9.905.572h.113c.8-.086,1.6-.2,2.377-.315h.086c.486-.058.975-.144,1.43-.2s.917-.116,1.317-.174l.229-.027q1.59-.258,2.863-.429a11.213,11.213,0,0,1,1.287-.2c.4-.058.831-.144,1.259-.229.859-.144,1.831-.343,2.892-.544l.544-.114c.314-.058.629-.115.972-.2.287-.058.6-.113.889-.171l.544-.116c.572-.114,1.173-.252,1.8-.37l1.687-.373c6.385-1.433,12.369-3.022,17.778-4.785-1.659-.859-3.4-1.688-5.122-2.375-2.577.859-5.355,1.717-8.246,2.491l-.66.171c-1.088.287-2.145.574-3.175.8-.517.116-1.033.252-1.547.372l-1.317.315c-.6.144-1.173.252-1.745.373-1.662.373-3.35.715-5.012,1.03-.8.144-1.511.287-2.146.373s-1.317.229-2.176.342q-2.407.389-4.981.688l-.171.03c-.516.055-1.03.113-1.574.2l-1.146.144c-.63.058-1.289.143-1.974.2-1.088.113-2.206.2-3.35.285l-.229.03c-3.151.229-6.155.37-8.961.428-1.347,1.174-2.692,2.518-3.951,3.836,5.639-.114,11.766-.572,18.209-1.318l1.2-.171Z" transform="translate(991 -289)" fill="#fff"/>
    <path id="패스_27" data-name="패스 27" d="M69.456,128.747l-.572-.632c1.03-.915,2.231-2.2,3.491-3.549l.718-.773.63.6-.715.755C71.718,126.513,70.517,127.8,69.456,128.747Z" transform="translate(991 -289)" fill="#fff"/>
    <path id="패스_28" data-name="패스 28" d="M121.253,108.006l-.378.771,5.629,2.759.378-.771Z" transform="translate(991 -289)" fill="#fff"/>
    <path id="패스_29" data-name="패스 29" d="M82.626,115.5l-.03.028c-.282.274-2.2,2.145-3.526,3.47a.317.317,0,0,1-.043.043l-.458.461-.627-.433.058-.056.058-.058a39.612,39.612,0,0,1,3.491-3.407l1.033-.048Z" transform="translate(991 -289)" fill="#fff"/>
    <path id="패스_30" data-name="패스 30" d="M82.949,115.466h-.393l-1.033.047H80.46c-.335,0-.67-.02-.982-.035h-.345a.153.153,0,0,0-.043,0h-.723a.83.83,0,0,1-.141,0H78a40.015,40.015,0,0,1-5.541-.685c-.33-.068-.655-.141-.972-.214l-.393-.169c-.38-.1-.756-.209-1.1-.319l-.086-.021h-.028a14.309,14.309,0,0,1-1.541-.571c.554-.093,1.1-.172,1.627-.229l.081.8c.252-.027.486-.027.756-.055a16.519,16.519,0,0,1,2.015-.033,34.311,34.311,0,0,0,3.554.5c.5.048,1.007.086,1.539.118s1.033.053,1.564.071H79.5l.1-.02.108-.015.083-.013v.035h.373c.466,0,.929.025,1.373.025h.718a.134.134,0,0,1-.018-.027h.018c.111.2.229.395.348.6l.126.2Z" transform="translate(991 -289)" fill="#fff"/>
    <path id="패스_31" data-name="패스 31" d="M121.583,107.181c-.03.2-.06.4-.1.607-.045.251-.1.518-.154.778l-.04.179-.012.04v.018l-.23.078c-1.118.372-2.213.7-3.135.979-1.007.3-2.068.59-3.211.884h-.048q-1.314.34-2.77.685c-2.458.592-4.738,1.04-6.833,1.436-.884.169-1.8.33-2.868.516l-.58.1-.252.046-.722.121c-.411.063-.859.128-1.32.191-2.423.393-4.649.7-6.8.944-2.2.252-4.357.441-6.4.577l-.756.043c-.524.025-1.055.048-1.589.063H82.7l-.126-.2c-.118-.2-.237-.4-.347-.6-.2-.347-.383-.693-.554-1.038-.066-.128-.128-.251-.189-.382s-.121-.252-.181-.393c-.144-.313-.272-.622-.388-.932-.063-.159-.121-.315-.179-.474s-.116-.34-.171-.5l-.121-.358c-.154-.5-.3-1.007-.426-1.556-.033-.136-.063-.277-.1-.416a.152.152,0,0,0-.013-.075c-.033-.144-.063-.287-.091-.436s-.048-.239-.071-.363l-.058-.378-.116-.755c0-.055-.013-.108-.018-.164a20.806,20.806,0,0,1,.191-5.906,21.018,21.018,0,0,1,3.241-8.084c.252-.393.534-.773.821-1.148a22.767,22.767,0,0,1,3.38-3.493,21.322,21.322,0,0,1,7.943-4.07q.667-.181,1.352-.315l1.043-.176A21.069,21.069,0,0,1,117,90.906c.121.149.252.3.358.451s.219.287.322.431.252.343.365.5q.534.786,1.008,1.617a21.355,21.355,0,0,1,2.13,5.558c.056.176.109.348.149.519a6.682,6.682,0,0,1,.146.7.3.3,0,0,1,0,.042q.064.378.113.756.042.279.068.561c.018.189.033.376.048.562s.025.365.036.554.015.335.022.5v.043A19.4,19.4,0,0,1,121.583,107.181Z" transform="translate(991 -289)" fill="#fff"/>
  </g>
</svg>
