<svg width="200" height="200" viewBox="0 0 200 200" fill="none" xmlns="http://www.w3.org/2000/svg">
<path d="M100 200C155.228 200 200 155.228 200 100C200 44.7715 155.228 0 100 0C44.7715 0 0 44.7715 0 100C0 155.228 44.7715 200 100 200Z" fill="url(#paint0_linear_1368_28053)"/>
<path d="M54.9538 59.6409C55.6876 58.6961 56.4653 57.791 57.2431 56.8814C57.2782 56.8375 57.3573 56.8287 57.3925 56.7847C57.4628 56.6968 57.577 56.6397 57.6473 56.5518L57.7176 56.464C58.2581 55.9499 58.8337 55.3918 59.5016 54.9041C61.7205 53.141 64.2086 51.7464 66.8705 50.7737C75.1313 47.8121 84.3236 49.64 91.5343 56.6002C101.597 66.2451 100.696 81.7913 92.6635 92.1217C82.5045 107.518 65.0557 129.005 89.2186 148.251C93.5643 151.714 96.7852 154.566 110.468 158.608C101.522 160.295 93.2216 159.772 83.9853 157.36C77.4513 153.586 67.178 145.514 63.6848 134.608C58.3987 118.073 72.9826 93.352 80.0306 83.8345C89.7063 70.6524 74.0503 56.3937 62.5247 72.3177C56.4961 80.6137 45.9592 104.1 49.6194 121.518C51.7593 131.396 54.6154 138.598 65.9345 148.489C63.7991 147.196 61.7568 145.756 59.8224 144.178C33.5196 119.132 36.5735 80.4028 54.9538 59.6409V59.6409Z" fill="url(#paint1_linear_1368_28053)"/>
<path d="M144.484 138.694C143.75 139.639 142.972 140.544 142.194 141.454C142.159 141.498 142.08 141.506 142.045 141.55C141.975 141.638 141.86 141.695 141.79 141.783L141.72 141.871C141.179 142.385 140.604 142.943 139.936 143.431C137.717 145.194 135.229 146.589 132.567 147.561C124.306 150.523 115.114 148.695 107.903 141.735C97.8408 132.09 98.7416 116.544 106.774 106.213C116.929 90.8165 134.382 69.3296 110.219 50.0837C105.873 46.6212 102.652 43.7694 88.9648 39.7269C97.9155 38.0396 106.216 38.5625 115.452 40.9748C121.986 44.7493 132.259 52.8212 135.753 63.7272C141.039 80.262 126.455 104.983 119.407 114.5C109.731 127.683 125.387 141.941 136.913 126.017C142.941 117.721 153.478 94.2351 149.818 76.8171C147.674 66.9393 144.822 59.7374 133.503 49.8464C135.599 51.1119 137.638 52.5488 139.615 54.157C165.913 79.2031 162.864 117.932 144.484 138.694V138.694Z" fill="url(#paint2_linear_1368_28053)"/>
<defs>
<linearGradient id="paint0_linear_1368_28053" x1="100" y1="0" x2="100" y2="200" gradientUnits="userSpaceOnUse">
<stop stop-color="#174C6A"/>
<stop offset="1" stop-color="#0C131A"/>
</linearGradient>
<linearGradient id="paint1_linear_1368_28053" x1="40.6248" y1="99.1741" x2="158.812" y2="99.1741" gradientUnits="userSpaceOnUse">
<stop stop-color="#0082FA"/>
<stop offset="1" stop-color="#00F2FE"/>
</linearGradient>
<linearGradient id="paint2_linear_1368_28053" x1="40.6259" y1="99.1608" x2="158.813" y2="99.1608" gradientUnits="userSpaceOnUse">
<stop stop-color="#0082FA"/>
<stop offset="1" stop-color="#00F2FE"/>
</linearGradient>
</defs>
</svg>
