<svg width="32" height="32" fill="none" xmlns="http://www.w3.org/2000/svg">
    <path d="M16 32c8.837 0 16-7.163 16-16S24.837 0 16 0 0 7.163 0 16s7.163 16 16 16z" fill="url(#a)"/>
    <path d="M16 31.75c8.698 0 15.75-7.052 15.75-15.75S24.698.25 16 .25.25 7.302.25 16 7.302 31.75 16 31.75z" stroke="#fff" stroke-width=".5"/>
    <path d="M23.33 18.968h-.105c-.263.315-.63.525-.998.683h-.053c-.314.157-.682.21-1.05.21-.524.052-1.05-.105-1.575-.315h-.104a3.032 3.032 0 0 1-1.103-1.05v-.105l-.997.997s-.21.998-.263 1.523h.052c.998 1.102 2.468 1.785 3.99 1.785h.158c.997 0 1.942-.263 2.835-.735.473-.263.892-.525 1.313-.893h.052l-2.152-2.1zM9.156 13.98l.42 1.522.105-.104c.42-.63 1.103-1.103 1.838-1.208h.052a4.08 4.08 0 0 1 .84-.105c.42.052.84.157 1.208.367.525.263.945.63 1.312 1.103l.105.105.945-1.365.263-1.418-.105-.104a5.966 5.966 0 0 0-2.153-1.26c-.42-.158-.892-.21-1.365-.263h-.052c-1.05 0-2.048.262-2.94.787l-.42 1.785-.053.158z" fill="#fff"/>
    <path d="M18.132 17.918v-.945c0-.682.21-1.312.63-1.837h.052l.158-.21a2.973 2.973 0 0 1 2.152-.893h.42c.63.105 1.26.42 1.733.84h-.053l2.048-2.047h-.105c-.998-.998-2.363-1.628-3.78-1.68h-.42c-.84 0-1.68.157-2.52.472-.525.21-.998.578-1.365.945h-.105l-.42.473-.315 1.417-1.103 1.47v1.05a2.942 2.942 0 0 1-1.732 2.678c-1.575.682-3.36-.053-4.043-1.628-.157-.315-.21-.683-.262-1.05v-.997l-.525-2.1.472-1.943V8.888l-2.94-.997.105 6.772v2.363c0 .105 0 .157.053.262h.052c.105 1.68.893 3.203 2.205 4.2a6.18 6.18 0 0 0 3.78 1.26h.263c1.365 0 2.73-.525 3.727-1.418l.42-.472.315-1.68 1.103-1.26z" fill="#fff"/>
    <defs>
        <linearGradient id="a" x1="16" y1="0" x2="16" y2="32" gradientUnits="userSpaceOnUse">
            <stop stop-color="#00CC95"/>
            <stop offset="1" stop-color="#009D73"/>
        </linearGradient>
    </defs>
</svg>
