<svg xmlns="http://www.w3.org/2000/svg" width="32" height="32" fill="none" viewBox="0 0 32 32">
    <path fill="url(#paint0_linear)" d="M16 32c8.837 0 16-7.163 16-16S24.837 0 16 0 0 7.163 0 16s7.163 16 16 16z"/>
    <path stroke="#fff" stroke-width=".5" d="M16 31.75c8.698 0 15.75-7.052 15.75-15.75S24.698.25 16 .25.25 7.302.25 16 7.302 31.75 16 31.75z"/>
    <path fill="#fff" d="M12.057 6.2l10.446 18.05 3.478-6.018L19.019 6.2h-6.962z"/>
    <path fill="#fff" fill-opacity=".83" d="M12.057 18.576l3.613 5.673h6.839l-3.23-5.673h-7.222z"/>
    <path fill="#fff" d="M8.964 11.873l-3.61 6.189 3.613 6.188 7.216-12.377h-7.22z"/>
    <defs>
        <linearGradient id="paint0_linear" x1="16" x2="16" y1="0" y2="32" gradientUnits="userSpaceOnUse">
            <stop stop-color="#ED3324"/>
            <stop offset="1" stop-color="#AD1F23"/>
        </linearGradient>
    </defs>
</svg>
