<svg width="32" height="32" viewBox="0 0 32 32" fill="none" xmlns="http://www.w3.org/2000/svg">
    <path d="M31.75 16c0 8.698-7.052 15.75-15.75 15.75S.25 24.698.25 16 7.302.25 16 .25 31.75 7.302 31.75 16z" fill="url(#s9xs8vkmfa)" stroke="#fff" stroke-width=".5"/>
    <path d="M28 16c0 6.627-5.373 12-12 12S4 22.627 4 16 9.373 4 16 4s12 5.373 12 12z" fill="#fff"/>
    <path d="M28 16c0 6.627-5.373 12-12 12S4 22.627 4 16 9.373 4 16 4s12 5.373 12 12z" fill="#fff"/>
    <path fill-rule="evenodd" clip-rule="evenodd" d="M16 27.368c6.279 0 11.368-5.09 11.368-11.368 0-6.279-5.09-11.368-11.368-11.368C9.721 4.632 4.632 9.722 4.632 16c0 6.279 5.09 11.368 11.368 11.368zM16 28c6.627 0 12-5.373 12-12S22.627 4 16 4 4 9.373 4 16s5.373 12 12 12z" fill="#000"/>
    <path d="M26.105 16c0 5.58-4.524 10.105-10.105 10.105S5.895 21.581 5.895 16 10.419 5.895 16 5.895c5.58 0 10.105 4.524 10.105 10.105z" fill="#000"/>
    <path d="M16 7.47a8.526 8.526 0 1 0-.001 17.054 8.526 8.526 0 0 0 0-17.053m-2.452 7.5-1.31 1.308h1.31v1.417a1.837 1.837 0 0 1-3.673 0v-3.4a1.836 1.836 0 1 1 3.673 0v.674zm8.577 1.308v1.417a1.836 1.836 0 1 1-3.673 0v-3.4a1.837 1.837 0 0 1 3.673 0v.674l-1.31 1.31h1.31z" fill="#fff"/>
    <defs>
        <linearGradient id="s9xs8vkmfa" x1="16" y1="0" x2="16" y2="32" gradientUnits="userSpaceOnUse">
            <stop stop-color="#EDEDED"/>
            <stop offset="1" stop-color="#E5E5E5"/>
        </linearGradient>
    </defs>
</svg>
