<svg width="32" height="32" viewBox="0 0 32 32" fill="none" xmlns="http://www.w3.org/2000/svg">
<path d="M16 32C24.8366 32 32 24.8366 32 16C32 7.16344 24.8366 0 16 0C7.16344 0 0 7.16344 0 16C0 24.8366 7.16344 32 16 32Z" fill="url(#paint0_linear_956_15897)"/>
<path d="M16 31.75C24.6985 31.75 31.75 24.6985 31.75 16C31.75 7.30152 24.6985 0.25 16 0.25C7.30152 0.25 0.25 7.30152 0.25 16C0.25 24.6985 7.30152 31.75 16 31.75Z" stroke="white" stroke-width="0.5"/>
<path d="M18.2608 13.9224L18.2994 13.1045L15.7765 11.5384L13.2846 13.1045L13.3771 14.7556H20.3516L19.935 21.5372H11.6567L11.4252 17.7645H13.5623L13.6626 19.4078H17.9214L18.0834 16.8927H11.3712L11.0703 11.9704L15.7765 9.00781L20.5136 11.9704L20.3902 13.9224H18.2608Z" fill="white"/>
<path d="M24.1137 9.49877L16.3985 4.66909C16.2243 4.55864 16.0223 4.5 15.816 4.5C15.6098 4.5 15.4077 4.55864 15.2335 4.66909L7.51841 9.49877C7.35105 9.60696 7.21515 9.75735 7.1244 9.93478C7.03365 10.1122 6.99126 10.3104 7.0015 10.5094L7.85016 24.4584C7.86776 24.7395 7.99149 25.0035 8.19631 25.1968C8.40113 25.3902 8.67175 25.4985 8.95343 25.5H22.6864C22.9666 25.5025 23.2372 25.3975 23.4424 25.2067C23.6476 25.0158 23.7719 24.7535 23.7896 24.4738L24.6383 10.494C24.6507 10.2959 24.6083 10.0983 24.5158 9.92269C24.4232 9.74712 24.2841 9.60045 24.1137 9.49877ZM22.2852 23.386C22.2792 23.5293 22.218 23.6647 22.1145 23.7639C22.011 23.8631 21.8731 23.9185 21.7297 23.9184H9.87153C9.7279 23.9167 9.59015 23.861 9.48577 23.7624C9.38138 23.6637 9.31802 23.5293 9.30832 23.386L8.55224 10.9878C8.54664 10.8862 8.56795 10.7849 8.614 10.6941C8.66006 10.6034 8.72923 10.5264 8.81455 10.4709L15.4881 6.28156C15.5797 6.22485 15.6852 6.1948 15.7929 6.1948C15.9006 6.1948 16.0061 6.22485 16.0976 6.28156L22.7789 10.4632C22.8654 10.5156 22.9357 10.5909 22.982 10.6807C23.0283 10.7706 23.0488 10.8715 23.0413 10.9724L22.2852 23.386Z" fill="white"/>
<defs>
<linearGradient id="paint0_linear_956_15897" x1="16" y1="0" x2="16" y2="32" gradientUnits="userSpaceOnUse">
<stop stop-color="#E0A84A"/>
<stop offset="1" stop-color="#C58723"/>
</linearGradient>
</defs>
</svg>
