<svg width="32" height="32" viewBox="0 0 32 32" fill="none" xmlns="http://www.w3.org/2000/svg">
    <path d="M16 32c8.837 0 16-7.163 16-16S24.837 0 16 0 0 7.163 0 16s7.163 16 16 16z" fill="url(#a)"/>
    <path d="M16 31.75c8.698 0 15.75-7.052 15.75-15.75S24.698.25 16 .25.25 7.302.25 16 7.302 31.75 16 31.75z" stroke="#fff" stroke-width=".5"/>
    <path fill-rule="evenodd" clip-rule="evenodd" d="M17.18 24.24c4.133 0 7.483-3.344 7.483-7.469 0-4.124-3.35-7.468-7.484-7.468-4.133 0-7.484 3.344-7.484 7.468 0 4.125 3.351 7.47 7.484 7.47zm3.187-9.604a.873.873 0 0 0 .867-.865.873.873 0 0 0-.867-.865.873.873 0 0 0-.867.865c0 .472.394.865.867.865zm2.208 3.55c0 .603-.5 1.101-1.103 1.101a1.108 1.108 0 0 1-1.103-1.1c0-.603.499-1.101 1.103-1.101s1.103.498 1.103 1.1z" fill="#376CB7"/>
    <path d="M24.898 17.059c.473-.131.84-.55.84-1.075 0-.524-.34-.943-.84-1.074-.315-2.7-1.864-5.032-4.044-6.42l.368-.394c.131.053.289.08.446.08.604 0 1.103-.499 1.103-1.102 0-.602-.499-1.074-1.129-1.074s-1.103.498-1.103 1.1c0 .21.053.394.158.577l-.473.498a8.837 8.837 0 0 0-4.149-1.022c-4.884 0-8.876 3.983-8.876 8.858 0 4.874 3.992 8.857 8.876 8.857a8.836 8.836 0 0 0 4.15-1.022l.472.472a.968.968 0 0 0-.158.55c0 .603.5 1.1 1.103 1.1.604 0 1.103-.497 1.103-1.1 0-.602-.499-1.1-1.103-1.1a.865.865 0 0 0-.446.104l-.368-.366c2.18-1.442 3.729-3.748 4.07-6.447zm-.682-2.097c-.42.158-.71.55-.71 1.022s.29.865.683 1.022a8.114 8.114 0 0 1-3.86 5.923l-6.118-6.394c.078-.157.13-.34.13-.55a.968.968 0 0 0-.157-.55l6.145-6.421a8.12 8.12 0 0 1 3.887 5.948zm-8.14 9.172c-4.518 0-8.194-3.668-8.194-8.176 0-4.507 3.676-8.176 8.193-8.176a8.14 8.14 0 0 1 3.65.865l-6.04 6.315c-.026 0-.052-.026-.078-.026v-3.459c.446-.157.735-.55.735-1.048 0-.603-.499-1.1-1.103-1.1s-1.103.497-1.103 1.1c0 .498.341.917.788 1.048v3.433a1.1 1.1 0 0 0-.788 1.048c0 .498.341.917.788 1.048v3.407c-.447.131-.788.55-.788 1.049 0 .602.499 1.1 1.103 1.1s1.103-.498 1.103-1.1a1.14 1.14 0 0 0-.735-1.049v-3.38c.026 0 .052-.027.078-.027l6.014 6.29c-1.077.55-2.31.838-3.624.838z" fill="#fff"/>
    <defs>
        <linearGradient id="a" x1="16" y1="0" x2="16" y2="32" gradientUnits="userSpaceOnUse">
            <stop stop-color="#2C4A91"/>
            <stop offset="1" stop-color="#040D21"/>
        </linearGradient>
    </defs>
</svg>
