<svg width="200" height="200" viewBox="0 0 200 200" fill="none" xmlns="http://www.w3.org/2000/svg">
<circle cx="100" cy="100" r="100" fill="white"/>
<path fill-rule="evenodd" clip-rule="evenodd" d="M0 100C0 73.4784 10.5357 48.043 29.2893 29.2893C48.043 10.5357 73.4784 0 100 0C126.522 0 151.957 10.5357 170.711 29.2893C189.464 48.043 200 73.4784 200 100C200 126.522 189.464 151.957 170.711 170.711C151.957 189.464 126.522 200 100 200C73.4784 200 48.043 189.464 29.2893 170.711C10.5357 151.957 0 126.522 0 100ZM83.2947 72.0632H55.3579C51.6532 72.0632 48.1003 70.5915 45.4807 67.9719C42.8611 65.3523 41.3895 61.7994 41.3895 58.0947C41.3895 54.3901 42.8611 50.8372 45.4807 48.2176C48.1003 45.598 51.6532 44.1263 55.3579 44.1263H99.779C99.9614 44.1236 100.144 44.1236 100.326 44.1263H144.768C148.473 44.1263 152.026 45.598 154.646 48.2176C157.265 50.8372 158.737 54.3901 158.737 58.0947C158.737 61.7994 157.265 65.3523 154.646 67.9719C152.026 70.5915 148.473 72.0632 144.768 72.0632H116.821V113.968C116.821 114.389 116.4 114.642 116.011 114.495C114.647 114.001 113.184 113.842 111.747 114.034C110.309 114.225 108.939 114.76 107.752 115.594C106.565 116.427 105.597 117.535 104.929 118.822C104.261 120.11 103.914 121.539 103.916 122.989V124.495C103.916 125.411 104.053 126.295 104.305 127.126C104.737 128.558 104.211 130.284 102.747 130.516C100.47 130.882 98.1413 130.778 95.9053 130.211C94.1158 129.758 94.1579 127.316 95.4526 126C97.0514 124.368 98.1116 122.285 98.4905 120.031C98.8693 117.778 98.5486 115.463 97.5715 113.397C96.5944 111.332 95.0078 109.615 93.0255 108.479C91.0432 107.343 88.7603 106.841 86.4842 107.042C84.9158 107.168 83.2947 106.084 83.2947 104.505V72.0632ZM112.621 127.937C113.171 127.937 113.716 127.828 114.224 127.618C114.733 127.407 115.194 127.099 115.583 126.71C115.972 126.321 116.281 125.859 116.492 125.351C116.702 124.842 116.811 124.298 116.811 123.747C116.811 123.197 116.702 122.652 116.492 122.144C116.281 121.636 115.972 121.174 115.583 120.785C115.194 120.396 114.733 120.087 114.224 119.877C113.716 119.666 113.171 119.558 112.621 119.558C111.51 119.558 110.444 119.999 109.659 120.785C108.873 121.571 108.432 122.636 108.432 123.747C108.432 124.858 108.873 125.924 109.659 126.71C110.444 127.495 111.51 127.937 112.621 127.937ZM105.2 139.211C105.2 140.76 105.816 142.246 106.911 143.342C108.007 144.437 109.493 145.053 111.042 145.053C112.592 145.053 114.077 144.437 115.173 143.342C116.269 142.246 116.884 140.76 116.884 139.211C116.884 137.661 116.269 136.175 115.173 135.08C114.077 133.984 112.592 133.368 111.042 133.368C109.493 133.368 108.007 133.984 106.911 135.08C105.816 136.175 105.2 137.661 105.2 139.211ZM108.695 156.158C108.695 157.243 109.126 158.283 109.893 159.05C110.659 159.817 111.7 160.247 112.784 160.247C113.869 160.247 114.909 159.817 115.676 159.05C116.443 158.283 116.874 157.243 116.874 156.158C116.874 155.073 116.443 154.033 115.676 153.266C114.909 152.499 113.869 152.068 112.784 152.068C111.7 152.068 110.659 152.499 109.893 153.266C109.126 154.033 108.695 155.073 108.695 156.158ZM105.189 150.084C105.189 151.229 104.735 152.327 103.925 153.136C103.116 153.945 102.018 154.4 100.874 154.4C99.7291 154.4 98.6313 153.945 97.822 153.136C97.0126 152.327 96.5579 151.229 96.5579 150.084C96.5579 148.94 97.0126 147.842 97.822 147.032C98.6313 146.223 99.7291 145.768 100.874 145.768C102.018 145.768 103.116 146.223 103.925 147.032C104.735 147.842 105.189 148.94 105.189 150.084ZM98.7684 172.632C97.0655 172.632 95.4322 171.955 94.2281 170.751C93.0239 169.547 92.3474 167.914 92.3474 166.211C92.3474 164.508 93.0239 162.874 94.2281 161.67C95.4322 160.466 97.0655 159.789 98.7684 159.789C100.471 159.789 102.105 160.466 103.309 161.67C104.513 162.874 105.189 164.508 105.189 166.211C105.189 167.914 104.513 169.547 103.309 170.751C102.105 171.955 100.471 172.632 98.7684 172.632ZM79.0316 141.095C79.0316 143.264 79.8933 145.344 81.4271 146.878C82.961 148.412 85.0413 149.274 87.2105 149.274C89.3797 149.274 91.4601 148.412 92.9939 146.878C94.5278 145.344 95.3895 143.264 95.3895 141.095C95.3895 138.926 94.5278 136.845 92.9939 135.311C91.4601 133.778 89.3797 132.916 87.2105 132.916C85.0413 132.916 82.961 133.778 81.4271 135.311C79.8933 136.845 79.0316 138.926 79.0316 141.095ZM87.4842 112.568C86.0018 112.568 84.5801 113.157 83.5319 114.206C82.4836 115.254 81.8947 116.675 81.8947 118.158C81.8947 119.64 82.4836 121.062 83.5319 122.11C84.5801 123.158 86.0018 123.747 87.4842 123.747C88.9666 123.747 90.3883 123.158 91.4366 122.11C92.4848 121.062 93.0737 119.64 93.0737 118.158C93.0737 116.675 92.4848 115.254 91.4366 114.206C90.3883 113.157 88.9666 112.568 87.4842 112.568Z" fill="url(#paint0_linear_3498_63396)"/>
<defs>
<linearGradient id="paint0_linear_3498_63396" x1="200" y1="200" x2="78.8" y2="-39.821" gradientUnits="userSpaceOnUse">
<stop stop-color="#71399F"/>
<stop offset="0.11" stop-color="#71399F"/>
<stop offset="0.8" stop-color="#EC096D"/>
<stop offset="1" stop-color="#EC096D"/>
</linearGradient>
</defs>
</svg>
