<svg xmlns="http://www.w3.org/2000/svg" width="32" height="32" fill="none" viewBox="0 0 32 32">
    <path fill="url(#paint0_linear)" stroke="#fff" stroke-width=".5" d="M31.75 16c0 8.698-7.052 15.75-15.75 15.75S.25 24.698.25 16 7.302.25 16 .25 31.75 7.302 31.75 16z"/>
    <path fill="#fff" d="M10.063 20.056c-.398-.782-.595-1.65-.573-2.528-.015-.825.14-1.644.452-2.407.252-.616.59-1.193 1.002-1.714.368-.436.824-.79 1.339-1.038.523-.264 1.1-.4 1.685-.399.734-.037 1.453.219 1.999.71l2.28-1.904c-.045-.396-.069-.795-.07-1.194 0-2.563.679-3.845 2.034-3.845.155-.007.31.022.452.085.142.063.267.159.366.28.206.268.322.596.33.934-.002.597-.19 1.178-.538 1.663-.459.668-.996 1.278-1.6 1.818.28 1.615.459 3.246.538 4.883.002.842-.11 1.68-.33 2.493-.212.779-.553 1.516-1.008 2.182-.47.672-1.112 1.204-1.86 1.54-.862.386-1.8.575-2.745.555-.647.04-1.293-.076-1.884-.342-.59-.265-1.107-.67-1.505-1.181-.219.805-.324 1.638-.313 2.472-.014.891.24 1.765.727 2.51.193.34.47.621.806.819.335.197.716.303 1.105.308.059 0 .088.057.088.173 0 .115-.03.173-.088.173-.455-.004-.901-.124-1.296-.35-.395-.227-.725-.551-.958-.942-.585-.837-.895-1.835-.886-2.857-.012-.984.14-1.963.451-2.897zm6.204-7.046c.321.43.493.953.487 1.49.007.502-.081 1.002-.26 1.472-.184.455-.49.851-.886 1.143-.416.322-.929.493-1.455.484-.1.005-.198-.026-.278-.087-.067-.078-.11-.174-.122-.276.265-.01.526-.076.763-.196.237-.12.445-.289.61-.497.576-.58.9-1.364.903-2.181.001-.333-.063-.663-.19-.97-1.186.992-2.288 2.08-3.295 3.255-.866 1.019-1.53 2.193-1.959 3.46.325.524.786.95 1.334 1.231.548.282 1.162.41 1.777.369.795.018 1.58-.173 2.277-.554.641-.341 1.176-.853 1.546-1.478.764-1.356 1.143-2.894 1.095-4.45 0-.426-.104-1.725-.313-3.895l-2.034 1.68zm-.696.018c-.2-.2-.438-.354-.702-.455-.263-.1-.545-.143-.826-.127-.617-.009-1.225.153-1.756.467-1.033.673-1.772 1.712-2.068 2.909-.184.574-.278 1.173-.277 1.776-.007.645.105 1.286.33 1.89 1.231-2.542 3.047-4.757 5.3-6.462v.002zm3.491-4.33c.007.418.037.834.087 1.247.911-.696 1.526-1.71 1.723-2.84 0-.6-.22-.9-.66-.9-.765 0-1.147.83-1.147 2.492l-.003.002z"/>
    <defs>
        <linearGradient id="paint0_linear" x1="16" x2="16" y1="0" y2="32" gradientUnits="userSpaceOnUse">
            <stop stop-color="#BF9E32"/>
            <stop offset="1" stop-color="#9B7D1C"/>
        </linearGradient>
    </defs>
</svg>
