<svg width="200" height="200" viewBox="0 0 200 200" fill="none" xmlns="http://www.w3.org/2000/svg">
<path d="M100 200C155.228 200 200 155.228 200 100C200 44.7715 155.228 0 100 0C44.7715 0 0 44.7715 0 100C0 155.228 44.7715 200 100 200Z" fill="url(#paint0_linear_157_1494)"/>
<path d="M64.0347 37.3919V87.5698C64.0347 89.2672 65.6472 90.6463 67.3445 90.6463C69.0419 90.6463 70.6543 89.2672 70.6543 87.5698V39.9591C73.7096 39.4287 77.1467 39.1529 80.499 39.1529C112.706 39.1529 139.079 63.3189 141.964 95.3352C142.113 97.0325 143.577 98.2843 145.253 98.1146C146.95 97.9661 148.181 96.4809 148.011 94.7835C146.505 77.9586 138.782 62.3642 126.285 50.907C113.725 39.3651 97.3876 33 80.3292 33C75.7252 33 71.0362 33.4668 66.5595 34.3791C65.1379 34.6761 64.0347 35.9279 64.0347 37.3919Z" fill="white"/>
<path d="M81.9429 165.651C81.9429 165.715 81.9429 165.8 81.9429 165.863C82.0702 167.561 83.5341 168.834 85.2315 168.707C101.335 167.561 116.569 160.644 128.09 149.272C139.61 137.9 146.697 122.772 148.033 106.711C148.182 105.013 146.93 103.528 145.233 103.38C143.535 103.231 142.05 104.483 141.902 106.18C139.377 136.181 114.829 160.432 84.7859 162.575C83.1947 162.702 81.9429 164.06 81.9429 165.651Z" fill="white"/>
<path d="M77.2898 49.4197V99.2582C77.2898 100.956 78.6477 102.335 80.345 102.335C82.0424 102.335 83.4003 100.956 83.4003 99.2582V52.6023C108.351 54.1935 128.783 75.2619 128.783 100.934C128.783 112.476 124.667 123.636 117.178 132.399C116.074 133.693 116.223 135.624 117.517 136.727C118.811 137.83 120.742 137.682 121.845 136.388C130.29 126.522 134.915 113.94 134.915 100.934C134.915 86.3583 129.229 72.6522 118.917 62.3408C108.606 52.0294 94.8998 46.3433 80.3238 46.3433C78.6689 46.3433 77.2898 47.7224 77.2898 49.4197Z" fill="#99D7FD"/>
<path d="M81.9429 138.602C81.9429 138.729 81.9429 138.856 81.9641 138.983C82.1763 140.66 83.7039 141.869 85.38 141.657C105.897 139.132 121.364 121.628 121.364 100.942C121.364 92.4336 118.775 84.2651 113.895 77.3272C109.122 70.559 102.502 65.4245 94.7791 62.5178C93.8455 62.1571 92.7211 62.2844 91.8936 62.8573C91.0661 63.4301 90.5145 64.3849 90.5145 65.3821V108.792C90.5145 110.489 91.8724 111.868 93.5697 111.868C95.2671 111.868 96.625 110.489 96.625 108.792V70.1771C107.827 76.1815 115.147 88.0417 115.147 100.942C115.147 118.53 102.035 133.403 84.6162 135.546C83.0462 135.758 81.9429 137.074 81.9429 138.602Z" fill="white"/>
<path d="M67.1501 98.1337C71.099 98.1337 74.3002 94.9325 74.3002 90.9836C74.3002 87.0347 71.099 83.8335 67.1501 83.8335C63.2012 83.8335 60 87.0347 60 90.9836C60 94.9325 63.2012 98.1337 67.1501 98.1337Z" fill="white"/>
<path d="M81.9575 172.696C85.9063 172.696 89.1075 169.494 89.1075 165.546C89.1075 161.597 85.9063 158.395 81.9575 158.395C78.0086 158.395 74.8074 161.597 74.8074 165.546C74.8074 169.494 78.0086 172.696 81.9575 172.696Z" fill="white"/>
<defs>
<linearGradient id="paint0_linear_157_1494" x1="100" y1="0" x2="100" y2="200" gradientUnits="userSpaceOnUse">
<stop stop-color="#2C4A91"/>
<stop offset="1" stop-color="#040D21"/>
</linearGradient>
</defs>
</svg>
