<svg xmlns="http://www.w3.org/2000/svg" width="32" height="32" viewBox="0 0 32 32">
    <defs>
        <linearGradient id="ppfqladm6a" x1=".5" x2=".5" y2="1" gradientUnits="objectBoundingBox">
            <stop offset="0" stop-color="#2634a6"/>
            <stop offset="1" stop-color="#142083"/>
        </linearGradient>
    </defs>
    <g>
        <g>
            <g fill="url(#ppfqladm6a)" stroke="#fff" stroke-width="0.5px">
                <circle cx="16" cy="16" r="16" stroke="none"/>
                <circle cx="16" cy="16" r="15.75" fill="none"/>
            </g>
        </g>
    </g>
    <path fill="#fff" fill-rule="evenodd" d="M37.019 24.351l-.1.277-.334.887-.221.572c-1.681 4.288-2.989 6.323-4.379 6.323a2.494 2.494 0 0 1-1.889-.8l-.177-.166c-.442-.42-.628-.523-1.053-.523-.221 0-.618.292-1.119.975a17.482 17.482 0 0 0-1.7 3.129l-.057.129h5.964l-.743 1.587h-5.57v6.518H24V24.351zM34.7 25.939h-9.063v6.3c1.086-1.94 2.117-2.914 3.227-2.914a2.656 2.656 0 0 1 2.013.833l.183.171c.412.392.571.482.923.482.389.002 1.417-1.683 2.717-4.872z" transform="translate(-13.689 -17.057)"/>
</svg>
