<svg width="200" height="200" viewBox="0 0 200 200" fill="none" xmlns="http://www.w3.org/2000/svg">
<path d="M100 200C155.228 200 200 155.228 200 100C200 44.7715 155.228 0 100 0C44.7715 0 0 44.7715 0 100C0 155.228 44.7715 200 100 200Z" fill="url(#paint0_linear_1554_36459)"/>
<path d="M84.7356 59.0933C60.9721 68.2155 58.7952 91.5774 51.9813 102.488C45.0866 113.528 29.2912 119.62 31.4512 125.246C33.6111 130.872 49.4253 124.829 61.9367 128.419C74.2998 131.966 91.5496 147.872 115.313 138.75C127.419 134.103 136.185 124.538 140.216 113.209C140.649 111.993 139.839 110.693 138.553 110.572C137.754 110.497 136.986 110.916 136.626 111.633C132.98 118.895 126.725 124.876 118.539 128.017C105.026 133.204 90.2397 129.132 81.1588 118.918C79.0964 116.598 77.3324 113.958 75.9399 111.04C75.5571 110.237 75.1931 109.42 74.8703 108.576C74.5456 107.731 74.2698 106.881 74.0164 106.027C81.1588 102.698 89.4009 99.172 98.7445 95.5858C107.906 92.0691 116.244 89.2166 123.668 86.9347C128.69 85.3921 133.293 84.1085 137.45 83.0595C137.75 82.9844 138.046 82.9093 138.341 82.8361C138.97 82.6804 139.615 83.0163 139.848 83.6206L139.852 83.6318C139.989 83.9903 140.107 84.3506 140.234 84.7109C141.056 87.036 141.672 89.3855 142.079 91.7407C142.257 92.7709 143.383 93.332 144.307 92.8366C147.718 91.005 150.839 89.2185 153.628 87.4995C164.019 81.1003 169.78 75.6731 168.598 72.5974C167.417 69.5197 159.505 69.3433 147.501 71.539C143.686 72.2371 139.456 73.1754 134.897 74.337C134.109 74.5378 133.312 74.7461 132.505 74.96C128.669 75.9771 124.623 77.1425 120.41 78.4468C112.575 80.8732 104.17 83.7801 95.4924 87.1111C87.3741 90.2281 79.68 93.4596 72.624 96.6799C72.5377 83.0125 80.8004 70.0921 94.3138 64.9051C102.498 61.7637 111.149 62.0208 118.719 64.9802C119.466 65.273 120.316 65.0703 120.862 64.4791C121.737 63.5315 121.468 62.0227 120.333 61.4071C109.756 55.6891 96.8416 54.4468 84.7356 59.0933Z" fill="white"/>
<defs>
<linearGradient id="paint0_linear_1554_36459" x1="100" y1="0" x2="100" y2="200" gradientUnits="userSpaceOnUse">
<stop stop-color="#424242"/>
<stop offset="1"/>
</linearGradient>
</defs>
</svg>
