<svg width="100" height="100" viewBox="0 0 100 100" fill="none" xmlns="http://www.w3.org/2000/svg">
<rect width="100" height="100" rx="50" fill="white"/>
<path d="M73.8875 60.036L73.7378 60.1857C72.8396 61.1588 71.7168 61.8325 70.4443 62.3565H70.3694C69.2466 62.8056 68.0489 63.0301 66.7764 63.0301C64.9799 63.0301 63.2583 62.6559 61.6115 61.9073H61.5367L61.3121 61.7576L61.2372 61.6828C59.7402 60.8594 58.5425 59.6617 57.7191 58.1647L57.5694 57.8652L54.2758 61.3834C54.2758 61.3834 53.6021 64.7518 53.3027 66.3986V66.4734L53.3776 66.5483L53.4524 66.6231C56.8209 70.291 61.5367 72.3869 66.477 72.3869H66.7764H67.001C70.2197 72.3869 73.4384 71.5635 76.2828 69.9916L76.3577 69.9167C77.9296 69.0184 79.3519 67.8956 80.6244 66.6231L80.7741 66.4734L73.8875 60.036Z" fill="#37BE72"/>
<path d="M27.4036 43.6426L28.751 48.7327L29.0504 48.2835C30.4726 46.1876 32.7182 44.7654 35.1884 44.2414H35.2633C36.1615 44.0917 37.0598 44.0169 37.958 44.0169C39.3054 44.0917 40.6527 44.466 41.7755 45.1397L41.8504 45.2145C43.4972 46.1128 44.9194 47.3853 46.1171 48.8075L46.3416 49.0321L49.4855 44.6157L50.4586 39.8999L50.3837 39.8251L50.0095 39.5257C47.9135 37.6543 45.5182 36.1572 42.8235 35.3338C41.4013 34.8847 39.9042 34.6602 38.4071 34.6602H38.3323C34.9638 34.6602 31.6703 35.5584 28.6761 37.1303L28.6013 37.2052L27.2539 43.1186L27.4036 43.6426Z" fill="#37BE72"/>
<path d="M56.9714 56.4429V56.368C56.9714 55.9937 56.8965 54.5715 56.8965 53.6733V53.4487C56.8217 51.2031 57.5702 49.0323 58.9924 47.3107L59.0673 47.2358C59.2919 47.0113 59.5164 46.7119 59.741 46.4873C61.5375 44.616 64.0076 43.568 66.6275 43.568C67.0767 43.568 67.4509 43.568 67.9 43.6429H67.9749C70.1457 43.9423 72.0919 44.9154 73.6638 46.4124L73.8135 46.5622L80.4755 39.8253L80.3258 39.6756C76.9574 36.382 72.541 34.4358 67.8252 34.1364H67.7503C67.3012 34.1364 66.9269 34.0616 66.4778 34.0616C63.6334 34.0616 60.8638 34.5855 58.2439 35.6335C56.5223 36.382 54.9503 37.3551 53.603 38.6277L53.5281 38.7025H53.4533V38.7774L53.3784 38.8522L53.3036 38.9271C52.8544 39.3762 52.4053 39.9002 51.9562 40.4241V40.499L50.9082 45.2148L47.3901 50.1551V53.5984C47.3901 57.416 45.1445 60.8592 41.7761 62.4312H41.7012C40.4287 63.03 39.0813 63.2546 37.734 63.2546C32.3445 63.3294 27.9281 58.9879 27.7036 53.5984L27.6287 50.3797V50.1551L25.9071 43.2686L27.4041 36.906L27.2544 26.8756L17.5234 23.582L17.8977 45.6639V45.7388L17.9726 53.6733C17.9726 53.9727 17.9726 54.1972 17.9726 54.4967C17.9726 54.5715 17.9726 54.5715 17.9726 54.6464C18.3468 60.0358 20.9667 65.051 25.2334 68.4195L25.3082 68.4943C28.8264 71.2639 33.1679 72.761 37.6591 72.761H38.3328H38.4825C43.4229 72.6113 47.465 70.9645 50.6088 68.0452L50.6837 67.9703C51.1328 67.5212 51.5819 67.0721 51.9562 66.623V66.5481L53.0041 61.0089L56.8217 56.6674L56.9714 56.4429Z" fill="#37BE72"/>
</svg>
