<svg width="200" height="200" viewBox="0 0 200 200" fill="none" xmlns="http://www.w3.org/2000/svg">
<path d="M100 200C155.228 200 200 155.228 200 100C200 44.7715 155.228 0 100 0C44.7715 0 0 44.7715 0 100C0 155.228 44.7715 200 100 200Z" fill="url(#paint0_linear_249_1434)"/>
<g clip-path="url(#clip0_249_1434)">
<path d="M79.2392 132.043L77.803 132.872V131.228C77.803 131.228 77.789 132.071 78.1691 132.282C78.5493 132.479 79.2392 132.043 79.2392 132.043Z" fill="#8E3315"/>
<path d="M42.5469 130.343C50.6006 145.549 64.3848 156.947 80.8584 162.007C97.3319 167.08 115.157 165.408 130.392 157.355C145.64 149.316 157.045 135.557 162.128 119.114C167.211 102.67 165.493 84.8919 157.439 69.6714C164.704 92.5373 139.403 100.562 139.403 100.562L108.793 116.542L76.9582 133.111C76.9582 133.111 55.2751 147.039 42.5469 130.343Z" fill="#473ADE"/>
<path d="M42.354 130.455C50.4077 145.661 64.192 157.059 80.6655 162.118C97.139 167.192 114.964 165.52 130.199 157.467C145.447 149.428 156.852 135.669 161.935 119.226C167.018 102.782 165.342 85.0039 157.274 69.7834C164.54 92.6493 139.21 100.674 139.21 100.674L108.6 116.654L76.7794 133.223C76.7654 133.223 55.0823 147.151 42.354 130.455Z" fill="url(#paint1_linear_249_1434)"/>
<path d="M139.572 99.4097L140.881 100.112L139.022 100.787C139.022 100.787 139.98 100.464 140.107 100.098C140.247 99.733 139.572 99.4097 139.572 99.4097Z" fill="#292282"/>
<path d="M157.833 129.668C165.704 114.363 167.154 96.5568 161.874 80.1697C156.594 63.7968 145.006 50.1784 129.673 42.3222C114.326 34.4659 96.5011 33.0184 80.0839 38.2887C63.6667 43.5589 50.0233 55.1114 42.1526 70.4303C56.7535 51.387 77.8734 67.507 77.8734 67.507L108.539 83.4022L140.388 99.9297C140.388 99.9297 164.254 109.683 157.833 129.668Z" fill="#D71D6A"/>
<path d="M157.678 129.598C165.521 114.335 166.971 96.5849 161.705 80.2541C156.439 63.9233 144.894 50.347 129.603 42.5189C114.312 34.6908 96.5293 33.2433 80.1684 38.4995C63.7935 43.7416 50.1923 55.28 42.3497 70.5427C56.9084 51.5557 77.9579 67.6195 77.9579 67.6195L108.525 83.4584L140.276 99.9438C140.276 99.9438 164.085 109.669 157.678 129.598Z" fill="url(#paint2_linear_249_1434)"/>
<path d="M77.8171 69.0389L77.7889 67.3103L79.2955 68.1535C79.2955 68.1535 78.5352 67.7038 78.1409 67.9427C77.7749 68.1816 77.8171 69.0389 77.8171 69.0389Z" fill="#741039"/>
<path d="M100.007 35.1546C82.7732 35.1546 66.2293 41.9849 54.0361 54.1557C41.8428 66.3265 35 82.826 35 100.028C35 117.23 41.8428 133.744 54.0361 145.901C66.2293 158.071 82.7591 164.902 100.007 164.902C77.8875 161.191 77.8875 132.577 77.8875 132.577V100.028V66.8887C77.8734 66.8887 77.8734 39.1038 100.007 35.1546Z" fill="#FF5B25"/>
<path d="M100.007 35C82.7591 35 66.2293 41.8303 54.0361 54.0011C41.8428 66.1719 35 82.6714 35 99.8876C35 117.09 41.8428 133.603 54.0361 145.76C66.2293 157.931 82.7591 164.761 100.007 164.761C77.8875 157.706 77.8875 132.634 77.8875 132.634V99.9578V67.493C77.8734 67.493 77.0708 39.2022 100.007 35Z" fill="url(#paint3_linear_249_1434)"/>
<path d="M99.8381 164.888C77.8874 154.909 77.9156 132.619 77.9156 132.619C77.9156 132.619 50.6991 147.938 41.5471 128.347C41.533 128.347 56.8802 165.014 99.8381 164.888Z" fill="#473ADE"/>
</g>
<defs>
<linearGradient id="paint0_linear_249_1434" x1="100" y1="0" x2="100" y2="200" gradientUnits="userSpaceOnUse">
<stop stop-color="#100951"/>
<stop offset="1" stop-color="#060322"/>
</linearGradient>
<linearGradient id="paint1_linear_249_1434" x1="148.912" y1="84.168" x2="54.5112" y2="177.553" gradientUnits="userSpaceOnUse">
<stop stop-opacity="0.6"/>
<stop offset="0.6555" stop-opacity="0"/>
</linearGradient>
<linearGradient id="paint2_linear_249_1434" x1="58.902" y1="69.1407" x2="189.228" y2="93.0972" gradientUnits="userSpaceOnUse">
<stop stop-opacity="0.6"/>
<stop offset="0.6458" stop-opacity="0"/>
</linearGradient>
<linearGradient id="paint3_linear_249_1434" x1="92.4813" y1="149.381" x2="53.9463" y2="30.4598" gradientUnits="userSpaceOnUse">
<stop stop-opacity="0.6"/>
<stop offset="0.6755" stop-opacity="0"/>
</linearGradient>
<clipPath id="clip0_249_1434">
<rect width="130" height="130" fill="white" transform="translate(35 35)"/>
</clipPath>
</defs>
</svg>
