<svg width="200" height="200" viewBox="0 0 200 200" fill="none" xmlns="http://www.w3.org/2000/svg">
<path d="M100 200C155.228 200 200 155.228 200 100C200 44.7715 155.228 0 100 0C44.7715 0 0 44.7715 0 100C0 155.228 44.7715 200 100 200Z" fill="black"/>
<path d="M186 100C186 147.496 147.496 186 100 186C52.5035 186 14 147.496 14 100C14 52.5035 52.5035 14 100 14C147.496 14 186 52.5035 186 100Z" stroke="#F0827D" stroke-width="3"/>
<path fill-rule="evenodd" clip-rule="evenodd" d="M102.958 65.7694C102.958 63.9638 101.592 62.5 99.9076 62.5C99.9076 62.5 99.9058 62.5 99.9039 62.5C98.221 62.5 96.8555 63.9638 96.8555 65.7694C96.8555 78.9439 96.8555 128.078 96.8555 141.255C96.8555 143.06 98.221 144.524 99.9039 144.524C99.9058 144.524 99.9076 144.524 99.9076 144.524C101.592 144.524 102.958 143.06 102.958 141.255C102.958 128.078 102.958 78.9439 102.958 65.7694Z" fill="white"/>
<path fill-rule="evenodd" clip-rule="evenodd" d="M90.6302 127.977C88.9463 127.975 87.5796 129.438 87.5781 131.243C87.5781 131.243 87.5781 131.245 87.5781 131.247C87.5768 133.051 88.9412 134.516 90.6251 134.517C95.3098 134.522 104.226 134.53 108.91 134.534C110.595 134.535 111.961 133.073 111.963 131.269C111.963 131.267 111.963 131.265 111.963 131.265C111.964 129.459 110.6 127.994 108.915 127.993C104.231 127.989 95.3148 127.981 90.6302 127.977Z" fill="white"/>
<path fill-rule="evenodd" clip-rule="evenodd" d="M75.5542 85.2188C73.8691 85.2173 72.5034 86.6798 72.502 88.4856C72.502 88.4856 72.502 88.4875 72.502 88.4894C72.5007 90.2932 73.864 91.7582 75.5491 91.7597C85.1234 91.7682 114.511 91.7944 124.085 91.8029C125.769 91.8044 127.136 90.3419 127.137 88.538C127.137 88.5361 127.137 88.5342 127.137 88.5342C127.139 86.7284 125.774 85.2635 124.09 85.262C114.516 85.2535 85.1285 85.2273 75.5542 85.2188Z" fill="white"/>
<path fill-rule="evenodd" clip-rule="evenodd" d="M85.6182 68.6933C84.4259 67.4179 82.4946 67.4202 81.3046 68.6985C81.3046 68.6985 81.3035 68.7 81.3022 68.7013C80.1135 69.9781 80.1155 72.0481 81.3078 73.3234C87.8752 80.3477 107.566 101.408 114.133 108.432C115.326 109.707 117.257 109.705 118.446 108.428C118.447 108.427 118.448 108.425 118.448 108.425C119.638 107.147 119.636 105.077 118.444 103.802C111.876 96.7775 92.1856 75.7174 85.6182 68.6933Z" fill="white"/>
<path fill-rule="evenodd" clip-rule="evenodd" d="M81.3387 103.856C80.1497 105.135 80.1532 107.205 81.3465 108.48C81.3465 108.48 81.3478 108.481 81.3491 108.483C82.5411 109.756 84.4722 109.753 85.6614 108.474C92.2103 101.43 111.845 80.31 118.394 73.266C119.583 71.9872 119.58 69.9173 118.388 68.6439C118.387 68.6426 118.385 68.6412 118.385 68.6412C117.192 67.3665 115.261 67.3701 114.072 68.649C107.523 75.6929 87.8877 96.8125 81.3387 103.856Z" fill="white"/>
</svg>
