<svg width="32" height="32" viewBox="0 0 32 32" fill="none" xmlns="http://www.w3.org/2000/svg">
    <g clip-path="url(#9rnkjsek8a)">
        <path d="M16 32c8.837 0 16-7.163 16-16S24.837 0 16 0 0 7.163 0 16s7.163 16 16 16z" fill="url(#hhxyemx5ub)"/>
        <path d="M17.975 6.504c.305-.469 1.033-.274 1.062.285l.318 6.058c.013.25.185.463.427.528l5.86 1.57c.54.145.58.897.057 1.098l-5.663 2.174a.578.578 0 0 0-.37.57l.317 6.057c.03.56-.674.829-1.026.394l-3.818-4.714a.578.578 0 0 0-.656-.176L8.82 22.522c-.523.2-.997-.385-.692-.854l3.304-5.088a.578.578 0 0 0-.035-.678l-3.818-4.715c-.352-.435.058-1.066.599-.921l5.86 1.57a.578.578 0 0 0 .633-.244l3.304-5.088z" fill="url(#sqgq3ivijc)"/>
        <path fill-rule="evenodd" clip-rule="evenodd" d="M12.859 27.72c6.472 1.734 13.126-2.107 14.86-8.58s-2.107-13.126-8.58-14.86C12.667 2.546 6.013 6.387 4.28 12.86c-1.734 6.472 2.107 13.125 8.58 14.86zm-.225.837c6.935 1.858 14.064-2.258 15.922-9.192C30.414 12.428 26.3 5.3 19.364 3.442 12.429 1.585 5.3 5.7 3.442 12.635 1.584 19.57 5.699 26.7 12.634 28.557z" fill="url(#158gf1si9d)"/>
        <path d="M31.75 16c0 8.698-7.052 15.75-15.75 15.75S.25 24.698.25 16 7.302.25 16 .25 31.75 7.302 31.75 16z" stroke="#fff" stroke-width=".5"/>
    </g>
    <defs>
        <linearGradient id="hhxyemx5ub" x1="16" y1="0" x2="16" y2="32" gradientUnits="userSpaceOnUse">
            <stop stop-color="#3E3E3E"/>
            <stop offset="1"/>
        </linearGradient>
        <linearGradient id="sqgq3ivijc" x1="10.455" y1="8.936" x2="19.882" y2="26.957" gradientUnits="userSpaceOnUse">
            <stop stop-color="#CD7176"/>
            <stop offset=".229" stop-color="#D9AE29"/>
            <stop offset=".495" stop-color="#AFE38F"/>
            <stop offset=".724" stop-color="#65C7D1"/>
            <stop offset="1" stop-color="#187DD0"/>
        </linearGradient>
        <linearGradient id="158gf1si9d" x1="9.105" y1="4.059" x2="23.678" y2="28.151" gradientUnits="userSpaceOnUse">
            <stop stop-color="#A63C00"/>
            <stop offset=".168" stop-color="#775AA8"/>
            <stop offset=".337" stop-color="#DFC136"/>
            <stop offset=".589" stop-color="#AADFBD"/>
            <stop offset=".859" stop-color="#3596DD"/>
            <stop offset=".974" stop-color="#003390"/>
        </linearGradient>
        <clipPath id="9rnkjsek8a">
            <path fill="#fff" d="M0 0h32v32H0z"/>
        </clipPath>
    </defs>
</svg>
