<?xml version="1.0" encoding="utf-8"?>
<!-- Generator: Adobe Illustrator 26.0.3, SVG Export Plug-In . SVG Version: 6.00 Build 0)  -->
<svg version="1.1" id="Layer_1" xmlns="http://www.w3.org/2000/svg" xmlns:xlink="http://www.w3.org/1999/xlink" x="0px" y="0px"
	 viewBox="0 0 283.46 283.46" style="enable-background:new 0 0 283.46 283.46;" xml:space="preserve">
<circle style="fill:#7378FF;" cx="141.73" cy="141.73" r="141.73"/>
<g>
	<polygon style="fill:#F08C6E;" points="114.41,118.24 39.33,167.57 39.33,226.74 114.41,177.41 238.55,212.95 238.55,153.77 	"/>
	<path d="M118.39,233.34c-67.81-23.84-81.79-83.66-67.67-128.72c11.74-37.45,34.6-56.45,59.66-70.38
		c21.07-11.71,50.47-16.54,58.26-10.33c4.36,3.48,4.04,10.47,2.97,16.53c0,0,24.12,8.58,43.43,25.23c0,0,9.96-7.4,16.53-4.15
		c7.05,3.48,10.51,20.1,9.77,41.45c-0.73,21.18-4.49,39.62-18.51,62.85c-19.53,32.32-52.32,45.23-92.8,41.3"/>
	<g>
		<path style="fill:#FFC8AA;" d="M180.37,78.03c-0.02-0.13-0.06-0.25-0.09-0.38c-0.03-0.14-0.05-0.28-0.1-0.42
			c-0.05-0.14-0.11-0.27-0.17-0.41c-0.06-0.13-0.1-0.26-0.17-0.38c-0.07-0.12-0.15-0.23-0.23-0.34c-0.09-0.13-0.17-0.26-0.27-0.38
			c-0.08-0.09-0.18-0.17-0.27-0.26c-0.12-0.12-0.24-0.25-0.38-0.36c-0.02-0.01-0.03-0.03-0.04-0.04c-0.11-0.08-0.22-0.13-0.33-0.2
			c-0.11-0.07-0.21-0.15-0.33-0.21c-0.02-0.01-0.04-0.01-0.06-0.02c-0.16-0.08-0.32-0.13-0.48-0.19c-0.12-0.04-0.23-0.1-0.35-0.13
			c-0.15-0.04-0.3-0.06-0.45-0.08c-0.14-0.02-0.27-0.05-0.41-0.06c-0.14-0.01-0.28,0-0.41,0.01c-0.15,0-0.3,0-0.45,0.02
			c-0.14,0.02-0.28,0.06-0.42,0.09c-0.13,0.03-0.26,0.04-0.38,0.08l-20.19,6.42c-2.36,0.75-3.66,3.27-2.91,5.62
			c0.75,2.36,3.27,3.66,5.62,2.91l15.11-4.81l2.11,15.72c0.33,2.45,2.58,4.17,5.03,3.84c2.45-0.33,4.17-2.58,3.84-5.03L180.37,78.03
			z"/>
		<path style="fill:#FFC8AA;" d="M140.14,55.94c-3.95-2.5-9.19-1.33-11.69,2.62c-2.5,3.95-1.33,9.19,2.62,11.69
			c3.95,2.5,9.19,1.33,11.69-2.62C145.26,63.68,144.09,58.45,140.14,55.94z"/>
		<path style="fill:#FFC8AA;" d="M211.74,101.3c-3.95-2.5-9.19-1.33-11.69,2.62c-2.5,3.95-1.33,9.19,2.62,11.69
			c3.95,2.5,9.19,1.33,11.69-2.62C216.86,109.04,215.69,103.8,211.74,101.3z"/>
	</g>
	<polygon style="fill:#F08C6E;" points="163.47,203.11 39.33,167.57 39.33,226.74 163.47,262.28 238.55,212.95 238.55,153.77 	"/>
	<path d="M50.72,104.62c-14.12,45.06-0.14,104.89,67.67,128.72c25.49,8.96,55.64,7.43,79.69-2.83
		c25.56-10.9,45.08-32.63,52.91-54.74c2.05-5.79,1.82-12.53-4.69-15.29c-6.12-2.59-11.1,0.16-14.4,5.8
		c-5.54,9.46-18.4,32.07-47.03,41.62c-27.3,9.11-64.34,0.88-87.8-21.31c-14.63-13.83-12.31-29.35-12.31-29.35"/>
</g>
</svg>
