<svg width="32" height="32" fill="none" xmlns="http://www.w3.org/2000/svg">
    <path d="M16 32c8.837 0 16-7.163 16-16S24.837 0 16 0 0 7.163 0 16s7.163 16 16 16z" fill="url(#a)"/>
    <path d="M16 31.75c8.698 0 15.75-7.052 15.75-15.75S24.698.25 16 .25.25 7.302.25 16 7.302 31.75 16 31.75z" stroke="#fff" stroke-width=".5"/>
    <path fill-rule="evenodd" clip-rule="evenodd" d="M5.256 7.847c.119.04.238.04.398.08.08 0 .159.079.159.158.04.16.12.319.16.518.039.08 0 .16-.08.12-.12-.04-.24-.04-.359-.08-.08 0-.12-.08-.159-.16-.04-.159-.12-.358-.16-.517-.04-.08 0-.16.04-.12zM5.693 7.01c.12.04.279.08.398.12.08 0 .16.12.16.2.04.119.119.278.159.437.04.08 0 .12-.08.12-.12-.04-.239-.08-.398-.08-.08 0-.16-.08-.16-.199-.04-.16-.119-.318-.159-.518-.04-.04 0-.119.08-.08zM6.449 7.21c.12.04.279.08.398.12.08.04.16.12.16.2.079.159.119.318.198.477.04.08 0 .12-.08.12-.119-.04-.278-.08-.397-.12-.08 0-.16-.12-.16-.199-.04-.16-.12-.318-.159-.478-.04-.08 0-.12.04-.12zM8.837 8.086c.12.04.28.12.399.199.08.04.159.12.159.2.04.158.08.278.16.437.039.08 0 .12-.08.08-.12-.08-.28-.12-.399-.16-.08-.04-.159-.119-.159-.199a1.94 1.94 0 0 0-.16-.438c0-.12.04-.12.08-.12zM6.011 8.007c.12.04.24.04.399.08.08 0 .159.079.159.198.04.16.12.319.16.478.039.08 0 .12-.08.12-.12-.04-.24-.08-.359-.08-.08 0-.12-.08-.16-.16-.039-.159-.119-.318-.158-.517-.04-.08 0-.16.04-.12zM6.767 8.206c.12.04.279.08.398.12.08 0 .16.079.16.158.04.16.119.319.159.478.04.08 0 .12-.08.12-.12-.04-.279-.08-.398-.08-.08 0-.16-.08-.16-.16-.04-.158-.119-.318-.159-.477 0-.16.04-.199.08-.16zM7.566 8.404c.12.04.279.08.398.12.08.04.16.12.16.199.04.16.119.318.159.438.04.08 0 .12-.08.08-.12-.04-.279-.08-.398-.12-.08 0-.16-.08-.16-.16-.04-.159-.119-.318-.159-.477-.04-.04 0-.08.08-.08zM8.36 8.684c.12.04.28.08.399.159.08.04.16.12.16.199.04.16.079.279.159.438.04.08 0 .12-.08.08-.12-.04-.279-.08-.398-.16-.08-.04-.16-.12-.16-.199-.04-.16-.119-.318-.159-.438-.04-.08 0-.12.08-.08zM9.158 9.002c.12.04.278.12.398.16.08.039.16.119.16.198.039.16.079.279.158.438.04.08 0 .12-.08.08-.119-.08-.278-.12-.397-.16-.08-.04-.16-.119-.16-.198a1.94 1.94 0 0 0-.159-.438c-.04-.08 0-.12.08-.08zM7.882 9.36c.12.04.28.079.399.119.08.04.159.12.159.16.04.158.12.318.159.437.04.08 0 .12-.08.12-.119-.04-.278-.08-.398-.12-.08 0-.159-.08-.159-.16-.04-.158-.12-.318-.16-.477-.04-.08 0-.12.08-.08zM8.64 9.598c.12.04.279.08.398.16.08.04.16.12.16.199.04.159.119.278.159.438.04.08 0 .12-.08.08-.12-.04-.278-.08-.398-.12-.08-.04-.16-.12-.16-.16-.039-.159-.119-.318-.158-.437 0-.16.04-.2.08-.16zM7.445 10.117c.119.04.238.04.398.08.08 0 .159.08.159.16.04.158.12.318.16.477.039.08 0 .12-.08.12-.12-.04-.24-.04-.359-.08-.08 0-.12-.08-.159-.16-.04-.159-.12-.318-.16-.477-.079-.08-.04-.12.04-.12zM8.2 10.275c.12.04.28.08.399.12.08 0 .16.08.16.16.039.158.119.318.158.437.04.08 0 .12-.08.12-.119-.04-.278-.08-.397-.08-.08 0-.16-.08-.16-.16-.04-.159-.12-.318-.159-.477-.04-.08 0-.12.08-.12zM8.957 10.515c.119.04.278.08.398.12.08.04.159.119.159.199.04.159.12.278.16.437.04.08 0 .12-.08.08-.12-.04-.28-.08-.399-.12-.08-.04-.159-.079-.159-.159-.04-.159-.12-.318-.159-.438 0-.12 0-.159.08-.12zM9.757 10.793c.12.04.28.12.399.16.08.039.159.119.159.198.04.16.08.279.159.438.04.08 0 .12-.08.08-.119-.04-.278-.12-.398-.16-.08-.04-.159-.119-.159-.198-.04-.16-.08-.28-.16-.438-.04-.08 0-.12.08-.08zM9.757 8.524c.16.08.28.16.438.24.08.039.16.158.2.198.04.16.079.279.159.438.04.08 0 .08-.08.04a2.653 2.653 0 0 1-.478-.239c-.08-.04-.159-.12-.159-.199-.04-.16-.08-.279-.16-.438-.04-.04 0-.08.08-.04zM10.033 9.4c.159.08.279.16.438.2.08.04.159.159.199.199.04.159.08.278.16.438.039.08 0 .08-.08.04-.16-.08-.28-.16-.438-.2-.08-.04-.16-.12-.16-.199-.12-.12-.16-.279-.199-.398-.04-.08 0-.12.08-.08zM10.314 10.276c.16.08.279.12.438.2.08.04.16.119.2.198.039.16.079.28.158.438.04.08 0 .08-.08.04-.159-.08-.278-.16-.437-.199-.08-.04-.16-.12-.16-.199-.04-.16-.08-.279-.159-.438-.04-.04 0-.08.04-.04zM10.632 11.151c.16.08.279.12.438.2.08.04.16.119.2.198.039.16.079.28.158.438.04.08 0 .08-.08.04-.159-.08-.278-.12-.437-.199-.08-.04-.16-.12-.16-.199-.04-.16-.08-.279-.159-.438-.08-.04-.04-.08.04-.04zM10.593 9.002c.16.08.319.2.438.279.08.04.16.16.2.239.04.16.079.279.159.438.04.08 0 .08-.08.04-.16-.12-.319-.2-.438-.279-.08-.04-.16-.16-.2-.2-.039-.158-.079-.278-.158-.437-.04-.12 0-.12.08-.08zM11.506 9.599c.16.12.319.278.478.398.08.08.16.199.199.239.04.12.08.278.16.438.04.08-.04.08-.12 0-.16-.12-.319-.279-.478-.398-.08-.08-.16-.16-.199-.24-.04-.159-.08-.278-.16-.437 0-.04.04-.08.12 0zM12.501 10.476c.2.199.398.438.637.756.12.16 1.115 3.146 1.115 3.146s-.836-2.39-.916-2.509c-.199-.278-.438-.517-.597-.716-.08-.08-.16-.2-.199-.28-.04-.118-.08-.278-.12-.397-.079-.12 0-.08.08 0zM11.786 10.436c.159.12.318.239.477.398.08.08.16.2.2.24.04.158.079.278.159.437.04.08-.04.08-.12 0-.16-.12-.318-.279-.478-.398-.08-.04-.159-.16-.199-.239-.04-.16-.08-.279-.159-.438 0-.04.04-.04.12 0z" fill="#fff"/>
    <path fill-rule="evenodd" clip-rule="evenodd" d="M12.782 11.312c.2.199.399.438.598.716.12.12.876 2.35.876 2.35s-.558-1.633-.677-1.752c-.2-.24-.399-.478-.598-.637-.08-.08-.159-.2-.199-.28-.04-.158-.08-.278-.12-.397-.039-.12.04-.08.12 0zM11.189 10.715c.159.08.278.199.438.278.08.04.159.16.199.24.04.159.08.278.159.437.04.08 0 .08-.08.04-.159-.08-.318-.199-.438-.279-.08-.04-.159-.119-.159-.199a1.94 1.94 0 0 0-.16-.438c-.079-.08-.039-.119.04-.08zM12.065 11.311c.159.12.318.239.478.398.08.08.159.2.199.239.04.16.08.279.159.438.04.08-.04.08-.12 0l-.477-.358c-.08-.04-.16-.16-.2-.24-.04-.159-.08-.278-.159-.437 0-.08.04-.12.12-.04z" fill="#fff"/>
    <path fill-rule="evenodd" clip-rule="evenodd" d="M13.058 12.148c.199.159.398.398.597.637.12.12.637 1.592.637 1.592s-.318-.836-.438-.955c-.199-.24-.398-.438-.557-.598-.08-.08-.16-.199-.2-.278-.04-.12-.079-.279-.119-.398-.08-.12 0-.08.08 0zM11.466 11.59c.16.08.279.199.438.278.08.04.16.16.2.24.039.159.079.278.158.437.04.08 0 .08-.08.04-.159-.08-.318-.199-.437-.279-.08-.04-.16-.119-.16-.199-.04-.159-.08-.278-.159-.438-.08-.08-.04-.119.04-.08zM12.382 12.187l.478.358c.08.08.159.199.199.239.04.16.08.278.16.438.039.08-.04.08-.12 0l-.478-.358c-.08-.04-.16-.16-.2-.24-.039-.159-.079-.278-.159-.437-.04-.04.04-.08.12 0z" fill="#fff"/>
    <path fill-rule="evenodd" clip-rule="evenodd" d="M13.337 12.943c.2.159.358.358.558.597.08.12.358.796.358.796s-.08-.08-.16-.199c-.198-.2-.358-.398-.557-.557-.08-.08-.16-.2-.199-.24-.04-.119-.08-.278-.12-.397-.04-.08.04-.08.12 0zM12.262 23.336c.12-.12.239-.2.358-.319a.12.12 0 0 0 0-.159c-.12-.12-.199-.239-.318-.318-.04-.04-.08-.04-.16 0-.119.119-.238.199-.358.278-.04.04-.04.08 0 .12.12.12.2.239.319.358.08.08.12.08.159.04zm-1.075-2.429c.12-.12.239-.199.358-.318.04-.04.04-.12 0-.16-.08-.12-.199-.199-.278-.318-.04-.04-.08-.04-.12 0-.12.08-.239.199-.358.279-.04.04-.04.08 0 .119.12.12.199.239.318.319 0 .119.04.119.08.08zm.637-.597c.12-.12.199-.239.319-.319.04-.04.04-.12 0-.159-.08-.12-.2-.199-.28-.318-.04-.04-.079-.04-.119 0l-.318.318c-.04.04-.04.08 0 .12.08.119.199.199.278.318.04.08.08.08.12.04zm.597-.637c.12-.12.2-.239.279-.358.04-.04.04-.12 0-.16-.08-.08-.16-.199-.279-.279-.04-.04-.08-.04-.12 0-.119.12-.198.24-.318.359-.04.04-.04.12 0 .16.08.119.2.198.279.318.08.04.12 0 .16-.04zm.558-.677c.08-.12.159-.239.278-.398.04-.04.04-.12 0-.16-.08-.08-.159-.159-.239-.278-.04-.04-.08-.04-.12.04-.079.12-.198.239-.278.358-.04.04-.04.12 0 .16.08.079.16.198.279.278-.04.08.04.08.08 0zm.477-.717c.08-.12.16-.278.24-.438.04-.04.04-.12 0-.159-.08-.08-.16-.16-.2-.239-.04-.04-.08 0-.12.04-.079.12-.159.279-.278.398-.04.04-.04.12 0 .16.08.079.16.159.239.278.04.04.08 0 .12-.04zm.438-.796c.08-.16.12-.319.2-.478.04-.04 0-.12 0-.159l-.2-.2c-.04-.039-.04 0-.08.04-.079.16-.159.28-.238.439-.04.04-.04.12 0 .159.08.08.16.16.199.239.04.04.08 0 .12-.04zm.319-.916c.04-.159.08-.358.12-.557v-.16l-.12-.119s-.04.04-.04.08c-.04.159-.12.318-.16.477-.039.04-.039.12 0 .16.04.08.12.12.16.199 0 0 .04 0 .04-.08zm-1.832 4.34c.12-.12.2-.239.319-.358.04-.04.04-.12 0-.16-.08-.119-.2-.199-.279-.318-.04-.04-.08-.04-.12 0-.119.12-.198.239-.318.319-.04.04-.04.119 0 .159.08.12.2.199.279.318.04.08.08.08.12.04zm.558-.637c.08-.12.199-.239.278-.358.04-.04.04-.12 0-.16l-.278-.278c-.04-.04-.08-.04-.12 0-.08.12-.199.239-.278.358-.04.04-.04.12 0 .16.08.119.199.198.278.318.04 0 .08 0 .12-.04zm.517-.717c.08-.119.16-.278.24-.398.04-.04.04-.12 0-.159-.08-.08-.16-.16-.24-.279-.04-.04-.08 0-.12.04-.079.12-.158.279-.278.398-.04.04-.04.12 0 .16.08.08.16.199.279.278.04 0 .08 0 .12-.04zm.438-.796c.08-.16.16-.279.2-.438.04-.04.04-.12 0-.16-.08-.079-.16-.158-.2-.238-.04-.04-.08 0-.08.04-.079.159-.159.279-.238.438-.04.04-.04.12 0 .159.08.08.16.16.239.279l.08-.08zm.359-.876c.04-.16.12-.318.159-.517v-.16l-.2-.199c-.039-.04-.039 0-.079.08-.04.16-.12.318-.199.478-.04.04-.04.12 0 .159.08.08.16.16.2.239.079 0 .119 0 .119-.08zm.278-.995c.04-.2.04-.398.04-.598 0-.08 0-.159-.04-.159l-.12-.12s-.039.04-.039.12c-.04.2-.08.398-.12.558v.159c.04.08.12.12.16.199.08-.04.08-.08.12-.16zm-2.19 5.255c.12-.119.24-.199.32-.318.039-.04.039-.12 0-.16-.08-.119-.2-.198-.28-.318-.04-.04-.08-.04-.12 0-.118.12-.238.2-.318.319-.04.04-.04.08 0 .12.12.119.2.238.319.318-.04.04.04.08.08.04zm.598-.637c.08-.12.199-.239.278-.358.04-.04.04-.12 0-.16-.08-.119-.199-.198-.278-.318-.04-.04-.08-.04-.12 0-.12.12-.199.24-.318.359-.04.04-.04.119 0 .159.08.12.199.199.279.318.04.04.119.04.159 0zm.517-.677c.08-.119.2-.238.28-.398.039-.04.039-.12 0-.159-.08-.08-.16-.199-.28-.279-.04-.04-.08-.04-.12.04-.079.12-.198.24-.278.398-.04.04-.04.12 0 .16.08.119.2.199.279.318.04-.04.08-.04.12-.08zm.478-.756c.08-.16.16-.279.239-.438a.12.12 0 0 0 0-.16c-.08-.079-.16-.159-.239-.278-.04-.04-.08 0-.12.04-.079.16-.159.279-.238.398-.04.04-.04.12 0 .16.08.079.16.198.278.278 0 .04.08.04.08 0zm.398-.836c.08-.16.12-.319.16-.478v-.16c-.08-.079-.16-.158-.2-.238-.04-.04-.08 0-.08.04-.079.159-.119.318-.198.477-.04.04-.04.12 0 .16l.239.239c.04.04.08 0 .08-.04zm.319-.956c.04-.199.08-.358.12-.557 0-.08 0-.16-.04-.16-.04-.079-.12-.119-.2-.198-.04-.04-.04 0-.08.08-.04.198-.079.358-.159.517v.159c.08.08.16.16.2.239.119.04.159 0 .159-.08zm.16-1.075v-.677c0-.08-.04-.159-.04-.199l-.12-.12s-.04.04-.04.12c0 .24-.04.438-.04.637 0 .08 0 .16.04.16.04.08.12.12.16.199.04 0 .04-.04.04-.12zm-1.912 5.535c.12-.12.199-.24.319-.359.04-.04.04-.12 0-.159-.08-.12-.2-.199-.28-.319-.039-.04-.079-.04-.119 0-.12.12-.199.24-.318.319-.04.04-.04.12 0 .16.12.119.199.238.318.318 0 .08.04.08.08.04zm.597-.637c.08-.12.2-.24.279-.359.04-.04.04-.12 0-.159-.08-.12-.2-.2-.279-.319-.04-.04-.08-.04-.12 0-.079.12-.198.24-.278.359-.04.04-.04.12 0 .16.08.119.2.198.279.318 0 .04.08.04.12 0zm.956-1.513c.08-.16.12-.319.199-.478.04-.04 0-.12 0-.16-.08-.08-.16-.159-.24-.278-.039-.04-.079 0-.118.04-.08.159-.16.278-.2.438-.04.04-.04.12 0 .159.08.08.16.199.28.279 0 .08.039.04.079 0zm.318-.876c.04-.16.12-.319.16-.518v-.16c-.08-.079-.16-.159-.2-.238-.04-.04-.08 0-.08.08-.039.159-.119.318-.158.477-.04.04 0 .12 0 .16.08.08.159.159.238.278 0 0 .04-.04.04-.08zm.279-.996c.04-.199.04-.398.08-.597 0-.08 0-.16-.04-.199l-.2-.2c-.04-.039-.04 0-.04.08-.039.2-.079.399-.119.558 0 .08 0 .16.04.16.08.079.16.159.2.238.04.08.04.04.079-.04zm.08-1.154c0-.24-.04-.478-.08-.757 0-.12-.04-.199-.04-.199l-.12-.12v.12c.04.239.04.478.04.717 0 .08 0 .159.04.199.04.08.12.12.16.199v-.16zm-.24-1.553c-.119-.319-.238-.717-.477-1.195a1.9 1.9 0 0 0-.16-.318v.16c0 .238 0 .437-.04.636v.16l.12.119s.04-.04.04-.12c0-.239-.04-.477-.08-.756-.04-.12-.04-.2-.04-.2s.04.08.04.2c.08.279.08.557.12.796 0 .08 0 .16.04.16l.12.119v-.16a4.788 4.788 0 0 0-.2-.915c.12.358.2.677.239.916 0 .08.04.159.04.199l.12.12v-.16c-.08-.319-.16-.637-.32-1.035-.079-.16-.119-.279-.119-.279s.08.12.12.279c.159.398.278.756.358 1.075.04.12.04.199.08.199l.12.12c-.08.079-.08 0-.12-.12zm-3.782 6.052c.12-.08.24-.2.359-.279.04-.04.04-.08 0-.12-.12-.119-.2-.238-.319-.318a.121.121 0 0 0-.16 0c-.119.08-.238.2-.357.279-.04.04-.04.08 0 .12.119.119.198.238.318.358.04-.04.12 0 .16-.04z" fill="#fff"/>
    <path fill-rule="evenodd" clip-rule="evenodd" d="m18.314 16.288 4.22-4.18h-3.583l-2.428 2.388-2.43-2.389h-.517c.04.12.12.28.2.438.238.637.517 1.553.796 2.668.796.916 1.154 2.15 1.075 3.703l.836-.836 2.588 2.588h3.583l-4.021-4.061-.319-.319z" fill="#fff"/>
    <defs>
        <linearGradient id="a" x1="16" y1="0" x2="16" y2="32" gradientUnits="userSpaceOnUse">
            <stop stop-color="#393939"/>
            <stop offset="1" stop-color="#060606"/>
        </linearGradient>
    </defs>
</svg>
