<svg width="200" height="200" viewBox="0 0 200 200" fill="none" xmlns="http://www.w3.org/2000/svg">
<path d="M199.75 100C199.75 155.09 155.09 199.75 100 199.75C44.9096 199.75 0.25 155.09 0.25 100C0.25 44.9096 44.9096 0.25 100 0.25C155.09 0.25 199.75 44.9096 199.75 100Z" fill="url(#paint0_linear_507_1475)" stroke="white" stroke-width="0.5"/>
<path d="M144.179 55.8211C119.813 31.393 80.1971 31.393 55.8211 55.8211C31.393 80.2492 31.393 119.803 55.8211 144.179C80.2492 168.607 119.803 168.607 144.179 144.179C168.607 119.813 168.607 80.1867 144.179 55.8211ZM138.804 138.804C117.376 160.232 82.5618 160.232 61.1338 138.804C39.7058 117.376 39.7058 82.5618 61.1338 61.1338C82.5618 39.7058 117.376 39.7058 138.804 61.1338C160.305 82.6243 160.305 117.376 138.804 138.804Z" fill="white"/>
<path d="M133.742 136.439V63.5819C130.567 60.5749 127.016 57.9909 123.179 55.8941V125.564L77.1977 55.6441C73.2042 57.7494 69.523 60.3999 66.2598 63.5194V136.439C69.4348 139.446 72.9852 142.03 76.8227 144.127V74.4574L122.814 144.377C126.805 142.247 130.482 139.576 133.742 136.439V136.439Z" fill="white"/>
<defs>
<linearGradient id="paint0_linear_507_1475" x1="100" y1="0" x2="100" y2="200" gradientUnits="userSpaceOnUse">
<stop stop-color="#3B507C"/>
<stop offset="1" stop-color="#17243E"/>
</linearGradient>
</defs>
</svg>
