<svg width="200" height="200" viewBox="0 0 200 200" fill="none" xmlns="http://www.w3.org/2000/svg">
<path d="M100 200C155.228 200 200 155.228 200 100C200 44.7715 155.228 0 100 0C44.7715 0 0 44.7715 0 100C0 155.228 44.7715 200 100 200Z" fill="url(#paint0_linear_120_1360)"/>
<path d="M99.9921 31.25C62.0192 31.25 31.25 62.035 31.25 100.008C31.25 137.981 62.0319 168.766 99.9921 168.766C137.952 168.766 168.75 137.981 168.75 100.024C168.75 62.0667 137.965 31.25 99.9921 31.25ZM99.9921 131.037C93.8558 131.037 87.8572 129.217 82.7551 125.808C77.6529 122.399 73.6762 117.553 71.328 111.884C68.9797 106.215 68.3653 99.9767 69.5624 93.9582C70.7596 87.9398 73.7145 82.4116 78.0535 78.0725C82.3926 73.7335 87.9208 70.7786 93.9392 69.5814C99.9577 68.3843 106.196 68.9987 111.865 71.347C117.534 73.6953 122.38 77.6719 125.789 82.7741C129.198 87.8762 131.018 93.8748 131.018 100.011C131.008 108.237 127.736 116.122 121.92 121.939C116.103 127.755 108.218 131.027 99.9921 131.037ZM38.8528 100.011C38.8528 67.5724 64.2494 40.9626 96.1907 38.9922V61.5662C86.6753 62.5447 77.861 67.0172 71.4524 74.1185C65.0439 81.2199 61.4965 90.4456 61.4965 100.011C61.4965 109.577 65.0439 118.802 71.4524 125.904C77.861 133.005 86.6753 137.477 96.1907 138.456V161.03C64.2399 159.063 38.8433 132.453 38.8433 100.014L38.8528 100.011ZM103.793 161.03V138.459C113.309 137.481 122.123 133.008 128.532 125.907C134.94 118.805 138.488 109.58 138.488 100.014C138.488 90.4487 134.94 81.2231 128.532 74.1217C122.123 67.0203 113.309 62.5479 103.793 61.5694V38.9954C135.744 40.9658 161.131 67.5756 161.131 100.014C161.131 132.453 135.744 159.063 103.793 161.033V161.03Z" fill="url(#paint1_linear_120_1360)"/>
<defs>
<linearGradient id="paint0_linear_120_1360" x1="100" y1="0" x2="100" y2="200" gradientUnits="userSpaceOnUse">
<stop stop-color="#264785"/>
<stop offset="1" stop-color="#1B2650"/>
</linearGradient>
<linearGradient id="paint1_linear_120_1360" x1="51.3753" y1="148.631" x2="148.612" y2="51.3974" gradientUnits="userSpaceOnUse">
<stop stop-color="#4C80E9"/>
<stop offset="1" stop-color="#91D2F5"/>
</linearGradient>
</defs>
</svg>
