<svg width="200" height="200" viewBox="0 0 200 200" fill="none" xmlns="http://www.w3.org/2000/svg">
<path d="M100 200C155.228 200 200 155.228 200 100C200 44.7715 155.228 0 100 0C44.7715 0 0 44.7715 0 100C0 155.228 44.7715 200 100 200Z" fill="url(#paint0_linear_695_1518)"/>
<path d="M99.9997 35.6328L43.75 68.2751V133.268L99.9997 165.911L156.249 133.268V68.2751L99.9997 35.6328ZM139.637 123.651L99.9997 146.384L60.3626 123.651V77.893L99.9997 54.8685L139.637 77.893V123.651Z" fill="white"/>
<g style="mix-blend-mode:multiply">
<path style="mix-blend-mode:multiply" d="M99.9997 54.8685V35.6328L43.75 68.2751V133.268L99.9997 165.911V146.384L60.3626 123.651V77.893L99.9997 54.8685Z" fill="white"/>
</g>
<g style="mix-blend-mode:multiply">
<path style="mix-blend-mode:multiply" d="M100 146.384V165.619L156.25 132.977V68.2751L100 35.6328V54.8685L139.637 77.6015V123.359L100 146.384Z" fill="white"/>
</g>
<path d="M126.523 115.775L100.001 130.93L73.7703 115.775V85.464L100.001 70.3086L126.523 85.464V115.775Z" fill="white"/>
<defs>
<linearGradient id="paint0_linear_695_1518" x1="100" y1="0" x2="100" y2="200" gradientUnits="userSpaceOnUse">
<stop stop-color="#003A9B"/>
<stop offset="1" stop-color="#032D74"/>
</linearGradient>
</defs>
</svg>
