<svg xmlns="http://www.w3.org/2000/svg" width="32" height="32" viewBox="0 0 32 32">
    <defs>
        <linearGradient id="o0uzeacbea" x1=".5" x2=".5" y2="1" gradientUnits="objectBoundingBox">
            <stop offset="0" stop-color="#88bdf3"/>
            <stop offset="1" stop-color="#62a1e2"/>
        </linearGradient>
    </defs>
    <g fill="url(#o0uzeacbea)" stroke="#fff" stroke-width="0.5px">
        <circle cx="16" cy="16" r="16" stroke="none"/>
        <circle cx="16" cy="16" r="15.75" fill="none"/>
    </g>
    <path fill="#fff" d="M10.2 20.4a4.6 4.6 0 0 1-4.454-5.746 4.6 4.6 0 1 1 0-8.909 4.6 4.6 0 1 1 8.909 0 4.6 4.6 0 1 1 0 8.909A4.6 4.6 0 0 1 10.2 20.4zm-1.147-9.053a4.593 4.593 0 0 0-3.307 3.307 4.592 4.592 0 0 0 3.307-3.307zM10.2 11.2a4.616 4.616 0 0 1 1.147.144 4.6 4.6 0 0 0 3.308 3.307 4.6 4.6 0 0 0-3.307-3.307 4.635 4.635 0 0 1 0-2.295 4.635 4.635 0 0 1-2.295 0 4.635 4.635 0 0 1 0 2.294A4.613 4.613 0 0 1 10.2 11.2zM5.746 5.746a4.592 4.592 0 0 0 3.307 3.307 4.593 4.593 0 0 0-3.307-3.307zm8.909 0a4.593 4.593 0 0 0-3.307 3.307 4.593 4.593 0 0 0 3.307-3.307z" transform="translate(5.834 5.834)"/>
</svg>
