<svg width="32" height="32" viewBox="0 0 32 32" fill="none" xmlns="http://www.w3.org/2000/svg">
    <path d="M31.75 16c0 8.698-7.052 15.75-15.75 15.75S.25 24.698.25 16 7.302.25 16 .25 31.75 7.302 31.75 16z" fill="url(#k8w61ii5ua)" stroke="#fff" stroke-width=".5"/>
    <path d="m16.967 14.711 5.079-4.981-1.927-1.89-4.116 4.037-4.115-4.037L9.96 9.73l5.08 4.981c.266.261.615.392.963.392.35 0 .698-.13.964-.392zm7.353 5.322-4.116-4.036 4.115-4.037-1.926-1.89-5.08 4.982a1.329 1.329 0 0 0-.398.945 1.315 1.315 0 0 0 .399.945l5.079 4.981 1.927-1.89zm-8.324.09 4.116 4.037 1.927-1.89-5.08-4.982a1.378 1.378 0 0 0-1.926 0l-5.08 4.982 1.927 1.89 4.116-4.037zm-1.31-3.175a1.332 1.332 0 0 0 .398-.945 1.317 1.317 0 0 0-.398-.944l-5.079-4.982-1.927 1.89 4.116 4.036L7.68 20.04l1.927 1.89 5.08-4.982z" fill="#fff"/>
    <defs>
        <linearGradient id="k8w61ii5ua" x1="16" y1="0" x2="16" y2="32" gradientUnits="userSpaceOnUse">
            <stop stop-color="#393939"/>
            <stop offset="1" stop-color="#060606"/>
        </linearGradient>
    </defs>
</svg>
