<svg width="32" height="32" viewBox="0 0 32 32" fill="none" xmlns="http://www.w3.org/2000/svg">
    <path d="M16 32c8.837 0 16-7.163 16-16S24.837 0 16 0 0 7.163 0 16s7.163 16 16 16z" fill="url(#a)"/>
    <path d="M16 31.75c8.698 0 15.75-7.052 15.75-15.75S24.698.25 16 .25.25 7.302.25 16 7.302 31.75 16 31.75z" stroke="#fff" stroke-width=".5"/>
    <path d="M23.21 18.585H13.093v-5.503h-1.531v6.26a.764.764 0 0 0 .778.753h8.844L19.36 21.7H9.552v-9.075h10.096a.8.8 0 0 0 .526-.19l3.562-3.114a.741.741 0 0 0 .216-.832A.79.79 0 0 0 23.22 8H12.34a.768.768 0 0 0-.778.758v1.883h1.53V9.515h8.092l-1.825 1.579H8.779A.768.768 0 0 0 8 11.85v10.58a.767.767 0 0 0 .779.758h10.869a.779.779 0 0 0 .526-.195l3.551-3.072a.752.752 0 0 0-.072-1.197.79.79 0 0 0-.443-.14z" fill="#FE4350"/>
    <defs>
        <linearGradient id="a" x1="16" y1="0" x2="16" y2="32" gradientUnits="userSpaceOnUse">
            <stop stop-color="#183C74"/>
            <stop offset="1" stop-color="#050516"/>
        </linearGradient>
    </defs>
</svg>
