<svg width="20" height="20" viewBox="0 0 20 20" fill="none" xmlns="http://www.w3.org/2000/svg">
<g clip-path="url(#clip0_1396_30433)">
<path d="M10.0001 18.9554C14.946 18.9554 18.9554 14.946 18.9554 10.0001C18.9554 5.05431 14.946 1.04492 10.0001 1.04492C5.05431 1.04492 1.04492 5.05431 1.04492 10.0001C1.04492 14.946 5.05431 18.9554 10.0001 18.9554Z" fill="white"/>
<path d="M10.0009 19.9501C8.03295 19.9501 6.10919 19.3665 4.47291 18.2732C2.83662 17.1798 1.5613 15.6258 0.808196 13.8077C0.0550961 11.9895 -0.141952 9.98886 0.24197 8.05872C0.625891 6.12858 1.57354 4.35562 2.96508 2.96406C3.88577 2.02567 4.98329 1.27904 6.19421 0.767285C7.40514 0.255534 8.70548 -0.0111862 10.0201 -0.0174646C11.3347 -0.0237431 12.6375 0.230545 13.8533 0.730706C15.069 1.23087 16.1736 1.96699 17.1032 2.89653C18.0329 3.82608 18.7691 4.93063 19.2693 6.14635C19.7695 7.36208 20.0239 8.66488 20.0177 9.97949C20.0116 11.2941 19.7449 12.5944 19.2333 13.8054C18.7216 15.0164 17.975 16.1139 17.0367 17.0347C16.115 17.9618 15.0186 18.6968 13.8109 19.1972C12.6032 19.6977 11.3082 19.9536 10.0009 19.9501ZM10.0009 1.47052C8.31419 1.47052 6.66536 1.97068 5.2629 2.90774C3.86044 3.84481 2.76734 5.1767 2.12182 6.73499C1.4763 8.29329 1.30735 10.008 1.63634 11.6623C1.96533 13.3166 2.77748 14.8362 3.97009 16.029C5.1627 17.2217 6.68222 18.0341 8.33649 18.3633C9.99076 18.6924 11.7055 18.5237 13.2639 17.8783C14.8222 17.233 16.1543 16.1401 17.0915 14.7377C18.0287 13.3354 18.5291 11.6866 18.5293 9.99988C18.5269 7.73865 17.6276 5.5707 16.0288 3.97168C14.43 2.37266 12.2621 1.47316 10.0009 1.47052Z" fill="#05C3CD"/>
<path opacity="0.41" d="M9.28959 19.9264V18.4995C9.52441 18.5188 9.76156 18.5284 10.001 18.5284C10.2405 18.5284 10.4773 18.5188 10.7115 18.4995V19.9264C10.476 19.943 10.2392 19.9513 10.001 19.9513C9.76289 19.9513 9.52574 19.943 9.28959 19.9264ZM15.5055 16.5095C15.8673 16.2027 16.2031 15.8666 16.5095 15.5045L17.5204 16.5165C17.3659 16.6949 17.2043 16.868 17.0359 17.0359C16.8674 17.2037 16.6942 17.3652 16.5165 17.5204L15.5055 16.5095ZM2.96819 17.0359C2.7997 16.8674 2.63785 16.6942 2.48262 16.5165L3.49357 15.5045C3.80029 15.8666 4.13642 16.2028 4.49854 16.5095L3.48561 17.5204C3.30717 17.3665 3.1337 17.205 2.96521 17.0359H2.96819ZM18.5025 10.7115C18.5224 10.4767 18.5324 10.2398 18.5324 10C18.5324 9.76023 18.5224 9.52441 18.5035 9.28959H19.9304C19.9443 9.52441 19.9513 9.76156 19.9513 10.001C19.9513 10.2405 19.943 10.4776 19.9264 10.7125L18.5025 10.7115ZM0.0786419 10.7115C0.0600682 10.476 0.0507812 10.2392 0.0507812 10.001C0.0507812 9.76289 0.0590731 9.52607 0.0756569 9.29058H1.50252C1.48329 9.52541 1.47367 9.76222 1.47367 10.001C1.47367 10.2408 1.48362 10.4776 1.50352 10.7125L0.0786419 10.7115ZM2.48063 3.48561C2.63519 3.30717 2.79705 3.13403 2.9662 2.9662C3.13536 2.79838 3.30882 2.63652 3.4866 2.48063L4.49655 3.49058C4.13454 3.79742 3.79842 4.13355 3.49158 4.49556L2.48063 3.48561ZM15.5055 3.49158L16.5165 2.48063C16.6942 2.63586 16.8677 2.79771 17.0368 2.9662C17.206 3.1347 17.3675 3.30783 17.5214 3.48561L16.5105 4.49556C16.2037 4.13376 15.8676 3.79796 15.5055 3.49158ZM9.28959 0.0756569C9.52508 0.0590731 9.76222 0.0507812 10.001 0.0507812C10.2398 0.0507812 10.4767 0.0590731 10.7115 0.0756569V1.50053C10.4773 1.4813 10.2405 1.47168 10.001 1.47168C9.76156 1.47168 9.52441 1.48163 9.28959 1.50153V0.0756569Z" fill="white" stroke="white" stroke-width="0.1"/>
<path fill-rule="evenodd" clip-rule="evenodd" d="M10.1158 12.3143L12.5179 9.91211L9.11908 6.51324C8.85096 6.24512 8.41625 6.24512 8.14813 6.51324L6.7169 7.94448C6.44878 8.2126 6.44878 8.64731 6.7169 8.91543L10.1158 12.3143ZM13.0801 9.91211L9.40015 6.23218C8.9768 5.80883 8.29042 5.80883 7.86707 6.23218L6.43583 7.66341C6.01248 8.08676 6.01248 8.77314 6.43583 9.19649L10.1158 12.8764L13.0801 9.91211Z" fill="#05C3CD"/>
<path fill-rule="evenodd" clip-rule="evenodd" d="M13.9945 6.31641L12.4393 4.76117L10.884 6.31641L12.4393 7.87164L13.9945 6.31641ZM14.3011 6.57192C14.4422 6.4308 14.4422 6.20201 14.3011 6.06089L12.6948 4.45455C12.5537 4.31344 12.3249 4.31344 12.1838 4.45455L10.5774 6.06089C10.4363 6.20201 10.4363 6.4308 10.5774 6.57192L12.1838 8.17826C12.3249 8.31938 12.5537 8.31938 12.6948 8.17826L14.3011 6.57192Z" fill="#05C3CD"/>
<path fill-rule="evenodd" clip-rule="evenodd" d="M10.7169 7.81273L11.4396 7.09003L11.7207 7.37109L10.998 8.0938L10.7169 7.81273Z" fill="#05C3CD"/>
<path fill-rule="evenodd" clip-rule="evenodd" d="M4.95666 12.2402L6.5119 13.7955L8.06714 12.2402L6.5119 10.685L4.95666 12.2402ZM4.65004 11.9847C4.50893 12.1258 4.50893 12.3546 4.65004 12.4957L6.25639 14.1021C6.3975 14.2432 6.6263 14.2432 6.76741 14.1021L8.37375 12.4957C8.51487 12.3546 8.51487 12.1258 8.37375 11.9847L6.76741 10.3784C6.6263 10.2373 6.3975 10.2373 6.25638 10.3784L4.65004 11.9847Z" fill="#05C3CD"/>
<path fill-rule="evenodd" clip-rule="evenodd" d="M8.29088 10.8006L7.56817 11.5233L7.28711 11.2422L8.00981 10.5195L8.29088 10.8006Z" fill="#05C3CD"/>
<path fill-rule="evenodd" clip-rule="evenodd" d="M12.0843 11.8938C11.4003 12.5779 11.3159 13.6345 11.8312 14.4104L14.601 11.6407C13.825 11.1254 12.7684 11.2098 12.0843 11.8938ZM14.8868 11.3549C13.9511 10.687 12.643 10.773 11.8033 11.6127C10.9635 12.4525 10.8776 13.7606 11.5454 14.6963C11.6216 14.8029 11.7075 14.9048 11.8033 15.0005L15.1911 11.6127C15.0953 11.517 14.9935 11.431 14.8868 11.3549Z" fill="#05C3CD"/>
<path fill-rule="evenodd" clip-rule="evenodd" d="M13.9892 13.797C13.9105 13.8757 13.9105 14.0032 13.9892 14.0819C14.0678 14.1605 14.1953 14.1605 14.274 14.0819C14.3526 14.0032 14.3526 13.8757 14.274 13.797C14.1953 13.7184 14.0678 13.7184 13.9892 13.797ZM13.7081 13.516C13.4742 13.7499 13.4742 14.129 13.7081 14.3629C13.942 14.5968 14.3212 14.5968 14.555 14.3629C14.7889 14.129 14.7889 13.7499 14.555 13.516C14.3212 13.2821 13.942 13.2821 13.7081 13.516Z" fill="#05C3CD"/>
<path fill-rule="evenodd" clip-rule="evenodd" d="M11.3878 11.8958L12.0961 11.1875L12.023 11.1144L11.3147 11.8227L11.3878 11.8958ZM12.6582 11.1875L12.023 10.5523L10.7526 11.8227L11.3878 12.4579L12.6582 11.1875Z" fill="#05C3CD"/>
<path fill-rule="evenodd" clip-rule="evenodd" d="M6.71786 7.23563L7.42615 6.52734L7.35307 6.45426L6.64478 7.16255L6.71786 7.23563ZM7.98828 6.52734L7.60858 6.14765C7.46747 6.00653 7.23867 6.00653 7.09756 6.14765L6.33816 6.90704C6.19705 7.04816 6.19705 7.27695 6.33816 7.41807L6.71786 7.79776L7.98828 6.52734Z" fill="#05C3CD"/>
<path fill-rule="evenodd" clip-rule="evenodd" d="M13.5293 13.0625L14.0586 13.5918L13.7775 13.8729L13.2482 13.3435L13.5293 13.0625Z" fill="#05C3CD"/>
<path fill-rule="evenodd" clip-rule="evenodd" d="M13.6017 7.01165L11.7949 5.20489L12.076 4.92383L13.8827 6.73058L13.6017 7.01165Z" fill="#05C3CD"/>
<path fill-rule="evenodd" clip-rule="evenodd" d="M7.60168 12.9687L5.79492 11.1619L6.07599 10.8809L7.88274 12.6876L7.60168 12.9687Z" fill="#05C3CD"/>
<path fill-rule="evenodd" clip-rule="evenodd" d="M7.03136 13.6972L5.22461 11.8904L5.50567 11.6094L7.31243 13.4161L7.03136 13.6972Z" fill="#05C3CD"/>
<path fill-rule="evenodd" clip-rule="evenodd" d="M12.8868 7.55071L11.0801 5.74396L11.3611 5.46289L13.1679 7.26964L12.8868 7.55071Z" fill="#05C3CD"/>
<path d="M4.74097 8.18786C4.77777 8.22448 4.82754 8.2451 4.87946 8.24525C4.91801 8.245 4.95563 8.23338 4.98761 8.21183C5.01959 8.19029 5.0445 8.1598 5.05922 8.12416C5.07394 8.08853 5.07782 8.04934 5.07037 8.01151C5.06292 7.97368 5.04446 7.93889 5.01732 7.9115L4.81333 7.70751L5.01732 7.50351C5.05397 7.46686 5.07456 7.41716 5.07456 7.36533C5.07456 7.31351 5.05397 7.2638 5.01732 7.22716C4.98068 7.19051 4.93097 7.16992 4.87914 7.16992C4.82731 7.16992 4.77762 7.19051 4.74097 7.22716L4.53697 7.43115L4.3336 7.22716C4.29696 7.19051 4.24725 7.16992 4.19542 7.16992C4.14359 7.16992 4.09388 7.19051 4.05724 7.22716C4.02059 7.2638 4 7.31351 4 7.36533C4 7.41716 4.02059 7.46686 4.05724 7.50351L4.26061 7.70751L4.05724 7.9115C4.0301 7.93889 4.01166 7.97368 4.0042 8.01151C3.99675 8.04934 4.00062 8.08853 4.01534 8.12416C4.03006 8.1598 4.05497 8.19029 4.08695 8.21183C4.11893 8.23338 4.15656 8.245 4.19512 8.24525C4.24704 8.2451 4.2968 8.22448 4.3336 8.18786L4.53697 7.98387L4.74097 8.18786Z" fill="#05C3CD"/>
<path d="M4.32853 10.2168C4.28912 10.2167 4.25055 10.2283 4.21773 10.2501C4.18491 10.2719 4.15931 10.303 4.14417 10.3394C4.12903 10.3757 4.12504 10.4158 4.1327 10.4545C4.14036 10.4931 4.15933 10.5287 4.1872 10.5565C4.21506 10.5844 4.25058 10.6034 4.28924 10.611C4.3279 10.6187 4.36796 10.6147 4.40435 10.5995C4.44074 10.5844 4.47181 10.5588 4.49363 10.526C4.51545 10.4932 4.52703 10.4546 4.52691 10.4152C4.52691 10.3626 4.50601 10.3121 4.4688 10.2749C4.4316 10.2377 4.38115 10.2168 4.32853 10.2168Z" fill="#05C3CD"/>
<path d="M15.9418 8.8463C15.9051 8.80977 15.8554 8.78926 15.8036 8.78926C15.7518 8.78926 15.7021 8.80977 15.6654 8.8463L15.4614 9.05029L15.2574 8.8463C15.2393 8.82815 15.2177 8.81376 15.194 8.80394C15.1703 8.79412 15.1449 8.78906 15.1192 8.78906C15.0936 8.78906 15.0682 8.79412 15.0445 8.80394C15.0207 8.81376 14.9992 8.82815 14.9811 8.8463C14.9629 8.86444 14.9485 8.88599 14.9387 8.90969C14.9289 8.9334 14.9238 8.95882 14.9238 8.98448C14.9238 9.01014 14.9289 9.03555 14.9387 9.05926C14.9485 9.08297 14.9629 9.10451 14.9811 9.12266L15.1851 9.32665L14.9811 9.53064C14.9444 9.56729 14.9238 9.617 14.9238 9.66883C14.9238 9.72065 14.9444 9.77036 14.9811 9.807C15.0177 9.84365 15.0674 9.86424 15.1192 9.86424C15.1711 9.86424 15.2208 9.84365 15.2574 9.807L15.4614 9.60301L15.6654 9.807C15.7021 9.84365 15.7518 9.86424 15.8036 9.86424C15.8554 9.86424 15.9051 9.84365 15.9418 9.807C15.9784 9.77036 15.999 9.72065 15.999 9.66883C15.999 9.617 15.9784 9.56729 15.9418 9.53064L15.7378 9.32665L15.9418 9.12266C15.9783 9.08595 15.9988 9.03627 15.9988 8.98448C15.9988 8.93269 15.9783 8.88301 15.9418 8.8463Z" fill="#05C3CD"/>
<path d="M9.71791 15.1233C9.82748 15.1233 9.9163 15.0345 9.9163 14.9249C9.9163 14.8154 9.82748 14.7266 9.71791 14.7266C9.60835 14.7266 9.51953 14.8154 9.51953 14.9249C9.51953 15.0345 9.60835 15.1233 9.71791 15.1233Z" fill="#05C3CD"/>
</g>
<defs>
<clipPath id="clip0_1396_30433">
<rect width="20" height="20" fill="white"/>
</clipPath>
</defs>
</svg>
