<svg width="32" height="32" fill="none" xmlns="http://www.w3.org/2000/svg">
    <path d="M16 32c8.837 0 16-7.163 16-16S24.837 0 16 0 0 7.163 0 16s7.163 16 16 16z" fill="url(#a)"/>
    <path d="M16 31.75c8.698 0 15.75-7.052 15.75-15.75S24.698.25 16 .25.25 7.302.25 16 7.302 31.75 16 31.75z" stroke="#fff" stroke-width=".5"/>
    <path d="M16.825 16.959h-1.65l.019.051-3.321 8.44 1.394.55 2.734-6.944L18.732 26l1.394-.55-3.32-8.44.019-.051z" fill="#fff"/>
    <path d="m26 13.268-.55-1.395-8.44 3.321-.147-.057-.057-.147 3.32-8.44L18.733 6l-2.73 6.944L13.267 6l-1.395.55 3.321 8.44-.057.147-.147.057-8.44-3.32L6 13.267 12.944 16 6 18.732l.55 1.395 8.44-3.321.136.053v-1.648h.075l-.009-.019.047.02h1.522l.047-.02-.009.02h.075v1.647l.136-.053 8.44 3.32.55-1.394-6.944-2.73L26 13.267z" fill="#fff"/>
    <defs>
        <linearGradient id="a" x1="16" y1="0" x2="16" y2="32" gradientUnits="userSpaceOnUse">
            <stop stop-color="#6E7FEF"/>
            <stop offset="1" stop-color="#5C67B0"/>
        </linearGradient>
    </defs>
</svg>
