<svg width="200" height="200" viewBox="0 0 200 200" fill="none" xmlns="http://www.w3.org/2000/svg">
<path d="M199.75 100C199.75 155.09 155.09 199.75 100 199.75C44.9096 199.75 0.25 155.09 0.25 100C0.25 44.9096 44.9096 0.25 100 0.25C155.09 0.25 199.75 44.9096 199.75 100Z" fill="url(#paint0_linear_472_1443)" stroke="white" stroke-width="0.5"/>
<path d="M145.946 54.0539C120.606 28.6487 79.405 28.6487 54.0539 54.0539C28.6487 79.4591 28.6487 120.595 54.0539 145.946C79.4591 171.351 120.595 171.351 145.946 145.946C171.351 120.606 171.351 79.3941 145.946 54.0539ZM140.356 140.356C118.071 162.641 81.8642 162.641 59.5791 140.356C37.2941 118.071 37.2941 81.8642 59.5791 59.5791C81.8642 37.2941 118.071 37.2941 140.356 59.5791C162.717 81.9292 162.717 118.071 140.356 140.356Z" fill="white"/>
<path d="M135.088 137.886V62.1145C131.786 58.9872 128.093 56.2998 124.102 54.1192V126.576L76.282 53.8591C72.1288 56.0486 68.3003 58.8052 64.9065 62.0495V137.886C68.2085 141.013 71.901 143.701 75.892 145.881V73.425L123.723 146.141C127.873 143.926 131.698 141.148 135.088 137.886Z" fill="white"/>
<defs>
<linearGradient id="paint0_linear_472_1443" x1="100" y1="0" x2="100" y2="200" gradientUnits="userSpaceOnUse">
<stop stop-color="#F4731B"/>
<stop offset="1" stop-color="#F12F4E"/>
</linearGradient>
</defs>
</svg>
