<svg width="200" height="200" viewBox="0 0 200 200" fill="none" xmlns="http://www.w3.org/2000/svg">
<circle cx="100" cy="100" r="100" fill="url(#paint0_linear_778_1509)"/>
<path d="M102.375 156.25C89.5109 156.25 78.9683 153.244 70.746 147.232C63.1947 141.712 58.384 134.017 56.3137 124.15C55.9975 122.643 56.8901 121.173 58.2764 120.786L76.0738 115.818C77.6096 115.389 79.1504 116.447 79.5793 118.095C80.5096 121.672 81.8087 124.586 83.4771 126.837C85.7314 129.699 88.45 131.774 91.6327 133.063C94.9485 134.207 98.5289 134.78 102.375 134.78C108.21 134.78 112.519 133.706 115.305 131.56C118.09 129.27 119.482 126.479 119.482 123.186C119.482 119.895 118.156 117.39 115.504 115.673C112.851 113.812 108.607 112.309 102.773 111.164L97.2028 110.09C90.3066 108.659 84.0075 106.727 78.3053 104.294C72.6024 101.718 68.0274 98.211 64.5795 93.7731C61.1316 89.3363 59.4077 83.612 59.4077 76.5984C59.4077 66.0065 62.9882 57.92 70.1492 52.3375C77.3107 46.6125 86.7261 43.75 98.3964 43.75C109.403 43.75 118.554 46.3978 125.847 51.6934C132.339 56.4073 136.836 62.4246 139.335 69.746C139.854 71.267 139.023 72.8997 137.588 73.3765L119.789 79.2875C118.235 79.8033 116.627 78.7569 116.1 77.0977C114.889 73.2889 112.966 70.4743 110.331 68.6544C107.149 66.3643 103.17 65.2193 98.3964 65.2193C93.6218 65.2193 89.975 66.1497 87.4554 68.0103C84.9358 69.7278 83.676 72.161 83.676 75.3103C83.676 78.7453 85.0021 81.3215 87.6543 83.0389C90.3066 84.613 93.887 85.8304 98.3964 86.6891L103.966 87.7622C111.392 89.193 118.09 91.1259 124.057 93.5587C130.157 95.8493 134.931 99.2129 138.379 103.65C141.96 107.943 143.75 113.812 143.75 121.255C143.75 132.419 139.971 141.078 132.412 147.232C124.985 153.244 114.973 156.25 102.375 156.25V156.25Z" fill="white"/>
<defs>
<linearGradient id="paint0_linear_778_1509" x1="100" y1="0" x2="100" y2="200" gradientUnits="userSpaceOnUse">
<stop stop-color="#FF59A9"/>
<stop offset="1" stop-color="#E91179"/>
</linearGradient>
</defs>
</svg>
