<svg width="20" height="20" fill="none" xmlns="http://www.w3.org/2000/svg">
    <g clip-path="url(#a)">
        <path d="M10.002 18.955a8.955 8.955 0 1 0 0-17.91 8.955 8.955 0 0 0 0 17.91z" fill="#fff"/>
        <path d="M10 19.95A9.95 9.95 0 0 1 2.966 2.964a9.95 9.95 0 1 1 14.072 14.07A9.883 9.883 0 0 1 10 19.95zm0-18.48A8.528 8.528 0 1 0 18.53 10 8.539 8.539 0 0 0 10 1.47z" fill="#00B786"/>
        <path opacity=".41" d="M9.29 19.926V18.5a8.682 8.682 0 0 0 1.421 0v1.426a10.101 10.101 0 0 1-1.421 0zm6.216-3.416a8.608 8.608 0 0 0 1.003-1.006l1.011 1.013a9.71 9.71 0 0 1-.484.519c-.169.168-.342.33-.52.484l-1.01-1.01zm-12.538.526c-.168-.169-.33-.342-.485-.52l1.01-1.011c.307.362.643.698 1.006 1.004L3.486 17.52a9.415 9.415 0 0 1-.52-.484h.002zm15.535-6.325a8.417 8.417 0 0 0 0-1.421h1.427c.014.234.021.472.021.711 0 .24-.008.477-.025.712l-1.423-.002zm-18.424 0a9.032 9.032 0 0 1-.028-.71c0-.238.008-.475.025-.71h1.427a8.701 8.701 0 0 0 0 1.421H.08zM2.48 3.486c.154-.179.316-.352.485-.52.17-.168.343-.33.52-.485l1.01 1.01a8.644 8.644 0 0 0-1.004 1.005L2.48 3.486zm13.024.006 1.011-1.011c.178.155.352.317.52.485.17.169.331.342.485.52l-1.01 1.01a8.607 8.607 0 0 0-1.005-1.004zM9.29.076a10.124 10.124 0 0 1 1.421 0V1.5a8.678 8.678 0 0 0-1.421 0V.077z" fill="#fff" stroke="#fff" stroke-width=".1"/>
        <path d="M14.281 11.492h-.06c-.152.182-.364.303-.577.394h-.03a1.358 1.358 0 0 1-.607.121c-.303.03-.606-.06-.91-.181h-.06a1.752 1.752 0 0 1-.637-.607v-.06l-.577.575s-.12.577-.151.88h.03a3.146 3.146 0 0 0 2.305 1.031h.091c.576 0 1.122-.151 1.638-.424.273-.152.516-.304.758-.516h.03l-1.243-1.213zM6.094 8.61l.242.88.061-.06c.243-.365.637-.638 1.062-.698h.03c.152-.03.303-.061.485-.061.243.03.485.091.698.212.303.152.546.364.758.637l.06.06.547-.788.151-.819-.06-.06a3.447 3.447 0 0 0-1.244-.728c-.243-.091-.516-.121-.789-.152h-.03c-.606 0-1.183.152-1.698.455L6.124 8.52l-.03.091z" fill="#00B786"/>
        <path d="M11.281 10.885v-.546c0-.394.122-.758.364-1.062h.03l.092-.121a1.718 1.718 0 0 1 1.243-.516h.243c.364.061.728.243 1 .486h-.03l1.183-1.183h-.06a3.298 3.298 0 0 0-2.184-.97h-.243c-.485 0-.97.09-1.456.272a2.445 2.445 0 0 0-.788.546h-.06l-.244.273-.181.819-.637.85v.606a1.7 1.7 0 0 1-1.001 1.547 1.77 1.77 0 0 1-2.336-.94c-.09-.183-.121-.395-.151-.607v-.576L5.76 8.549l.273-1.122V5.668l-1.698-.576.06 3.912v1.365c0 .06 0 .091.03.152h.031c.06.97.516 1.85 1.274 2.426a3.57 3.57 0 0 0 2.184.728h.151c.789 0 1.578-.303 2.154-.819l.242-.273.183-.97.636-.728z" fill="#00B786"/>
    </g>
    <defs>
        <clipPath id="a">
            <path fill="#fff" d="M0 0h20v20H0z"/>
        </clipPath>
    </defs>
</svg>
