<svg width="20" height="20" viewBox="0 0 20 20" fill="none" xmlns="http://www.w3.org/2000/svg">
    <path d="M10 20c5.523 0 10-4.477 10-10S15.523 0 10 0 0 4.477 0 10s4.477 10 10 10z" fill="#fff"/>
    <path fill-rule="evenodd" clip-rule="evenodd" d="M9.998 7.614 7.707 5.357H5.355V7.71L7.612 10l-2.257 2.292v2.351h2.352l2.291-2.257 2.292 2.257h2.351v-2.351L12.384 10l2.257-2.291V5.357H12.29L9.998 7.614z" fill="#06B7DD"/>
    <path d="M10 19.999a9.935 9.935 0 0 1-7.072-2.929A9.932 9.932 0 0 1 0 10a9.933 9.933 0 0 1 2.929-7.072A9.934 9.934 0 0 1 9.998 0a9.933 9.933 0 0 1 7.072 2.928A9.93 9.93 0 0 1 19.999 10a9.935 9.935 0 0 1-2.928 7.071A9.936 9.936 0 0 1 10 20zm0-18.57a8.58 8.58 0 0 0-8.571 8.57 8.58 8.58 0 0 0 8.57 8.571A8.58 8.58 0 0 0 18.572 10 8.58 8.58 0 0 0 10 1.428z" fill="#2F4581"/>
    <path opacity=".41" d="M9.285 19.974v-1.433a8.529 8.529 0 0 0 1.428 0v1.434a10.206 10.206 0 0 1-1.428 0zm6.246-3.433a8.627 8.627 0 0 0 1.01-1.01l1.016 1.016a9.879 9.879 0 0 1-1.01 1.01l-1.016-1.016zm-12.602.53c-.17-.17-.332-.345-.488-.524l1.017-1.016c.308.364.646.702 1.01 1.01L3.45 17.557a10.302 10.302 0 0 1-.523-.487h.001zm15.612-6.358a8.699 8.699 0 0 0 0-1.428h1.433a10.204 10.204 0 0 1 0 1.428h-1.433zm-18.516 0a10.222 10.222 0 0 1 0-1.428h1.434a8.737 8.737 0 0 0 0 1.428H.025zm2.416-7.261a10.062 10.062 0 0 1 1.011-1.01l1.016 1.015a8.67 8.67 0 0 0-1.01 1.011L2.44 3.452zm13.09.005 1.016-1.015a10.292 10.292 0 0 1 1.01 1.01l-1.016 1.016a8.632 8.632 0 0 0-1.01-1.01zM9.286.025a10.226 10.226 0 0 1 1.428 0v1.432a8.651 8.651 0 0 0-1.428 0V.026z" fill="#fff"/>
</svg>
