<svg width="20" height="20" viewBox="0 0 20 20" fill="none" xmlns="http://www.w3.org/2000/svg">
    <path d="M10 20c5.523 0 10-4.477 10-10S15.523 0 10 0 0 4.477 0 10s4.477 10 10 10z" fill="#fff"/>
    <path d="M10 19.999a9.935 9.935 0 0 1-7.072-2.929A9.932 9.932 0 0 1 0 10a9.933 9.933 0 0 1 2.929-7.072A9.934 9.934 0 0 1 9.998 0a9.933 9.933 0 0 1 7.072 2.928A9.93 9.93 0 0 1 19.999 10a9.935 9.935 0 0 1-2.928 7.071A9.936 9.936 0 0 1 10 20zm0-18.57a8.58 8.58 0 0 0-8.571 8.57 8.58 8.58 0 0 0 8.57 8.571A8.58 8.58 0 0 0 18.572 10 8.58 8.58 0 0 0 10 1.428z" fill="#161616"/>
    <path opacity=".41" d="M9.285 19.974v-1.433a8.529 8.529 0 0 0 1.428 0v1.434a10.206 10.206 0 0 1-1.428 0zm6.246-3.433a8.627 8.627 0 0 0 1.01-1.01l1.016 1.016a9.879 9.879 0 0 1-1.01 1.01l-1.016-1.016zm-12.602.53c-.17-.17-.332-.345-.488-.524l1.017-1.016c.308.364.646.702 1.01 1.01L3.45 17.557a10.302 10.302 0 0 1-.523-.487h.001zm15.612-6.358a8.699 8.699 0 0 0 0-1.428h1.433a10.204 10.204 0 0 1 0 1.428h-1.433zm-18.516 0a10.222 10.222 0 0 1 0-1.428h1.434a8.737 8.737 0 0 0 0 1.428H.025zm2.416-7.261a10.062 10.062 0 0 1 1.011-1.01l1.016 1.015a8.67 8.67 0 0 0-1.01 1.011L2.44 3.452zm13.09.005 1.016-1.015a10.292 10.292 0 0 1 1.01 1.01l-1.016 1.016a8.632 8.632 0 0 0-1.01-1.01zM9.286.025a10.226 10.226 0 0 1 1.428 0v1.432a8.651 8.651 0 0 0-1.428 0V.026z" fill="#fff"/>
    <circle cx="10" cy="10" r="6" fill="#000"/>
    <circle cx="10.003" cy="10.001" r="5.53" fill="#BABABA"/>
    <circle cx="9.999" cy="9.999" r="4.643" fill="#6B6B6B"/>
    <path fill-rule="evenodd" clip-rule="evenodd" d="M10 15.585A5.583 5.583 0 1 0 10 4.42a5.583 5.583 0 0 0 0 11.165zm0-.21a5.374 5.374 0 1 0 0-10.747 5.374 5.374 0 0 0 0 10.748z" fill="#BABABA"/>
    <path fill-rule="evenodd" clip-rule="evenodd" d="M5.745 12.16c-.336-.656-.546-1.372-.546-2.159a4.8 4.8 0 1 1 9.6 0c0 2.642-2.135 4.734-4.774 4.748 2.582-.014 4.67-2.163 4.67-4.748a4.696 4.696 0 1 0-9.391 0c0 .765.117 1.52.44 2.159z" fill="#000"/>
    <circle cx="10.002" cy="10" r="3.861" fill="#fff"/>
    <circle cx="10" cy="9.998" r="3.809" fill="#000"/>
    <circle cx="10" cy="10.002" r="3.652" fill="#fff"/>
    <path fill-rule="evenodd" clip-rule="evenodd" d="M8.098 8.488a.809.809 0 0 0-.809.809v1.409a.809.809 0 0 0 1.617 0v-.574h-.532l.532-.614v-.221a.809.809 0 0 0-.808-.809zM11.746 8.488a.809.809 0 0 0-.809.809v1.409a.809.809 0 0 0 1.618 0v-.574h-.532l.532-.614v-.221a.809.809 0 0 0-.809-.809z" fill="#000"/>
    <path fill-rule="evenodd" clip-rule="evenodd" d="M6.453 5.904c.945-.84 2.187-1.263 3.548-1.263 2.96 0 5.36 2.413 5.36 5.389a5.57 5.57 0 0 1-1.604 3.909c1.06-.989 1.722-2.33 1.722-3.91 0-3.041-2.453-5.508-5.478-5.508-1.353 0-2.592.565-3.548 1.383z" fill="#fff"/>
</svg>
