<svg width="20" height="20" viewBox="0 0 20 20" fill="none" xmlns="http://www.w3.org/2000/svg">
    <g clip-path="url(#a)">
        <path d="M10.002 18.955a8.955 8.955 0 1 0 0-17.91 8.955 8.955 0 0 0 0 17.91z" fill="#fff"/>
        <path d="M10 19.95A9.95 9.95 0 0 1 2.966 2.964a9.95 9.95 0 1 1 14.072 14.07A9.883 9.883 0 0 1 10 19.95zm0-18.48A8.528 8.528 0 1 0 18.53 10 8.539 8.539 0 0 0 10 1.47z" fill="#28646E"/>
        <path opacity=".41" d="M9.29 19.926V18.5a8.682 8.682 0 0 0 1.421 0v1.426a10.101 10.101 0 0 1-1.421 0zm6.216-3.416a8.608 8.608 0 0 0 1.003-1.006l1.011 1.013a9.71 9.71 0 0 1-.484.519c-.169.168-.342.33-.52.484l-1.01-1.01zm-12.538.526c-.168-.169-.33-.342-.485-.52l1.01-1.011c.307.362.643.698 1.006 1.004L3.486 17.52a9.415 9.415 0 0 1-.52-.484h.002zm15.535-6.325a8.417 8.417 0 0 0 0-1.421h1.427c.014.234.021.472.021.711 0 .24-.008.477-.025.712l-1.423-.002zm-18.424 0a9.032 9.032 0 0 1-.028-.71c0-.238.008-.475.025-.71h1.427a8.701 8.701 0 0 0 0 1.421H.08zM2.48 3.486c.154-.179.316-.352.485-.52.17-.168.343-.33.52-.485l1.01 1.01a8.644 8.644 0 0 0-1.004 1.005L2.48 3.486zm13.024.006 1.011-1.011c.178.155.352.317.52.485.17.169.331.342.485.52l-1.01 1.01a8.607 8.607 0 0 0-1.005-1.004zM9.29.076a10.124 10.124 0 0 1 1.421 0V1.5a8.678 8.678 0 0 0-1.421 0V.077z" fill="#fff" stroke="#fff" stroke-width=".1"/>
        <path d="M9.196 7.795a.291.291 0 0 1-.193-.51c.823-.725 1.187-1.324 1.252-1.437.242-.421.63-.639 1.039-.584a.291.291 0 0 1-.079.578c-.238-.032-.397.197-.455.297-.072.126-.48.797-1.37 1.583a.293.293 0 0 1-.194.072zm-4.905 4.938a.292.292 0 0 1-.186-.515 8.166 8.166 0 0 1 1.072-.716.292.292 0 0 1 .26.521c-.335.19-.656.405-.96.643a.289.289 0 0 1-.186.067z" fill="#28646E"/>
        <path d="M11.618 9.969c.116.108.25.061.374-.056.844-.805 1.738-2.068 2.037-2.724.063-.14.192-.218.33-.163.163.066.16.345.014.649-.39.803-.932 1.687-2 2.794a.222.222 0 0 0 .005.329c.094.085.247.08.39-.066.555-.566.929-1.004 1.25-1.459.082-.119.181-.167.279-.145.14.028.162.163.12.325-.07.262-.807 1.227-1.1 1.554-.79.883-1.583 1.367-3.107 2.16-.532.279-.93.54-1.171.948-.22.37-.285.491-.308.538a.37.37 0 0 0 .163.493.359.359 0 0 0 .486-.187c0-.005-.011.006.275-.478a2.08 2.08 0 0 1 .898-.792c1.525-.695 2.15-1.245 3.034-2.13.403-.403.961-1.268 1.115-1.524.426-.717.202-1.332-.182-1.436a.049.049 0 0 1-.038-.051.05.05 0 0 1 .007-.022c.298-.51.433-.862.49-1.136.075-.37-.03-.821-.54-.931a.05.05 0 0 1-.037-.041c0-.007 0-.014.002-.02.031-.118.063-.266.085-.364.107-.482-.198-.919-.564-.997a.85.85 0 0 0-.688.143.068.068 0 0 1-.088-.01.532.532 0 0 0-.38-.179c-.32-.005-.634.093-.864.584-.164.35-.409.822-1.126 1.617-.665.738-1.591 1.457-2.163 1.832-.1.066-.24.05-.223-.084.027-.214.256-1.65.295-2.073.064-.688-.306-1.004-.72-1.06-.342-.046-.86.052-1.144.83-.168.455-.513 1.204-.807 2.41-.207.847-.24 1.836-.052 2.972a.287.287 0 0 1-.037.198c-.227.373-.558.863-.743 1.29a.367.367 0 0 0 .152.468.358.358 0 0 0 .497-.162c.112-.232.335-.67.425-.848.153-.315.256-.523.297-.654.038-.12.06-.258-.008-.572-.116-.53-.157-1.524.059-2.4.235-.909.522-1.802.859-2.677.087-.215.21-.282.335-.27.124.01.358.07.29.507-.12.786-.29 1.784-.347 2.12-.027.163-.06.548.245.724.237.137.498.06.786-.132.649-.432 1.767-1.314 2.47-2.103.737-.828.972-1.32 1.16-1.767.088-.203.31-.202.388-.179.079.023.174.129.107.353-.164.544-.837 1.791-2.134 2.96-.147.133-.126.29-.051.372.075.082.207.13.358 0 1.165-.994 1.83-2.182 2.13-2.817.1-.211.184-.43.255-.652.063-.184.205-.25.305-.23.142.03.236.176.19.415-.072.306-.179.603-.318.885-.373.793-1.162 1.855-2.013 2.766a.239.239 0 0 0-.004.355zM6.35 6.019c.045-.039.028-.09.015-.13-.062-.2-.42-1.038-.514-1.206-.047-.085-.107-.097-.17-.072-.085.032-.19.111-.35.25-.158.138-.248.233-.291.312-.034.06-.03.121.048.179.155.115.939.578 1.13.67.038.017.086.04.131 0l.001-.002zm6.462 7.415c-.06.004-.076.056-.09.095-.072.197-.297 1.08-.325 1.27-.014.096.026.142.092.161.087.026.216.027.428.013s.34-.033.423-.07c.063-.028.096-.079.07-.172a14.036 14.036 0 0 0-.493-1.216c-.019-.037-.043-.085-.103-.081h-.002zm.51-.41c-.027.054.007.095.034.128.131.164.769.814.917.937.075.062.134.051.185.005.067-.06.136-.17.234-.36.097-.187.148-.306.16-.396.008-.068-.018-.123-.112-.149a13.938 13.938 0 0 0-1.295-.211c-.042-.003-.096-.008-.124.045l.001.002zm-7.28-6.458c-.011-.059-.064-.07-.105-.08a13.888 13.888 0 0 0-1.298-.184c-.097-.004-.138.041-.15.11-.017.09-.004.219.033.428.038.208.07.334.116.412.035.06.089.087.179.051.178-.073.98-.502 1.154-.621.035-.024.081-.053.07-.112v-.004z" fill="#28646E"/>
    </g>
    <defs>
        <clipPath id="a">
            <path fill="#fff" d="M0 0h20v20H0z"/>
        </clipPath>
    </defs>
</svg>
