<svg width="20" height="20" viewBox="0 0 20 20" fill="none" xmlns="http://www.w3.org/2000/svg">
    <g clip-path="url(#a)">
        <path d="M10.002 18.955a8.955 8.955 0 1 0 0-17.91 8.955 8.955 0 0 0 0 17.91z" fill="#fff"/>
        <path d="M10 19.95A9.95 9.95 0 0 1 2.966 2.964a9.95 9.95 0 1 1 14.072 14.07A9.883 9.883 0 0 1 10 19.95zm0-18.48A8.528 8.528 0 1 0 18.53 10 8.539 8.539 0 0 0 10 1.47z" fill="#FF005C"/>
        <path opacity=".41" d="M9.29 19.926V18.5a8.682 8.682 0 0 0 1.421 0v1.426a10.101 10.101 0 0 1-1.421 0zm6.216-3.416a8.608 8.608 0 0 0 1.003-1.006l1.011 1.013a9.71 9.71 0 0 1-.484.519c-.169.168-.342.33-.52.484l-1.01-1.01zm-12.538.526c-.168-.169-.33-.342-.485-.52l1.01-1.011c.307.362.643.698 1.006 1.004L3.486 17.52a9.415 9.415 0 0 1-.52-.484h.002zm15.535-6.325a8.417 8.417 0 0 0 0-1.421h1.427c.014.234.021.472.021.711 0 .24-.008.477-.025.712l-1.423-.002zm-18.424 0a9.032 9.032 0 0 1-.028-.71c0-.238.008-.475.025-.71h1.427a8.701 8.701 0 0 0 0 1.421H.08zM2.48 3.486c.154-.179.316-.352.485-.52.17-.168.343-.33.52-.485l1.01 1.01a8.644 8.644 0 0 0-1.004 1.005L2.48 3.486zm13.024.006 1.011-1.011c.178.155.352.317.52.485.17.169.331.342.485.52l-1.01 1.01a8.607 8.607 0 0 0-1.005-1.004zM9.29.076a10.124 10.124 0 0 1 1.421 0V1.5a8.678 8.678 0 0 0-1.421 0V.077z" fill="#fff" stroke="#fff" stroke-width=".1"/>
        <path d="M9.989 4a5.476 5.476 0 0 0-1.351.16v7.468a.28.28 0 0 1-.08.193.27.27 0 0 1-.19.08h-.541a.198.198 0 0 1-.143-.06.206.206 0 0 1-.06-.145V4.478a5.905 5.905 0 0 0-2.629 2.198A6.069 6.069 0 0 0 4 9.988c.006.798.166 1.586.472 2.32.305.733.75 1.399 1.308 1.957.559.559 1.22 1 1.946 1.297a5.85 5.85 0 0 0 2.285.438c.78.008 1.554-.14 2.277-.436a5.913 5.913 0 0 0 1.938-1.292c.557-.556 1-1.22 1.304-1.95a6.13 6.13 0 0 0 .47-2.31 6.141 6.141 0 0 0-1.789-4.269A5.919 5.919 0 0 0 9.99 4zm-.113 8.493c0 .067-.027.13-.073.177a.247.247 0 0 1-.174.074h-.541a.247.247 0 0 1-.174-.074.256.256 0 0 1-.074-.177V8.691c0-.067.027-.13.074-.177a.247.247 0 0 1 .174-.074h.54c.066 0 .128.027.175.074.046.047.073.11.073.177v3.802zm1.216.365c0 .066-.027.13-.074.176a.247.247 0 0 1-.174.074h-.54a.247.247 0 0 1-.175-.074.256.256 0 0 1-.073-.176V8.326c0-.066.027-.13.073-.176a.247.247 0 0 1 .174-.074h.541c.066 0 .128.027.175.074.046.046.072.11.073.176v4.532zm1.216-.683c-.001.067-.027.13-.074.177a.247.247 0 0 1-.174.074h-.54a.247.247 0 0 1-.174-.074.256.256 0 0 1-.073-.177v-3.12c0-.067.027-.13.073-.177a.247.247 0 0 1 .175-.074h.54c.066 0 .128.027.175.074.046.047.072.11.073.177l-.001 3.12z" fill="#FF005C"/>
    </g>
    <defs>
        <clipPath id="a">
            <path fill="#fff" d="M0 0h20v20H0z"/>
        </clipPath>
    </defs>
</svg>
