<svg width="20" height="20" viewBox="0 0 20 20" fill="none" xmlns="http://www.w3.org/2000/svg">
    <g clip-path="url(#3d7sekx2qa)">
        <path d="M10.002 18.955a8.955 8.955 0 1 0 0-17.91 8.955 8.955 0 0 0 0 17.91z" fill="#fff"/>
        <path d="M10 19.95A9.95 9.95 0 0 1 2.966 2.964a9.95 9.95 0 1 1 14.072 14.07A9.883 9.883 0 0 1 10 19.95zm0-18.48A8.528 8.528 0 1 0 18.53 10 8.539 8.539 0 0 0 10 1.47z" fill="#ED4E33"/>
        <path opacity=".41" d="M9.29 19.925V18.5a8.727 8.727 0 0 0 1.421 0v1.426a10.101 10.101 0 0 1-1.421 0zm6.216-3.416a8.6 8.6 0 0 0 1.003-1.005l1.011 1.011a9.671 9.671 0 0 1-.484.52c-.169.168-.342.33-.52.485l-1.01-1.011zm-12.538.526a10.51 10.51 0 0 1-.485-.52l1.01-1.011c.307.362.643.698 1.006 1.005l-1.013 1.01a9.417 9.417 0 0 1-.52-.484h.002zm15.535-6.325a8.415 8.415 0 0 0 0-1.421h1.427c.014.234.021.472.021.711 0 .24-.008.477-.025.711h-1.423zm-18.424 0A9.032 9.032 0 0 1 .05 10c0-.238.008-.475.025-.71h1.427a8.701 8.701 0 0 0 0 1.421H.08zM2.48 3.486c.154-.179.316-.352.485-.52.17-.168.343-.33.52-.485l1.01 1.01a8.644 8.644 0 0 0-1.004 1.005L2.48 3.485zm13.024.006 1.011-1.011c.178.155.352.317.52.485.17.169.331.342.485.52l-1.01 1.01a8.607 8.607 0 0 0-1.005-1.004zM9.29.075a10.124 10.124 0 0 1 1.421 0V1.5a8.674 8.674 0 0 0-1.421 0V.076z" fill="#fff" stroke="#fff" stroke-width=".1"/>
        <path d="M8.446 5.79c-2.42.928-2.641 3.307-3.335 4.418-.702 1.124-2.31 1.744-2.09 2.317.22.573 1.83-.042 3.103.323 1.26.361 3.016 1.98 5.435 1.052a4.332 4.332 0 0 0 2.536-2.6.2.2 0 0 0-.17-.269.199.199 0 0 0-.196.108 3.442 3.442 0 0 1-6.375-.57 39.386 39.386 0 0 1 2.518-1.064 39.462 39.462 0 0 1 2.538-.88c.511-.158.98-.289 1.403-.395l.09-.023a.13.13 0 0 1 .154.08v.001c.015.036.027.073.04.11.083.237.146.476.187.716a.156.156 0 0 0 .227.111c.348-.186.665-.368.95-.543 1.057-.652 1.644-1.204 1.524-1.518-.12-.313-.926-.33-2.149-.107a19.377 19.377 0 0 0-1.526.348c-.391.104-.803.222-1.232.355-.798.247-1.653.543-2.537.882-.827.318-1.61.647-2.328.975a3.442 3.442 0 0 1 4.693-3.228c.076.03.163.01.218-.051a.2.2 0 0 0-.054-.313 4.334 4.334 0 0 0-3.624-.236z" fill="#000"/>
    </g>
    <defs>
        <clipPath id="3d7sekx2qa">
            <path fill="#fff" d="M0 0h20v20H0z"/>
        </clipPath>
    </defs>
</svg>
