<svg width="22" height="22" viewBox="0 0 22 22" fill="none" xmlns="http://www.w3.org/2000/svg">
    <path d="M11 20.285a9.285 9.285 0 1 0 0-18.57 9.285 9.285 0 1 0 0 18.57z" fill="#fff"/>
    <path d="M11 20.999a9.935 9.935 0 0 1-7.072-2.929A9.932 9.932 0 0 1 1 11a9.933 9.933 0 0 1 2.929-7.072A9.934 9.934 0 0 1 10.998 1a9.933 9.933 0 0 1 7.072 2.928A9.93 9.93 0 0 1 20.999 11a9.935 9.935 0 0 1-2.928 7.071A9.936 9.936 0 0 1 11 21zm0-18.57a8.58 8.58 0 0 0-8.571 8.57 8.58 8.58 0 0 0 8.57 8.571A8.58 8.58 0 0 0 19.572 11 8.58 8.58 0 0 0 11 2.428z" fill="#0C063B"/>
    <path opacity=".41" d="M10.285 20.974v-1.433a8.53 8.53 0 0 0 1.428 0v1.434a10.206 10.206 0 0 1-1.428 0zm6.247-3.433a8.627 8.627 0 0 0 1.009-1.01l1.016 1.016a9.879 9.879 0 0 1-1.01 1.01l-1.015-1.016zm-12.603.53c-.17-.17-.332-.345-.488-.524l1.017-1.016c.308.364.646.702 1.01 1.01L4.45 18.557a10.302 10.302 0 0 1-.523-.487h.001zm15.612-6.358a8.699 8.699 0 0 0 0-1.428h1.433a10.201 10.201 0 0 1 0 1.428h-1.433zm-18.516 0a10.225 10.225 0 0 1 0-1.428h1.434a8.734 8.734 0 0 0 0 1.428H1.025zm2.416-7.261a10.062 10.062 0 0 1 1.011-1.01l1.016 1.015a8.67 8.67 0 0 0-1.01 1.011L3.44 4.452zm13.09.005 1.016-1.015a10.292 10.292 0 0 1 1.01 1.01l-1.016 1.016a8.638 8.638 0 0 0-1.01-1.01zm-6.246-3.432a10.224 10.224 0 0 1 1.428 0v1.432a8.651 8.651 0 0 0-1.428 0V1.026z" fill="#fff" stroke="#fff" stroke-width=".1"/>
    <g clip-path="url(#ni0dw84naa)">
        <path d="m8.947 14.166-.142.083v-.163s-.002.083.036.104c.038.02.106-.024.106-.024z" fill="#8E3315"/>
        <path d="M5.316 14a6.433 6.433 0 0 0 11.826-1.11A6.407 6.407 0 0 0 16.68 8c.719 2.261-1.784 3.055-1.784 3.055l-3.027 1.58-3.148 1.639S6.575 15.65 5.316 14z" fill="#473ADE"/>
        <path d="M5.297 14.01a6.434 6.434 0 0 0 11.826-1.11 6.4 6.4 0 0 0-.46-4.89c.718 2.261-1.787 3.055-1.787 3.055l-3.028 1.58-3.147 1.639s-2.145 1.377-3.404-.274z" fill="url(#3u7a82ptab)"/>
        <path d="m14.914 10.94.13.069-.185.067s.095-.032.108-.068c.013-.037-.053-.068-.053-.068z" fill="#292282"/>
        <path d="M16.718 13.933a6.406 6.406 0 0 0 .4-4.895 6.423 6.423 0 0 0-3.185-3.743 6.44 6.44 0 0 0-8.656 2.78c1.444-1.883 3.533-.289 3.533-.289l3.033 1.572 3.15 1.634s2.36.965 1.725 2.941z" fill="#D71D6A"/>
        <path d="M16.703 13.926a6.387 6.387 0 0 0 .398-4.88 6.4 6.4 0 0 0-3.175-3.731 6.42 6.42 0 0 0-8.63 2.77c1.44-1.877 3.522-.288 3.522-.288l3.024 1.566 3.14 1.63s2.354.962 1.72 2.933z" fill="url(#ghl7f8anac)"/>
        <path d="M8.804 7.937 8.8 7.766l.149.083s-.075-.044-.114-.02c-.037.023-.032.108-.032.108z" fill="#741039"/>
        <path d="M11 4.586c-1.705 0-3.341.675-4.547 1.879a6.409 6.409 0 0 0 0 9.073 6.434 6.434 0 0 0 4.546 1.88c-2.187-.368-2.187-3.197-2.187-3.197V7.723c-.002 0-.002-2.748 2.187-3.138z" fill="#FF5B25"/>
        <path d="M11 4.57c-1.706 0-3.341.676-4.547 1.88a6.41 6.41 0 0 0 0 9.074 6.434 6.434 0 0 0 4.546 1.879c-2.187-.698-2.187-3.177-2.187-3.177V7.784c-.002 0-.081-2.798 2.187-3.214z" fill="url(#vt16mx08pd)"/>
        <path d="M10.984 17.416c-2.171-.986-2.168-3.19-2.168-3.19s-2.692 1.514-3.597-.423c-.002 0 1.516 3.626 5.765 3.613z" fill="#473ADE"/>
    </g>
    <defs>
        <linearGradient id="3u7a82ptab" x1="15.835" y1="9.432" x2="6.499" y2="18.668" gradientUnits="userSpaceOnUse">
            <stop stop-opacity=".6"/>
            <stop offset=".655" stop-opacity="0"/>
        </linearGradient>
        <linearGradient id="ghl7f8anac" x1="6.934" y1="7.947" x2="19.823" y2="10.316" gradientUnits="userSpaceOnUse">
            <stop stop-opacity=".6"/>
            <stop offset=".646" stop-opacity="0"/>
        </linearGradient>
        <linearGradient id="vt16mx08pd" x1="10.255" y1="15.882" x2="6.444" y2="4.121" gradientUnits="userSpaceOnUse">
            <stop stop-opacity=".6"/>
            <stop offset=".675" stop-opacity="0"/>
        </linearGradient>
        <clipPath id="ni0dw84naa">
            <path fill="#fff" transform="translate(4.57 4.57)" d="M0 0h12.857v12.856H0z"/>
        </clipPath>
    </defs>
</svg>
