<svg width="20" height="21" viewBox="0 0 20 21" fill="none" xmlns="http://www.w3.org/2000/svg">
    <path d="M10 20.684c5.523 0 10-4.478 10-10 0-5.523-4.477-10-10-10s-10 4.477-10 10c0 5.522 4.477 10 10 10z" fill="#fff"/>
    <path d="M10 20.682a9.935 9.935 0 0 1-7.072-2.928A9.932 9.932 0 0 1 0 10.683a9.933 9.933 0 0 1 2.929-7.07 9.934 9.934 0 0 1 7.07-2.93 9.933 9.933 0 0 1 7.072 2.93 9.93 9.93 0 0 1 2.928 7.07 9.935 9.935 0 0 1-2.928 7.07A9.936 9.936 0 0 1 10 20.684zm0-18.57a8.58 8.58 0 0 0-8.571 8.57 8.58 8.58 0 0 0 8.57 8.572 8.58 8.58 0 0 0 8.572-8.571A8.58 8.58 0 0 0 10 2.113z" fill="#1F1F2D"/>
    <path opacity=".41" d="M9.285 20.658v-1.434a8.529 8.529 0 0 0 1.428.001v1.433a10.268 10.268 0 0 1-1.428 0zm6.246-3.433a8.627 8.627 0 0 0 1.01-1.01l1.016 1.016a9.879 9.879 0 0 1-1.01 1.01l-1.016-1.016zm-12.602.529c-.17-.17-.332-.344-.488-.523l1.017-1.016c.308.364.646.701 1.01 1.01L3.45 18.24a10.302 10.302 0 0 1-.523-.487h.001zm15.612-6.357a8.699 8.699 0 0 0 0-1.428h1.433a10.203 10.203 0 0 1 0 1.428h-1.433zm-18.516 0a10.222 10.222 0 0 1 0-1.428h1.434a8.736 8.736 0 0 0 0 1.428H.025zm2.416-7.261a10.062 10.062 0 0 1 1.011-1.01L4.468 4.14a8.67 8.67 0 0 0-1.01 1.01L2.44 4.137zm13.09.005 1.016-1.015a10.282 10.282 0 0 1 1.01 1.01l-1.016 1.016a8.633 8.633 0 0 0-1.01-1.01zM9.286.71a10.226 10.226 0 0 1 1.428 0V2.14a8.651 8.651 0 0 0-1.428 0V.71z" fill="#fff"/>
    <g clip-path="url(#u6adcjbpca)">
        <path fill-rule="evenodd" clip-rule="evenodd" d="M9.976 7.767c.55 0 1.077-.22 1.466-.61.388-.391.607-.92.607-1.473H7.902c0 .552.219 1.082.608 1.473.388.39.916.61 1.466.61zm-4.976 5V8.6c.55 0 1.077.22 1.466.61a2.089 2.089 0 0 1 0 2.947c-.389.39-.916.61-1.466.61zm4.976 0a2.078 2.078 0 0 0 2.073-2.083c0-1.151-.928-2.084-2.073-2.084a2.078 2.078 0 0 0-2.074 2.084c0 1.15.929 2.083 2.074 2.083zm2.902-2.083c0 .552.218 1.082.607 1.473.389.39.916.61 1.466.61V8.6c-.55 0-1.077.22-1.466.61-.389.391-.607.921-.607 1.474zm2.073-5v2.083c-.55 0-1.077-.22-1.466-.61a2.088 2.088 0 0 1-.607-1.473h2.073zM5 7.767c.55 0 1.077-.22 1.466-.61.389-.391.607-.92.607-1.473H5v2.083zm3.51 6.443a2.068 2.068 0 0 1 2.932 0c.388.391.607.921.607 1.474H7.902c0-.553.219-1.083.608-1.473zm4.368 1.474h2.073V13.6c-.55 0-1.077.22-1.466.61-.389.391-.607.921-.607 1.474zm-7.878 0V13.6c.55 0 1.077.22 1.466.61.389.391.607.921.607 1.474H5z" fill="#F26057"/>
    </g>
    <defs>
        <clipPath id="u6adcjbpca">
            <path fill="#fff" transform="translate(5 5.684)" d="M0 0h10v10H0z"/>
        </clipPath>
    </defs>
</svg>
