<svg width="20" height="20" viewBox="0 0 20 20" fill="none" xmlns="http://www.w3.org/2000/svg">
    <path d="M10 19.285A9.285 9.285 0 1 0 10 .714a9.285 9.285 0 0 0 0 18.57z" fill="#fff"/>
    <path d="M10 20a9.937 9.937 0 0 1-7.072-2.93A9.933 9.933 0 0 1 0 10a9.934 9.934 0 0 1 2.929-7.071A9.934 9.934 0 0 1 9.998 0a9.933 9.933 0 0 1 7.072 2.929 9.931 9.931 0 0 1 2.928 7.07 9.936 9.936 0 0 1-2.928 7.072A9.935 9.935 0 0 1 10 19.999zm0-18.571a8.58 8.58 0 0 0-8.571 8.57 8.58 8.58 0 0 0 8.57 8.572A8.58 8.58 0 0 0 18.572 10 8.58 8.58 0 0 0 10 1.429z" fill="#7B2BF9"/>
    <path opacity=".41" d="M9.285 19.975V18.54a8.529 8.529 0 0 0 1.428.001v1.433a10.206 10.206 0 0 1-1.428 0zm6.246-3.433a8.627 8.627 0 0 0 1.01-1.01l1.016 1.016a10.67 10.67 0 0 1-1.01 1.01l-1.016-1.016zM2.93 17.07c-.17-.17-.332-.344-.488-.523l1.017-1.016c.308.364.646.701 1.01 1.01L3.45 17.558a10.257 10.257 0 0 1-.523-.487h.001zm15.612-6.357a8.703 8.703 0 0 0 0-1.429h1.433a10.205 10.205 0 0 1 0 1.429h-1.433zm-18.516 0a10.227 10.227 0 0 1 0-1.429h1.434a8.737 8.737 0 0 0 0 1.429H.025zm2.416-7.262a10.062 10.062 0 0 1 1.011-1.01l1.016 1.016a8.669 8.669 0 0 0-1.01 1.01L2.44 3.452zm13.09.006 1.016-1.016a10.292 10.292 0 0 1 1.01 1.01l-1.016 1.016a8.639 8.639 0 0 0-1.01-1.01zM9.285.025a10.226 10.226 0 0 1 1.428 0v1.432a8.647 8.647 0 0 0-1.428 0V.026z" fill="#fff"/>
    <path fill-rule="evenodd" clip-rule="evenodd" d="M15.567 10.165c-.001.038-.052.048-.067.013a5.577 5.577 0 0 0-.02-.045.083.083 0 0 1 .01-.083l.02-.027c.024-.032.06-.027.06.008 0 .047-.002.087-.003.134zm-.27-.736a.113.113 0 0 1-.194.007l-.021-.034a6.6 6.6 0 0 0-.57-.749.093.093 0 0 1 .07-.153h.001c.499 0 .76.123.84.274.067.125.046.345-.126.655zm-.111 2.61a5.509 5.509 0 0 1-.084.202l-.014.028c-.183.353-.492.632-.903.825a.12.12 0 0 1-.166-.14c.136-.489.24-1.02.307-1.575a.42.42 0 0 1 .143-.268c.169-.146.327-.293.473-.438l.001-.002a.134.134 0 0 1 .223.057c.144.477.152.922.02 1.31zm-1.12 1.766a5.515 5.515 0 0 1-.36.353c-.05.044-.126-.012-.098-.072l.024-.053c.034-.073.066-.149.097-.226a.062.062 0 0 1 .042-.036c.08-.02.156-.043.231-.067.06-.02.108.054.065.101zm-.821-.442a4.83 4.83 0 0 1-.524.046 6.523 6.523 0 0 1-1.402-.112.063.063 0 0 1-.017-.117 17.144 17.144 0 0 0 2.356-1.427.063.063 0 0 1 .099.06c-.084.505-.2.98-.347 1.412a.206.206 0 0 1-.165.138zm-.171.673c-.398.782-.888 1.22-1.362 1.212-.516-.01-1.03-.546-1.411-1.474a.117.117 0 0 1 .061-.152l.012-.006a.118.118 0 0 1 .08-.005c.712.2 1.414.304 2.072.304a5.995 5.995 0 0 0 .456-.017.095.095 0 0 1 .091.138zm-2.355 1.487a5.63 5.63 0 0 1-.718.046 5.53 5.53 0 0 1-3.007-.88c-.06-.039-.035-.134.038-.137l.041-.002c.226-.015.474-.048.742-.1.571-.11 1.206-.298 1.87-.552a.118.118 0 0 1 .15.066v.001c.258.627.575 1.1.931 1.402.059.05.03.146-.047.156zM7.5 11.62c.49-.4 1.066-.798 1.696-1.176.014.807.102 1.581.259 2.28a10.185 10.185 0 0 1-1.955-1.104zm-1.526 2.161c-.117-.22.034-.732.803-1.51a.191.191 0 0 0-.017-.285 9.014 9.014 0 0 1-.092-.073.192.192 0 0 0-.256.014l-.03.03c-.385.394-.654.76-.804 1.088a.131.131 0 0 1-.228.017A5.53 5.53 0 0 1 4.432 10c0-.395.041-.784.121-1.162.012-.057.093-.061.11-.005.115.381.303.776.563 1.175.35.537.811 1.053 1.358 1.527.186.162.383.318.589.469.417.306.87.588 1.35.838.214.111.422.217.635.313a.482.482 0 0 0 .375.01c.1-.04.201-.08.303-.123a.242.242 0 0 0 .141-.283 10.81 10.81 0 0 1-.28-2.365v-.03l-.001-.137v-.07a12.36 12.36 0 0 1 .017-.582c.051-1.004.222-1.947.492-2.74a.14.14 0 0 0-.087-.179 8.885 8.885 0 0 0-.215-.07.14.14 0 0 0-.173.088c-.294.862-.475 1.884-.524 2.966a.407.407 0 0 1-.199.332c-.64.38-1.229.783-1.737 1.189a.281.281 0 0 1-.36-.008 6.872 6.872 0 0 1-1.263-1.42c-.637-.978-.788-1.9-.426-2.594 0-.002.002-.003.003-.005a5.56 5.56 0 0 1 .144-.227c.416-.551 1.191-.87 2.219-.906a5.56 5.56 0 0 1 .197-.004c.63 0 1.306.104 1.994.303l.046.013.035.01c.159.047.318.1.478.158.004 0 .007.002.011.004a9.516 9.516 0 0 1 .164.06l.037.015a10.02 10.02 0 0 1 2.744 1.607c-.976.223-2.11.654-3.25 1.236a.167.167 0 0 0-.09.138c-.004.071-.01.213-.013.326a.092.092 0 0 0 .135.085c1.13-.593 2.256-1.036 3.224-1.27a.362.362 0 0 0 .272-.402 9.845 9.845 0 0 0-.06-.38.632.632 0 0 0-.24-.393 10.485 10.485 0 0 0-2.58-1.43.138.138 0 0 1-.07-.196c.377-.675.826-1.053 1.263-1.053h.014c.516.01 1.03.546 1.411 1.473.193.47.342 1.011.444 1.6l-.001-.002c.043.251.079.51.105.777l-.007.004.01.01a12.175 12.175 0 0 1 .005 2.271 15.7 15.7 0 0 1-2.482 1.61c-.308.164-.616.316-.921.456l-.014.006-.07.032c-.254.114-.504.22-.75.317l-.042.016-.052.02-.123.047-.034.013-.15.054-.018.007c-.528.188-1.03.33-1.489.418-1.107.213-1.628.05-1.747-.175zm.795-8.318a5.527 5.527 0 0 1 3.233-1.033c.31 0 .617.026.917.075.08.013.107.116.043.166-.291.228-.561.566-.8 1.003a.26.26 0 0 1-.3.126c-.792-.223-1.571-.328-2.292-.303-.265.01-.517.037-.753.08-.067.012-.103-.074-.048-.114zm7.644 4.059a.065.065 0 0 1 .117-.04 5.55 5.55 0 0 1 .288.449.14.14 0 0 1-.018.164 6.56 6.56 0 0 1-.298.306.056.056 0 0 1-.094-.042 13.857 13.857 0 0 0 .005-.837zm-.577-3.562.104.101c.536.537.95 1.164 1.226 1.847a.094.094 0 0 1-.104.128 2.8 2.8 0 0 0-.539-.039.28.28 0 0 1-.282-.23 8.164 8.164 0 0 0-.5-1.74c-.026-.06.048-.112.095-.067zm2.106 2.776a6.029 6.029 0 0 0-1.647-3.03A6.031 6.031 0 0 0 10 3.929a6.031 6.031 0 0 0-4.293 1.778c-.279.279-.527.58-.743.9a2.168 2.168 0 0 0-.173.27A6.034 6.034 0 0 0 3.93 10c0 1.622.631 3.146 1.778 4.293A6.032 6.032 0 0 0 10 16.07a6.031 6.031 0 0 0 4.293-1.778 6.065 6.065 0 0 0 1.363-2.078 6.133 6.133 0 0 0 .288-3.462l-.004-.016z" fill="#000"/>
</svg>
