<svg width="22" height="22" viewBox="0 0 22 22" fill="none" xmlns="http://www.w3.org/2000/svg">
    <path d="M11 20.285A9.285 9.285 0 0 0 20.285 11a9.285 9.285 0 1 0-18.57 0A9.285 9.285 0 0 0 11 20.285z" fill="#fff"/>
    <path d="M11 20.999a9.934 9.934 0 0 1-7.072-2.929A9.932 9.932 0 0 1 1 11a9.934 9.934 0 0 1 2.928-7.072A9.933 9.933 0 0 1 11 1a9.932 9.932 0 0 1 7.07 2.928A9.934 9.934 0 0 1 21 11a9.937 9.937 0 0 1-2.93 7.071A9.934 9.934 0 0 1 11 21zm0-18.57a8.58 8.58 0 0 0-8.572 8.57A8.58 8.58 0 0 0 11 19.57 8.58 8.58 0 0 0 19.57 11 8.58 8.58 0 0 0 11 2.428z" fill="#354777"/>
    <path opacity=".41" d="M10.284 20.974v-1.433a8.528 8.528 0 0 0 1.428 0v1.434a10.203 10.203 0 0 1-1.428 0zm6.247-3.433a8.626 8.626 0 0 0 1.009-1.01l1.016 1.016a9.879 9.879 0 0 1-1.009 1.01l-1.016-1.016zm-12.602.53c-.17-.17-.332-.345-.488-.524l1.017-1.016c.308.364.645.702 1.01 1.01L4.45 18.557a10.297 10.297 0 0 1-.523-.487h.001zm15.61-6.358a8.743 8.743 0 0 0 0-1.428h1.434a10.201 10.201 0 0 1 0 1.428H19.54zm-18.514 0a10.225 10.225 0 0 1 0-1.428h1.433a8.734 8.734 0 0 0 0 1.428H1.025zm2.416-7.261a10.062 10.062 0 0 1 1.01-1.01l1.016 1.015a8.67 8.67 0 0 0-1.01 1.011L3.442 4.452zm13.09.005 1.015-1.015a10.247 10.247 0 0 1 1.01 1.01L17.54 5.468a8.63 8.63 0 0 0-1.01-1.01zm-6.247-3.432a10.222 10.222 0 0 1 1.428 0v1.432a8.649 8.649 0 0 0-1.428 0V1.026z" fill="#fff" stroke="#fff" stroke-width=".1"/>
    <path fill-rule="evenodd" clip-rule="evenodd" d="M7.07 11.709V7.833l3.928-2.548 3.929 2.548v4.14l-3.928 2.549-1.965-1.274v3.61L7.07 15.584v-3.875zm1.965-.53V9.107l1.964-1.274 1.964 1.274v2.07L11 12.452l-1.964-1.274z" fill="#354777"/>
</svg>
