<svg width="20" height="20" viewBox="0 0 20 20" fill="none" xmlns="http://www.w3.org/2000/svg">
    <g clip-path="url(#b2rmw3ky5a)">
        <path d="M10.002 18.955a8.955 8.955 0 1 0 0-17.91 8.955 8.955 0 0 0 0 17.91z" fill="#fff"/>
        <path d="M10 19.95A9.95 9.95 0 0 1 2.966 2.964a9.95 9.95 0 1 1 14.072 14.07A9.883 9.883 0 0 1 10 19.95zm0-18.48A8.528 8.528 0 1 0 18.53 10 8.539 8.539 0 0 0 10 1.47z" fill="#353340"/>
        <path opacity=".41" d="M9.29 19.926V18.5a8.682 8.682 0 0 0 1.421 0v1.426a10.101 10.101 0 0 1-1.421 0zm6.216-3.416a8.608 8.608 0 0 0 1.003-1.006l1.011 1.013a9.71 9.71 0 0 1-.484.519c-.169.168-.342.33-.52.484l-1.01-1.01zm-12.538.526c-.168-.169-.33-.342-.485-.52l1.01-1.011c.307.362.643.698 1.006 1.004L3.486 17.52a9.415 9.415 0 0 1-.52-.484h.002zm15.535-6.325a8.417 8.417 0 0 0 0-1.421h1.427c.014.234.021.472.021.711 0 .24-.008.477-.025.712l-1.423-.002zm-18.424 0a9.032 9.032 0 0 1-.028-.71c0-.238.008-.475.025-.71h1.427a8.701 8.701 0 0 0 0 1.421H.08zM2.48 3.486c.154-.179.316-.352.485-.52.17-.168.343-.33.52-.485l1.01 1.01a8.644 8.644 0 0 0-1.004 1.005L2.48 3.486zm13.024.006 1.011-1.011c.178.155.352.317.52.485.17.169.331.342.485.52l-1.01 1.01a8.607 8.607 0 0 0-1.005-1.004zM9.29.076a10.124 10.124 0 0 1 1.421 0V1.5a8.678 8.678 0 0 0-1.421 0V.077z" fill="#fff" stroke="#fff" stroke-width=".1"/>
        <path d="M7.805 7.773C6.002 6.767 5.3 7.553 5.14 8.95c-.414-2.687.431-3.703 1.936-3.022.65.298 1.25.691 1.783 1.167.311.273.713.42 1.126.413" fill="#353340"/>
        <path d="M9.977 7.509a1.783 1.783 0 0 0 1.133-.428 7.646 7.646 0 0 1 1.808-1.153c1.507-.681 2.354.335 1.94 3.022-.188.133-.372.268-.566.415.018-.423-.04-.914-.047-1.284-.021-1.203-1.711-.766-2.586.247-.507.588.183 1.392.972 1.927.141.04.285.069.431.087-.319.26-.685.563-1.121.925-.548-.514-1.25-1.174-1.95-1.793" fill="#353340"/>
        <path d="M10 7.508a1.778 1.778 0 0 1-1.118-.427 7.64 7.64 0 0 0-1.806-1.153c-1.504-.681-2.35.334-1.936 3.022.188.133.371.267.565.415-.018-.424.041-.914.047-1.284.021-1.203 1.71-.767 2.58.246.507.588-.182 1.393-.969 1.927-.141.04-.285.069-.43.087.317.26.683.564 1.119.926.547-.515 1.248-1.175 1.948-1.795.7-.62 0-1.963 0-1.963zM10.661 12.958a4.16 4.16 0 0 0 1.621 1.872c1.72.85 2.718-.472 2.282-1.893-.195-.638-.928-1.899-2.067-2.363-.287-.117-2.153 1.625-1.836 2.384zm.78-1.259c.082-.455.301-.418.423-.366.492.211 1.084.73 1.294 1.252.299.747-.214 1.216-.884.78-.61-.396-.945-1.033-.832-1.666z" fill="#353340"/>
        <path d="M7.506 10.574c-1.14.464-1.872 1.726-2.068 2.363-.436 1.42.563 2.743 2.282 1.893a4.158 4.158 0 0 0 1.621-1.872c.316-.76-1.55-2.501-1.835-2.384zm.222 2.792c-.67.435-1.183-.034-.883-.78.209-.523.801-1.042 1.294-1.252.12-.052.34-.09.422.365.112.633-.222 1.27-.833 1.667z" fill="#353340"/>
        <path d="M12.923 5.928c3.286-1.138 1.345 4.69-2.923 4.69-4.269 0-6.21-5.828-2.923-4.69-3.582-1.861-4.51 2.8-.216 5.35 1.276.758 2.562 2.154.858 3.552C8.798 14.292 9.065 13.32 10 13.32s1.203.972 2.282 1.509c-1.704-1.398-.42-2.794.857-3.551 4.294-2.55 3.366-7.212-.216-5.351z" fill="#00000E"/>
    </g>
    <defs>
        <clipPath id="b2rmw3ky5a">
            <path fill="#fff" d="M0 0h20v20H0z"/>
        </clipPath>
    </defs>
</svg>
