<svg width="20" height="20" viewBox="0 0 20 20" fill="none" xmlns="http://www.w3.org/2000/svg">
<g clip-path="url(#clip0)">
<path d="M10.0001 18.9554C14.946 18.9554 18.9554 14.946 18.9554 10.0001C18.9554 5.05431 14.946 1.04492 10.0001 1.04492C5.05431 1.04492 1.04492 5.05431 1.04492 10.0001C1.04492 14.946 5.05431 18.9554 10.0001 18.9554Z" fill="white"/>
<path d="M10.0009 19.9501C8.03295 19.9501 6.10919 19.3665 4.47291 18.2732C2.83662 17.1798 1.5613 15.6258 0.808196 13.8077C0.0550961 11.9895 -0.141952 9.98886 0.24197 8.05872C0.625891 6.12858 1.57354 4.35562 2.96508 2.96406C3.88577 2.02567 4.98329 1.27904 6.19421 0.767285C7.40514 0.255534 8.70547 -0.0111862 10.0201 -0.0174646C11.3347 -0.0237431 12.6375 0.230545 13.8533 0.730706C15.069 1.23087 16.1736 1.96699 17.1032 2.89653C18.0329 3.82608 18.7691 4.93063 19.2693 6.14635C19.7695 7.36208 20.0239 8.66488 20.0177 9.97949C20.0116 11.2941 19.7449 12.5944 19.2333 13.8054C18.7216 15.0164 17.975 16.1139 17.0367 17.0347C16.115 17.9618 15.0186 18.6968 13.8109 19.1972C12.6032 19.6977 11.3082 19.9536 10.0009 19.9501V19.9501ZM10.0009 1.47052C8.31419 1.47052 6.66536 1.97068 5.2629 2.90774C3.86044 3.84481 2.76734 5.1767 2.12182 6.73499C1.4763 8.29329 1.30735 10.008 1.63634 11.6623C1.96533 13.3166 2.77747 14.8362 3.97009 16.029C5.1627 17.2217 6.68222 18.0341 8.33649 18.3633C9.99076 18.6924 11.7055 18.5237 13.2639 17.8783C14.8222 17.233 16.1543 16.1401 17.0915 14.7377C18.0287 13.3354 18.5291 11.6866 18.5293 9.99988C18.5269 7.73865 17.6276 5.5707 16.0288 3.97168C14.43 2.37266 12.2621 1.47316 10.0009 1.47052V1.47052Z" fill="#291D51"/>
<path opacity="0.41" d="M9.28959 19.9264V18.4995C9.52441 18.5188 9.76156 18.5284 10.001 18.5284C10.2405 18.5284 10.4773 18.5188 10.7115 18.4995V19.9264C10.476 19.943 10.2392 19.9513 10.001 19.9513C9.76289 19.9513 9.52574 19.943 9.28959 19.9264ZM15.5055 16.5095C15.8673 16.2027 16.2031 15.8666 16.5095 15.5045L17.5204 16.5165C17.3659 16.6949 17.2043 16.868 17.0359 17.0359C16.8674 17.2037 16.6942 17.3652 16.5165 17.5204L15.5055 16.5095ZM2.96819 17.0359C2.7997 16.8674 2.63785 16.6942 2.48262 16.5165L3.49357 15.5045C3.80029 15.8666 4.13642 16.2028 4.49854 16.5095L3.48561 17.5204C3.30717 17.3665 3.1337 17.205 2.96521 17.0359H2.96819ZM18.5025 10.7115C18.5224 10.4767 18.5324 10.2398 18.5324 10C18.5324 9.76023 18.5224 9.52441 18.5035 9.28959H19.9304C19.9443 9.52441 19.9513 9.76156 19.9513 10.001C19.9513 10.2405 19.943 10.4776 19.9264 10.7125L18.5025 10.7115ZM0.0786419 10.7115C0.0600681 10.476 0.0507812 10.2392 0.0507812 10.001C0.0507812 9.76289 0.0590731 9.52607 0.0756569 9.29058H1.50252C1.48329 9.52541 1.47367 9.76222 1.47367 10.001C1.47367 10.2408 1.48362 10.4776 1.50352 10.7125L0.0786419 10.7115ZM2.48063 3.48561C2.63519 3.30717 2.79705 3.13403 2.9662 2.9662C3.13536 2.79838 3.30882 2.63652 3.4866 2.48063L4.49655 3.49058C4.13454 3.79742 3.79842 4.13355 3.49158 4.49556L2.48063 3.48561ZM15.5055 3.49158L16.5165 2.48063C16.6942 2.63586 16.8677 2.79771 17.0368 2.9662C17.206 3.13469 17.3675 3.30783 17.5214 3.48561L16.5105 4.49556C16.2037 4.13376 15.8676 3.79796 15.5055 3.49158V3.49158ZM9.28959 0.0756569C9.52508 0.0590731 9.76222 0.0507812 10.001 0.0507812C10.2398 0.0507812 10.4767 0.0590731 10.7115 0.0756569V1.50053C10.4773 1.4813 10.2405 1.47168 10.001 1.47168C9.76156 1.47168 9.52441 1.48163 9.28959 1.50153V0.0756569Z" fill="white" stroke="white" stroke-width="0.1"/>
<path d="M17.572 9.918C17.572 9.34662 15.426 8.86825 12.4461 8.69758C14.2101 8.53895 15.4214 8.21256 15.4214 7.83718C15.4214 7.45764 13.6142 7.01456 11.1987 6.90203C12.0815 6.79905 12.689 6.58934 12.689 6.38379C12.689 6.15582 11.5014 5.80078 10.036 5.80078C8.57098 5.80078 7.38294 6.13257 7.38294 6.38379C7.38294 6.62132 7.94353 6.80777 8.76947 6.90078C6.40669 7.00003 4.651 7.37168 4.651 7.83676C4.651 8.21007 5.84361 8.53438 7.58683 8.69384C4.62692 8.85454 2.5 9.30592 2.5 9.918C2.5 10.5342 4.63522 10.9848 7.60386 11.143C5.85191 11.3058 4.65059 11.6351 4.65059 11.9988C4.65059 12.4622 6.39174 12.8322 8.73957 12.9336C7.92983 13.0282 7.38253 13.2126 7.38253 13.4472C7.38253 13.6989 8.57056 14.0307 10.0356 14.0307C11.501 14.0307 12.6886 13.6756 12.6886 13.4472C12.6886 13.2442 12.094 13.037 11.2269 12.9327C13.6279 12.8185 15.421 12.3771 15.421 11.9988C15.421 11.6355 14.2226 11.3062 12.4735 11.1442C15.4392 10.9869 17.572 10.5405 17.572 9.918ZM8.06064 8.50864C8.08929 8.48372 8.12168 8.46047 8.1632 8.43514L9.68801 7.5548C9.79597 7.49293 9.91639 7.4622 10.0372 7.4622C10.1577 7.4622 10.2781 7.49293 10.3848 7.5548L11.91 8.43514C11.9976 8.4858 12.0745 8.55681 12.1305 8.63903L12.1318 8.64318L12.1359 8.64609C12.1583 8.67931 12.1783 8.71253 12.1924 8.74284C12.1928 8.74533 12.1936 8.74741 12.197 8.7553C12.2148 8.79433 12.2281 8.83503 12.2389 8.87572C12.2414 8.88776 12.2377 8.89441 12.2347 8.89897C12.2165 8.92181 12.1575 8.93759 12.0753 8.9405C12.0201 8.94299 11.9611 8.94008 11.8884 8.93219C11.3079 8.87032 10.7274 8.82257 10.1469 8.7607C9.45297 8.68678 8.76739 8.62366 8.0652 8.52566C8.06022 8.52442 8.05773 8.52068 8.05731 8.5186C8.05648 8.51611 8.05648 8.51237 8.06064 8.50864ZM12.1882 11.099C12.1745 11.1289 12.1575 11.1584 12.138 11.1874L12.1255 11.2053C12.0769 11.273 12.0159 11.3315 11.9449 11.3789L10.384 12.2812C10.1693 12.4049 9.90269 12.4049 9.68759 12.2812L8.32847 11.4964L8.32598 11.4951C8.29733 11.4764 8.26618 11.4528 8.24501 11.4241C8.22715 11.4013 8.22881 11.3926 8.22923 11.3909C8.22964 11.3897 8.23255 11.3834 8.25663 11.3764C8.27075 11.3718 8.28736 11.3668 8.30439 11.3643C8.36543 11.3539 8.42689 11.3398 8.48876 11.3303L8.50579 11.3274C8.60503 11.3132 8.70427 11.2983 8.8031 11.2838C9.00699 11.2559 9.19635 11.2314 9.38197 11.2094C9.57423 11.1866 9.76234 11.1667 9.94089 11.1505C10.1261 11.133 10.3076 11.1185 10.4811 11.1069C10.651 11.0965 10.8266 11.0865 11.0027 11.0803C11.1742 11.0741 11.344 11.0703 11.5081 11.0691C11.5409 11.0691 11.5741 11.0682 11.6069 11.0682C11.7393 11.0682 11.8697 11.0658 11.9976 11.0691C12.0363 11.0699 12.0753 11.077 12.1139 11.0782L12.1795 11.0861C12.1841 11.0861 12.187 11.0894 12.1878 11.0907C12.1895 11.0923 12.1903 11.0957 12.1882 11.099ZM12.2572 10.3532C12.2572 10.5484 11.9989 10.5795 11.996 10.5799C10.9279 10.7086 9.79348 10.778 8.62372 10.7979C8.37623 10.8021 8.12874 10.8025 7.88166 10.7904C7.86381 10.7896 7.8472 10.7838 7.83432 10.7713C7.82187 10.7589 7.81439 10.7419 7.81439 10.724V9.39811L7.81522 9.26564C7.81605 9.26398 7.81605 9.26024 7.81605 9.25568C7.81273 9.15643 7.90575 9.05677 8.09178 9.05054C8.2093 9.04639 8.32806 9.04182 8.44765 9.04514C9.61658 9.07795 11.1173 9.2154 12.2497 9.61528C12.2538 9.61653 12.2572 9.61985 12.2572 9.624V10.3532V10.3532Z" fill="#291D51"/>
</g>
<defs>
<clipPath id="clip0">
<rect width="20" height="20" fill="white"/>
</clipPath>
</defs>
</svg>
