<svg width="20" height="20" fill="none" xmlns="http://www.w3.org/2000/svg">
    <g clip-path="url(#a)">
        <path d="M10 18.955a8.955 8.955 0 1 0 0-17.91 8.955 8.955 0 0 0 0 17.91z" fill="#fff"/>
        <path d="M10 19.95A9.95 9.95 0 0 1 2.966 2.964a9.95 9.95 0 1 1 14.072 14.07A9.883 9.883 0 0 1 10 19.95zm0-18.48A8.528 8.528 0 1 0 18.53 10 8.539 8.539 0 0 0 10 1.47z" fill="#6E7CDE"/>
        <path opacity=".41" d="M9.29 19.926V18.5a8.682 8.682 0 0 0 1.421 0v1.426a10.101 10.101 0 0 1-1.421 0zm6.216-3.416a8.608 8.608 0 0 0 1.003-1.006l1.011 1.013a9.71 9.71 0 0 1-.484.519c-.169.168-.342.33-.52.484l-1.01-1.01zm-12.538.526c-.168-.169-.33-.342-.485-.52l1.01-1.011c.307.362.643.698 1.006 1.004L3.486 17.52a9.415 9.415 0 0 1-.52-.484h.002zm15.535-6.325a8.417 8.417 0 0 0 0-1.421h1.427c.014.234.021.472.021.711 0 .24-.008.477-.025.712l-1.423-.002zm-18.424 0a9.032 9.032 0 0 1-.028-.71c0-.238.008-.475.025-.71h1.427a8.701 8.701 0 0 0 0 1.421H.08zM2.48 3.486c.154-.179.316-.352.485-.52.17-.168.343-.33.52-.485l1.01 1.01a8.644 8.644 0 0 0-1.004 1.005L2.48 3.486zm13.024.006 1.011-1.011c.178.155.352.317.52.485.17.169.331.342.485.52l-1.01 1.01a8.607 8.607 0 0 0-1.005-1.004zM9.29.076a10.124 10.124 0 0 1 1.421 0V1.5a8.678 8.678 0 0 0-1.421 0V.077z" fill="#fff" stroke="#fff" stroke-width=".1"/>
        <path fill-rule="evenodd" clip-rule="evenodd" d="m10.524 9.499-.837.33-2.164-5.5L8.36 4l2.164 5.499zm1.949 6.173-.837.329-2.164-5.5.837-.328 2.164 5.499z" fill="url(#b)"/>
        <path d="m12.477 4.331-.836-.33-2.164 5.5.836.33 2.164-5.5zM10.524 10.503l-.836-.33-2.164 5.5.836.329 2.164-5.499z" fill="#456CBB"/>
        <path fill-rule="evenodd" clip-rule="evenodd" d="m10.173 9.685 5.499-2.164.329.837-5.5 2.164-.328-.837zM4 11.638l5.499-2.164.33.837-5.5 2.163L4 11.638z" fill="url(#c)"/>
        <path d="M4.33 7.525 4 8.36l5.499 2.164.33-.836-5.5-2.164zM10.5 9.476l-.33.836 5.499 2.164.33-.836-5.5-2.164z" fill="#4A69B9"/>
        <path fill="#fff" d="M9.459 9.461h1.08v1.08h-1.08z"/>
    </g>
    <defs>
        <linearGradient id="b" x1="8.049" y1="4" x2="11.95" y2="15.848" gradientUnits="userSpaceOnUse">
            <stop stop-color="#723DA1"/>
            <stop offset="1" stop-color="#942E9C"/>
        </linearGradient>
        <linearGradient id="c" x1="15.851" y1="7.896" x2="4.6" y2="11.796" gradientUnits="userSpaceOnUse">
            <stop stop-color="#AB2899"/>
            <stop offset="1" stop-color="#594CA8"/>
        </linearGradient>
        <clipPath id="a">
            <path fill="#fff" d="M0 0h20v20H0z"/>
        </clipPath>
    </defs>
</svg>
