<svg width="20" height="20" viewBox="0 0 20 20" fill="none" xmlns="http://www.w3.org/2000/svg">
<g clip-path="url(#clip0)">
<path d="M10.0001 18.9554C14.946 18.9554 18.9554 14.946 18.9554 10.0001C18.9554 5.05431 14.946 1.04492 10.0001 1.04492C5.05431 1.04492 1.04492 5.05431 1.04492 10.0001C1.04492 14.946 5.05431 18.9554 10.0001 18.9554Z" fill="white"/>
<path d="M10.0009 19.9501C8.03295 19.9501 6.10919 19.3665 4.47291 18.2732C2.83662 17.1798 1.5613 15.6258 0.808196 13.8077C0.0550961 11.9895 -0.141952 9.98886 0.24197 8.05872C0.625891 6.12858 1.57354 4.35562 2.96508 2.96406C3.88577 2.02567 4.98329 1.27904 6.19421 0.767285C7.40514 0.255534 8.70547 -0.0111862 10.0201 -0.0174646C11.3347 -0.0237431 12.6375 0.230545 13.8533 0.730706C15.069 1.23087 16.1736 1.96699 17.1032 2.89653C18.0329 3.82608 18.7691 4.93063 19.2693 6.14635C19.7695 7.36208 20.0239 8.66488 20.0177 9.97949C20.0116 11.2941 19.7449 12.5944 19.2333 13.8054C18.7216 15.0164 17.975 16.1139 17.0367 17.0347C16.115 17.9618 15.0186 18.6968 13.8109 19.1972C12.6032 19.6977 11.3082 19.9536 10.0009 19.9501V19.9501ZM10.0009 1.47052C8.31419 1.47052 6.66536 1.97068 5.2629 2.90774C3.86044 3.84481 2.76734 5.1767 2.12182 6.73499C1.4763 8.29329 1.30735 10.008 1.63634 11.6623C1.96533 13.3166 2.77747 14.8362 3.97009 16.029C5.1627 17.2217 6.68222 18.0341 8.33649 18.3633C9.99076 18.6924 11.7055 18.5237 13.2639 17.8783C14.8222 17.233 16.1543 16.1401 17.0915 14.7377C18.0287 13.3354 18.5291 11.6866 18.5293 9.99988C18.5269 7.73865 17.6276 5.5707 16.0288 3.97168C14.43 2.37266 12.2621 1.47316 10.0009 1.47052V1.47052Z" fill="#86CCBA"/>
<path opacity="0.41" d="M9.28959 19.9264V18.4995C9.52441 18.5188 9.76156 18.5284 10.001 18.5284C10.2405 18.5284 10.4773 18.5188 10.7115 18.4995V19.9264C10.476 19.943 10.2392 19.9513 10.001 19.9513C9.76289 19.9513 9.52574 19.943 9.28959 19.9264ZM15.5055 16.5095C15.8673 16.2027 16.2031 15.8666 16.5095 15.5045L17.5204 16.5165C17.3659 16.6949 17.2043 16.868 17.0359 17.0359C16.8674 17.2037 16.6942 17.3652 16.5165 17.5204L15.5055 16.5095ZM2.96819 17.0359C2.7997 16.8674 2.63785 16.6942 2.48262 16.5165L3.49357 15.5045C3.80029 15.8666 4.13642 16.2028 4.49854 16.5095L3.48561 17.5204C3.30717 17.3665 3.1337 17.205 2.96521 17.0359H2.96819ZM18.5025 10.7115C18.5224 10.4767 18.5324 10.2398 18.5324 10C18.5324 9.76023 18.5224 9.52441 18.5035 9.28959H19.9304C19.9443 9.52441 19.9513 9.76156 19.9513 10.001C19.9513 10.2405 19.943 10.4776 19.9264 10.7125L18.5025 10.7115ZM0.0786419 10.7115C0.0600681 10.476 0.0507812 10.2392 0.0507812 10.001C0.0507812 9.76289 0.0590731 9.52607 0.0756569 9.29058H1.50252C1.48329 9.52541 1.47367 9.76222 1.47367 10.001C1.47367 10.2408 1.48362 10.4776 1.50352 10.7125L0.0786419 10.7115ZM2.48063 3.48561C2.63519 3.30717 2.79705 3.13403 2.9662 2.9662C3.13536 2.79838 3.30882 2.63652 3.4866 2.48063L4.49655 3.49058C4.13454 3.79742 3.79842 4.13355 3.49158 4.49556L2.48063 3.48561ZM15.5055 3.49158L16.5165 2.48063C16.6942 2.63586 16.8677 2.79771 17.0368 2.9662C17.206 3.13469 17.3675 3.30783 17.5214 3.48561L16.5105 4.49556C16.2037 4.13376 15.8676 3.79796 15.5055 3.49158V3.49158ZM9.28959 0.0756569C9.52508 0.0590731 9.76222 0.0507812 10.001 0.0507812C10.2398 0.0507812 10.4767 0.0590731 10.7115 0.0756569V1.50053C10.4773 1.4813 10.2405 1.47168 10.001 1.47168C9.76156 1.47168 9.52441 1.48163 9.28959 1.50153V0.0756569Z" fill="white" stroke="white" stroke-width="0.1"/>
<g clip-path="url(#clip1)">
<path d="M10.0639 7.42188C8.8548 7.42188 7.90025 8.21733 7.6457 9.36278H6.5957V10.1901H7.58207C7.70934 11.4946 8.75934 12.4491 10.0639 12.4491C11.0503 12.4491 11.8775 12.0673 12.2275 11.3991L11.3366 10.8264C11.1139 11.2082 10.6048 11.431 10.0639 11.431C9.30025 11.431 8.75934 10.9537 8.63207 10.1901H13.0866L13.373 9.36278H12.3548C12.1957 8.24915 11.2412 7.42188 10.0639 7.42188V7.42188ZM8.6957 9.36278C8.88661 8.72642 9.33207 8.3446 10.0003 8.3446C10.6684 8.3446 11.1457 8.75824 11.2093 9.36278H8.6957Z" fill="#00282D"/>
<path d="M8.45307 15.3157L8.13287 16.4155C4.58911 15.3837 2.55353 11.676 3.58529 8.13222L4.68507 8.45242C3.83121 11.3852 5.52031 14.4618 8.45307 15.3157ZM11.8685 3.58463L11.5483 4.68442C14.4811 5.53829 16.1702 8.61493 15.3163 11.5477L16.4161 11.8679C17.4479 8.32413 15.4123 4.61639 11.8685 3.58463Z" fill="#00282D"/>
</g>
</g>
<defs>
<clipPath id="clip0">
<rect width="20" height="20" fill="white"/>
</clipPath>
<clipPath id="clip1">
<rect width="14" height="14" fill="white" transform="translate(3 3)"/>
</clipPath>
</defs>
</svg>
