<svg xmlns="http://www.w3.org/2000/svg" width="20.099" height="20.025" viewBox="0 0 20.099 20.025">
    <g transform="translate(8625.049 6703.05)">
        <ellipse cx="9.038" cy="9" fill="#fff" rx="9.038" ry="9" transform="translate(-8624.037 -6702.038)"/>
        <g>
            <path fill="#292929" d="M-415-5970.075a9.955 9.955 0 0 1-7.071-2.917 9.88 9.88 0 0 1-2.928-7.045 9.877 9.877 0 0 1 2.928-7.045A9.953 9.953 0 0 1-415-5990a9.951 9.951 0 0 1 7.071 2.917 9.877 9.877 0 0 1 2.928 7.045 9.878 9.878 0 0 1-2.928 7.045 9.955 9.955 0 0 1-7.071 2.918zm0-18.5a8.565 8.565 0 0 0-8.571 8.539A8.565 8.565 0 0 0-415-5971.5a8.564 8.564 0 0 0 8.571-8.54 8.565 8.565 0 0 0-8.571-8.537z" transform="translate(-8625 -6703) translate(425 5990)"/>
            <path fill="#fff" stroke="#fff" stroke-width="0.1px" d="M-412.714-5967.1v-1.429q.357.031.714.03t.714-.029v1.428c-.238.018-.476.025-.714.025s-.476-.008-.714-.025zm6.247-3.421a8.678 8.678 0 0 0 1.009-1.006l1.016 1.012c-.155.179-.318.352-.487.521s-.344.33-.522.485zm-12.6.527q-.254-.253-.488-.521l1.016-1.013a8.613 8.613 0 0 0 1.01 1.006l-1.016 1.013q-.269-.231-.524-.485zm15.612-6.333q.029-.356.029-.712c0-.237-.01-.474-.029-.711h1.434c.017.237.025.474.025.711s-.008.475-.025.712zm-18.516 0q-.025-.356-.025-.712c0-.237.008-.474.025-.711h1.434c-.02.237-.029.474-.029.711s.01.475.029.712zm2.416-7.234c.156-.179.318-.352.488-.521s.344-.33.523-.486l1.016 1.012a8.7 8.7 0 0 0-1.01 1.007zm13.09 0l1.016-1.012q.269.233.523.486c.17.169.332.342.487.521l-1.016 1.012a8.68 8.68 0 0 0-1.01-1.007zm-6.247-3.42q.357-.025.714-.024t.714.024v1.427q-.354-.029-.714-.029c-.24 0-.479.011-.714.03z" opacity="0.41" transform="translate(-8625 -6703) translate(422 5987)"/>
        </g>
        <g>
            <g>
                <path d="M27.655 29.543a3.115 3.115 0 0 1-.381 1.524 2.815 2.815 0 0 1-1.17 1.1 4.119 4.119 0 0 1-1.959.422H22.7v3.429h-2.325v-9.55h3.771a4.289 4.289 0 0 1 1.932.394 2.712 2.712 0 0 1 1.183 1.089 3.164 3.164 0 0 1 .394 1.592zm-3.687 1.2a1.388 1.388 0 0 0 1-.313 1.362 1.362 0 0 0 0-1.77 1.388 1.388 0 0 0-1-.313H22.7v2.4z" transform="translate(-8618.249 -6698.942) translate(-20.375 -24.048)"/>
                <path fill="#e50913" d="M27.655 11.69h-7.28v1.537h7.28z" transform="translate(-8618.249 -6698.942) translate(-20.375 -11.69)"/>
            </g>
        </g>
    </g>
</svg>
