<svg width="20" height="20" viewBox="0 0 20 20" fill="none" xmlns="http://www.w3.org/2000/svg">
    <path d="M10 19.285a9.285 9.285 0 1 0 0-18.57 9.285 9.285 0 0 0 0 18.57z" fill="#fff"/>
    <path d="M10 19.999a9.935 9.935 0 0 1-7.072-2.929A9.932 9.932 0 0 1 0 10a9.933 9.933 0 0 1 2.928-7.072A9.933 9.933 0 0 1 10 0a9.933 9.933 0 0 1 7.071 2.928A9.932 9.932 0 0 1 20 10a9.933 9.933 0 0 1-2.929 7.071A9.936 9.936 0 0 1 10 20zm0-18.57a8.58 8.58 0 0 0-8.571 8.57 8.58 8.58 0 0 0 8.57 8.571A8.58 8.58 0 0 0 18.57 10 8.58 8.58 0 0 0 10 1.428z" fill="#E53935"/>
    <path opacity=".7" d="M9.284 19.974v-1.433a8.528 8.528 0 0 0 1.429 0v1.434a10.203 10.203 0 0 1-1.429 0zm6.247-3.433a8.634 8.634 0 0 0 1.01-1.01l1.016 1.016a9.879 9.879 0 0 1-1.01 1.01l-1.016-1.016zm-12.602.53c-.17-.17-.332-.345-.488-.524l1.017-1.016c.308.364.646.702 1.01 1.01L3.45 17.557a10.298 10.298 0 0 1-.523-.487h.001zm15.611-6.358a8.699 8.699 0 0 0 0-1.428h1.434a10.204 10.204 0 0 1 0 1.428H18.54zm-18.515 0a10.222 10.222 0 0 1 0-1.428h1.433a8.737 8.737 0 0 0 0 1.428H.025zm2.416-7.261a10.062 10.062 0 0 1 1.01-1.01l1.017 1.015a8.669 8.669 0 0 0-1.01 1.011L2.44 3.452zm13.09.005 1.016-1.015a10.29 10.29 0 0 1 1.01 1.01L16.54 4.468a8.638 8.638 0 0 0-1.01-1.01h.001zM9.284.025a10.225 10.225 0 0 1 1.429 0v1.432a8.65 8.65 0 0 0-1.429 0V.026z" fill="#fff"/>
    <path d="M14.901 6.935v-.707h-2.238c-.12-.456-.24-.858-.371-1.228l-.753.13c.144.36.271.727.382 1.098H9.552v.707h5.349zm-5.731 5.25V7.673H8.067c.23-.337.459-.75.688-1.25v-.522H6.954c.098-.217.185-.435.273-.663l-.699-.217C6.201 6.087 5.688 6.945 5 7.609l.164.771c.141-.13.283-.26.414-.402v4.206H9.17zM7.314 7.673H5.851a8.97 8.97 0 0 0 .797-1.152h1.376c-.24.434-.47.826-.71 1.152zm4.498 7.325c.546 0 .83-.304.83-.902V11h1.735V7.913H10.13V11h1.747v2.912c0 .272-.109.413-.327.413-.252 0-.513-.021-.775-.054l.152.728h.885zM7.063 9.61h-.808V8.314h.808v1.293zm1.43 0h-.797V8.314h.797v1.293zm5.142.706h-2.762V8.608h2.762v1.707zm-5.142 1.217h-.797V10.24h.797v1.293zm-1.43 0h-.808V10.24h.808v1.293zm7.358 2.967.578-.402c-.295-.695-.71-1.5-1.255-2.423l-.579.347c.524.902.95 1.728 1.256 2.478zm-4.574.185c.48-.75.895-1.641 1.244-2.663l-.633-.304c-.338.978-.742 1.826-1.2 2.543l.589.424zm-.906-.739.535-.13a10.977 10.977 0 0 0-.48-1.37l-.514.152c.177.44.33.89.459 1.348zm-1.157.63.567-.065c-.065-.826-.185-1.478-.36-1.956l-.546.065c.175.457.284 1.109.339 1.956zm-2.086.294c.23-.641.372-1.37.437-2.196l-.59-.076a6.987 6.987 0 0 1-.447 2.087l.6.185zm.918-.13.567-.066c-.022-.858-.076-1.543-.153-2.043l-.524.065c.055.478.088 1.163.11 2.043z" fill="#E53935"/>
</svg>
