<svg width="20" height="20" viewBox="0 0 20 20" fill="none" xmlns="http://www.w3.org/2000/svg">
<path d="M10 20C15.5228 20 20 15.5228 20 10C20 4.47715 15.5228 0 10 0C4.47715 0 0 4.47715 0 10C0 15.5228 4.47715 20 10 20Z" fill="white"/>
<path d="M9.99966 19.9986C8.68593 20.0023 7.38453 19.7452 6.17076 19.2426C4.957 18.7399 3.85498 18.0016 2.9285 17.0702C1.99708 16.1438 1.25867 15.042 0.755997 13.8282C0.253327 12.6145 -0.00361695 11.313 4.01687e-05 9.99934C-0.00369585 8.68564 0.253213 7.38418 0.755888 6.17044C1.25856 4.9567 1.99702 3.85488 2.9285 2.92848C3.85493 1.99702 4.95692 1.25844 6.1707 0.755777C7.38447 0.253118 8.68592 -0.00369572 9.99966 4.01809e-05C11.3134 -0.00369572 12.6148 0.253118 13.8286 0.755777C15.0424 1.25844 16.1444 1.99702 17.0708 2.92848C18.0023 3.85488 18.7408 4.9567 19.2434 6.17044C19.7461 7.38418 20.003 8.68564 19.9993 9.99934C20.0029 11.313 19.746 12.6145 19.2433 13.8282C18.7406 15.042 18.0022 16.1438 17.0708 17.0702C16.1443 18.0016 15.0423 18.7399 13.8286 19.2426C12.6148 19.7452 11.3134 20.0023 9.99966 19.9986ZM9.99966 1.42851C7.72722 1.43097 5.54855 2.33478 3.94169 3.94159C2.33483 5.5484 1.43101 7.72697 1.42856 9.99934C1.43101 12.2717 2.33483 14.4503 3.94169 16.0571C5.54855 17.6639 7.72722 18.5677 9.99966 18.5702C12.2721 18.5677 14.4508 17.6639 16.0576 16.0571C17.6645 14.4503 18.5683 12.2717 18.5708 9.99934C18.5683 7.72697 17.6645 5.5484 16.0576 3.94159C14.4508 2.33478 12.2721 1.43097 9.99966 1.42851Z" fill="#E1AA4C"/>
<path opacity="0.41" d="M9.28464 19.9742V18.5408C9.52273 18.5608 9.76081 18.5708 9.9989 18.5708C10.237 18.5708 10.4751 18.5611 10.7132 18.5415V19.9749C10.4751 19.9916 10.237 20 9.9989 20C9.76081 20 9.52273 19.9913 9.28464 19.9742ZM15.5315 16.5411C15.8953 16.2329 16.2328 15.8951 16.5408 15.5311L17.5572 16.5474C17.402 16.7264 17.2396 16.9004 17.0701 17.0695C16.9005 17.2385 16.7265 17.401 16.5479 17.5567L15.5315 16.5411ZM2.92916 17.0702C2.75964 16.9007 2.59704 16.7264 2.44133 16.5474L3.45773 15.5311C3.76592 15.8951 4.10373 16.2329 4.46769 16.5411L3.4513 17.5574C3.27226 17.4021 3.09774 17.2397 2.92774 17.0702H2.92916ZM18.5407 10.7135C18.5603 10.4755 18.57 10.2374 18.57 9.9993C18.57 9.76122 18.5603 9.52315 18.5407 9.28507H19.9742C19.9909 9.52315 19.9992 9.76122 19.9992 9.9993C19.9992 10.2374 19.9909 10.4755 19.9742 10.7135H18.5407ZM0.0250017 10.7135C0.00833563 10.4755 0 10.2374 0 9.9993C0 9.76122 0.00833563 9.52315 0.0250017 9.28507H1.45851C1.43899 9.52315 1.42924 9.76122 1.42924 9.9993C1.42924 10.2374 1.43899 10.4755 1.45851 10.7135H0.0250017ZM2.44133 3.45191C2.59704 3.27287 2.75964 3.09887 2.92916 2.92983C3.09868 2.7608 3.27298 2.59811 3.45202 2.44193L4.46769 3.45749C4.1038 3.76601 3.766 4.10406 3.45773 4.46816L2.44133 3.45191ZM15.5315 3.45749L16.5472 2.44193C16.7263 2.59764 16.9005 2.76032 17.0701 2.92983C17.2396 3.09934 17.402 3.27335 17.5572 3.45191L16.5408 4.46816C16.2326 4.10396 15.8955 3.76589 15.5315 3.45749ZM9.28464 0.0251099C9.52273 0.00844435 9.76081 0 9.9989 0C10.237 0 10.4751 0.00844435 10.7132 0.0251099V1.45707C10.4775 1.43755 10.2394 1.42777 9.9989 1.42777C9.75843 1.42777 9.52035 1.43777 9.28464 1.45777V0.0251099Z" fill="white"/>
<path d="M11.4409 8.88057L11.4629 8.41326L10.0213 7.5183L8.59731 8.41326L8.65022 9.35671H12.6356L12.3976 13.2319H7.66709L7.53483 11.0761H8.75602L8.81334 12.0151H11.2469L11.3395 10.5779H7.50397L7.33203 7.76519L10.0213 6.07227L12.7282 7.76519L12.6577 8.88057H11.4409Z" fill="#E1AB4C"/>
<path d="M14.7792 6.35644L10.3706 3.59662C10.271 3.53351 10.1556 3.5 10.0377 3.5C9.91987 3.5 9.80443 3.53351 9.70488 3.59662L5.29623 6.35644C5.2006 6.41826 5.12294 6.5042 5.07109 6.60559C5.01923 6.70698 4.99501 6.82024 5.00086 6.93397L5.48581 14.9048C5.49586 15.0654 5.56657 15.2163 5.68361 15.3268C5.80065 15.4373 5.95529 15.4992 6.11624 15.5H13.9636C14.1238 15.5014 14.2784 15.4414 14.3957 15.3324C14.5129 15.2233 14.5839 15.0734 14.5941 14.9136L15.079 6.92515C15.0861 6.81197 15.0619 6.69901 15.009 6.59868C14.9561 6.49836 14.8766 6.41454 14.7792 6.35644ZM13.7344 14.292C13.731 14.3739 13.696 14.4513 13.6369 14.508C13.5777 14.5647 13.4989 14.5963 13.417 14.5962H6.64087C6.5588 14.5953 6.48009 14.5635 6.42044 14.5071C6.36079 14.4507 6.32458 14.3739 6.31904 14.292L5.88699 7.20731C5.8838 7.14924 5.89597 7.09135 5.92229 7.03949C5.9486 6.98763 5.98813 6.94363 6.03689 6.91193L9.85037 4.51803C9.90267 4.48563 9.96298 4.46846 10.0245 4.46846C10.086 4.46846 10.1463 4.48563 10.1987 4.51803L14.0165 6.90752C14.0659 6.93746 14.1061 6.9805 14.1325 7.03185C14.159 7.08321 14.1707 7.14088 14.1664 7.19849L13.7344 14.292Z" fill="#E1AB4C"/>
</svg>
