<svg xmlns="http://www.w3.org/2000/svg" width="20.001" height="20" viewBox="0 0 20.001 20">
    <defs>
        <style>
            .cls-2{fill:#c1a034}
        </style>
    </defs>
    <g id="chain-sifchain">
        <g id="그룹_5537" transform="translate(-19464 11592.742)">
            <circle id="타원_116" cx="9" cy="9" r="9" fill="#fff" transform="translate(19465 -11591.742)"/>
            <g id="그룹_1488" transform="translate(19464 -11593)">
                <path id="제외_2" d="M10 20A10 10 0 0 1 2.929 2.929 10 10 0 1 1 17.071 17.07 9.934 9.934 0 0 1 10 20zm0-18.572A8.571 8.571 0 1 0 18.571 10 8.581 8.581 0 0 0 10 1.428z" class="cls-2" transform="translate(0 .258)"/>
                <path id="교차_4" fill="#fff" d="M9.285 19.975v-1.434q.354.029.715.029t.714-.029v1.434Q10.359 20 10 20t-.715-.025zm6.247-3.434a8.647 8.647 0 0 0 1.009-1.01l1.016 1.017q-.233.269-.487.522t-.522.487zm-12.6.529q-.254-.254-.488-.522l1.016-1.017a8.652 8.652 0 0 0 1.01 1.01l-1.018 1.016q-.269-.232-.523-.487zm15.612-6.356c.02-.236.03-.474.03-.715s-.01-.478-.029-.714h1.434Q20 9.639 20 10t-.025.715zm-18.516 0Q0 10.359 0 10t.025-.714h1.434Q1.43 9.64 1.43 10c0 .241.01.479.03.715zm2.414-7.262q.233-.269.488-.522t.523-.488l1.015 1.015a8.688 8.688 0 0 0-1.01 1.01zm13.09.006l1.016-1.016q.268.234.523.488t.487.522l-1.016 1.015a8.646 8.646 0 0 0-1.01-1.009zM9.285.025Q9.64 0 10 0t.714.025v1.432q-.353-.029-.714-.029t-.715.03z" opacity="0.41" transform="translate(0 .258)"/>
            </g>
        </g>
        <path id="sifchain" d="M.352 8.79A3.247 3.247 0 0 1 0 7.238a3.725 3.725 0 0 1 .277-1.477A4.335 4.335 0 0 1 .9 4.708a2.492 2.492 0 0 1 .821-.638 2.291 2.291 0 0 1 1.035-.244 1.708 1.708 0 0 1 1.227.436l1.4-1.169a6.431 6.431 0 0 1-.043-.733Q5.334 0 6.582 0a.611.611 0 0 1 .5.223.979.979 0 0 1 .2.574 1.755 1.755 0 0 1-.331 1.02 6.2 6.2 0 0 1-.981 1.116 24.558 24.558 0 0 1 .331 3 5.8 5.8 0 0 1-.2 1.53A4.433 4.433 0 0 1 5.483 8.8a2.782 2.782 0 0 1-1.141.946 3.931 3.931 0 0 1-1.685.34 2.44 2.44 0 0 1-2.08-.935 5.518 5.518 0 0 0-.192 1.52 2.739 2.739 0 0 0 .448 1.541 1.367 1.367 0 0 0 1.173.691q.053 0 .053.106t-.053.106a1.626 1.626 0 0 1-1.387-.8 3.013 3.013 0 0 1-.544-1.754A5.435 5.435 0 0 1 .352 8.79zM4.16 4.464a1.5 1.5 0 0 1 .3.914 2.434 2.434 0 0 1-.16.9 1.629 1.629 0 0 1-.544.7 1.421 1.421 0 0 1-.9.3.259.259 0 0 1-.171-.053.316.316 0 0 1-.075-.17 1.125 1.125 0 0 0 .843-.425 1.915 1.915 0 0 0 .555-1.339 1.558 1.558 0 0 0-.117-.6 17.3 17.3 0 0 0-2.016 2 6.487 6.487 0 0 0-1.203 2.13 2.085 2.085 0 0 0 1.91.979 2.776 2.776 0 0 0 1.4-.34 2.424 2.424 0 0 0 .949-.9A5.24 5.24 0 0 0 5.6 5.824q0-.393-.192-2.391zm-.427.011a1.229 1.229 0 0 0-.939-.361 2.059 2.059 0 0 0-1.077.286A2.991 2.991 0 0 0 .448 6.186 3.558 3.558 0 0 0 .277 7.28a3.225 3.225 0 0 0 .2 1.158 10.968 10.968 0 0 1 3.257-3.964zm2.145-2.658a7.26 7.26 0 0 0 .053.765A2.8 2.8 0 0 0 6.987.84q0-.553-.405-.553-.704 0-.704 1.53z" class="cls-2" transform="translate(6.205 3.567)"/>
    </g>
</svg>
