<svg width="21" height="21" viewBox="0 0 21 21" fill="none" xmlns="http://www.w3.org/2000/svg">
    <path d="M10.966 19.003a8.97 8.97 0 1 0 0-17.939 8.97 8.97 0 1 0 0 17.939z" fill="#fff"/>
    <path d="M10.966 19.999A9.967 9.967 0 0 1 3.92 2.986 9.967 9.967 0 1 1 18.014 17.08a9.902 9.902 0 0 1-7.047 2.92zm0-18.509a8.543 8.543 0 0 0-6.04 14.582 8.543 8.543 0 0 0 14.583-6.039 8.551 8.551 0 0 0-8.543-8.543z" fill="#1E1E1E"/>
    <path opacity=".41" d="M10.254 19.975v-1.43a8.714 8.714 0 0 0 1.424 0v1.43a10.134 10.134 0 0 1-1.424 0zm6.226-3.422a8.612 8.612 0 0 0 1.006-1.007l1.012 1.014a9.704 9.704 0 0 1-.485.52c-.169.168-.342.33-.52.485l-1.013-1.012zm-12.558.527c-.169-.169-.33-.342-.486-.52l1.012-1.014c.308.363.644.7 1.007 1.007L4.44 17.565a9.441 9.441 0 0 1-.52-.485h.002zm15.56-6.334a8.443 8.443 0 0 0 .001-1.424h1.43c.013.235.02.472.02.712s-.008.477-.025.713l-1.426-.001zm-18.454 0A9.045 9.045 0 0 1 1 10.034c0-.238.008-.476.025-.711h1.43a8.71 8.71 0 0 0 0 1.424l-1.427-.001zm2.406-7.237c.155-.18.317-.353.486-.52.17-.169.343-.33.521-.487l1.012 1.012c-.363.307-.7.643-1.007 1.006L3.434 3.51zm13.046.006 1.013-1.013c.178.155.352.318.521.486.17.17.331.342.486.52L17.486 4.52a8.612 8.612 0 0 0-1.007-1.005zM10.254.093a10.145 10.145 0 0 1 1.424 0V1.52a8.69 8.69 0 0 0-1.424.001V.093z" fill="#fff" stroke="#fff" stroke-width=".1"/>
    <path d="M14.571 5H7.43C6.639 5 6 5.64 6 6.428v7.143c0 .789.64 1.428 1.429 1.428h7.142c.79 0 1.429-.64 1.429-1.428V6.428C16 5.64 15.36 5 14.571 5z" fill="url(#7cb0n8kaza)"/>
    <path opacity=".95" d="M10.525 7.62H8.144a.714.714 0 0 0-.714.714v3.333a.714.714 0 0 0 1.295.415l2.38-3.333a.715.715 0 0 0-.58-1.129zM8.62 9.287a.476.476 0 1 1 0-.953.476.476 0 0 1 0 .953zM12.31 12.142a.595.595 0 1 0 0-1.19.595.595 0 0 0 0 1.19z" fill="#000"/>
    <path opacity=".95" d="M14.574 8.334v3.333a.715.715 0 1 1-1.428 0v-.542a.714.714 0 0 0-1.296-.41l-.371.521-.598.838a.714.714 0 0 1-1.157-.835l2.381-3.333a.715.715 0 0 1 .564-.286h1.19a.715.715 0 0 1 .715.714z" fill="#fff"/>
    <defs>
        <radialGradient id="7cb0n8kaza" cx="0" cy="0" r="1" gradientUnits="userSpaceOnUse" gradientTransform="matrix(4.5 0 0 4.4996 28.36 -4.033)">
            <stop stop-color="#FFC942"/>
            <stop offset=".28" stop-color="#FEC73E"/>
            <stop offset=".57" stop-color="#FBC131"/>
            <stop offset=".86" stop-color="#F5B71D"/>
            <stop offset="1" stop-color="#F2B110"/>
        </radialGradient>
    </defs>
</svg>
