<svg width="20" height="20" viewBox="0 0 20 20" fill="none" xmlns="http://www.w3.org/2000/svg">
    <g clip-path="url(#a)">
        <path d="M10.002 18.955a8.955 8.955 0 1 0 0-17.91 8.955 8.955 0 0 0 0 17.91z" fill="#fff"/>
        <path d="M10 19.95A9.95 9.95 0 0 1 2.966 2.964a9.95 9.95 0 1 1 14.072 14.07A9.883 9.883 0 0 1 10 19.95zm0-18.48A8.528 8.528 0 1 0 18.53 10 8.539 8.539 0 0 0 10 1.47z" fill="#007BB5"/>
        <path opacity=".41" d="M9.29 19.926V18.5a8.682 8.682 0 0 0 1.421 0v1.426a10.101 10.101 0 0 1-1.421 0zm6.216-3.416a8.608 8.608 0 0 0 1.003-1.006l1.011 1.013a9.71 9.71 0 0 1-.484.519c-.169.168-.342.33-.52.484l-1.01-1.01zm-12.538.526c-.168-.169-.33-.342-.485-.52l1.01-1.011c.307.362.643.698 1.006 1.004L3.486 17.52a9.415 9.415 0 0 1-.52-.484h.002zm15.535-6.325a8.417 8.417 0 0 0 0-1.421h1.427c.014.234.021.472.021.711 0 .24-.008.477-.025.712l-1.423-.002zm-18.424 0a9.032 9.032 0 0 1-.028-.71c0-.238.008-.475.025-.71h1.427a8.701 8.701 0 0 0 0 1.421H.08zM2.48 3.486c.154-.179.316-.352.485-.52.17-.168.343-.33.52-.485l1.01 1.01a8.644 8.644 0 0 0-1.004 1.005L2.48 3.486zm13.024.006 1.011-1.011c.178.155.352.317.52.485.17.169.331.342.485.52l-1.01 1.01a8.607 8.607 0 0 0-1.005-1.004zM9.29.076a10.124 10.124 0 0 1 1.421 0V1.5a8.678 8.678 0 0 0-1.421 0V.077z" fill="#fff" stroke="#fff" stroke-width=".1"/>
        <path d="m10.473 12.428-.144.023h-.01l-.033.006-.037.005c-1.892.31-3.492.35-4.89.126-.375-.062-.929-.166-1.402-.369-.559-.24-.877-.566-.944-.97-.168-.985 1.293-1.776 1.775-2.035 1.277-.692 2.85-1.19 4.81-1.52 1.958-.332 3.609-.383 5.04-.15.936.152 2.197.454 2.348 1.337.15.884-.94 1.585-1.774 2.036-1.246.674-2.768 1.163-4.657 1.494l-.038.005c-.01.003-.021.003-.032.006-.006.006-.009.006-.012.006zm-.163-.054h.005l.148-.026h.002c.01-.003.022-.003.032-.006l.038-.005c1.878-.329 3.393-.815 4.633-1.486 1.892-1.023 1.77-1.723 1.734-1.953-.155-.93-1.753-1.189-2.276-1.271-1.425-.23-3.065-.182-5.015.15-1.951.331-3.514.825-4.786 1.511-1.892 1.024-1.771 1.724-1.734 1.954.157.93 1.755 1.186 2.28 1.271 1.39.225 2.982.185 4.866-.125l.037-.006c.01-.002.022-.002.032-.005l.004-.003z" fill="#007BB5"/>
        <path d="M10.337 12.053c-.038.005-.078.013-.12.019l-.27.042-.011.003c-.043.005-.088.014-.136.019l-.136.019h-.009c-.072.01-.15.018-.227.029h-.01l-.1.01c-.026.003-.056.006-.082.011h-.004c-.606.067-1.184.107-1.713.115-.961.014-1.734-.075-2.29-.261-.532-.18-.871-.452-1.004-.81a1.044 1.044 0 0 1-.05-.19c-.047-.28.02-.558.205-.823.257-.368.743-.721 1.446-1.044.658-.306 1.49-.58 2.474-.82a18.075 18.075 0 0 1 1.365-.283c.244-.039.754-.12 1.385-.184.694-.07 1.71-.134 2.61-.045.772.074 1.35.248 1.713.518.254.19.408.425.454.705.01.067.015.135.013.203-.01.382-.238.748-.673 1.088-.464.36-1.163.698-2.08 1.003a18.259 18.259 0 0 1-1.723.47l-.206.045c-.054.01-.104.021-.155.032l-.051.01-.085.017c-.03.005-.062.013-.094.018l-.051.011-.27.05a1.253 1.253 0 0 1-.115.023zm-.925.053h.014c.074-.008.15-.018.221-.029h.008c.046-.005.091-.013.136-.018l.137-.02.01-.002c.1-.016.188-.03.268-.04.085-.014.152-.024.238-.04.08-.013.17-.032.27-.05l.05-.012c.03-.005.062-.01.09-.018l.084-.016.05-.011.155-.032.206-.046.062-.013a17.68 17.68 0 0 0 1.655-.455c.908-.302 1.6-.636 2.054-.991.417-.325.633-.67.644-1.028a.898.898 0 0 0-.013-.188c-.043-.259-.188-.478-.425-.655-.353-.258-.914-.43-1.673-.502-.895-.085-1.905-.023-2.594.045-.63.062-1.136.141-1.379.182-.243.04-.743.134-1.36.283-.964.235-1.817.516-2.46.815-.69.32-1.165.661-1.414 1.02a1.022 1.022 0 0 0-.193.764c.01.06.026.119.048.176.125.336.446.593.956.764.548.184 1.31.27 2.263.256.53-.008 1.104-.045 1.708-.114h.005a.827.827 0 0 0 .083-.011l.096-.013z" fill="#007BB5"/>
        <path d="m7.21 11.271-.008-.002h-.007l.007.075c.024-.003.046-.003.07-.005.063-.005.126-.006.189-.004a2.12 2.12 0 0 1-.25-.064zm.742.2h.014-.014zm.132-.071.009-.002-.01.002zm.03-.005H8.11v.005h.005l-.003-.005zm7.705-2.306c-.045-.28-.2-.516-.454-.705-.363-.27-.94-.444-1.713-.519-.9-.088-1.915-.023-2.609.046-.63.064-1.138.14-1.384.184-.245.043-.744.131-1.366.283-.984.24-1.817.516-2.475.82-.703.323-1.189.676-1.445 1.045-.185.264-.254.542-.206.823a1 1 0 0 0 .062.219c.141.344.476.606.993.78.556.188 1.329.276 2.29.262h.016l.011-.013a6.27 6.27 0 0 1 .437-.428l.01-.008.082-.072h-.127c-.714.007-1.289-.057-1.71-.194h-.003l.005-.002c.369-.148.675-.23.957-.262h.001a3.193 3.193 0 0 0 .147.039l-.037-.01a2.51 2.51 0 0 1-.103-.03l-.008-.003h-.002a1.356 1.356 0 0 1-.144-.053 4.195 4.195 0 0 0-.936.289l-.087.037-.006.002.094.035c.42.158 1.011.238 1.753.235-.126.113-.246.238-.36.358-.947.014-1.7-.075-2.245-.256-.492-.165-.808-.41-.942-.729a.515.515 0 0 1-.015-.036l-.014-.04a.968.968 0 0 1-.034-.136 1.021 1.021 0 0 1 .193-.765c.247-.357.721-.7 1.41-1.017.645-.3 1.497-.58 2.462-.815.617-.15 1.117-.243 1.36-.284.243-.04.748-.12 1.378-.181.69-.07 1.7-.131 2.595-.046.758.073 1.32.243 1.672.503.238.176.382.395.425.654a.884.884 0 0 1 .014.188c-.011.358-.227.703-.644 1.029-.452.353-1.139.687-2.039.986a7.962 7.962 0 0 0-.47-.227c.697-.246 1.23-.513 1.582-.796l.077-.065h-.016l-.085-.004c-.497-.032-.869-.005-1.165.08l-.008.003-.008.005c-.209.142-.433.26-.668.352l-.038.014a4.54 4.54 0 0 1-.227.085l-.048.016.002-.008a2.127 2.127 0 0 0 .025-.379c0-.017 0-.034-.002-.051l-.004-.052c0-.018-.003-.035-.004-.053a1.904 1.904 0 0 0-.017-.123l-.014-.07a1.931 1.931 0 0 0-.34-.765l-.03-.04a1.991 1.991 0 0 0-.888-.65 1.99 1.99 0 0 0-1.048-.085h-.008a1.995 1.995 0 0 0-1.178.725l-.008.01a2.02 2.02 0 0 0-.214.345l-.017.036c-.026.058-.05.118-.07.179l-.017.05-.014.049-.01.038c0 .002 0 .005-.002.007a.1.1 0 0 0-.004.013l-.008.034v.007l-.006.027-.005.024a1.764 1.764 0 0 0-.03.208l-.005.053a2.012 2.012 0 0 0 .008.334c0 .007 0 .014.002.02l.01.066c0 .004 0 .009.002.013v.002l.001.011v.003l.002.012.005.028a2.014 2.014 0 0 0 .221.617h.002l.032.055.012.02h.023H8.372l-.097.004h.005c.023 0 .045 0 .067-.002h.061l.07-.002-.036-.059a1.813 1.813 0 0 1-.254-.676c-.005-.034-.01-.066-.013-.101a1.821 1.821 0 0 1 .016-.542A1.879 1.879 0 0 1 9.69 8.565l.008-.001.04-.007.047-.008a1.901 1.901 0 0 1 1.315.296c.406.27.693.685.8 1.16.004.032.012.064.018.099a1.856 1.856 0 0 1-.01.684l-.003.018-.013.07.067-.022.027-.01.087-.03c.08-.027.155-.056.23-.086l.037-.013c.24-.094.467-.214.68-.358.266-.075.603-.102 1.03-.083l-.003.003c-.358.268-.886.522-1.568.753l-.104.035h.001l.1.04.01.003c.194.079.383.168.568.268l.016.008h.01c.917-.306 1.617-.644 2.08-1.005.435-.339.662-.705.673-1.087a1.03 1.03 0 0 0-.014-.203zm-7.706 2.306h-.002v.005h.005l-.003-.005zm-.02.005-.01.001.01-.001zm-.004.079h.004l.046.001h.036c-.031 0-.062-.001-.091-.003H8.047l.042.002zm-.894-.208.007.075c.024-.003.045-.003.07-.005.063-.005.126-.006.189-.003a2.129 2.129 0 0 1-.25-.064l-.008-.003h-.008zm.015.003-.008-.003h-.007l.007.075c.024-.003.045-.003.07-.005.063-.005.126-.006.189-.003a2.14 2.14 0 0 1-.25-.066v.002zm.874.126.009-.002-.01.002zm.03-.005H8.11v.005h.005l-.003-.005zm0 0H8.11v.005h.005l-.003-.004zm-.03.005.009-.002-.01.002zm-.874-.129-.008-.002h-.007l.007.075c.024-.003.046-.003.07-.005.063-.005.126-.006.189-.004a2.12 2.12 0 0 1-.25-.064z" fill="#007BB5"/>
        <path d="m7.21 11.271-.008-.002h-.007l.007.075c.024-.003.046-.003.07-.005.063-.005.126-.006.189-.004a2.12 2.12 0 0 1-.25-.064zm.742.2h.014-.014zm.132-.071.009-.002-.01.002zm.03-.005H8.11v.005h.005l-.003-.005zm7.705-2.306c-.045-.28-.2-.516-.454-.705-.363-.27-.94-.444-1.713-.519-.9-.088-1.915-.023-2.609.046-.63.064-1.138.14-1.384.184-.245.043-.744.131-1.366.283-.984.24-1.817.516-2.475.82-.703.323-1.189.676-1.445 1.045-.185.264-.254.542-.206.823a1 1 0 0 0 .062.219c.141.344.476.606.993.78.556.188 1.329.276 2.29.262h.016l.011-.013a6.27 6.27 0 0 1 .437-.428l.01-.008.082-.072h-.127c-.714.007-1.289-.057-1.71-.194h-.003l.005-.002c.369-.148.675-.23.957-.262h.001a3.193 3.193 0 0 0 .147.039l-.037-.01a2.51 2.51 0 0 1-.103-.03l-.008-.003h-.002a1.356 1.356 0 0 1-.144-.053 4.195 4.195 0 0 0-.936.289l-.087.037-.006.002.094.035c.42.158 1.011.238 1.753.235-.126.113-.246.238-.36.358-.947.014-1.7-.075-2.245-.256-.492-.165-.808-.41-.942-.729a.515.515 0 0 1-.015-.036l-.014-.04a.968.968 0 0 1-.034-.136 1.021 1.021 0 0 1 .193-.765c.247-.357.721-.7 1.41-1.017.645-.3 1.497-.58 2.462-.815.617-.15 1.117-.243 1.36-.284.243-.04.748-.12 1.378-.181.69-.07 1.7-.131 2.595-.046.758.073 1.32.243 1.672.503.238.176.382.395.425.654a.884.884 0 0 1 .014.188c-.011.358-.227.703-.644 1.029-.452.353-1.139.687-2.039.986a7.962 7.962 0 0 0-.47-.227c.697-.246 1.23-.513 1.582-.796l.077-.065h-.016l-.085-.004c-.497-.032-.869-.005-1.165.08l-.008.003-.008.005c-.209.142-.433.26-.668.352l-.038.014a4.54 4.54 0 0 1-.227.085l-.048.016.002-.008a2.127 2.127 0 0 0 .025-.379c0-.017 0-.034-.002-.051l-.004-.052c0-.018-.003-.035-.004-.053a1.904 1.904 0 0 0-.017-.123l-.014-.07a1.931 1.931 0 0 0-.34-.765l-.03-.04a1.991 1.991 0 0 0-.888-.65 1.99 1.99 0 0 0-1.048-.085h-.008a1.995 1.995 0 0 0-1.178.725l-.008.01a2.02 2.02 0 0 0-.214.345l-.017.036c-.026.058-.05.118-.07.179l-.017.05-.014.049-.01.038c0 .002 0 .005-.002.007a.1.1 0 0 0-.004.013l-.008.034v.007l-.006.027-.005.024a1.764 1.764 0 0 0-.03.208l-.005.053a2.012 2.012 0 0 0 .008.334c0 .007 0 .014.002.02l.01.066c0 .004 0 .009.002.013v.002l.001.011v.003l.002.012.005.028a2.014 2.014 0 0 0 .221.617h.002l.032.055.012.02h.023H8.372l-.097.004h.005c.023 0 .045 0 .067-.002h.061l.07-.002-.036-.059a1.813 1.813 0 0 1-.254-.676c-.005-.034-.01-.066-.013-.101a1.821 1.821 0 0 1 .016-.542A1.879 1.879 0 0 1 9.69 8.565l.008-.001.04-.007.047-.008a1.901 1.901 0 0 1 1.315.296c.406.27.693.685.8 1.16.004.032.012.064.018.099a1.856 1.856 0 0 1-.01.684l-.003.018-.013.07.067-.022.027-.01.087-.03c.08-.027.155-.056.23-.086l.037-.013c.24-.094.467-.214.68-.358.266-.075.603-.102 1.03-.083l-.003.003c-.358.268-.886.522-1.568.753l-.104.035h.001l.1.04.01.003c.194.079.383.168.568.268l.016.008h.01c.917-.306 1.617-.644 2.08-1.005.435-.339.662-.705.673-1.087a1.03 1.03 0 0 0-.014-.203zm-7.706 2.306h-.002v.005h.005l-.003-.005zm-.02.005-.01.001.01-.001zm-.004.079h.004l.046.001h.036c-.031 0-.062-.001-.091-.003H8.047l.042.002zm-.894-.208.007.075c.024-.003.045-.003.07-.005.063-.005.126-.006.189-.003a2.129 2.129 0 0 1-.25-.064l-.008-.003h-.008zm.015.003-.008-.003h-.007l.007.075c.024-.003.045-.003.07-.005.063-.005.126-.006.189-.003a2.14 2.14 0 0 1-.25-.066v.002zm.874.126.009-.002-.01.002zm0 0 .009-.002-.01.002zm-.874-.129-.008-.002h-.007l.007.075c.024-.003.046-.003.07-.005.063-.005.126-.006.189-.004a2.12 2.12 0 0 1-.25-.064z" fill="#007BB5"/>
        <path d="m8.09 11.385-.013.002h-.003a4.378 4.378 0 0 1-.582-.057 2.215 2.215 0 0 1-.285-.07l-.009-.003H7.19a2.052 2.052 0 0 0-.156.023 4.34 4.34 0 0 0-.917.282c-.362-.137-.59-.336-.678-.59a.596.596 0 0 1-.023-.08l-.01-.049c-.037-.219.022-.435.174-.641l.01-.013c.207-.274.582-.536 1.116-.779.289-.129.585-.242.887-.338a16.29 16.29 0 0 1 1.542-.406l.021-.004c-.124.062-.24.139-.347.227a1.828 1.828 0 0 0-.313.32l-.005.006a1.938 1.938 0 0 0-.301.563l-.017.05-.015.049a.598.598 0 0 0-.005.022l-.005.016c-.002.005 0 .005-.002.007a.099.099 0 0 0-.003.013l-.009.034v.007l-.005.027-.006.024-.001.008a1.865 1.865 0 0 0-.029.2l-.004.053a2.012 2.012 0 0 0 .01.352l.01.067v.007l.006.033a1.237 1.237 0 0 0 .014.078l.009.038c.012.052.025.1.04.146l.011.037.016.044a1.692 1.692 0 0 0 .053.13l.017.037c.005.014.011.024.017.036.016.033.034.066.052.097l.032.056.012.019h.024H8.375l-.096.004h.004l.067-.001h.067l.07-.003-.035-.058a1.824 1.824 0 0 1-.186-.386 1.85 1.85 0 0 1-.071-.288c-.005-.035-.01-.067-.013-.102a1.835 1.835 0 0 1 .017-.542 1.879 1.879 0 0 1 1.5-1.531v-.001l-.013-.075V8.48l-.139.025c-.206.038-.52.1-.893.188-.783.188-1.446.404-1.975.644-.537.246-.921.51-1.138.791l-.01.014c-.174.23-.24.47-.198.716a.606.606 0 0 0 .01.047l.011.045.01.034c.087.265.306.473.65.62a2.047 2.047 0 0 0 .093.038l.017.006.013-.005.094-.04.005-.001c.368-.148.671-.232.955-.264h.004a2.16 2.16 0 0 0 .002 0l-.008-.002h-.002a1.356 1.356 0 0 1-.144-.053c.052-.009.102-.016.152-.021l.007.074c.024-.002.046-.002.07-.005.063-.005.126-.006.189-.003a3.222 3.222 0 0 0 .475.058l.146.007h.003l.009-.002.01-.002h.007v.004h.036l.127.002h.067l-.001-.003h-.07l-.128-.002h-.018l-.007-.002H8.11l-.02-.003zm.004.087h.001l.045.001h.036c-.031 0-.063-.002-.092-.003h-.03l.04.002zm-.004-.085.005.002-.005-.002zm.25.008h-.071l-.127-.003h-.018l-.007-.002H8.11v.003h.035l.128.002h.067l-.001-.002v.002zM11.897 10.874l.013-.07a1.81 1.81 0 0 0 .013-.701c-.005-.036-.013-.068-.018-.1a1.886 1.886 0 0 0-1.197-1.36 1.9 1.9 0 0 0-.917-.096l-.014-.078c.182-.03.561-.088 1.042-.133.543-.054 1.339-.102 2.055-.038h.005c.599.054 1.053.18 1.355.374l.013.008c.238.158.38.358.42.602a.78.78 0 0 1 .01.106c.011.308-.154.607-.493.885l-.013.01h-.016c-.476-.029-.847-.005-1.136.078-.213.144-.44.264-.679.358l-.037.013c-.075.03-.15.06-.23.086l-.115.04-.061.016zm-1.564-2.41a1.91 1.91 0 0 1 .816.31c.264.176.482.412.636.69.09.163.157.338.197.52l.022.104a1.963 1.963 0 0 1 0 .666l.048-.016c.077-.027.155-.056.227-.086l.037-.013c.236-.092.46-.21.668-.353l.008-.005.008-.003c.294-.085.66-.11 1.15-.08.31-.259.461-.532.45-.81a.642.642 0 0 0-.01-.098c-.037-.217-.163-.399-.374-.543l-.01-.008c-.29-.19-.735-.312-1.326-.369h-.005c-.71-.064-1.505-.016-2.047.038a20.37 20.37 0 0 0-.495.056z" fill="#007BB5"/>
        <path d="M8.114 11.394v.002l.008-.002h-.008zm.223.002h-.07l-.128-.002.004.002c.044 0 .087.003.129.003h.066l-.001-.003zm-.244-.006-.017.003h-.001a4.281 4.281 0 0 1-.605-.061 2.182 2.182 0 0 1-.265-.067l-.009-.003h-.002l-.006-.002c-.278-.092-.467-.233-.563-.42a.606.606 0 0 1-.035-.084.635.635 0 0 1-.027-.102c-.023-.128.019-.258.126-.393.092-.11.2-.206.32-.286.159-.109.327-.206.501-.289.292-.14.593-.261.9-.364l.005-.002a1.923 1.923 0 0 0-.14.246l-.017.036a1.92 1.92 0 0 0-.07.18 3.963 3.963 0 0 0-.017.049l-.015.05-.01.037c0 .003 0 .005-.002.008a.102.102 0 0 0-.003.012l-.009.034v.008l-.006.027c-.001.01-.004.022-.007.033l-.007.04a1.845 1.845 0 0 0-.021.16l-.004.053a2.012 2.012 0 0 0 .01.352c.002.023.006.045.01.067v.007l.005.032a1.237 1.237 0 0 0 .015.078l.009.039c.012.051.025.099.04.145l.011.037.016.044a1.657 1.657 0 0 0 .053.131l.016.037.018.036c.016.033.033.065.052.097l.032.055.012.02h.023H8.373l-.097.004h.005c.023 0 .045 0 .067-.002h.067l.069-.002-.031-.056a1.822 1.822 0 0 1-.254-.677 1.85 1.85 0 0 1 .003-.644c.051-.301.176-.586.363-.828l.059-.077.018-.024-.007.002-.116.038-.019.006h-.003c-.002 0-.004 0-.006.002-.188.063-.365.127-.53.192a6.446 6.446 0 0 0-.476.208c-.406.195-.695.395-.852.596-.12.152-.169.307-.141.457a.788.788 0 0 0 .054.17c.084.19.248.34.49.445l.004.002.006.002c.052-.009.103-.016.152-.021l.008.074c.023-.002.045-.002.07-.005.063-.005.126-.006.188-.003a3.222 3.222 0 0 0 .476.058l.146.007h.002l.01-.002.01-.002h.007-.022zm.252.006-.002-.002h-.07l-.127-.002.004.002.128.002h.067zm-.225-.003.008-.002H8.12v.002zm-.023.079h.001l.045.001h.036c-.032 0-.063-.002-.092-.003H8.051l.046.002zm.24-.076h-.07l-.128-.002h-.03v.002H8.144l.128.002h.066l-.001-.002zM11.898 10.876l.014-.07a1.81 1.81 0 0 0 .013-.701l-.019-.1a1.886 1.886 0 0 0-.799-1.16L11 8.774l.128-.002c.363-.006.726.01 1.088.047.449.053.785.144 1.005.278.17.101.27.23.293.38.008.05.011.102.008.154-.013.259-.179.502-.491.724l-.008.005a3.489 3.489 0 0 1-.676.356l-.038.013c-.074.03-.15.059-.23.086a4.88 4.88 0 0 1-.114.04l-.067.022zm-.647-2.028a1.97 1.97 0 0 1 .733 1.139c.008.034.013.07.02.104a1.963 1.963 0 0 1 0 .665l.05-.016c.077-.027.154-.056.226-.085l.038-.014c.235-.092.459-.21.668-.352l.007-.006c.287-.205.439-.427.45-.658a.593.593 0 0 0-.008-.136c-.021-.125-.107-.231-.257-.323-.208-.126-.534-.214-.972-.267a8.537 8.537 0 0 0-.955-.05z" fill="#007BB5"/>
        <path d="M8.34 11.396h-.07l-.127-.002.004.002c.044 0 .087.003.129.003h.067l-.002-.003zm.144.074-.032-.055a1.821 1.821 0 0 1-.254-.677c-.005-.035-.01-.067-.013-.102l-.008-.064-.007.005-.046.03-.028.018h-.002a1.318 1.318 0 0 0-.191.156c-.1.1-.148.2-.145.294v.014a.245.245 0 0 0 .017.088.391.391 0 0 0 .078.131.52.52 0 0 0 .085.078l.146.007h.002l-.005-.003-.005-.002-.005-.003-.011-.008h-.003l-.023-.014a.477.477 0 0 1-.145-.124.284.284 0 0 1-.047-.1l-.004-.023c0-.01-.003-.021-.004-.031-.008-.075.034-.158.12-.246a1.14 1.14 0 0 1 .153-.13.419.419 0 0 1 .001.017l.002.01v.003l.002.01a1.237 1.237 0 0 0 .014.078l.009.039c.012.051.025.099.04.145l.011.037.016.044a1.692 1.692 0 0 0 .053.131l.017.037.017.036c.016.033.034.065.052.097l.033.055.011.02h.024H8.372l-.096.004h.004c.024 0 .045 0 .067-.002h.067l.07-.002v.002zm-.141-.07-.002-.003h-.07l-.128-.002.004.002c.044 0 .087.003.129.003h.067zm-.002-.003h-.07l-.128-.002h-.017l-.008.001h.03c.043 0 .086.003.127.003h.067l-.001-.003v.001zM11.9 10.874l.013-.07a1.81 1.81 0 0 0 .013-.702c-.005-.034-.013-.066-.018-.098l-.013-.065.064.016c.086.02.17.05.25.086.145.067.23.152.255.251a.936.936 0 0 1 .008.043c.018.13-.03.258-.147.382l-.006.005-.008.003c-.075.03-.15.059-.23.086l-.114.04-.067.023zm.099-.825.008.04a1.964 1.964 0 0 1 0 .665l.048-.016c.075-.027.147-.053.219-.083.094-.104.134-.208.12-.31-.003-.01-.003-.021-.005-.034-.019-.075-.09-.141-.212-.198a1.218 1.218 0 0 0-.178-.064zM13.56 11.622c-.12-.051-.265-.126-.417-.203l-.088-.046.037-.07.088.045c.152.078.294.153.412.2l-.032.074z" fill="#007BB5"/>
        <path d="m12.36 10.71-.051-.06a1.98 1.98 0 0 1 .69-.367l.02.078c-.006.002-.014.002-.02.005a1.92 1.92 0 0 0-.64.345zM15.94 10.468a10.698 10.698 0 0 1-.799-.086l-.023-.002c-.313-.038-.636-.078-.954-.1l.004-.079c.321.019.644.059.96.1l.023.002c.296.037.561.07.796.082l-.006.083z" fill="#007BB5"/>
        <path d="m12.1 10.796-.065-.047c.136-.176.254-.315.366-.438.342-.372.679-.601 1.061-.724l.008-.003a6.392 6.392 0 0 1 1.168-.24c.387-.047.783-.078 1.162-.105l.04-.002c.387-.028.75-.055 1.098-.1l.01.08c-.35.045-.715.072-1.103.099l-.04.002c-.38.027-.772.057-1.16.105a6.239 6.239 0 0 0-1.154.237l-.008.003c-.366.118-.692.342-1.026.703a7.852 7.852 0 0 0-.358.43z" fill="#007BB5"/>
        <path d="m12.02 10.39-.067-.044c.072-.112.136-.208.198-.293.32-.447.639-.749 1.007-.952l.005-.002a5.816 5.816 0 0 1 1.045-.431h.003c.35-.11.7-.198 1.12-.302l.023-.006c.345-.085.67-.164.98-.258l.024.074c-.31.094-.638.177-.983.262l-.024.006c-.418.105-.768.192-1.118.302h-.002c-.407.128-.74.264-1.018.417-.006.002-.008.005-.011.005l-.005.003c-.356.198-.668.491-.981.93-.06.082-.123.179-.195.288zM11.784 9.5l-.07-.04c.119-.213.261-.411.426-.59.013-.014.026-.03.04-.043.174-.18.395-.353.673-.53l.008-.005c.243-.155.505-.294.772-.435l.04-.022c.217-.115.423-.222.611-.331l.04.07c-.192.113-.397.22-.614.334l-.04.022c-.27.14-.532.28-.776.435l-.008.006c-.27.17-.485.338-.653.512l-.04.04a3.572 3.572 0 0 0-.409.577zM10.758 8.615l-.074-.029c.029-.072.064-.144.106-.235.073-.147.153-.294.228-.43l.026-.046c.067-.122.14-.248.2-.371l.073.035c-.062.123-.134.251-.2.374l-.028.046c-.074.136-.155.28-.227.427-.043.088-.077.16-.104.23zM8.807 8.95c-.054-.062-.112-.121-.177-.185-.11-.11-.224-.212-.352-.326l-.036-.03c-.112-.101-.219-.195-.32-.294l.057-.056c.098.096.205.192.318.29l.034.03c.128.115.243.22.356.33.064.063.122.125.179.187l-.06.053zM13.02 10.353c-.212.143-.44.263-.678.358l-.037.013c-.075.03-.15.059-.23.086l-.087.03-.028.01-.066.02.013-.068.003-.018a10.366 10.366 0 0 1-.826.231 11.918 11.918 0 0 1-.898.18c-.075.011-.166.028-.267.044a12.334 12.334 0 0 1-1.224.141 8.01 8.01 0 0 1-.257.01H8.43a.38.38 0 0 0 .011.02l.037.057h.006c.05-.001.099-.003.148-.006l.074-.004a12.497 12.497 0 0 0 1.229-.142l.123-.017.068-.012.023-.004.052-.009a16.158 16.158 0 0 0 1.166-.247h.005c.104-.027.203-.055.299-.083.104-.03.2-.062.291-.091l.024-.009.09-.031c.081-.027.156-.056.23-.086l.038-.013c.273-.112.5-.232.679-.358.266-.075.6-.102 1.025-.083l.003-.003c-.425-.018-.763.009-1.03.084zm-4.923 1.036-.017.003h-.001a4.28 4.28 0 0 1-.605-.062 2.163 2.163 0 0 1-.265-.066L7.2 11.26h-.008c-.05.006-.1.012-.152.021a4.193 4.193 0 0 0-.935.289l-.087.037-.006.003.006.002.086.033c.441.164 1.066.245 1.86.235h.015c.23-.003.48-.013.736-.032l.045-.003c.016-.002.035-.002.053-.005l.022-.003c.107-.008.211-.016.312-.026.062-.005.12-.013.177-.019l.115-.013.15-.02.013-.002c.16-.018.315-.04.464-.064.08-.01.148-.021.204-.032.056-.01.125-.021.192-.037.158-.03.313-.062.468-.097.053-.01.107-.021.162-.034l.11-.027c.05-.013.102-.024.155-.037.096-.022.195-.048.297-.075l.061-.016c.024-.005.046-.014.07-.019l.008-.003c.242-.068.476-.14.695-.213l.01-.003h.003c.749-.254 1.313-.535 1.68-.835l.072-.06.005-.004-.101-.005c-.498-.032-.869-.006-1.165.08l-.009.003-.008.005a3.34 3.34 0 0 1-.668.352l-.037.014c-.072.03-.15.059-.227.085l-.036.013h-.001l-.075.027-.021.007a10.37 10.37 0 0 1-.826.231 11.819 11.819 0 0 1-.898.18c-.075.011-.166.028-.267.044a12.23 12.23 0 0 1-1.224.141 8.012 8.012 0 0 1-.257.01h-.032l-.064.002H8.27l-.127-.002h-.03v.005h.034c.043 0 .087.003.128.003h.067l-.002-.003h.002c.01.019.021.037.033.056l.011.019h.098l.148-.006.074-.004a12.504 12.504 0 0 0 1.229-.142 3.5 3.5 0 0 0 .123-.018l.068-.011.023-.004.053-.01a16.154 16.154 0 0 0 1.166-.246h.004c.104-.028.203-.056.3-.084.103-.03.2-.061.29-.09l.024-.009a4.635 4.635 0 0 0 .32-.117l.038-.014c.273-.112.5-.232.679-.358.266-.074.6-.1 1.026-.083h.005c-.358.27-.884.521-1.568.754h-.003l-.106.035c-.19.062-.39.122-.597.179l-.007.002c-.024.006-.046.014-.071.02l-.075.018c-.096.026-.192.05-.283.072-.053.013-.104.023-.155.037l-.11.027c-.056.01-.109.024-.162.035-.155.032-.31.064-.465.094l-.2.034c-.06.011-.124.022-.201.033-.147.02-.306.045-.462.064l-.014.002c-.047.008-.099.014-.15.02l-.114.012a3.682 3.682 0 0 1-.174.02c-.101.007-.206.018-.31.026l-.019.002-.053.006-.046.002c-.231.017-.455.027-.666.031l-.082.002h-.018c-.712.006-1.286-.057-1.707-.194H6.23c.369-.15.672-.232.96-.264h-.003a1.356 1.356 0 0 1-.144-.054c.051-.008.102-.016.152-.021l.007.075.07-.006c.063-.005.126-.006.189-.003a3.222 3.222 0 0 0 .475.058l.146.007h.002l.01-.002.01-.001.007-.002M8.131 10.116a3.112 3.112 0 0 0-.582-.4l-.064-.031a3.727 3.727 0 0 0-.8-.268c-.272-.064-.558-.107-.85-.152l-.046-.008c-.244-.037-.473-.072-.695-.115l.016-.078c.222.043.452.078.692.115l.047.008c.294.046.58.089.855.153.281.06.555.151.815.272l.064.032c.215.113.416.252.599.412l-.05.06zM8.206 11.067a7.196 7.196 0 0 0-.302-.225c-.435-.305-.822-.486-1.22-.566l-.028-.006a4.815 4.815 0 0 0-1.09-.063h-.002c-.388.013-.791.053-1.147.088H4.41c-.368.037-.716.072-1.039.085l-.003-.08c.32-.013.668-.047 1.034-.086h.008c.356-.034.76-.075 1.15-.088h.002c.436-.016.8.006 1.109.067l.027.005c.409.083.807.268 1.25.58.096.07.198.141.306.227l-.047.062z" fill="#007BB5"/>
        <path d="M8.298 11.396h-.023l-.129-.003-.004-.002a5.45 5.45 0 0 0-.359-.21c-.003 0-.006-.002-.01-.004-.412-.218-.776-.327-1.146-.34l-.051-.002h-.034c-.315 0-.676.045-1.105.136l-.04.008-.033.007c-.36.078-.725.179-1.051.27l-.044.011-.04.01c-.38.108-.737.207-1.071.276l-.017-.077c.329-.07.686-.167 1.06-.274l.006-.001.04-.011.037-.01c.327-.091.695-.192 1.057-.273l.036-.008.036-.008a5.476 5.476 0 0 1 1.098-.139h.078c.38.008.753.11 1.166.322l.062.033.017.01c.136.072.284.162.46.276l.004.002z" fill="#007BB5"/>
        <path d="m8.103 11.392-.01.002-.009.002h-.002a5.575 5.575 0 0 1-.29-.018l-.016-.004a1.675 1.675 0 0 0-.285-.042h-.03a1.532 1.532 0 0 0-.188.002c-.023.003-.045.003-.07.005l-.008-.074v-.006a1.776 1.776 0 0 1 .656.052c.06.016.12.034.181.055l.024.008h.005l.008.006.022.008.005.002.007.002zM4.522 12.396l-.03-.072c.23-.097.47-.214.724-.34l.02-.008c.281-.138.573-.282.868-.406l.029.072c-.291.123-.583.265-.863.404l-.019.01c-.256.126-.497.244-.73.34zM10.33 12.055c-.037.005-.078.013-.12.018l-.27.043-.024.003-.123.016c-.042.005-.088.013-.136.018h-.009c-.072.011-.15.02-.227.03h-.008l-.098.01c-.599.072-1.2.113-1.803.123l-.094.003.064-.07c.143-.155.294-.302.452-.442l.01-.01h.014c.264-.003.55-.016.846-.04l.021-.003c.107-.008.212-.019.31-.027.062-.005.123-.013.182-.018l.107-.014c.05-.005.099-.01.144-.018l.016-.003c.16-.019.315-.043.462-.064.078-.011.145-.022.2-.032l.201-.035c.155-.03.31-.061.465-.094.053-.01.107-.024.163-.035l.12-.03a7.065 7.065 0 0 0 .425-.107l.075-.018c.272-.074.534-.152.777-.235l.017-.002.01.002c.198.078.398.18.585.275l.086.043-.09.031c-.577.189-1.164.349-1.758.479l-.16.034c-.059.014-.115.024-.169.035l-.05.01-.086.017-.09.018-.051.011-.27.05a.602.602 0 0 1-.116.028zm-.924.053h.01c.075-.008.15-.019.222-.03h.008c.045-.005.091-.013.134-.018.042-.005.085-.01.123-.016l.02-.003c.1-.016.189-.03.268-.04.04-.008.08-.015.12-.019.038-.005.078-.013.118-.021.08-.013.17-.032.27-.05l.05-.011c.03-.006.06-.011.091-.02l.083-.015.05-.01.17-.036.157-.034a18.422 18.422 0 0 0 1.659-.447 5.548 5.548 0 0 0-.478-.222c-.24.08-.5.16-.77.233l-.061.016c-.102.027-.2.053-.297.075-.048.01-.096.023-.144.034l-.123.03-.163.035c-.155.034-.313.066-.468.096-.074.013-.14.027-.2.034-.06.008-.123.022-.203.032-.15.025-.305.046-.465.065l-.016.002a2.98 2.98 0 0 0-.147.02l-.107.012-.184.02c-.102.01-.206.018-.313.026l-.021.003c-.294.021-.575.034-.836.04a5.74 5.74 0 0 0-.37.358c.527-.011 1.099-.054 1.7-.123l.112-.016z" fill="#007BB5"/>
        <path d="m7.143 12.714-.053-.059c.096-.085.208-.205.326-.33l.067-.073.058.056-.066.07c-.12.128-.233.248-.332.336zM11.988 10.772l-.035.072.526.257.035-.072-.526-.257zM8.375 11.47l-.003.003a42.625 42.625 0 0 0-.333.328l-.043.043-.059-.04.006-.005.005-.006s.263-.282.326-.318l.096-.004h.005z" fill="#007BB5"/>
        <path d="M8.407 11.475H8.37l-.096.004h-.1l-.09-.003h-.139a3.747 3.747 0 0 1-.608-.084l-.037-.016-.103-.03-.008-.002h-.002a1.356 1.356 0 0 1-.144-.053c.052-.009.102-.016.152-.021l.007.074c.024-.002.046-.002.07-.005.063-.005.126-.006.189-.003a3.222 3.222 0 0 0 .475.058l.146.007h.003l.009-.002.01-.002h.008v.002H8.147c.043 0 .086.003.127.003h.067l-.001-.003h.001c.01.019.022.037.033.056l.012.019h.021z" fill="#007BB5"/>
        <path d="M12.012 10.697a1.63 1.63 0 0 1-.023.13l-.004.016-.001.004v.002l-.021.007a9.032 9.032 0 0 1-.592.174h-.005a13.518 13.518 0 0 1-1.164.246l-.054.01-.024.004-.067.011-.124.018a13.06 13.06 0 0 1-1.232.142l-.07.004a7.838 7.838 0 0 1-.149.006h-.099l-.012-.02-.032-.055a2.03 2.03 0 0 1-.052-.097l-.017-.035-.017-.037a1.3 1.3 0 0 1-.053-.131l-.016-.047-.011-.034a2.238 2.238 0 0 1-.04-.145l-.009-.039-.001-.007a1.04 1.04 0 0 1-.009-.04l-.006-.034-.006-.036-.01-.07-.002-.015a1.961 1.961 0 0 1 .712-1.739 1.99 1.99 0 0 1 .868-.41l.097-.016a1.966 1.966 0 0 1 1.818.714l.033.042.03.04.034.048a1.991 1.991 0 0 1 .293.67.656.656 0 0 1 .028.117 1.713 1.713 0 0 1 .024.227l.002.047v.004c.004.109-.001.217-.017.324z" fill="#007BB5"/>
    </g>
    <defs>
        <clipPath id="a">
            <path fill="#fff" d="M0 0h20v20H0z"/>
        </clipPath>
    </defs>
</svg>
