<svg width="20" height="20" fill="none" xmlns="http://www.w3.org/2000/svg">
    <g clip-path="url(#a)">
        <path d="M10 18.955a8.955 8.955 0 1 0 0-17.91 8.955 8.955 0 0 0 0 17.91z" fill="#fff"/>
        <path d="M10 19.95A9.95 9.95 0 0 1 2.966 2.964a9.95 9.95 0 1 1 14.072 14.07A9.883 9.883 0 0 1 10 19.95zm0-18.48A8.528 8.528 0 1 0 18.53 10 8.539 8.539 0 0 0 10 1.47z" fill="#185171"/>
        <path opacity=".41" d="M9.29 19.926V18.5a8.682 8.682 0 0 0 1.421 0v1.426a10.101 10.101 0 0 1-1.421 0zm6.216-3.416a8.608 8.608 0 0 0 1.003-1.006l1.011 1.013a9.71 9.71 0 0 1-.484.519c-.169.168-.342.33-.52.484l-1.01-1.01zm-12.538.526c-.168-.169-.33-.342-.485-.52l1.01-1.011c.307.362.643.698 1.006 1.004L3.486 17.52a9.415 9.415 0 0 1-.52-.484h.002zm15.535-6.325a8.417 8.417 0 0 0 0-1.421h1.427c.014.234.021.472.021.711 0 .24-.008.477-.025.712l-1.423-.002zm-18.424 0a9.032 9.032 0 0 1-.028-.71c0-.238.008-.475.025-.71h1.427a8.701 8.701 0 0 0 0 1.421H.08zM2.48 3.486c.154-.179.316-.352.485-.52.17-.168.343-.33.52-.485l1.01 1.01a8.644 8.644 0 0 0-1.004 1.005L2.48 3.486zm13.024.006 1.011-1.011c.178.155.352.317.52.485.17.169.331.342.485.52l-1.01 1.01a8.607 8.607 0 0 0-1.005-1.004zM9.29.076a10.124 10.124 0 0 1 1.421 0V1.5a8.678 8.678 0 0 0-1.421 0V.077z" fill="#fff" stroke="#fff" stroke-width=".1"/>
        <path d="M5.686 6.02c.071-.09.146-.178.222-.266.003-.005.01-.005.014-.01.007-.008.018-.014.025-.022l.007-.009c.052-.05.107-.103.172-.15.215-.171.455-.306.713-.4.798-.286 1.687-.11 2.385.563.973.933.885 2.436.109 3.435-.983 1.49-2.67 3.567-.333 5.428.42.335.731.61 2.054 1.001-.865.163-1.667.113-2.56-.12-.632-.365-1.626-1.146-1.963-2.2-.512-1.6.899-3.99 1.58-4.91.936-1.275-.578-2.653-1.693-1.114-.583.803-1.601 3.073-1.247 4.758.206.955.483 1.651 1.577 2.608a5.17 5.17 0 0 1-.59-.417c-2.544-2.422-2.249-6.167-.472-8.174z" fill="url(#b)"/>
        <path d="M14.343 13.665c-.07.091-.146.179-.221.267-.004.004-.011.005-.015.01-.006.008-.018.013-.024.022l-.007.008c-.052.05-.108.104-.173.151-.214.17-.455.305-.712.4-.799.286-1.688.109-2.385-.564-.973-.933-.886-2.436-.11-3.435.983-1.489 2.67-3.566.334-5.427-.42-.335-.732-.61-2.055-1.002.865-.163 1.668-.112 2.56.12.633.366 1.626 1.146 1.964 2.201.511 1.599-.9 3.99-1.58 4.91-.936 1.274.577 2.653 1.692 1.113.583-.802 1.602-3.073 1.248-4.757-.207-.955-.483-1.652-1.578-2.608.203.122.4.261.591.417 2.543 2.421 2.248 6.166.471 8.174z" fill="url(#c)"/>
    </g>
    <defs>
        <linearGradient id="b" x1="4.301" y1="9.843" x2="15.729" y2="9.843" gradientUnits="userSpaceOnUse">
            <stop stop-color="#0082FA"/>
            <stop offset="1" stop-color="#00F2FE"/>
        </linearGradient>
        <linearGradient id="c" x1="4.3" y1="9.842" x2="15.729" y2="9.842" gradientUnits="userSpaceOnUse">
            <stop stop-color="#0082FA"/>
            <stop offset="1" stop-color="#00F2FE"/>
        </linearGradient>
        <clipPath id="a">
            <path fill="#fff" d="M0 0h20v20H0z"/>
        </clipPath>
    </defs>
</svg>
