<svg width="20" height="20" viewBox="0 0 20 20" fill="none" xmlns="http://www.w3.org/2000/svg">
    <path d="M10 19.285a9.285 9.285 0 1 0 0-18.57 9.285 9.285 0 0 0 0 18.57z" fill="#fff"/>
    <path d="M10 19.999a9.935 9.935 0 0 1-7.072-2.929A9.932 9.932 0 0 1 0 10a9.933 9.933 0 0 1 2.928-7.072A9.933 9.933 0 0 1 10 0a9.933 9.933 0 0 1 7.071 2.928A9.932 9.932 0 0 1 20 10a9.933 9.933 0 0 1-2.929 7.071A9.936 9.936 0 0 1 10 20zm0-18.57a8.58 8.58 0 0 0-8.571 8.57 8.58 8.58 0 0 0 8.57 8.571A8.58 8.58 0 0 0 18.57 10 8.58 8.58 0 0 0 10 1.428z" fill="#031435"/>
    <path opacity=".7" d="M9.284 19.974v-1.433a8.528 8.528 0 0 0 1.429 0v1.434a10.203 10.203 0 0 1-1.429 0zm6.247-3.433a8.634 8.634 0 0 0 1.01-1.01l1.016 1.016a9.879 9.879 0 0 1-1.01 1.01l-1.016-1.016zm-12.602.53c-.17-.17-.332-.345-.488-.524l1.017-1.016c.308.364.646.702 1.01 1.01L3.45 17.557a10.298 10.298 0 0 1-.523-.487h.001zm15.611-6.358a8.699 8.699 0 0 0 0-1.428h1.434a10.204 10.204 0 0 1 0 1.428H18.54zm-18.515 0a10.222 10.222 0 0 1 0-1.428h1.433a8.737 8.737 0 0 0 0 1.428H.025zm2.416-7.261a10.062 10.062 0 0 1 1.01-1.01l1.017 1.015a8.669 8.669 0 0 0-1.01 1.011L2.44 3.452zm13.09.005 1.016-1.015a10.29 10.29 0 0 1 1.01 1.01L16.54 4.468a8.638 8.638 0 0 0-1.01-1.01h.001zM9.284.025a10.225 10.225 0 0 1 1.429 0v1.432a8.65 8.65 0 0 0-1.429 0V.026z" fill="#fff"/>
    <path d="M10.001 16.002a6.001 6.001 0 1 0 0-12.002 6.001 6.001 0 0 0 0 12.002z" fill="#00B1FF"/>
    <path d="m10.863 10.43-.425.424 2.918 2.917.425-.424-2.918-2.918zM6.647 6.226l-.424.424L9.14 9.57l.424-.425-2.917-2.917zm6.703.004-2.914 2.921.424.424 2.916-2.92-.425-.423V6.23zm-4.203 4.205-2.915 2.92.425.424 2.915-2.92-.425-.424z" fill="#fff"/>
</svg>
