<svg width="20" height="20" viewBox="0 0 20 20" fill="none" xmlns="http://www.w3.org/2000/svg">
<g clip-path="url(#clip0)">
<path d="M10.0001 18.9554C14.946 18.9554 18.9554 14.946 18.9554 10.0001C18.9554 5.05431 14.946 1.04492 10.0001 1.04492C5.05431 1.04492 1.04492 5.05431 1.04492 10.0001C1.04492 14.946 5.05431 18.9554 10.0001 18.9554Z" fill="white"/>
<path d="M10.0009 19.9501C8.03295 19.9501 6.10919 19.3665 4.47291 18.2732C2.83662 17.1798 1.5613 15.6258 0.808196 13.8077C0.0550961 11.9895 -0.141952 9.98886 0.24197 8.05872C0.625891 6.12858 1.57354 4.35562 2.96508 2.96406C3.88577 2.02567 4.98329 1.27904 6.19421 0.767285C7.40514 0.255534 8.70547 -0.0111862 10.0201 -0.0174646C11.3347 -0.0237431 12.6375 0.230545 13.8533 0.730706C15.069 1.23087 16.1736 1.96699 17.1032 2.89653C18.0329 3.82608 18.7691 4.93063 19.2693 6.14635C19.7695 7.36208 20.0239 8.66488 20.0177 9.97949C20.0116 11.2941 19.7449 12.5944 19.2333 13.8054C18.7216 15.0164 17.975 16.1139 17.0367 17.0347C16.115 17.9618 15.0186 18.6968 13.8109 19.1972C12.6032 19.6977 11.3082 19.9536 10.0009 19.9501V19.9501ZM10.0009 1.47052C8.31419 1.47052 6.66536 1.97068 5.2629 2.90774C3.86044 3.84481 2.76734 5.1767 2.12182 6.73499C1.4763 8.29329 1.30735 10.008 1.63634 11.6623C1.96533 13.3166 2.77747 14.8362 3.97009 16.029C5.1627 17.2217 6.68222 18.0341 8.33649 18.3633C9.99076 18.6924 11.7055 18.5237 13.2639 17.8783C14.8222 17.233 16.1543 16.1401 17.0915 14.7377C18.0287 13.3354 18.5291 11.6866 18.5293 9.99988C18.5269 7.73865 17.6276 5.5707 16.0288 3.97168C14.43 2.37266 12.2621 1.47316 10.0009 1.47052V1.47052Z" fill="#4C4FF2"/>
<path opacity="0.41" d="M9.28959 19.9264V18.4995C9.52441 18.5188 9.76156 18.5284 10.001 18.5284C10.2405 18.5284 10.4773 18.5188 10.7115 18.4995V19.9264C10.476 19.943 10.2392 19.9513 10.001 19.9513C9.76289 19.9513 9.52574 19.943 9.28959 19.9264ZM15.5055 16.5095C15.8673 16.2027 16.2031 15.8666 16.5095 15.5045L17.5204 16.5165C17.3659 16.6949 17.2043 16.868 17.0359 17.0359C16.8674 17.2037 16.6942 17.3652 16.5165 17.5204L15.5055 16.5095ZM2.96819 17.0359C2.7997 16.8674 2.63785 16.6942 2.48262 16.5165L3.49357 15.5045C3.80029 15.8666 4.13642 16.2028 4.49854 16.5095L3.48561 17.5204C3.30717 17.3665 3.1337 17.205 2.96521 17.0359H2.96819ZM18.5025 10.7115C18.5224 10.4767 18.5324 10.2398 18.5324 10C18.5324 9.76023 18.5224 9.52441 18.5035 9.28959H19.9304C19.9443 9.52441 19.9513 9.76156 19.9513 10.001C19.9513 10.2405 19.943 10.4776 19.9264 10.7125L18.5025 10.7115ZM0.0786419 10.7115C0.0600681 10.476 0.0507812 10.2392 0.0507812 10.001C0.0507812 9.76289 0.0590731 9.52607 0.0756569 9.29058H1.50252C1.48329 9.52541 1.47367 9.76222 1.47367 10.001C1.47367 10.2408 1.48362 10.4776 1.50352 10.7125L0.0786419 10.7115ZM2.48063 3.48561C2.63519 3.30717 2.79705 3.13403 2.9662 2.9662C3.13536 2.79838 3.30882 2.63652 3.4866 2.48063L4.49655 3.49058C4.13454 3.79742 3.79842 4.13355 3.49158 4.49556L2.48063 3.48561ZM15.5055 3.49158L16.5165 2.48063C16.6942 2.63586 16.8677 2.79771 17.0368 2.9662C17.206 3.13469 17.3675 3.30783 17.5214 3.48561L16.5105 4.49556C16.2037 4.13376 15.8676 3.79796 15.5055 3.49158V3.49158ZM9.28959 0.0756569C9.52508 0.0590731 9.76222 0.0507812 10.001 0.0507812C10.2398 0.0507812 10.4767 0.0590731 10.7115 0.0756569V1.50053C10.4773 1.4813 10.2405 1.47168 10.001 1.47168C9.76156 1.47168 9.52441 1.48163 9.28959 1.50153V0.0756569Z" fill="white" stroke="white" stroke-width="0.1"/>
<path fill-rule="evenodd" clip-rule="evenodd" d="M13.0312 11.8447C13.0312 12.8111 12.2421 13.5972 11.272 13.5972H7.89926L11.4044 10.1054C12.3117 10.1742 13.0312 10.9235 13.0312 11.8447ZM7.40194 9.95724V5.90462H11.2797C11.346 5.90462 11.4114 5.90818 11.4757 5.91539L7.40194 9.95724ZM13.7367 7.64923C13.7367 6.83255 13.3327 6.10813 12.713 5.66291L14.3856 4L13.385 4.00571L12.0561 5.32676C11.8102 5.24467 11.547 5.2001 11.2735 5.2001H6.69878V11.6424L12.2066 6.16637C12.7027 6.47615 13.0332 7.02503 13.0332 7.64923C13.0332 8.61393 12.2439 9.3987 11.2735 9.3987H11.1279L5 15.4912H5.9949L7.19629 14.2967H11.2735C12.6317 14.2967 13.7367 13.1982 13.7367 11.8478C13.7367 10.9572 13.2547 10.1786 12.5379 9.74987C13.2554 9.32129 13.7367 8.54024 13.7367 7.64923Z" fill="#4520E6"/>
</g>
<defs>
<clipPath id="clip0">
<rect width="20" height="20" fill="white"/>
</clipPath>
</defs>
</svg>
