<svg width="20" height="20" viewBox="0 0 20 20" fill="none" xmlns="http://www.w3.org/2000/svg">
    <path d="M10 19.284a9.285 9.285 0 1 0 0-18.57 9.285 9.285 0 0 0 0 18.57z" fill="#fff"/>
    <path d="M10 19.999a9.935 9.935 0 0 1-7.072-2.929A9.932 9.932 0 0 1 0 10a9.933 9.933 0 0 1 2.928-7.072A9.933 9.933 0 0 1 10 0a9.933 9.933 0 0 1 7.071 2.928A9.932 9.932 0 0 1 20 10a9.933 9.933 0 0 1-2.929 7.071A9.936 9.936 0 0 1 10 20zm0-18.57a8.58 8.58 0 0 0-8.571 8.57 8.58 8.58 0 0 0 8.57 8.571A8.58 8.58 0 0 0 18.57 10 8.58 8.58 0 0 0 10 1.428z" fill="#292929"/>
    <path opacity=".7" d="M9.286 19.974v-1.433a8.528 8.528 0 0 0 1.429 0v1.434a10.206 10.206 0 0 1-1.429 0zm6.247-3.433a8.626 8.626 0 0 0 1.01-1.01l1.016 1.016a9.879 9.879 0 0 1-1.01 1.01l-1.016-1.016zm-12.602.53c-.17-.17-.332-.345-.488-.524l1.017-1.016c.308.364.646.702 1.01 1.01l-1.017 1.016a10.298 10.298 0 0 1-.523-.487h.001zm15.611-6.358a8.743 8.743 0 0 0 0-1.428h1.434a10.265 10.265 0 0 1 0 1.428h-1.434zm-18.515 0a10.222 10.222 0 0 1 0-1.428H1.46a8.732 8.732 0 0 0 0 1.428H.027zm2.416-7.261a10.062 10.062 0 0 1 1.01-1.01L4.47 3.457a8.669 8.669 0 0 0-1.01 1.011L2.443 3.452zm13.09.005 1.016-1.015a10.29 10.29 0 0 1 1.01 1.01l-1.017 1.016a8.63 8.63 0 0 0-1.01-1.01h.001zM9.286.025a10.225 10.225 0 0 1 1.429 0v1.432a8.651 8.651 0 0 0-1.429 0V.026z" fill="#fff"/>
    <path d="M11.064 4.886a.311.311 0 0 1 .571.153l.171 3.262c.008.134.1.25.23.284l3.156.846a.311.311 0 0 1 .03.59l-3.049 1.171a.311.311 0 0 0-.199.307l.171 3.262a.311.311 0 0 1-.553.212l-2.055-2.539a.311.311 0 0 0-.353-.094l-3.05 1.17a.311.311 0 0 1-.372-.46l1.779-2.74a.311.311 0 0 0-.02-.364L5.466 7.407a.311.311 0 0 1 .322-.496l3.155.845a.311.311 0 0 0 .342-.13l1.779-2.74z" fill="url(#vb1m3kmbxa)"/>
    <path fill-rule="evenodd" clip-rule="evenodd" d="M8.31 16.31A6.533 6.533 0 1 0 11.69 3.69 6.533 6.533 0 0 0 8.31 16.31zm-.121.452a7 7 0 1 0 3.623-13.524A7 7 0 0 0 8.19 16.762z" fill="url(#ti0czoopvb)"/>
    <defs>
        <linearGradient id="vb1m3kmbxa" x1="7.014" y1="6.195" x2="12.09" y2="15.899" gradientUnits="userSpaceOnUse">
            <stop stop-color="#CD7176"/>
            <stop offset=".229" stop-color="#D9AE29"/>
            <stop offset=".495" stop-color="#AFE38F"/>
            <stop offset=".724" stop-color="#65C7D1"/>
            <stop offset="1" stop-color="#187DD0"/>
        </linearGradient>
        <linearGradient id="ti0czoopvb" x1="6.288" y1="3.57" x2="14.135" y2="16.543" gradientUnits="userSpaceOnUse">
            <stop stop-color="#A63C00"/>
            <stop offset=".168" stop-color="#775AA8"/>
            <stop offset=".337" stop-color="#DFC136"/>
            <stop offset=".589" stop-color="#AADFBD"/>
            <stop offset=".859" stop-color="#3596DD"/>
            <stop offset=".974" stop-color="#003390"/>
        </linearGradient>
    </defs>
</svg>
