<svg width="20" height="20" viewBox="0 0 20 20" fill="none" xmlns="http://www.w3.org/2000/svg">
    <g clip-path="url(#a)">
        <path d="M10.002 18.955a8.955 8.955 0 1 0 0-17.91 8.955 8.955 0 0 0 0 17.91z" fill="#fff"/>
        <path d="M10 19.95A9.95 9.95 0 0 1 2.966 2.964a9.95 9.95 0 1 1 14.072 14.07A9.883 9.883 0 0 1 10 19.95zm0-18.48A8.528 8.528 0 1 0 18.53 10 8.539 8.539 0 0 0 10 1.47z" fill="#ED6C53"/>
        <path opacity=".41" d="M9.29 19.926V18.5a8.682 8.682 0 0 0 1.421 0v1.426a10.101 10.101 0 0 1-1.421 0zm6.216-3.416a8.608 8.608 0 0 0 1.003-1.006l1.011 1.013a9.71 9.71 0 0 1-.484.519c-.169.168-.342.33-.52.484l-1.01-1.01zm-12.538.526c-.168-.169-.33-.342-.485-.52l1.01-1.011c.307.362.643.698 1.006 1.004L3.486 17.52a9.415 9.415 0 0 1-.52-.484h.002zm15.535-6.325a8.417 8.417 0 0 0 0-1.421h1.427c.014.234.021.472.021.711 0 .24-.008.477-.025.712l-1.423-.002zm-18.424 0a9.032 9.032 0 0 1-.028-.71c0-.238.008-.475.025-.71h1.427a8.701 8.701 0 0 0 0 1.421H.08zM2.48 3.486c.154-.179.316-.352.485-.52.17-.168.343-.33.52-.485l1.01 1.01a8.644 8.644 0 0 0-1.004 1.005L2.48 3.486zm13.024.006 1.011-1.011c.178.155.352.317.52.485.17.169.331.342.485.52l-1.01 1.01a8.607 8.607 0 0 0-1.005-1.004zM9.29.076a10.124 10.124 0 0 1 1.421 0V1.5a8.678 8.678 0 0 0-1.421 0V.077z" fill="#fff" stroke="#fff" stroke-width=".1"/>
        <path fill-rule="evenodd" clip-rule="evenodd" d="M11.71 5.158a9.335 9.335 0 0 1 2.043 1.703c1.24 1.084 2.213 2.517 2.023 4.005-.158 1.212-1.252 2.88-3.871 3.929-.394.159-.799.289-1.212.389-.06.027-.121.055-.182.079-.929.368-1.84.564-2.635.564-.701 0-1.277-.157-1.662-.451-.843-.644-1.248-2.292-1.212-4.903.037-2.497.37-4.043 1.038-4.789.231-.777.563-1.284 1.005-1.547.912-.545 2.83-.125 4.666 1.02zM7.618 14.5c.06.066.121.121.186.172.568.432 1.597.503 2.789.224 1.544-.66 2.5-1.535 3.015-2.371-.603.558-1.414 1.083-2.472 1.507-.928.37-1.84.566-2.635.566-.324 0-.62-.036-.883-.098zm-.292-.42c.819.376 2.213.262 3.692-.33 1.447-.581 2.404-1.35 2.98-2.112a2.32 2.32 0 0 0 .069-.345c.234-1.834-1.472-3.608-3.15-4.656-1.167-.73-2.35-1.158-3.25-1.213-.605.687-.917 2.194-.953 4.585-.029 1.908.178 3.27.612 4.07zm7.077-3.094c.162-.322.255-.636.292-.922.134-1.056-.377-2.096-1.151-2.98a9.313 9.313 0 0 0-1.225-.907c-1.22-.76-2.508-1.216-3.453-1.216-.364 0-.66.067-.88.196l-.007.004c.916.122 2.026.546 3.109 1.221 1.653 1.032 3.335 2.76 3.315 4.605zM7.272 5.43c-.271.02-.503.082-.685.192a1.296 1.296 0 0 0-.263.208c-.235.817-.361 1.951-.381 3.415-.033 2.277.267 3.78.891 4.475-.312-.867-.458-2.107-.433-3.713.032-2.28.312-3.768.871-4.577zm.255-.302c.088-.088.186-.164.292-.228.734-.444 2.132-.251 3.616.447-1.188-.722-2.428-1.15-3.34-1.15-.365 0-.66.067-.88.2-.283.17-.522.475-.709.923.272-.137.62-.2 1.022-.192zm-.685 9.016C6 13.5 5.59 11.851 5.631 9.241c.012-.998.077-1.846.19-2.552-.312.832-.478 2.084-.503 3.784-.036 2.512.329 4.078 1.09 4.663.564.428 1.59.503 2.777.224-.66-.016-1.204-.169-1.572-.451a2.023 2.023 0 0 1-.511-.6 2.381 2.381 0 0 1-.26-.166zm8.16-4.039c-.065.503-.288 1.084-.718 1.664-.227.79-.83 1.704-1.937 2.501 2.083-.997 2.98-2.402 3.113-3.439.11-.836-.19-1.664-.71-2.414.223.542.325 1.111.252 1.688z" fill="#ED6C53"/>
    </g>
    <defs>
        <clipPath id="a">
            <path fill="#fff" d="M0 0h20v20H0z"/>
        </clipPath>
    </defs>
</svg>
