<svg width="20" height="20" viewBox="0 0 20 20" fill="none" xmlns="http://www.w3.org/2000/svg">
    <g clip-path="url(#4nu4hvzp3a)">
        <path d="M10.002 18.955a8.955 8.955 0 1 0 0-17.91 8.955 8.955 0 0 0 0 17.91z" fill="#fff"/>
        <path d="M10 19.95A9.95 9.95 0 0 1 2.966 2.964a9.95 9.95 0 1 1 14.072 14.07A9.883 9.883 0 0 1 10 19.95zm0-18.48A8.528 8.528 0 1 0 18.53 10 8.539 8.539 0 0 0 10 1.47z" fill="#3D1E17"/>
        <path opacity=".41" d="M9.29 19.926V18.5a8.682 8.682 0 0 0 1.421 0v1.426a10.101 10.101 0 0 1-1.421 0zm6.216-3.416a8.608 8.608 0 0 0 1.003-1.006l1.011 1.013a9.71 9.71 0 0 1-.484.519c-.169.168-.342.33-.52.484l-1.01-1.01zm-12.538.526c-.168-.169-.33-.342-.485-.52l1.01-1.011c.307.362.643.698 1.006 1.004L3.486 17.52a9.415 9.415 0 0 1-.52-.484h.002zm15.535-6.325a8.417 8.417 0 0 0 0-1.421h1.427c.014.234.021.472.021.711 0 .24-.008.477-.025.712l-1.423-.002zm-18.424 0a9.032 9.032 0 0 1-.028-.71c0-.238.008-.475.025-.71h1.427a8.701 8.701 0 0 0 0 1.421H.08zM2.48 3.486c.154-.179.316-.352.485-.52.17-.168.343-.33.52-.485l1.01 1.01a8.644 8.644 0 0 0-1.004 1.005L2.48 3.486zm13.024.006 1.011-1.011c.178.155.352.317.52.485.17.169.331.342.485.52l-1.01 1.01a8.607 8.607 0 0 0-1.005-1.004zM9.29.076a10.124 10.124 0 0 1 1.421 0V1.5a8.678 8.678 0 0 0-1.421 0V.077z" fill="#fff" stroke="#fff" stroke-width=".1"/>
        <path fill-rule="evenodd" clip-rule="evenodd" d="M10.235 4A5.929 5.929 0 0 1 15.3 6.843a3.09 3.09 0 0 0-3.132 3.086 3.086 3.086 0 0 0 3.132 3.086 5.93 5.93 0 0 1-5.172 2.844 5.936 5.936 0 0 1-5.067-3.026 5.927 5.927 0 0 1 2.222-8.048A5.936 5.936 0 0 1 10.235 4z" fill="#FFC780"/>
        <path fill-rule="evenodd" clip-rule="evenodd" d="M15.303 6.84a3.09 3.09 0 0 0-3.132 3.087 3.084 3.084 0 0 0 3.132 3.086l-.019.03a4.2 4.2 0 0 1-7.018-3.12A4.194 4.194 0 0 1 10.78 6.09a4.2 4.2 0 0 1 4.523.752V6.84z" fill="url(#ohf4v31rlb)"/>
    </g>
    <defs>
        <linearGradient id="ohf4v31rlb" x1="11.783" y1="14.131" x2="11.783" y2="5.736" gradientUnits="userSpaceOnUse">
            <stop stop-color="#FFC780"/>
            <stop offset="1" stop-color="#964B48"/>
        </linearGradient>
        <clipPath id="4nu4hvzp3a">
            <path fill="#fff" d="M0 0h20v20H0z"/>
        </clipPath>
    </defs>
</svg>
