<svg xmlns="http://www.w3.org/2000/svg" width="19.999" height="19.999" viewBox="0 0 19.999 19.999">
    <defs>
        <clipPath id="clip-path">
            <path id="패스_2979" d="M38.79 56.213a4.078 4.078 0 0 1-2.765 2.562c-.723.127-.824.33-.643.52a2.86 2.86 0 0 0 .457.076 4.227 4.227 0 0 0 3.045-2.081 3.146 3.146 0 0 0 .342-.929c-.114-.143-.241-.267-.33-.267-.051 0-.076.025-.1.114" class="cls-1" transform="translate(-35.303 -56.094)"/>
        </clipPath>
        <clipPath id="clip-path-2">
            <path id="사각형_2666" d="M0 0H5.582V0.571H0z" class="cls-1"/>
        </clipPath>
        <clipPath id="clip-path-3">
            <path id="패스_2980" d="M11.8 21.4v2.093l5.863 4.389a4.253 4.253 0 0 0 .685-.888 3.53 3.53 0 0 0 .429-1.446L13.22 21.4z" class="cls-1" transform="translate(-11.8 -21.4)"/>
        </clipPath>
        <clipPath id="clip-path-4">
            <path id="패스_2981" d="M29.9 21.313l4.707 3.527V21.3H29.9z" class="cls-1" transform="translate(-29.9 -21.3)"/>
        </clipPath>
        <clipPath id="clip-path-5">
            <path id="패스_2982" d="M11.783 43.477a5.183 5.183 0 0 0 .47 2.639A4.18 4.18 0 0 0 15.3 48.2a3.809 3.809 0 0 0 1.94-.821L11.783 43.3z" class="cls-1" transform="translate(-11.765 -43.3)"/>
        </clipPath>
        <style>
            .cls-1{fill:#01aae4}.cls-3{fill:#142d51}
        </style>
    </defs>
    <g id="token-sentinel" transform="translate(5414 13448.324)">
        <circle id="타원_116" cx="8.99" cy="8.99" r="8.99" fill="#fff" transform="translate(-5413.306 -13447)"/>
        <g id="그룹_1488" transform="translate(-5414 -13448.324)">
            <path id="제외_2" d="M-415-5970a9.935 9.935 0 0 1-7.071-2.929A9.935 9.935 0 0 1-425-5980a9.934 9.934 0 0 1 2.928-7.072A9.93 9.93 0 0 1-415-5990a9.93 9.93 0 0 1 7.071 2.928A9.933 9.933 0 0 1-405-5980a9.934 9.934 0 0 1-2.928 7.071A9.936 9.936 0 0 1-415-5970zm0-18.571a8.58 8.58 0 0 0-8.571 8.571 8.581 8.581 0 0 0 8.571 8.572 8.58 8.58 0 0 0 8.571-8.571 8.58 8.58 0 0 0-8.571-8.572z" class="cls-3" transform="translate(425 5990)"/>
            <path id="교차_4" fill="#fff" stroke="#fff" stroke-width="0.1px" d="M-412.775-5967.156v-1.424q.355.03.71.03c.236 0 .473-.009.71-.029v1.424q-.355.025-.71.025c-.235 0-.473-.009-.71-.026zm6.206-3.411a8.56 8.56 0 0 0 1-1l1.01 1.01q-.231.266-.484.519t-.519.484zm-12.52.526c-.168-.168-.33-.342-.485-.52l1.01-1.01a8.607 8.607 0 0 0 1 1l-1.01 1.009q-.267-.231-.52-.484zm15.51-6.315q.029-.354.029-.709c0-.237-.01-.473-.029-.709h1.424c.017.237.025.473.025.709s-.008.473-.025.709zm-18.395 0q-.025-.354-.025-.709c0-.237.008-.473.025-.709h1.424c-.019.237-.029.473-.029.709s.01.473.029.709zm2.4-7.215q.232-.266.485-.519t.519-.485l1.009 1.01a8.554 8.554 0 0 0-1 1zm13 .006l1.009-1.01q.267.233.519.485t.484.519l-1.01 1.01a8.587 8.587 0 0 0-1-1zm-6.206-3.411q.355-.024.71-.024t.71.024v1.422q-.351-.029-.71-.029t-.71.03z" opacity="0.41" transform="translate(422.065 5987.066)"/>
        </g>
        <g id="그룹_5470" transform="translate(-5409.023 -13443)">
            <path id="패스_2977" d="M11.051 10.5v4.022a7.071 7.071 0 0 1-.634 3.6 5.8 5.8 0 0 1-4.2 2.842 5.855 5.855 0 0 1-4.2-2.854 7.044 7.044 0 0 1-.634-3.6V10.5z" class="cls-3" transform="translate(-1.195 -10.343)"/>
            <path id="패스_2978" fill="#00b6fa" d="M5.048 20.061h-.014A5.993 5.993 0 0 1 .7 17.144a6.78 6.78 0 0 1-.657-3.463V9.269H10.05v4.409a6.659 6.659 0 0 1-.671 3.465A5.986 5.986 0 0 1 5.06 20.06zM.357 9.581v4.1a6.524 6.524 0 0 0 .613 3.3 5.674 5.674 0 0 0 4.075 2.764A5.668 5.668 0 0 0 9.11 16.98a6.4 6.4 0 0 0 .626-3.3v-4.1z" transform="translate(-.025 -9.269)"/>
            <g id="그룹_5457" transform="translate(4.492 5.937)">
                <g id="그룹_5456">
                    <g id="그룹_5455" clip-path="url(#clip-path)">
                        <path id="사각형_2664" d="M0 0H4.009V3.286H0z" class="cls-1" transform="translate(-.103 .004)"/>
                    </g>
                </g>
            </g>
            <g id="그룹_5460" transform="translate(2.371 1.552)">
                <g id="그룹_5459">
                    <g id="그룹_5458" clip-path="url(#clip-path-2)">
                        <path id="사각형_2665" d="M0 0H5.582V0.571H0z" class="cls-1"/>
                    </g>
                </g>
            </g>
            <g id="그룹_5463" transform="translate(1.508 1.552)">
                <g id="그룹_5462">
                    <g id="그룹_5461" clip-path="url(#clip-path-3)">
                        <path id="사각형_2667" d="M0 0H6.964V6.483H0z" class="cls-1"/>
                    </g>
                </g>
            </g>
            <g id="그룹_5466" transform="translate(3.805 1.539)">
                <g id="그룹_5465">
                    <g id="그룹_5464" clip-path="url(#clip-path-4)">
                        <path id="사각형_2668" d="M0 0H4.719V3.527H0z" class="cls-1" transform="translate(0 .013)"/>
                    </g>
                </g>
            </g>
            <g id="그룹_5469" transform="translate(1.489 4.318)">
                <g id="그룹_5468">
                    <g id="그룹_5467" clip-path="url(#clip-path-5)">
                        <path id="사각형_2669" d="M0 0H5.493V4.91H0z" class="cls-1" transform="translate(-.032)"/>
                    </g>
                </g>
            </g>
        </g>
    </g>
</svg>
