<svg width="20" height="20" viewBox="0 0 20 20" fill="none" xmlns="http://www.w3.org/2000/svg">
    <g clip-path="url(#rghu0nglka)">
        <path d="M10 18.955a8.955 8.955 0 1 0 0-17.91 8.955 8.955 0 0 0 0 17.91z" fill="#fff"/>
        <path d="M10 19.95A9.95 9.95 0 0 1 2.966 2.964a9.95 9.95 0 1 1 14.072 14.07A9.883 9.883 0 0 1 10 19.95zm0-18.48A8.528 8.528 0 1 0 18.53 10 8.539 8.539 0 0 0 10 1.47z" fill="#122951"/>
        <path opacity=".41" d="M9.29 19.926V18.5a8.682 8.682 0 0 0 1.421 0v1.426a10.101 10.101 0 0 1-1.421 0zm6.216-3.416a8.608 8.608 0 0 0 1.003-1.006l1.011 1.013a9.71 9.71 0 0 1-.484.519c-.169.168-.342.33-.52.484l-1.01-1.01zm-12.538.526c-.168-.169-.33-.342-.485-.52l1.01-1.011c.307.362.643.698 1.006 1.004L3.486 17.52a9.415 9.415 0 0 1-.52-.484h.002zm15.535-6.325a8.417 8.417 0 0 0 0-1.421h1.427c.014.234.021.472.021.711 0 .24-.008.477-.025.712l-1.423-.002zm-18.424 0a9.032 9.032 0 0 1-.028-.71c0-.238.008-.475.025-.71h1.427a8.701 8.701 0 0 0 0 1.421H.08zM2.48 3.486c.154-.179.316-.352.485-.52.17-.168.343-.33.52-.485l1.01 1.01a8.644 8.644 0 0 0-1.004 1.005L2.48 3.486zm13.024.006 1.011-1.011c.178.155.352.317.52.485.17.169.331.342.485.52l-1.01 1.01a8.607 8.607 0 0 0-1.005-1.004zM9.29.076a10.124 10.124 0 0 1 1.421 0V1.5a8.678 8.678 0 0 0-1.421 0V.077z" fill="#fff" stroke="#fff" stroke-width=".1"/>
        <path d="M7.14 4.38v4.334c0 .146.14.266.287.266.146 0 .285-.12.285-.266V4.6c.264-.046.561-.07.85-.07a5.302 5.302 0 0 1 5.31 4.854.26.26 0 0 0 .284.24.261.261 0 0 0 .239-.288 5.842 5.842 0 0 0-1.877-3.79A5.855 5.855 0 0 0 8.548 4c-.398 0-.803.04-1.19.12a.272.272 0 0 0-.217.26zM8.69 15.458v.018a.265.265 0 0 0 .284.246 5.87 5.87 0 0 0 5.424-5.355.265.265 0 1 0-.53-.046c-.217 2.592-2.338 4.686-4.933 4.872a.269.269 0 0 0-.246.265z" fill="#122951"/>
        <path d="M8.285 5.414V9.72a.264.264 0 1 0 .528 0V5.69c2.155.138 3.92 1.957 3.92 4.175 0 .997-.355 1.961-1.002 2.718a.265.265 0 1 0 .403.345 4.709 4.709 0 0 0 1.129-3.063c0-1.259-.491-2.443-1.382-3.334a4.685 4.685 0 0 0-3.334-1.382.265.265 0 0 0-.262.266z" fill="#99D7FD"/>
        <path d="m8.69 13.12.001.034c.019.145.15.25.295.23a3.547 3.547 0 0 0 .812-6.835.271.271 0 0 0-.368.247v3.75a.264.264 0 1 0 .528 0V7.21a3.036 3.036 0 0 1 1.6 2.658 3.011 3.011 0 0 1-2.638 2.989.265.265 0 0 0-.23.264zM7.416 9.628a.618.618 0 1 0 0-1.235.618.618 0 0 0 0 1.235zM8.698 16.065a.618.618 0 1 0 0-1.235.618.618 0 0 0 0 1.235z" fill="#122951"/>
    </g>
    <defs>
        <clipPath id="rghu0nglka">
            <path fill="#fff" d="M0 0h20v20H0z"/>
        </clipPath>
    </defs>
</svg>
