<svg width="20" height="20" fill="none" xmlns="http://www.w3.org/2000/svg">
    <g clip-path="url(#a)">
        <path d="M10 18.955a8.955 8.955 0 1 0 0-17.91 8.955 8.955 0 0 0 0 17.91z" fill="#fff"/>
        <path d="M10 19.95A9.95 9.95 0 0 1 2.966 2.964a9.95 9.95 0 1 1 14.072 14.07A9.883 9.883 0 0 1 10 19.95zm0-18.48A8.528 8.528 0 1 0 18.53 10 8.539 8.539 0 0 0 10 1.47z" fill="#43AD6B"/>
        <path opacity=".41" d="M9.29 19.926V18.5a8.682 8.682 0 0 0 1.421 0v1.426a10.101 10.101 0 0 1-1.421 0zm6.216-3.416a8.608 8.608 0 0 0 1.003-1.006l1.011 1.013a9.71 9.71 0 0 1-.484.519c-.169.168-.342.33-.52.484l-1.01-1.01zm-12.538.526c-.168-.169-.33-.342-.485-.52l1.01-1.011c.307.362.643.698 1.006 1.004L3.486 17.52a9.415 9.415 0 0 1-.52-.484h.002zm15.535-6.325a8.417 8.417 0 0 0 0-1.421h1.427c.014.234.021.472.021.711 0 .24-.008.477-.025.712l-1.423-.002zm-18.424 0a9.032 9.032 0 0 1-.028-.71c0-.238.008-.475.025-.71h1.427a8.701 8.701 0 0 0 0 1.421H.08zM2.48 3.486c.154-.179.316-.352.485-.52.17-.168.343-.33.52-.485l1.01 1.01a8.644 8.644 0 0 0-1.004 1.005L2.48 3.486zm13.024.006 1.011-1.011c.178.155.352.317.52.485.17.169.331.342.485.52l-1.01 1.01a8.607 8.607 0 0 0-1.005-1.004zM9.29.076a10.124 10.124 0 0 1 1.421 0V1.5a8.678 8.678 0 0 0-1.421 0V.077z" fill="#fff" stroke="#fff" stroke-width=".1"/>
        <path d="M9.115 7.834v.007l-.728-3.846-.605-.194-.38.512 1.713 3.52zM9.51 6.23l.31 1.49.333-1.513-.325-.217-.318.24zM11.81 6.492l-.396.039-.465 1.474 1.023-1.156-.162-.357zM15.191 6.803v-.629l-.612-.194-2.868 2.692 3.48-1.87zM8.185 8.395l-.853-1.28.016.031-.016-.03-.387.061-.062.388 1.302.83zM13.67 9.691l-1.527.303 1.526.333.233-.318-.232-.318zM7.501 10.002 3.58 9.506l-.38.512.38.512 3.922-.528zM6.05 10.86l-.116.365.317.232 1.357-.76-1.558.163zM6.504 11.935l-.016.388.372.131 1.085-1.14-1.441.62zM8.454 11.846l-1.155 1.016.1.372.396.015.659-1.403zM9.824 12.291l-.31 1.505.317.225.318-.233-.325-1.497zM15.199 13.207l-3.488-1.854 2.883 2.676.605-.194v-.628zM11.351 13.494l-.783-1.31.179 1.504.372.117.232-.31zM9.123 12.184l-1.697 3.528.38.512.604-.194.713-3.846z" fill="#43AD6B"/>
    </g>
    <defs>
        <clipPath id="a">
            <path fill="#fff" d="M0 0h20v20H0z"/>
        </clipPath>
    </defs>
</svg>
