<svg width="22" height="21" viewBox="0 0 22 21" fill="none" xmlns="http://www.w3.org/2000/svg">
    <path d="M11 20.285a9.285 9.285 0 1 0 0-18.57 9.285 9.285 0 0 0 0 18.57z" fill="#fff"/>
    <path d="M11 20.999a9.934 9.934 0 0 1-7.072-2.929A9.933 9.933 0 0 1 1 11a9.933 9.933 0 0 1 2.928-7.072A9.933 9.933 0 0 1 11 1a9.933 9.933 0 0 1 7.071 2.928A9.932 9.932 0 0 1 21 11a9.933 9.933 0 0 1-2.929 7.071A9.936 9.936 0 0 1 11 21zm0-18.57a8.58 8.58 0 0 0-8.571 8.57 8.58 8.58 0 0 0 8.57 8.571A8.58 8.58 0 0 0 19.57 11 8.58 8.58 0 0 0 11 2.428z" fill="#6758FF"/>
    <path opacity=".7" d="M10.286 20.974v-1.433a8.53 8.53 0 0 0 1.429 0v1.434a10.206 10.206 0 0 1-1.429 0zm6.247-3.433a8.626 8.626 0 0 0 1.01-1.01l1.016 1.016a9.879 9.879 0 0 1-1.01 1.01l-1.016-1.016zm-12.602.53c-.17-.17-.332-.345-.488-.524l1.017-1.016c.308.364.646.702 1.01 1.01l-1.017 1.016a10.298 10.298 0 0 1-.523-.487h.001zm15.611-6.358a8.743 8.743 0 0 0 0-1.428h1.434a10.262 10.262 0 0 1 0 1.428h-1.434zm-18.515 0a10.225 10.225 0 0 1 0-1.428H2.46a8.73 8.73 0 0 0 0 1.428H1.027zm2.416-7.261a10.062 10.062 0 0 1 1.01-1.01L5.47 4.457a8.669 8.669 0 0 0-1.01 1.011L3.444 4.452zm13.09.005 1.016-1.015a10.29 10.29 0 0 1 1.01 1.01l-1.017 1.016a8.63 8.63 0 0 0-1.01-1.01h.001zm-6.247-3.432a10.224 10.224 0 0 1 1.429 0v1.432a8.651 8.651 0 0 0-1.429 0V1.026z" fill="#fff"/>
    <path fill-rule="evenodd" clip-rule="evenodd" d="M11.248 12.797c3.278-.403 5.777-2.016 5.582-3.603-.195-1.587-3.01-2.548-6.288-2.145-3.278.402-5.777 2.015-5.582 3.602.195 1.588 3.01 2.548 6.288 2.146z" fill="#fff"/>
    <path fill-rule="evenodd" clip-rule="evenodd" d="M14.893 7.224c1.153.393 1.986 1.062 2.095 1.95.11.89-.537 1.74-1.561 2.4-1.035.668-2.503 1.179-4.161 1.382-1.658.204-3.206.064-4.372-.334-1.153-.393-1.986-1.062-2.095-1.95-.11-.89.537-1.74 1.561-2.4 1.035-.668 2.503-1.179 4.161-1.382 1.658-.204 3.206-.064 4.372.334zm-.104.303c-1.11-.379-2.608-.518-4.229-.319-1.62.2-3.04.697-4.026 1.333-.996.643-1.502 1.393-1.416 2.091.085.698.758 1.304 1.88 1.687 1.11.378 2.609.518 4.229.319l.02.159-.02-.16c1.62-.198 3.04-.696 4.026-1.332.996-.643 1.502-1.393 1.416-2.091-.085-.698-.758-1.304-1.88-1.687z" fill="#979797"/>
    <path fill-rule="evenodd" clip-rule="evenodd" d="M11.185 12.346c3.079-.378 5.442-1.765 5.278-3.098-.164-1.334-2.792-2.108-5.87-1.73-3.08.378-5.442 1.765-5.278 3.098.163 1.334 2.792 2.108 5.87 1.73z" fill="#000002"/>
    <path fill-rule="evenodd" clip-rule="evenodd" d="M11.01 16.07c1.686.117 3.255-1.797 3.937-4.545.016-.064-.051.008-.173.065-.21.099-.605.268-1.198.446-.811.244-1.966.466-2.358.523-.407.06-1.23.082-1.937.077-.417-.003-.73.019-.96-.012-.159-.022-.313-.136-.282-.02.531 2 1.617 3.37 2.971 3.466z" fill="#6758FF"/>
    <path fill-rule="evenodd" clip-rule="evenodd" d="M12.378 14.875c.932-.198 1.378-1.374 1.338-1.565-.04-.19-.567.609-1.5.807-.932.198-1.902.205-1.861.396.025.12.573.378 1.18.399.354.012.498.037.843-.037z" fill="#FF7FA7"/>
    <g filter="url(#huglv8z0ka)">
        <path fill-rule="evenodd" clip-rule="evenodd" d="M11.111 11.659c2.43 0 4.768 2 4.768-2.48S13.191 8.12 10.762 8.12c-2.43 0-4.33-1.404-4.33 3.076s2.25.463 4.68.463z" fill="#FFD5E2" fill-opacity=".102"/>
    </g>
    <g filter="url(#h770ru45ab)">
        <path fill-rule="evenodd" clip-rule="evenodd" d="M15.915 7.811c.082.352.125.802.125 1.369 0 1.127-.146 1.877-.425 2.358-.29.496-.711.688-1.198.721-.463.031-.996-.08-1.54-.194l-.029-.006c-.563-.119-1.149-.24-1.737-.24-.565 0-1.132.235-1.678.538-.257.143-.505.298-.744.447l-.04.026c-.25.156-.491.306-.715.42-.222.114-.441.201-.647.221a.685.685 0 0 1-.58-.2c-.156-.159-.262-.405-.33-.736-.07-.334-.106-.774-.106-1.339 0-1.127.12-1.905.349-2.434.234-.54.585-.82 1.024-.939.424-.113.919-.072 1.435-.011.093.01.186.022.28.034.444.056.912.114 1.403.114.573 0 1.171-.202 1.762-.452.182-.077.366-.16.547-.24.392-.177.774-.348 1.114-.451.5-.152.996-.183 1.353.197.171.183.295.446.377.797zm-3.266-.007c-.597.252-1.245.477-1.887.477-.513 0-1.004-.061-1.449-.117l-.271-.033c-.523-.062-.959-.093-1.314.002-.34.091-.616.3-.814.756-.203.468-.322 1.194-.322 2.307 0 .555.035.97.098 1.274.064.306.153.481.246.576.085.087.186.119.32.106.145-.014.32-.079.531-.187a9.886 9.886 0 0 0 .734-.434c.237-.149.492-.308.757-.455.559-.31 1.184-.578 1.833-.578.627 0 1.245.13 1.803.246.568.12 1.064.223 1.482.195.401-.027.716-.175.941-.563.236-.404.382-1.084.382-2.196 0-.554-.042-.977-.116-1.296-.075-.32-.18-.523-.299-.65-.223-.238-.55-.254-1.026-.11-.32.097-.67.254-1.05.425-.186.083-.379.17-.58.255z" fill="#979797" fill-opacity=".102"/>
    </g>
    <defs>
        <filter id="huglv8z0ka" x=".477" y=".916" width="21.357" height="18.355" filterUnits="userSpaceOnUse" color-interpolation-filters="sRGB">
            <feFlood flood-opacity="0" result="BackgroundImageFix"/>
            <feBlend in="SourceGraphic" in2="BackgroundImageFix" result="shape"/>
            <feGaussianBlur stdDeviation="2.977" result="effect1_foregroundBlur_3810_54737"/>
        </filter>
        <filter id="h770ru45ab" x=".317" y=".756" width="21.677" height="18.675" filterUnits="userSpaceOnUse" color-interpolation-filters="sRGB">
            <feFlood flood-opacity="0" result="BackgroundImageFix"/>
            <feBlend in="SourceGraphic" in2="BackgroundImageFix" result="shape"/>
            <feGaussianBlur stdDeviation="2.977" result="effect1_foregroundBlur_3810_54737"/>
        </filter>
    </defs>
</svg>
