<svg width="20" height="20" viewBox="0 0 20 20" fill="none" xmlns="http://www.w3.org/2000/svg">
    <path d="M10 19.284a9.285 9.285 0 1 0 0-18.57 9.285 9.285 0 0 0 0 18.57z" fill="#fff"/>
    <path d="M10 19.999a9.935 9.935 0 0 1-7.072-2.929A9.932 9.932 0 0 1 0 10a9.933 9.933 0 0 1 2.928-7.072A9.933 9.933 0 0 1 10 0a9.933 9.933 0 0 1 7.071 2.928A9.932 9.932 0 0 1 20 10a9.933 9.933 0 0 1-2.929 7.071A9.936 9.936 0 0 1 10 20zm0-18.57a8.58 8.58 0 0 0-8.571 8.57 8.58 8.58 0 0 0 8.57 8.571A8.58 8.58 0 0 0 18.57 10 8.58 8.58 0 0 0 10 1.428z" fill="#292929"/>
    <path opacity=".7" d="M9.286 19.974v-1.433a8.528 8.528 0 0 0 1.429 0v1.434a10.206 10.206 0 0 1-1.429 0zm6.247-3.433a8.626 8.626 0 0 0 1.01-1.01l1.016 1.016a9.879 9.879 0 0 1-1.01 1.01l-1.016-1.016zm-12.602.53c-.17-.17-.332-.345-.488-.524l1.017-1.016c.308.364.646.702 1.01 1.01l-1.017 1.016a10.298 10.298 0 0 1-.523-.487h.001zm15.611-6.358a8.743 8.743 0 0 0 0-1.428h1.434a10.265 10.265 0 0 1 0 1.428h-1.434zm-18.515 0a10.222 10.222 0 0 1 0-1.428H1.46a8.732 8.732 0 0 0 0 1.428H.027zm2.416-7.261a10.062 10.062 0 0 1 1.01-1.01L4.47 3.457a8.669 8.669 0 0 0-1.01 1.011L2.443 3.452zm13.09.005 1.016-1.015a10.29 10.29 0 0 1 1.01 1.01l-1.017 1.016a8.63 8.63 0 0 0-1.01-1.01h.001zM9.286.025a10.225 10.225 0 0 1 1.429 0v1.432a8.651 8.651 0 0 0-1.429 0V.026z" fill="#fff"/>
    <path d="m10.804 9.294 3.174-3.113L12.774 5l-2.572 2.523L7.63 5 6.425 6.181 9.6 9.294a.858.858 0 0 0 .602.245.857.857 0 0 0 .602-.245zm4.595 3.326-2.572-2.522L15.4 7.575l-1.204-1.181-3.174 3.113a.831.831 0 0 0-.25.59.822.822 0 0 0 .25.591l3.174 3.114 1.204-1.182zm-5.201.057 2.572 2.522 1.204-1.18-3.174-3.114a.861.861 0 0 0-1.205 0l-3.174 3.113L7.625 15.2l2.573-2.522zm-.82-1.985a.833.833 0 0 0 .25-.59.823.823 0 0 0-.25-.59L6.206 6.397 5 7.58l2.572 2.523L5 12.624l1.204 1.182 3.175-3.114z" fill="#000"/>
</svg>
