<svg width="20" height="20" viewBox="0 0 20 20" fill="none" xmlns="http://www.w3.org/2000/svg">
    <path d="M10 19.285a9.285 9.285 0 1 0 0-18.57 9.285 9.285 0 0 0 0 18.57z" fill="#fff"/>
    <path d="M10 19.999a9.935 9.935 0 0 1-7.072-2.929A9.932 9.932 0 0 1 0 10a9.933 9.933 0 0 1 2.928-7.072A9.933 9.933 0 0 1 10 0a9.933 9.933 0 0 1 7.071 2.928A9.932 9.932 0 0 1 20 10a9.933 9.933 0 0 1-2.929 7.071A9.936 9.936 0 0 1 10 20zm0-18.57a8.58 8.58 0 0 0-8.571 8.57 8.58 8.58 0 0 0 8.57 8.571A8.58 8.58 0 0 0 18.57 10 8.58 8.58 0 0 0 10 1.428z" fill="#000"/>
    <path opacity=".7" d="M9.284 19.974v-1.433a8.528 8.528 0 0 0 1.429 0v1.434a10.203 10.203 0 0 1-1.429 0zm6.247-3.433a8.634 8.634 0 0 0 1.01-1.01l1.016 1.016a9.879 9.879 0 0 1-1.01 1.01l-1.016-1.016zm-12.602.53c-.17-.17-.332-.345-.488-.524l1.017-1.016c.308.364.646.702 1.01 1.01L3.45 17.557a10.298 10.298 0 0 1-.523-.487h.001zm15.611-6.358a8.699 8.699 0 0 0 0-1.428h1.434a10.204 10.204 0 0 1 0 1.428H18.54zm-18.515 0a10.222 10.222 0 0 1 0-1.428h1.433a8.737 8.737 0 0 0 0 1.428H.025zm2.416-7.261a10.062 10.062 0 0 1 1.01-1.01l1.017 1.015a8.669 8.669 0 0 0-1.01 1.011L2.44 3.452zm13.09.005 1.016-1.015a10.29 10.29 0 0 1 1.01 1.01L16.54 4.468a8.638 8.638 0 0 0-1.01-1.01h.001zM9.284.025a10.225 10.225 0 0 1 1.429 0v1.432a8.65 8.65 0 0 0-1.429 0V.026z" fill="#fff"/>
    <path d="M8.317 14.841a.248.248 0 0 1-.082-.162l-.47-4.992h1.67v5.592a.248.248 0 0 1-.411.186l-.707-.624z" fill="url(#g867y3f4ka)"/>
    <path d="M9.434 9.587V8.89l-1.758-.152.08.849h1.678z" fill="url(#eyph9ta5wb)"/>
    <path d="m9.436 8.793-1.768-.152-.276-2.94a.248.248 0 0 1 .246-.271h1.55c.137 0 .248.11.248.247v3.116z" fill="url(#g4uo4qz9pc)"/>
    <path d="M12.7 9.59h1.271a.124.124 0 0 0 .124-.123v-.73a.124.124 0 0 0-.136-.123l-1.181.115-.079.862z" fill="url(#fmgso0d9rd)"/>
    <path d="m12.675 8.738-1.76.172v.68h1.682l.078-.852z" fill="url(#d2jz2ofqme)"/>
    <path d="M10.817 8.918v.67h-4.69a.124.124 0 0 1-.123-.123v-.732c0-.072.062-.13.134-.123l4.168.356h.023l.488-.048z" fill="url(#iso8useuuf)"/>
    <path d="M11.338 15.449a.248.248 0 0 1-.424-.174V7.594h1.868l-.65 6.97a.248.248 0 0 1-.07.15l-.724.735z" fill="url(#5rhzp3fl5g)"/>
    <path d="M12.791 7.496h-1.877V6.43l1.989-.124-.112 1.191z" fill="url(#cyla0nffzh)"/>
    <path d="M10.914 5.677v.65l1.998-.124.047-.503a.248.248 0 0 0-.247-.27h-1.55a.248.248 0 0 0-.248.247z" fill="url(#507lhk5v8i)"/>
    <path d="M9.435 7.494V6.43L7.45 6.332l.109 1.162h1.877z" fill="url(#97uvqg2tjj)"/>
    <path d="M9.535 7.494h5.007a.1.1 0 0 0 .099-.1v-1.1a.099.099 0 0 0-.106-.098l-4.3.273-.7-.035v1.06z" fill="url(#6t11movvkk)"/>
    <path d="m7.342 6.327.118 1.168H5.455a.099.099 0 0 1-.1-.1V6.334c0-.056.048-.101.104-.099l1.883.093z" fill="url(#4sip1if8bl)"/>
    <defs>
        <linearGradient id="g867y3f4ka" x1="5.355" y1="10.478" x2="14.64" y2="10.478" gradientUnits="userSpaceOnUse">
            <stop stop-color="#5433FF"/>
            <stop offset=".5" stop-color="#20BDFF"/>
            <stop offset="1" stop-color="#A5FECB"/>
        </linearGradient>
        <linearGradient id="eyph9ta5wb" x1="5.354" y1="10.476" x2="14.639" y2="10.476" gradientUnits="userSpaceOnUse">
            <stop stop-color="#5433FF"/>
            <stop offset=".5" stop-color="#20BDFF"/>
            <stop offset="1" stop-color="#A5FECB"/>
        </linearGradient>
        <linearGradient id="g4uo4qz9pc" x1="5.356" y1="10.479" x2="14.641" y2="10.479" gradientUnits="userSpaceOnUse">
            <stop stop-color="#5433FF"/>
            <stop offset=".5" stop-color="#20BDFF"/>
            <stop offset="1" stop-color="#A5FECB"/>
        </linearGradient>
        <linearGradient id="fmgso0d9rd" x1="5.359" y1="10.48" x2="14.64" y2="10.48" gradientUnits="userSpaceOnUse">
            <stop stop-color="#5433FF"/>
            <stop offset=".5" stop-color="#20BDFF"/>
            <stop offset="1" stop-color="#A5FECB"/>
        </linearGradient>
        <linearGradient id="d2jz2ofqme" x1="5.353" y1="10.48" x2="14.638" y2="10.48" gradientUnits="userSpaceOnUse">
            <stop stop-color="#5433FF"/>
            <stop offset=".5" stop-color="#20BDFF"/>
            <stop offset="1" stop-color="#A5FECB"/>
        </linearGradient>
        <linearGradient id="iso8useuuf" x1="5.355" y1="10.478" x2="14.64" y2="10.478" gradientUnits="userSpaceOnUse">
            <stop stop-color="#5433FF"/>
            <stop offset=".5" stop-color="#20BDFF"/>
            <stop offset="1" stop-color="#A5FECB"/>
        </linearGradient>
        <linearGradient id="5rhzp3fl5g" x1="5.353" y1="10.479" x2="14.638" y2="10.479" gradientUnits="userSpaceOnUse">
            <stop stop-color="#5433FF"/>
            <stop offset=".5" stop-color="#20BDFF"/>
            <stop offset="1" stop-color="#A5FECB"/>
        </linearGradient>
        <linearGradient id="cyla0nffzh" x1="5.353" y1="10.48" x2="14.638" y2="10.48" gradientUnits="userSpaceOnUse">
            <stop stop-color="#5433FF"/>
            <stop offset=".5" stop-color="#20BDFF"/>
            <stop offset="1" stop-color="#A5FECB"/>
        </linearGradient>
        <linearGradient id="507lhk5v8i" x1="5.353" y1="10.479" x2="14.638" y2="10.479" gradientUnits="userSpaceOnUse">
            <stop stop-color="#5433FF"/>
            <stop offset=".5" stop-color="#20BDFF"/>
            <stop offset="1" stop-color="#A5FECB"/>
        </linearGradient>
        <linearGradient id="97uvqg2tjj" x1="5.355" y1="10.478" x2="14.64" y2="10.478" gradientUnits="userSpaceOnUse">
            <stop stop-color="#5433FF"/>
            <stop offset=".5" stop-color="#20BDFF"/>
            <stop offset="1" stop-color="#A5FECB"/>
        </linearGradient>
        <linearGradient id="6t11movvkk" x1="5.356" y1="10.478" x2="14.641" y2="10.478" gradientUnits="userSpaceOnUse">
            <stop stop-color="#5433FF"/>
            <stop offset=".5" stop-color="#20BDFF"/>
            <stop offset="1" stop-color="#A5FECB"/>
        </linearGradient>
        <linearGradient id="4sip1if8bl" x1="5.355" y1="10.479" x2="14.64" y2="10.479" gradientUnits="userSpaceOnUse">
            <stop stop-color="#5433FF"/>
            <stop offset=".5" stop-color="#20BDFF"/>
            <stop offset="1" stop-color="#A5FECB"/>
        </linearGradient>
    </defs>
</svg>
