<svg width="20" height="20" fill="none" xmlns="http://www.w3.org/2000/svg">
    <g clip-path="url(#a)">
        <path d="M10.002 18.955a8.955 8.955 0 1 0 0-17.91 8.955 8.955 0 0 0 0 17.91z" fill="#fff"/>
        <path d="M10 19.95A9.95 9.95 0 0 1 2.966 2.964a9.95 9.95 0 1 1 14.072 14.07A9.883 9.883 0 0 1 10 19.95zm0-18.48A8.528 8.528 0 1 0 18.53 10 8.539 8.539 0 0 0 10 1.47z" fill="#F0DBC1"/>
        <path opacity=".41" d="M9.29 19.926V18.5a8.682 8.682 0 0 0 1.421 0v1.426a10.101 10.101 0 0 1-1.421 0zm6.216-3.416a8.608 8.608 0 0 0 1.003-1.006l1.011 1.013a9.71 9.71 0 0 1-.484.519c-.169.168-.342.33-.52.484l-1.01-1.01zm-12.538.526c-.168-.169-.33-.342-.485-.52l1.01-1.011c.307.362.643.698 1.006 1.004L3.486 17.52a9.415 9.415 0 0 1-.52-.484h.002zm15.535-6.325a8.417 8.417 0 0 0 0-1.421h1.427c.014.234.021.472.021.711 0 .24-.008.477-.025.712l-1.423-.002zm-18.424 0a9.032 9.032 0 0 1-.028-.71c0-.238.008-.475.025-.71h1.427a8.701 8.701 0 0 0 0 1.421H.08zM2.48 3.486c.154-.179.316-.352.485-.52.17-.168.343-.33.52-.485l1.01 1.01a8.644 8.644 0 0 0-1.004 1.005L2.48 3.486zm13.024.006 1.011-1.011c.178.155.352.317.52.485.17.169.331.342.485.52l-1.01 1.01a8.607 8.607 0 0 0-1.005-1.004zM9.29.076a10.124 10.124 0 0 1 1.421 0V1.5a8.678 8.678 0 0 0-1.421 0V.077z" fill="#fff" stroke="#fff" stroke-width=".1"/>
        <path d="M6.816 12.813c0-1.77 1.383-3.215 3.178-3.215 1.646 0 2.967 1.43 2.967 3.165-.002.18-.014.358-.037.536H8.25c.2.985.997 1.496 1.92 1.496a3.15 3.15 0 0 0 1.769-.536l.548 1.022c-.69.473-1.507.73-2.345.735-1.755 0-3.326-1.171-3.326-3.203zm4.798-.532a1.692 1.692 0 0 0-1.697-1.474c-.798 0-1.496.585-1.683 1.47l3.38.004z" fill="#636466"/>
        <path d="M15 6.91a.397.397 0 0 1-.28-.115 6.826 6.826 0 0 0-9.666 0 .395.395 0 0 1-.556-.559 7.617 7.617 0 0 1 10.782 0 .395.395 0 0 1-.28.677V6.91z" fill="#296FA8"/>
        <path d="M13.884 8.02a.39.39 0 0 1-.28-.116 5.25 5.25 0 0 0-7.435 0 .395.395 0 0 1-.557-.558 6.039 6.039 0 0 1 8.55 0 .395.395 0 0 1-.28.677l.002-.002z" fill="#296FA8"/>
        <path d="M12.769 9.138a.396.396 0 0 1-.28-.116 3.672 3.672 0 0 0-5.2 0 .395.395 0 0 1-.558-.558 4.463 4.463 0 0 1 6.32 0 .394.394 0 0 1-.278.674h-.004z" fill="#296FA8"/>
    </g>
    <defs>
        <clipPath id="a">
            <path fill="#fff" d="M0 0h20v20H0z"/>
        </clipPath>
    </defs>
</svg>
