<svg xmlns="http://www.w3.org/2000/svg" id="chain-fetchai" width="20.001" height="20" viewBox="0 0 20.001 20">
    <defs>
        <style>
            .cls-4{fill:#151d37}
        </style>
    </defs>
    <circle id="타원_116" cx="9" cy="9" r="9" fill="#fff" transform="translate(1 1)"/>
    <g id="그룹_1488" transform="translate(0 -.237)">
        <path id="제외_2" fill="#253361" d="M10 20A10 10 0 0 1 2.929 2.929 10 10 0 1 1 17.071 17.07 9.934 9.934 0 0 1 10 20zm0-18.572A8.571 8.571 0 1 0 18.571 10 8.581 8.581 0 0 0 10 1.428z" transform="translate(0 .237)"/>
        <path id="교차_4" fill="#fff" d="M9.285 19.975v-1.434q.354.029.715.029t.714-.029v1.434Q10.359 20 10 20t-.715-.025zm6.247-3.434a8.647 8.647 0 0 0 1.009-1.01l1.016 1.017q-.233.269-.487.522t-.522.487zm-12.6.529q-.254-.254-.488-.522l1.016-1.017a8.652 8.652 0 0 0 1.01 1.01l-1.018 1.016q-.269-.232-.523-.487zm15.612-6.356c.02-.236.03-.474.03-.715s-.01-.478-.029-.714h1.434Q20 9.639 20 10t-.025.715zm-18.516 0Q0 10.359 0 10t.025-.714h1.434Q1.43 9.64 1.43 10c0 .241.01.479.03.715zm2.414-7.262q.233-.269.488-.522t.523-.488l1.015 1.015a8.688 8.688 0 0 0-1.01 1.01zm13.09.006l1.016-1.016q.268.234.523.488t.487.522l-1.016 1.015a8.646 8.646 0 0 0-1.01-1.009zM9.285.025Q9.64 0 10 0t.714.025v1.432q-.353-.029-.714-.029t-.715.03z" opacity="0.41" transform="translate(0 .237)"/>
    </g>
    <g id="그룹_5490" transform="translate(5.224 4.989)">
        <path id="사각형_2681" d="M0 0H1.187V1.187H0z" class="cls-4"/>
        <path id="사각형_2682" d="M0 0H1.187V1.187H0z" class="cls-4" transform="translate(2.966)"/>
        <path id="사각형_2683" d="M0 0H1.187V1.187H0z" class="cls-4" transform="translate(5.933)"/>
        <path id="사각형_2684" d="M0 0H1.187V1.187H0z" class="cls-4" transform="translate(0 2.966)"/>
        <path id="사각형_2685" d="M0 0H1.187V1.187H0z" class="cls-4" transform="translate(2.966 2.966)"/>
        <path id="사각형_2686" d="M0 0H1.187V1.187H0z" class="cls-4" transform="translate(0 5.931)"/>
        <circle id="타원_435" cx=".297" cy=".297" r=".297" class="cls-4" transform="translate(9.196 .297)"/>
        <circle id="타원_436" cx=".297" cy=".297" r=".297" class="cls-4" transform="translate(9.196 3.263)"/>
        <circle id="타원_437" cx=".297" cy=".297" r=".297" class="cls-4" transform="translate(9.196 6.227)"/>
        <circle id="타원_438" cx=".297" cy=".297" r=".297" class="cls-4" transform="translate(9.196 9.194)"/>
        <circle id="타원_439" cx=".297" cy=".297" r=".297" class="cls-4" transform="translate(6.23 3.263)"/>
        <circle id="타원_440" cx=".297" cy=".297" r=".297" class="cls-4" transform="translate(6.23 6.227)"/>
        <circle id="타원_441" cx=".297" cy=".297" r=".297" class="cls-4" transform="translate(6.23 9.194)"/>
        <circle id="타원_442" cx=".297" cy=".297" r=".297" class="cls-4" transform="translate(3.263 6.227)"/>
        <circle id="타원_443" cx=".297" cy=".297" r=".297" class="cls-4" transform="translate(3.263 9.194)"/>
        <circle id="타원_444" cx=".297" cy=".297" r=".297" class="cls-4" transform="translate(.297 9.194)"/>
    </g>
</svg>
