<svg xmlns="http://www.w3.org/2000/svg" width="20.1" height="20.1" viewBox="0 0 20.1 20.1">
    <defs>
        <style>
            .cls-2{fill:#ff564f}
        </style>
    </defs>
    <g id="chain-kava" transform="translate(.05 .05)">
        <circle id="타원_116" cx="8.697" cy="8.697" r="8.697" fill="#fff" transform="translate(1.455 1.149)"/>
        <g id="그룹_1488" transform="translate(0 -.309)">
            <path id="제외_2" d="M10 20A10 10 0 0 1 2.929 2.929a10 10 0 1 1 14.142 14.142A9.934 9.934 0 0 1 10 20zm0-18.572A8.571 8.571 0 1 0 18.571 10 8.581 8.581 0 0 0 10 1.428z" class="cls-2" transform="translate(0 .309)"/>
            <path id="교차_4" fill="#fff" stroke="#fff" stroke-width="0.1px" d="M9.285 19.975v-1.434q.354.03.715.03t.714-.029v1.433Q10.359 20 10 20t-.715-.025zm6.247-3.434a8.618 8.618 0 0 0 1.009-1.01l1.016 1.017q-.233.269-.487.522t-.522.487zm-12.6.53q-.254-.254-.488-.523l1.016-1.016a8.621 8.621 0 0 0 1.01 1.01l-1.018 1.016q-.269-.233-.523-.487zm15.612-6.357q.029-.354.03-.716c0-.24-.01-.478-.029-.714h1.434c.017.237.025.475.025.714s-.008.479-.025.716zm-18.516 0Q0 10.359 0 10c0-.239.008-.477.025-.714h1.434c-.02.236-.029.473-.029.714s.01.48.03.716zm2.414-7.262c.156-.179.318-.353.488-.522s.344-.332.523-.488l1.015 1.015a8.662 8.662 0 0 0-1.01 1.011zm13.09.006l1.016-1.016q.269.234.523.488c.169.169.332.344.487.522l-1.016 1.016a8.618 8.618 0 0 0-1.01-1.01zM9.285.025Q9.64 0 10 0t.714.025v1.432q-.353-.029-.714-.029c-.241 0-.479.01-.715.03z" opacity="0.41" transform="translate(0 .309)"/>
        </g>
        <g id="그룹_3965" transform="translate(6 5.2)">
            <path id="사각형_1871" d="M0 0H9.931V1.733H0z" class="cls-2" transform="rotate(90 .867 .867)"/>
            <path id="패스_2077" d="M215.941 119.051l-3.8-4.966 3.8-4.966h2.173l-3.745 4.966 3.745 4.966z" class="cls-2" transform="translate(-209.468 -109.12)"/>
        </g>
    </g>
</svg>
